<svg width="1324" height="835" viewBox="0 0 1324 835" fill="none" xmlns="http://www.w3.org/2000/svg">
<g clip-path="url(#clip0)">
<path opacity="0.1" d="M617.83 167.77C553.11 165.11 491.47 140.4 432.61 113.36C373.75 86.32 315.41 56.36 252.27 42.03C211.64 32.82 165.18 31.52 132.41 57.28C100.91 82.08 90.7302 124.88 85.2602 164.6C81.1402 194.48 78.7202 225.93 90.0002 253.9C97.8302 273.32 111.74 289.65 121.36 308.25C154.83 372.98 131.17 452.79 94.9102 516C77.9102 545.64 58.1602 573.93 45.0302 605.49C31.9002 637.05 25.8302 673.21 37.3202 705.4C48.7002 737.31 75.8302 761.28 105.22 778.14C164.91 812.38 235.22 822.14 303.83 827.73C455.65 840.01 608.29 834.73 760.52 829.37C816.85 827.37 873.44 825.37 928.86 815.09C959.64 809.37 991.41 800.29 1013.75 778.36C1042.12 750.53 1049.15 703.36 1030.14 668.5C998.26 609.96 910.14 595.42 887.83 532.59C875.57 498.01 888.16 459.49 905.99 427.42C944.22 358.62 1008.32 298.26 1011.69 219.62C1014.01 165.62 983.2 111.52 935.56 85.97C885.63 59.18 816.38 62.55 779.56 106.89C741.64 152.55 674.98 170.12 617.83 167.77Z" fill="#B3AC1E"/>
<path d="M425.89 297.54L372.61 305.89L345.31 308.49L338.03 309.19C338.03 309.19 325.03 311.25 323.76 309.19C322.49 307.13 297.44 309.19 297.44 309.19C297.44 309.19 282.22 291.05 246.06 300.63C242.409 302.792 238.296 304.054 234.06 304.31C234.055 304.237 234.055 304.163 234.06 304.09C234.19 299.92 233.67 285.54 220.98 277.67C217.371 278.043 213.869 279.116 210.67 280.83L210.38 280.99L209.52 281.49L209.41 281.61C209.784 279.964 210.038 278.293 210.17 276.61C210.17 275.98 210.17 275.35 210.24 274.72C211.696 274.316 212.969 273.427 213.85 272.2C214.212 271.472 214.367 270.66 214.3 269.85C214.3 269.56 214.3 269.26 214.3 268.97C214.295 268.907 214.295 268.843 214.3 268.78C214.3 268.78 214.3 268.78 214.3 268.84C214.09 265.878 213.656 262.936 213 260.04L216.92 262.64C217.86 263.26 219.04 263.92 220.16 263.57C220.52 263.442 220.845 263.231 221.109 262.955C221.372 262.679 221.568 262.345 221.68 261.98C222.38 260.08 221.87 257.81 223.35 256.24C223.7 255.87 224.14 255.57 224.44 255.18C224.848 254.646 225.044 253.98 224.99 253.31C224.994 252.921 224.964 252.533 224.9 252.15V252.23C224.641 251.251 224.6 250.227 224.78 249.23C225.303 249.434 225.877 249.463 226.418 249.314C226.959 249.164 227.436 248.844 227.78 248.4C228.318 247.557 228.583 246.569 228.54 245.57C228.63 243.88 228.7 242.15 228.66 240.43C228.665 240.397 228.665 240.363 228.66 240.33V240.33C228.56 236.26 227.79 232.25 224.99 229C225.72 224.34 220.65 219.26 214.99 218.62C213.6 218.47 211.89 218.39 211.27 217.34C211.06 216.841 210.968 216.3 211 215.76C210.86 213.99 209.64 212.42 208.47 210.93C207.994 210.279 207.421 209.706 206.77 209.23C204.91 208.03 202.27 208.35 199.97 208.76C195.757 209.5 191.57 210.327 187.41 211.24C186.911 209.227 186.942 207.118 187.5 205.12C187.887 204.12 188.123 203.069 188.2 202C188.219 201.663 188.182 201.325 188.09 201V201.13C188.032 200.963 187.965 200.8 187.89 200.64C187.691 200.274 187.404 199.964 187.054 199.737C186.705 199.51 186.305 199.374 185.89 199.34C185.347 199.322 184.811 199.462 184.346 199.742C183.881 200.023 183.507 200.432 183.27 200.92C180.89 204.385 179.24 208.298 178.42 212.42C176.833 211.313 174.995 210.62 173.072 210.403C171.15 210.187 169.203 210.454 167.41 211.18C166.507 211.667 165.531 212.004 164.52 212.18C163.679 212.182 162.852 211.965 162.12 211.549C161.389 211.134 160.779 210.534 160.35 209.81C159.2 208.1 158.69 206.06 156.47 204.93C155.975 204.676 155.426 204.544 154.87 204.544C154.314 204.544 153.765 204.676 153.27 204.93C153.011 205.066 152.781 205.253 152.596 205.48C152.41 205.707 152.272 205.969 152.19 206.25C152.195 206.2 152.195 206.15 152.19 206.1C152.175 206.246 152.175 206.394 152.19 206.54C152.19 206.6 152.19 206.66 152.19 206.72C152.19 206.78 152.19 206.87 152.19 206.94C152.11 208.87 153.46 211.37 151.93 212.89C151.316 213.403 150.6 213.781 149.83 214L144.39 215.95C141.485 217.156 138.413 217.912 135.28 218.19C132.43 218.29 129.55 217.66 126.74 217.73C126.608 217.663 126.481 217.586 126.36 217.5C125.733 217.533 125.108 217.607 124.49 217.72C124.551 217.798 124.618 217.872 124.69 217.94H124.49C125.923 219.532 127.812 220.643 129.9 221.12C131.19 221.44 132.55 221.54 133.8 221.94C135.05 222.34 136.24 223.14 136.46 224.24C136.483 225.161 136.262 226.072 135.82 226.88L135.77 226.8C135.639 227.155 135.575 227.531 135.58 227.91C135.556 228.089 135.556 228.271 135.58 228.45C135.799 229.079 136.239 229.608 136.819 229.937C137.398 230.266 138.077 230.374 138.73 230.24L132.3 234.29C131.821 234.577 131.372 234.912 130.96 235.29L130.78 235.24C130.597 235.419 130.453 235.634 130.357 235.872C130.26 236.109 130.214 236.364 130.22 236.62C130.199 236.816 130.223 237.014 130.29 237.2L132.36 237.79L126.71 245.61C126.366 246.064 126.064 246.55 125.81 247.06L125.75 246.96C125.622 247.278 125.554 247.617 125.55 247.96C125.53 248.129 125.53 248.301 125.55 248.47C125.598 248.751 125.706 249.019 125.866 249.255C126.026 249.491 126.235 249.69 126.479 249.838C126.722 249.987 126.994 250.082 127.278 250.117C127.561 250.152 127.848 250.125 128.12 250.04C126.882 251.282 125.885 252.744 125.18 254.35L125.09 254.29L125 254.5C124.859 254.814 124.787 255.155 124.79 255.5C124.748 255.763 124.801 256.033 124.94 256.26C125.194 256.527 125.508 256.729 125.856 256.849C126.204 256.969 126.576 257.003 126.94 256.95C129.94 256.95 132.73 254.9 133.2 252.45C134.12 253.45 133.13 254.64 132.26 255.67C128.72 259.81 125.12 264.02 123.26 268.85C122.606 270.507 122.208 272.254 122.08 274.03C122.08 274.03 122.08 273.95 122.08 273.91C122.08 274.04 122.08 274.17 122.08 274.3C121.829 277.616 122.876 280.901 125 283.46C125.786 284.257 126.49 285.131 127.1 286.07C128.22 288.15 127.58 290.82 129.32 292.58C130.724 288.838 132.423 285.213 134.4 281.74C134.369 282.68 134.228 283.613 133.98 284.52V284.44C133.98 284.68 133.9 284.91 133.88 285.14C133.87 285.31 133.87 285.48 133.88 285.65C133.834 286.253 133.98 286.855 134.298 287.369C134.616 287.883 135.09 288.283 135.65 288.51C137.42 289.14 139.25 287.86 140.45 286.58C140.62 287.02 140.79 287.45 140.98 287.88C144.702 296.16 151.429 302.718 159.8 306.23L159.96 306.56C153.21 310.56 137.52 320.29 136.5 324.02C135.19 328.78 135.66 341.3 145.06 343.84C147.094 344.395 149.205 344.617 151.31 344.5C150.91 345.13 150.52 345.77 150.14 346.39C147.54 350.61 145.36 354.52 144.7 356.62C142.8 362.75 125.04 370.17 125.04 370.17C125.04 370.17 108.86 383.17 105.38 408.17C105.38 408.17 88.2501 430.43 78.7401 435.07C69.2301 439.71 52.7401 468.15 52.7401 468.15C52.7401 468.15 36.4101 479.61 32.9401 490.78C29.4701 501.95 20.9401 504.7 20.9401 504.7C20.9401 504.7 21.7201 505.08 22.9401 505.84C22.5501 506.05 22.1401 506.29 21.6801 506.57C13.9201 511.19 -3.20992 523.84 0.580077 543.57C4.26008 562.57 25.7401 544.08 36.1801 533.74L37.1201 532.8C36.9604 533.865 36.74 534.92 36.4601 535.96C38.7185 532.435 41.5197 529.29 44.7601 526.64C48.2471 523.823 51.1109 520.312 53.1701 516.33C54.7501 513.33 57.2801 510.33 61.1701 509.33C69.7301 507.17 113.17 473.78 122.7 456.46C132.23 439.14 152.19 432.46 152.19 432.46L161.35 461.11C162.747 465.491 162.992 470.157 162.06 474.66C160.06 484.42 157.55 503.28 163.61 517.95C163.61 517.95 163.89 517.69 164.4 517.26C165.23 520.98 166.29 525.87 167.25 530.68C167.48 531.86 167.7 533.04 167.91 534.2C168.52 537.47 169.03 540.54 169.32 542.99C170.59 553.51 174.08 577.63 176.93 580.1C179.78 582.57 195.93 632.66 195.93 632.66C195.93 632.66 210.2 665.44 207.99 679.97C207.789 681.75 207.819 683.548 208.08 685.32C208.572 688.934 209.3 692.511 210.26 696.03C210.54 697.09 210.82 698.17 211.14 699.27C211.4 700.22 211.68 701.19 211.96 702.16C218.87 725.61 232.09 756.96 232.09 756.96C232.09 756.96 233.19 759.81 234.62 763.62C235.09 764.9 235.62 766.29 236.13 767.72C238.48 774.12 240.96 781.3 240.96 782.93C240.96 783.3 241.46 783.71 242.33 784.13C240.065 787.895 238.061 791.811 236.33 795.85C233.55 802.41 225.55 808.91 225.55 808.91C225.55 808.91 216.03 811.61 216.03 819.91V826.25C216.03 826.25 236.25 825.86 242.91 827.72C249.57 829.58 258.45 826.4 258.45 826.4L260.35 823.94C260.35 823.94 283.42 824.94 284.85 819.21C285.27 817.53 285.25 813.95 284.91 809.68C284.474 804.473 283.706 799.299 282.61 794.19C284.13 794.13 285.17 794.03 285.17 794.03C285.17 794.03 295.72 800.83 296.82 807.56C297.157 809.538 297.92 811.419 299.057 813.074C300.193 814.728 301.675 816.115 303.4 817.14C303.4 817.14 314.35 822.14 335.35 819.85C346.35 818.68 348.42 813.08 347.41 808.1C346.49 803.54 342.97 799.5 341.3 799.83C337.82 800.53 323.78 780.35 323.78 780.35L316.65 765.35C317.29 757.35 315.41 753.56 312.77 751.95C314.58 735.08 314.82 712.47 314.82 712.47C314.82 712.47 316.41 685.26 314.82 660.83C313.23 636.4 313.23 588.48 307.82 572.4C305.32 564.92 301.7 543.97 298.56 523.71C298.32 522.19 298.08 520.71 297.86 519.18C297.1 514.25 296.39 509.43 295.73 504.91C296.04 504.76 296.36 504.61 296.64 504.45L294.94 489.61L294.7 487.56C294.76 487.62 294.84 487.66 294.9 487.71C300.61 492.96 293 463.9 293 463.9C293 463.9 289.57 430.48 289.8 411.26C289.822 404.422 289.458 397.587 288.71 390.79C288.13 385.07 289.48 377.64 298.12 372.41C300.39 370.977 302.519 369.333 304.48 367.5C306.89 365.31 312.15 362.5 323.48 362.17C342.48 361.56 361.48 351.66 361.48 351.66C361.48 351.66 383.37 352.9 393.48 339.91C403.59 326.92 429 323.84 429 323.84L425.89 297.54ZM34.0901 516.93L31.2801 512.99C32.324 514.223 33.2639 515.541 34.0901 516.93V516.93ZM273.26 677.78C273.1 679.78 272.98 682.13 272.96 684.78C272.88 693.06 273.7 704.1 277.43 714.65L275.84 756.2H275.71C274.37 756.06 273.12 760.3 272.15 765.89C271.357 763.583 270.373 761.345 269.21 759.2C267.31 756.42 268.9 740.97 268.9 740.97C268.9 740.97 260.96 728.29 260.34 725.5C259.72 722.71 250.18 677.57 250.18 677.57C250.18 677.57 249.55 642.33 246.06 633.37C242.57 624.41 241.62 585.44 241.62 585.44C241.62 585.44 259.06 613.57 260.34 627.8L273.97 671.4C273.97 671.4 273.55 673.78 273.26 677.78Z" fill="url(#paint0_linear)"/>
<path d="M311.41 711.18C311.41 711.18 310.89 760.65 305.68 767.38C300.47 774.11 273.22 767.69 273.22 767.69L275.22 713.32C271.61 702.88 270.81 691.94 270.9 683.74C270.9 681.12 271.03 678.74 271.18 676.81C271.47 672.81 271.87 670.45 271.87 670.45L258.7 627.27C257.47 613.17 240.63 585.27 240.63 585.27C240.63 585.27 241.55 623.86 244.92 632.74C248.29 641.62 248.92 676.53 248.92 676.53C248.92 676.53 258.11 721.25 258.72 724.01C259.33 726.77 266.99 739.32 266.99 739.32C266.99 739.32 265.46 754.63 267.3 757.39C269.14 760.15 276.79 781.59 274.95 785.57C273.11 789.55 240.04 784.03 240.04 780.97C240.04 779.36 237.64 772.24 235.37 765.9L233.91 761.84C232.53 758.07 231.46 755.25 231.46 755.25C231.46 755.25 218.7 724.19 212.03 700.96C211.75 699.96 211.49 699.04 211.23 698.11C210.93 697.01 210.65 695.94 210.39 694.89C209.465 691.404 208.76 687.864 208.28 684.29C208.029 682.534 207.999 680.753 208.19 678.99C210.33 664.59 196.55 632.13 196.55 632.13C196.55 632.13 180.93 582.51 178.17 580.06C175.41 577.61 172.04 553.73 170.82 543.31C170.54 540.87 170.05 537.83 169.46 534.6C169.26 533.45 169.04 532.28 168.82 531.1C166.95 521.45 164.65 511.46 164.65 511.46L199 488.79L289.35 478.99C289.35 478.99 291.87 498.35 295.04 519.69C295.26 521.17 295.49 522.69 295.72 524.18C298.72 544.24 302.25 565 304.66 572.4C309.86 588.33 309.86 635.8 311.4 659.99C312.94 684.18 311.41 711.18 311.41 711.18Z" fill="#63667E"/>
<path opacity="0.1" d="M222.54 507.28L233.91 565.33H239.31L228.51 505.26L222.54 507.28Z" fill="black"/>
<path opacity="0.1" d="M169.5 534.61C169.3 533.46 169.08 532.29 168.86 531.11C174.15 530.03 186.12 525.62 184.26 507.94H187.93C187.93 507.94 191.41 531.23 169.5 534.61Z" fill="black"/>
<path opacity="0.1" d="M295.76 524.22C288.9 525.48 267.46 529.17 262.97 526.73C257.62 523.82 252.33 508.05 252.33 508.05L257.23 507.28C257.23 507.28 252.91 530.41 295.08 519.73C295.3 521.21 295.53 522.71 295.76 524.22Z" fill="black"/>
<path d="M293.91 505.14C287.73 508.73 273.22 510.46 256.33 511.14C254.79 511.2 253.24 511.26 251.66 511.3C224.28 512.16 192.31 510.61 179.57 509.88C175.98 509.68 173.92 509.54 173.92 509.54L185.1 501.81L203.48 495.07L242.14 487.49L291.68 486.11L292.18 490.36L293.91 505.14Z" fill="#33363D"/>
<path d="M256.33 511.18C254.79 511.24 253.24 511.3 251.66 511.34C249.72 503.12 243.6 489.98 243.6 489.98L248.8 489.29L256.33 511.18Z" fill="#63667E"/>
<path d="M47.7402 528.23C47.7402 528.23 45.5802 530.73 42.2602 534.11C32.1802 544.36 11.4302 562.67 7.89018 543.85C4.22018 524.34 20.7702 511.85 28.2602 507.23C30.3802 505.92 31.7702 505.23 31.7702 505.23L47.7402 528.23Z" fill="#FFA2A2"/>
<path d="M233.34 307.83C233.34 307.83 221.63 300.48 219.45 301.17C217.27 301.86 219.45 311.72 219.45 311.72C216.626 317.108 212.161 321.458 206.7 324.14C200.441 327.413 194.38 331.052 188.55 335.04C184.037 334.6 179.481 335.108 175.176 336.532C170.871 337.956 166.911 340.265 163.55 343.31C161.201 344.89 158.542 345.953 155.752 346.428C152.961 346.904 150.1 346.782 147.36 346.07C138.28 343.55 137.83 331.15 139.09 326.44C140.09 322.74 155.23 313.14 161.75 309.14C163.55 308.04 164.69 307.37 164.69 307.37C164.69 307.37 194.11 306.37 200.75 293.82C202.793 289.941 205.839 286.681 209.57 284.38V284.38L209.74 284.29L210.58 283.79L210.85 283.64C213.941 281.937 217.341 280.869 220.85 280.5C235.22 289.68 233.34 307.83 233.34 307.83Z" fill="#CED7E7"/>
<path opacity="0.1" d="M233.34 307.83C233.34 307.83 221.63 300.48 219.45 301.17C217.27 301.86 219.45 311.72 219.45 311.72C216.626 317.108 212.161 321.458 206.7 324.14C200.441 327.413 194.38 331.052 188.55 335.04C184.037 334.6 179.481 335.108 175.176 336.532C170.871 337.956 166.911 340.265 163.55 343.31C161.201 344.89 158.542 345.953 155.752 346.428C152.961 346.904 150.1 346.782 147.36 346.07C138.28 343.55 137.83 331.15 139.09 326.44C140.09 322.74 155.23 313.14 161.75 309.14C163.55 308.04 164.69 307.37 164.69 307.37C164.69 307.37 194.11 306.37 200.75 293.82C202.793 289.941 205.839 286.681 209.57 284.38V284.38L209.74 284.29L210.58 283.79L210.85 283.64C213.941 281.937 217.341 280.869 220.85 280.5C235.22 289.68 233.34 307.83 233.34 307.83Z" fill="black"/>
<path opacity="0.1" d="M292.18 490.4C286.67 485.19 252.37 494.68 252.37 494.68C252.37 494.68 228.75 501.46 210.73 502.56C208.277 502.723 205.816 502.753 203.36 502.65C195.79 502.26 187.9 505.32 181.28 508.99L179.61 509.99C176.02 509.79 173.96 509.65 173.96 509.65L185.14 501.92L203.52 495.18L242.18 487.6L291.72 486.22L292.18 490.4Z" fill="black"/>
<path opacity="0.1" d="M42.2598 534.11C44.5498 518.85 32.7098 509.98 28.2598 507.23C30.3798 505.92 31.7698 505.23 31.7698 505.23L47.7698 528.23C47.7698 528.23 45.5798 530.73 42.2598 534.11Z" fill="black"/>
<path d="M421.7 326.21C421.7 326.21 397.19 329.21 387.4 342.13C377.61 355.05 356.46 353.77 356.46 353.77C356.46 353.77 338.08 363.57 319.71 364.18C308.8 364.54 303.71 367.28 301.39 369.45C299.503 371.265 297.447 372.896 295.25 374.32C286.91 379.5 285.6 386.85 286.17 392.52C286.885 399.256 287.235 406.026 287.22 412.8C287 431.8 290.31 464.94 290.31 464.94C290.31 464.94 297.66 493.73 292.14 488.53C286.62 483.33 252.33 492.81 252.33 492.81C252.33 492.81 228.71 499.59 210.69 500.7C208.237 500.86 205.776 500.887 203.32 500.78C195.75 500.39 187.86 503.45 181.24 507.13C175.544 510.343 170.215 514.169 165.35 518.54C159.49 504.01 161.93 485.32 163.85 475.66C164.747 471.2 164.513 466.586 163.17 462.24L154.32 433.86C154.32 433.86 135.03 440.44 125.84 457.59C116.65 474.74 74.69 507.82 66.41 509.97C62.62 510.97 60.18 513.92 58.65 516.86C56.6829 520.791 53.9213 524.271 50.54 527.08C47.4061 529.718 44.7064 532.833 42.54 536.31C48.06 515.48 27.54 505.37 27.54 505.37C27.54 505.37 35.8 502.61 39.17 491.61C42.54 480.61 58.17 469.26 58.17 469.26C58.17 469.26 74.1 441.08 83.29 436.48C92.48 431.88 109.02 409.84 109.02 409.84C112.38 385.03 128.02 372.17 128.02 372.17C128.02 372.17 145.18 364.82 147.02 358.75C147.66 356.67 149.76 352.8 152.27 348.62C154.61 344.68 157.27 340.49 159.42 337.22C161.57 333.95 163.26 331.43 163.26 331.43L190.76 331.17L195.76 331.12L210.41 303.54C210.41 303.54 215.62 298.34 224.65 304.46C227.246 306.194 230.333 307.042 233.45 306.88C237.543 306.615 241.512 305.367 245.02 303.24C279.94 293.74 294.64 311.72 294.64 311.72C294.64 311.72 318.83 309.67 320.05 311.72C321.27 313.77 333.83 311.72 333.83 311.72L367.22 308.44L418.68 300.18L421.7 326.21Z" fill="#CED7E7"/>
<path d="M220.78 317.02L205.16 342.74C205.16 342.74 162.59 373.68 168.72 349.48C169.713 345.41 170.067 341.209 169.77 337.03C169.68 335.4 169.49 333.77 169.25 332.16C168.14 325.487 166.177 318.983 163.41 312.81C163.1 312.07 162.78 311.36 162.41 310.66C161.93 309.66 161.46 308.66 160.99 307.72C159.018 303.728 156.776 299.876 154.28 296.19C154.28 296.19 200.53 258.52 202.06 282.1C202.395 287.427 203.611 292.661 205.66 297.59L206.02 298.42C208.594 304.233 212.295 309.477 216.91 313.85C218.117 315.004 219.41 316.064 220.78 317.02V317.02Z" fill="#FFA2A2"/>
<path d="M158.92 340.91L166.12 362.34L195.41 367.09L212.21 348.61C212.21 348.61 221.86 334.83 222.47 334.52C223.08 334.21 224.61 321.05 224.61 321.05L226.41 313.61L215.08 309.8L199.15 327.1L192.64 331.1L185.41 332.86L161.41 339.86L158.92 340.91Z" fill="#CED7E7"/>
<path opacity="0.1" d="M233.34 309.67C233.34 309.67 225.34 309.59 223.21 310.28C221.08 310.97 219.45 313.55 219.45 313.55C216.628 318.942 212.163 323.296 206.7 325.98C200.441 329.253 194.38 332.892 188.55 336.88C184.037 336.437 179.481 336.944 175.175 338.369C170.869 339.793 166.909 342.103 163.55 345.15C160.199 347.399 156.256 348.603 152.22 348.61C154.56 344.67 157.22 340.48 159.37 337.21C169.25 336.13 190.16 332.3 190.16 332.3L190.71 331.16C192.65 327.16 199.22 313.65 201.64 309.57C204.46 304.81 213.3 289.94 213.58 289.47L204.9 297.41L209.54 286.23L209.71 286.14L210.55 285.64L210.82 285.49C213.911 283.787 217.311 282.719 220.82 282.35C231.77 289.35 233.33 301.45 233.45 306.9C233.466 307.825 233.429 308.749 233.34 309.67Z" fill="black"/>
<path opacity="0.1" d="M161.72 307.31L163.99 312.31C163.99 312.31 163.8 312.47 163.4 312.77C163.09 312.03 162.77 311.32 162.4 310.62C161.92 309.62 161.45 308.62 160.98 307.68C161.22 307.54 161.44 307.39 161.66 307.27L161.72 307.31Z" fill="black"/>
<path opacity="0.1" d="M216.95 313.85C214.195 317.385 210.695 320.27 206.7 322.3C200.439 325.574 194.378 329.217 188.55 333.21C182.048 332.567 175.504 333.898 169.77 337.03C169.68 335.4 169.49 333.77 169.25 332.16C179.09 330.64 190.16 328.61 190.16 328.61C190.16 328.61 198.78 310.7 201.64 305.88C202.64 304.26 204.28 301.43 206.06 298.42C208.634 304.233 212.335 309.477 216.95 313.85Z" fill="black"/>
<path d="M233.34 307.83C233.34 307.83 225.34 307.75 223.2 308.44C221.06 309.13 219.45 311.72 219.45 311.72C216.626 317.108 212.161 321.458 206.7 324.14C200.441 327.413 194.38 331.052 188.55 335.04C184.037 334.6 179.481 335.108 175.176 336.532C170.871 337.956 166.911 340.265 163.55 343.31C161.201 344.89 158.542 345.953 155.752 346.428C152.961 346.904 150.1 346.782 147.36 346.07C138.28 343.55 137.83 331.15 139.09 326.44C140.09 322.74 155.23 313.14 161.75 309.14L164.02 314.19C159.291 317.815 154.338 321.138 149.19 324.14C139.42 329.99 144.36 336.31 144.36 336.31C147.875 335.701 151.445 335.466 155.01 335.61C160.07 335.95 190.16 330.44 190.16 330.44C190.16 330.44 198.78 312.52 201.64 307.71C204.5 302.9 213.3 288.08 213.58 287.61L204.9 295.61L209.54 284.43L209.71 284.34L210.55 283.84L210.82 283.69C213.911 281.987 217.311 280.919 220.82 280.55C235.22 289.68 233.34 307.83 233.34 307.83Z" fill="#CED7E7"/>
<path opacity="0.1" d="M205.7 297.61C201.201 304.562 194.379 309.691 186.45 312.081C178.522 314.471 170.002 313.968 162.41 310.66C160.099 305.623 157.38 300.783 154.28 296.19C154.28 296.19 200.53 258.52 202.06 282.1C202.405 287.436 203.636 292.677 205.7 297.61Z" fill="black"/>
<path d="M210.41 276.8C210.41 277.673 210.38 278.533 210.32 279.38C209.663 288.527 205.441 297.051 198.564 303.118C191.687 309.184 182.703 312.31 173.545 311.821C164.387 311.332 155.787 307.269 149.595 300.504C143.402 293.74 140.112 284.816 140.431 275.65C140.751 266.485 144.655 257.812 151.304 251.495C157.953 245.179 166.815 241.725 175.985 241.875C185.155 242.026 193.899 245.77 200.337 252.301C206.774 258.832 210.392 267.629 210.41 276.8V276.8Z" fill="#FFA2A2"/>
<path opacity="0.1" d="M119.72 389.3C119.72 389.3 127.41 403.69 136.87 411.61C146.33 419.53 151.87 431.83 151.87 431.83C151.87 431.83 149.12 407.98 119.72 389.3Z" fill="black"/>
<path opacity="0.1" d="M107.77 425.44C107.77 425.44 134.77 418.7 148.36 425.44H107.77Z" fill="black"/>
<path opacity="0.1" d="M97.9702 465.61L127.02 455.61C127.02 455.61 108.41 468.93 97.9702 465.61Z" fill="black"/>
<path opacity="0.1" d="M47.7402 504.76C47.7402 504.76 60.3002 504.15 64.2802 508.13C64.2802 508.13 52.0302 509.05 47.7402 504.76Z" fill="black"/>
<path opacity="0.1" d="M340.82 311.02C340.82 311.02 312.66 327.74 311.41 354.69L340.82 311.02Z" fill="black"/>
<path opacity="0.1" d="M374.84 336.31C374.84 336.31 339.92 343.36 334.1 347.03C328.28 350.7 315.73 352.54 315.73 352.54C315.73 352.54 366.26 345.81 374.84 336.31Z" fill="black"/>
<path opacity="0.1" d="M272.41 484.12C269.87 486.76 238.52 494.2 210.5 500.42C207.957 500.588 205.406 500.618 202.86 500.51C195.01 500.11 186.86 503.26 179.96 507.04C171.5 508.84 166.03 509.97 166.03 509.97C166.03 509.97 156.82 502.71 169.52 486.32C182.22 469.93 184.45 444.07 184.45 444.07L240.99 429.61C240.99 429.61 256.24 450.61 263.54 453.98C270.84 457.35 277.11 479.26 272.41 484.12Z" fill="black"/>
<path d="M270.41 484.85C267.95 487.43 237.72 494.65 210.7 500.7C208.247 500.86 205.787 500.887 203.33 500.78C195.76 500.39 187.87 503.45 181.25 507.13C173.09 508.87 167.81 509.97 167.81 509.97C167.81 509.97 158.93 502.92 171.18 486.97C183.43 471.02 185.57 445.92 185.57 445.92L240.09 431.84C240.09 431.84 254.79 452.24 261.83 455.52C268.87 458.8 274.91 480.14 270.41 484.85Z" fill="#CED7E7"/>
<path opacity="0.1" d="M226.15 685.61L210.41 694.93C209.485 691.444 208.78 687.904 208.3 684.33C210.59 686.24 226.15 685.61 226.15 685.61Z" fill="black"/>
<path opacity="0.1" d="M211.27 698.15C216.83 697.09 230.03 694.45 237.27 691.97C230.71 695.17 218.84 700.52 212.1 700.97C211.79 700.04 211.53 699.08 211.27 698.15Z" fill="black"/>
<path opacity="0.1" d="M241.91 689.61C241.33 690.32 239.63 691.12 237.28 691.93C240.09 690.61 241.91 689.61 241.91 689.61Z" fill="black"/>
<path opacity="0.1" d="M251.41 766.61C246.95 766.98 239.7 766.38 235.41 765.94L233.95 761.88C238.54 762.37 247.65 763.14 251.41 762.02C256.54 760.5 258.08 766.08 251.41 766.61Z" fill="black"/>
<path opacity="0.1" d="M291.26 685.22C290.52 685.12 278.62 683.78 270.96 683.74C270.96 681.12 271.09 678.74 271.24 676.81C276.52 679.04 290.47 684.95 291.26 685.22Z" fill="black"/>
<path d="M282.5 816.92C281.12 822.61 258.84 821.61 258.84 821.61L257 824.05C257 824.05 248.43 827.19 242 825.35C235.57 823.51 216 823.9 216 823.9V817.61C216 809.42 225.19 806.74 225.19 806.74C225.19 806.74 232.92 800.31 235.6 793.8C237.271 789.77 239.212 785.858 241.41 782.09C241.41 782.09 234.22 773.36 253.51 771.09C272.51 768.89 265.06 786.14 264.85 786.62C265.16 786.34 272.29 779.93 276.25 781.95C279.11 783.42 281.7 797.34 282.51 807.42C282.88 811.7 282.9 815.25 282.5 816.92Z" fill="#CED7E7"/>
<path opacity="0.1" d="M282.5 816.92C281.12 822.61 258.84 821.61 258.84 821.61L257 824.05C257 824.05 248.43 827.19 242 825.35C235.57 823.51 216 823.9 216 823.9V817.9C227.78 818.48 251.36 819.26 256.66 816.53C256.66 816.53 263.01 814.92 264.47 813.85C265.7 812.94 278.64 808.71 282.47 807.46C282.88 811.7 282.9 815.25 282.5 816.92Z" fill="black"/>
<path d="M331.27 817.55C310.98 819.77 300.41 814.86 300.41 814.86C298.73 813.83 297.292 812.448 296.196 810.81C295.1 809.172 294.371 807.316 294.06 805.37C292.99 798.71 282.8 791.98 282.8 791.98C282.8 791.98 270.25 793.2 268.71 789.52C268.34 787.959 268.199 786.352 268.29 784.75C268.29 774.88 270.76 754.15 273.61 754.45C276.97 754.82 287.36 768.58 288.4 769.96C287.49 768.48 278.45 753.07 298.5 751.24C298.5 751.24 314.88 741.98 313.2 763.57L320.09 778.42C320.09 778.42 333.65 798.42 337.01 797.72C338.62 797.39 342.01 801.39 342.91 805.91C343.88 810.84 341.87 816.39 331.27 817.55Z" fill="#CED7E7"/>
<path opacity="0.1" d="M210.41 276.8C210.41 277.673 210.38 278.533 210.32 279.38L209.47 279.7L206.18 280.9C205.626 281.138 205.033 281.273 204.43 281.3C203.96 281.28 203.5 281.154 203.086 280.931C202.672 280.707 202.314 280.392 202.04 280.01C201.566 279.287 201.228 278.484 201.04 277.64L198.55 268.07C198.05 266.17 197.28 263.98 195.15 263.27C194.528 263.134 193.916 262.953 193.32 262.73C191.99 262.1 191.71 260.62 191.26 259.38C190.26 256.49 187.59 254.18 184.7 252.38C182.746 251.012 180.425 250.266 178.04 250.24C176.763 250.26 175.528 250.703 174.53 251.5C172.44 253.27 172.73 255.66 172.98 258.18C173.23 260.7 173.9 263.39 173.16 265.91C172.66 267.55 171.59 269.08 171.4 270.78C171.24 272.15 171.69 273.54 171.61 274.91C171.594 275.65 171.329 276.363 170.857 276.933C170.385 277.503 169.734 277.897 169.01 278.05C168.88 277.22 167.67 276.95 166.86 276.5C165.03 275.5 164.93 273.32 165.01 271.5C165.15 268.78 165.28 266.05 165.41 263.33C164.602 269.414 163.349 275.43 161.66 281.33C161.452 282.356 160.976 283.308 160.28 284.09C159.87 284.498 159.347 284.775 158.778 284.883C158.21 284.992 157.622 284.928 157.09 284.7C156.471 284.31 156.013 283.71 155.8 283.01C154.522 279.842 154.082 276.398 154.52 273.01C153.41 277.44 152.3 281.92 150.16 286.08C149.31 287.73 148.02 289.52 145.93 289.85C145.292 289.87 144.66 289.974 144.05 290.16C143.806 290.276 143.586 290.435 143.4 290.63C141.362 285.872 140.408 280.721 140.606 275.55C140.804 270.378 142.149 265.315 144.544 260.727C146.94 256.139 150.326 252.141 154.456 249.023C158.587 245.904 163.359 243.744 168.428 242.697C173.496 241.65 178.734 241.743 183.763 242.969C188.791 244.195 193.483 246.525 197.501 249.788C201.518 253.051 204.759 257.167 206.99 261.837C209.221 266.507 210.386 271.614 210.4 276.79L210.41 276.8Z" fill="black"/>
<path d="M174.53 249.71C175.526 248.907 176.761 248.46 178.04 248.44C180.424 248.469 182.745 249.215 184.7 250.58C187.59 252.34 190.22 254.64 191.26 257.58C191.71 258.82 191.98 260.31 193.26 260.94C193.859 261.153 194.47 261.33 195.09 261.47C197.23 262.18 198 264.37 198.49 266.27L201 275.84C201.163 276.683 201.485 277.488 201.95 278.21C202.223 278.594 202.581 278.911 202.995 279.136C203.409 279.362 203.869 279.489 204.34 279.51C204.947 279.483 205.544 279.344 206.1 279.1L209.39 277.9C211.12 277.27 213 276.52 213.79 275.06C214.204 274.118 214.343 273.078 214.19 272.06C213.998 269.005 213.57 265.969 212.91 262.98L216.69 265.55C217.6 266.16 218.74 266.81 219.82 266.47C220.171 266.339 220.486 266.128 220.742 265.854C220.997 265.579 221.185 265.25 221.29 264.89C221.97 263.01 221.48 260.76 222.9 259.21C223.24 258.85 223.66 258.54 223.96 258.16C225.25 256.5 223.72 254.25 224.25 252.31C224.76 252.511 225.323 252.539 225.85 252.389C226.378 252.239 226.842 251.92 227.17 251.48C227.69 250.641 227.944 249.666 227.9 248.68C228.2 243.03 228.34 236.91 224.47 232.31C225.18 227.69 220.28 222.66 214.86 222.03C213.51 221.87 211.86 221.79 211.27 220.76C211.06 220.264 210.968 219.727 211 219.19C210.86 217.44 209.69 215.88 208.56 214.41C208.108 213.762 207.554 213.191 206.92 212.72C205.13 211.54 202.58 211.86 200.36 212.26C196.287 212.987 192.24 213.803 188.22 214.71C187.748 212.734 187.779 210.671 188.31 208.71C188.72 207.23 189.42 205.71 188.66 204.23C188.467 203.86 188.181 203.547 187.83 203.321C187.48 203.095 187.076 202.964 186.66 202.94C186.131 202.926 185.61 203.067 185.16 203.346C184.71 203.625 184.352 204.03 184.13 204.51C181.827 207.954 180.236 211.823 179.45 215.89C177.939 214.821 176.183 214.151 174.344 213.941C172.505 213.731 170.643 213.989 168.93 214.69C168.065 215.176 167.126 215.514 166.15 215.69C165.337 215.679 164.54 215.456 163.839 215.044C163.138 214.632 162.556 214.045 162.15 213.34C161.05 211.64 160.55 209.62 158.41 208.51C157.934 208.259 157.403 208.127 156.865 208.127C156.326 208.127 155.796 208.259 155.32 208.51C152.49 210.16 156.02 214.25 153.92 216.4C153.337 216.902 152.656 217.276 151.92 217.5L146.67 219.43C143.871 220.626 140.901 221.371 137.87 221.64C134.39 221.78 130.87 220.71 127.45 221.43C128.825 222.996 130.653 224.097 132.68 224.58C133.92 224.89 135.23 224.99 136.44 225.39C137.027 225.521 137.57 225.798 138.02 226.197C138.47 226.596 138.81 227.103 139.01 227.67C139.28 229.08 137.92 230.44 138.19 231.85C138.395 232.455 138.811 232.967 139.362 233.292C139.912 233.616 140.561 233.733 141.19 233.62L134.98 237.62C133.86 238.34 132.61 239.39 133.03 240.53L135.03 241.11L129.64 248.84C128.94 249.624 128.539 250.63 128.51 251.68C128.562 251.949 128.669 252.205 128.825 252.431C128.98 252.657 129.18 252.849 129.413 252.994C129.646 253.139 129.906 253.235 130.177 253.276C130.448 253.317 130.725 253.301 130.99 253.23C129.698 254.575 128.68 256.158 127.99 257.89C127.864 258.117 127.794 258.37 127.786 258.629C127.777 258.888 127.83 259.145 127.94 259.38C128.177 259.637 128.473 259.834 128.801 259.954C129.13 260.074 129.483 260.114 129.83 260.07C132.73 260.07 135.42 258.07 135.83 255.6C136.72 256.6 135.77 257.78 134.92 258.79C131.51 262.89 128.03 267.07 126.22 271.85C124.41 276.63 124.49 282.21 127.88 286.32C128.63 287.115 129.3 287.983 129.88 288.91C130.96 290.97 130.34 293.61 132.02 295.36C133.371 291.658 135.009 288.067 136.92 284.62C136.812 285.832 136.635 287.038 136.39 288.23C136.309 288.861 136.431 289.502 136.739 290.059C137.046 290.616 137.523 291.061 138.1 291.33C139.86 291.97 141.69 290.6 142.84 289.33C143.126 288.952 143.491 288.642 143.91 288.42C144.518 288.238 145.146 288.134 145.78 288.11C147.87 287.78 149.15 286 150.01 284.34C152.15 280.19 153.27 275.71 154.37 271.26C153.928 274.649 154.373 278.094 155.66 281.26C155.867 281.96 156.322 282.561 156.94 282.95C157.473 283.174 158.061 283.235 158.629 283.125C159.197 283.014 159.719 282.738 160.13 282.33C160.828 281.55 161.304 280.597 161.51 279.57C163.195 273.669 164.448 267.653 165.26 261.57L164.86 269.74C164.77 271.58 164.86 273.74 166.7 274.74C167.53 275.19 168.7 275.46 168.86 276.28C169.585 276.134 170.237 275.743 170.709 275.173C171.18 274.604 171.442 273.889 171.45 273.15C171.54 271.77 171.09 270.39 171.25 269.01C171.44 267.32 172.52 265.79 173.01 264.14C173.75 261.63 173.1 259 172.83 256.42C172.56 253.84 172.41 251.47 174.53 249.71Z" fill="#896363"/>
<path opacity="0.1" d="M331.27 817.55C310.98 819.77 300.41 814.86 300.41 814.86C298.73 813.83 297.292 812.448 296.196 810.81C295.1 809.172 294.371 807.316 294.06 805.37C292.99 798.71 282.8 791.98 282.8 791.98C282.8 791.98 270.25 793.2 268.71 789.52C268.34 787.959 268.199 786.352 268.29 784.75C272.93 785.86 283.62 788.41 286.93 789.36C291.23 790.58 303.79 810.95 303.79 810.95C315.88 817.31 335.89 809.15 342.91 805.95C343.88 810.84 341.87 816.39 331.27 817.55Z" fill="black"/>
<path opacity="0.1" d="M241.41 782.09C241.41 782.09 235.23 791.57 264.85 786.67Z" fill="black"/>
<path opacity="0.1" d="M288.41 769.96C288.41 769.96 319.65 776.75 313.21 763.57Z" fill="black"/>
<g opacity="0.1">
<path opacity="0.1" d="M138.41 230.15C138.239 230.592 138.184 231.071 138.25 231.54C138.381 232.08 138.719 232.547 139.19 232.84L141.3 231.48C140.74 231.579 140.163 231.505 139.647 231.267C139.13 231.03 138.699 230.64 138.41 230.15V230.15Z" fill="black"/>
<path opacity="0.1" d="M132.69 224.28C133.94 224.59 135.25 224.69 136.46 225.09C137.471 225.358 138.336 226.012 138.87 226.91C139.042 226.472 139.097 225.996 139.03 225.53C138.831 224.963 138.49 224.456 138.04 224.057C137.591 223.658 137.047 223.381 136.46 223.25C135.25 222.85 133.94 222.75 132.69 222.44C131.472 222.135 130.318 221.617 129.28 220.91C128.672 220.933 128.066 221.007 127.47 221.13C128.843 222.694 130.667 223.794 132.69 224.28V224.28Z" fill="black"/>
<path opacity="0.1" d="M137.07 282.48C135.156 285.927 133.514 289.517 132.16 293.22C130.49 291.47 131.1 288.83 130.02 286.77C129.444 285.84 128.774 284.972 128.02 284.18C126.316 282.089 125.331 279.505 125.21 276.81C124.933 280.127 125.939 283.423 128.02 286.02C128.774 286.812 129.444 287.68 130.02 288.61C131.1 290.67 130.49 293.3 132.16 295.06C133.431 291.598 134.952 288.232 136.71 284.99C136.929 284.171 137.05 283.328 137.07 282.48Z" fill="black"/>
<path opacity="0.1" d="M128.8 250.12C128.623 250.515 128.55 250.949 128.59 251.38C128.648 251.687 128.776 251.976 128.965 252.224C129.155 252.473 129.4 252.673 129.68 252.81C130.098 252.201 130.563 251.626 131.07 251.09C130.638 251.221 130.174 251.196 129.759 251.018C129.344 250.841 129.004 250.523 128.8 250.12Z" fill="black"/>
<path opacity="0.1" d="M187.99 210.73C188.034 209.946 188.158 209.169 188.36 208.41C188.72 207.13 189.28 205.83 188.93 204.53C188.79 205.21 188.55 205.9 188.36 206.53C187.989 207.897 187.864 209.319 187.99 210.73Z" fill="black"/>
<path opacity="0.1" d="M154.31 209.61C154.198 210.774 154.289 211.948 154.58 213.08C154.695 211.916 154.604 210.742 154.31 209.61V209.61Z" fill="black"/>
<path opacity="0.1" d="M135.94 253.46C135.49 255.89 132.79 257.88 129.94 257.93C129.309 257.98 128.683 257.787 128.19 257.39L128.1 257.59C127.975 257.817 127.905 258.069 127.894 258.328C127.884 258.587 127.934 258.844 128.04 259.08C128.28 259.335 128.578 259.53 128.908 259.648C129.239 259.767 129.592 259.805 129.94 259.76C131.12 259.74 132.275 259.412 133.29 258.81C133.88 258.08 134.48 257.36 135.07 256.65C135.383 256.29 135.67 255.909 135.93 255.51C135.951 255.441 135.968 255.371 135.98 255.3V255.35C136.191 255.078 136.302 254.742 136.295 254.398C136.288 254.054 136.162 253.723 135.94 253.46V253.46Z" fill="black"/>
<path opacity="0.1" d="M133.58 238.53C133.348 238.739 133.18 239.01 133.095 239.311C133.01 239.612 133.012 239.93 133.1 240.23L134.04 240.5L135.1 238.97L133.58 238.53Z" fill="black"/>
<path opacity="0.1" d="M224.01 256.08C223.71 256.46 223.29 256.77 222.95 257.08C221.52 258.63 222.02 260.88 221.34 262.76C221.233 263.119 221.045 263.448 220.79 263.722C220.535 263.996 220.22 264.208 219.87 264.34C218.79 264.68 217.65 264.03 216.74 263.42L212.96 260.85C213.11 261.55 213.25 262.26 213.38 262.97L216.74 265.25C217.65 265.87 218.79 266.52 219.87 266.18C220.219 266.046 220.533 265.834 220.788 265.561C221.043 265.287 221.232 264.958 221.34 264.6C222.02 262.72 221.52 260.47 222.95 258.92C223.29 258.55 223.71 258.25 224.01 257.87C224.272 257.466 224.446 257.012 224.521 256.536C224.595 256.06 224.567 255.574 224.44 255.11C224.373 255.462 224.226 255.794 224.01 256.08V256.08Z" fill="black"/>
<path opacity="0.1" d="M214.22 271.61C214.178 272.067 214.049 272.512 213.84 272.92C213.05 274.38 211.17 275.13 209.43 275.76L206.15 276.96C205.592 277.2 204.996 277.338 204.39 277.37C203.919 277.349 203.459 277.221 203.045 276.996C202.631 276.771 202.273 276.454 202 276.07C201.523 275.349 201.184 274.545 201 273.7L198.5 264.13C198 262.23 197.24 260.04 195.1 259.33C194.48 259.19 193.869 259.013 193.27 258.8C191.94 258.16 191.66 256.68 191.27 255.44C190.27 252.54 187.6 250.24 184.71 248.44C182.754 247.077 180.434 246.331 178.05 246.3C176.771 246.319 175.535 246.766 174.54 247.57C172.87 248.98 172.72 250.79 172.85 252.75C172.888 252.106 173.058 251.476 173.349 250.9C173.639 250.324 174.045 249.814 174.54 249.4C175.539 248.604 176.772 248.158 178.05 248.13C180.432 248.17 182.75 248.915 184.71 250.27C187.6 252.04 190.23 254.34 191.27 257.27C191.71 258.51 191.99 259.99 193.27 260.63C193.869 260.843 194.48 261.02 195.1 261.16C197.24 261.87 198 264.06 198.5 265.96L201 275.52C201.181 276.366 201.521 277.17 202 277.89C202.271 278.277 202.628 278.597 203.042 278.824C203.457 279.051 203.918 279.18 204.39 279.2C204.995 279.164 205.591 279.025 206.15 278.79L209.41 277.61C211.15 276.98 213.03 276.23 213.82 274.77C214.234 273.828 214.373 272.788 214.22 271.77C214.23 271.75 214.23 271.69 214.22 271.61Z" fill="black"/>
<path opacity="0.1" d="M227.95 246.61C227.994 247.596 227.74 248.571 227.22 249.41C226.892 249.85 226.428 250.169 225.901 250.319C225.373 250.469 224.811 250.441 224.3 250.24C224.157 250.899 224.157 251.581 224.3 252.24V252.1C224.811 252.301 225.373 252.329 225.901 252.179C226.428 252.029 226.892 251.71 227.22 251.27C227.739 250.431 227.993 249.455 227.95 248.47C228.04 246.84 228.11 245.17 228.07 243.52C228.05 244.53 228 245.61 227.95 246.61Z" fill="black"/>
<path opacity="0.1" d="M154.52 269.09C153.583 273.605 152.12 277.995 150.16 282.17C149.3 283.83 148.02 285.61 145.92 285.94C145.286 285.966 144.658 286.07 144.05 286.25C143.636 286.474 143.275 286.785 142.99 287.16C141.84 288.46 139.99 289.83 138.25 289.16C137.837 289 137.473 288.736 137.191 288.395C136.909 288.053 136.719 287.646 136.64 287.21C136.64 287.45 136.56 287.68 136.54 287.91C136.45 288.541 136.569 289.184 136.877 289.742C137.186 290.299 137.668 290.741 138.25 291C140.01 291.65 141.84 290.27 142.99 289C143.278 288.63 143.639 288.324 144.05 288.1C144.656 287.91 145.285 287.806 145.92 287.79C148.02 287.46 149.3 285.68 150.16 284.02C152.033 280.06 153.439 275.895 154.35 271.61C154.351 270.767 154.408 269.925 154.52 269.09Z" fill="black"/>
<path opacity="0.1" d="M165.41 259.43C164.598 265.513 163.345 271.529 161.66 277.43C161.455 278.459 160.975 279.413 160.27 280.19C159.86 280.599 159.338 280.876 158.77 280.987C158.202 281.097 157.613 281.036 157.08 280.81C156.469 280.416 156.019 279.817 155.81 279.12C154.983 277.043 154.51 274.843 154.41 272.61C154.28 275.464 154.768 278.312 155.84 280.96C156.048 281.66 156.498 282.262 157.11 282.66C157.644 282.883 158.231 282.943 158.799 282.833C159.367 282.722 159.889 282.447 160.3 282.04C161.003 281.261 161.483 280.308 161.69 279.28C163.291 273.667 164.501 267.95 165.31 262.17L165.41 259.43Z" fill="black"/>
<path opacity="0.1" d="M173.15 262.03C172.66 263.68 171.59 265.2 171.4 266.9C171.335 267.448 171.335 268.002 171.4 268.55C171.64 266.93 172.65 265.46 173.12 263.87C173.438 262.708 173.543 261.499 173.43 260.3C173.396 260.885 173.302 261.464 173.15 262.03V262.03Z" fill="black"/>
<path opacity="0.1" d="M169.01 274.17C168.87 273.35 167.67 273.08 166.85 272.63C166.28 272.262 165.813 271.755 165.493 271.157C165.173 270.558 165.01 269.888 165.02 269.21V269.44C164.93 271.28 165.02 273.44 166.86 274.44C167.68 274.89 168.86 275.15 169.02 275.98C169.744 275.828 170.395 275.434 170.865 274.864C171.336 274.293 171.599 273.58 171.61 272.84C171.633 272.366 171.617 271.891 171.56 271.42C171.486 272.091 171.198 272.721 170.739 273.216C170.28 273.711 169.674 274.045 169.01 274.17Z" fill="black"/>
</g>
<path d="M480.71 835.22H364.22C362.845 835.222 361.484 834.933 360.229 834.371C358.974 833.81 357.851 832.988 356.937 831.961C356.022 830.934 355.335 829.724 354.922 828.412C354.509 827.101 354.379 825.716 354.54 824.35L382.9 583.35L383.49 578.26C383.769 575.891 384.908 573.707 386.69 572.122C388.473 570.537 390.775 569.661 393.16 569.66H454.32C456.723 569.661 459.04 570.55 460.827 572.156C462.613 573.762 463.744 575.971 464 578.36L464.51 583.19L490.41 824.44C490.556 825.8 490.414 827.176 489.993 828.478C489.572 829.78 488.881 830.978 487.966 831.995C487.051 833.012 485.932 833.825 484.682 834.38C483.432 834.936 482.078 835.222 480.71 835.22Z" fill="#4E5A86"/>
<path opacity="0.1" d="M390.94 598.48C390.94 598.48 395.22 707.81 378.69 749.48C378.69 749.48 380.41 758.36 385.06 749.48C389.71 740.6 405.64 648.1 397.98 600.02C397.98 600.01 396.41 594.8 390.94 598.48Z" fill="black"/>
<path opacity="0.1" d="M411.46 598.48C411.46 598.48 415.74 707.81 399.21 749.48C399.21 749.48 400.93 758.36 405.58 749.48C410.23 740.6 426.16 648.1 418.5 600.02C418.5 600.01 416.97 594.8 411.46 598.48Z" fill="black"/>
<path opacity="0.1" d="M461.41 598.48C461.41 598.48 457.12 707.81 473.66 749.48C473.66 749.48 471.93 758.36 467.28 749.48C462.63 740.6 446.68 648.09 454.33 600.01C454.33 600.01 455.87 594.8 461.41 598.48Z" fill="black"/>
<path opacity="0.1" d="M440.86 598.48C440.86 598.48 436.57 707.81 453.11 749.48C453.11 749.48 451.38 758.36 446.73 749.48C442.08 740.6 426.16 648.09 433.81 600.01C433.81 600.01 435.35 594.8 440.86 598.48Z" fill="black"/>
<path opacity="0.1" d="M464.51 583.22C463.887 583.385 463.245 583.47 462.6 583.47H384.05C383.665 583.471 383.28 583.441 382.9 583.38L383.49 578.29C383.769 575.921 384.908 573.737 386.69 572.152C388.473 570.567 390.775 569.691 393.16 569.69H454.32C456.722 569.691 459.04 570.58 460.826 572.186C462.613 573.792 463.743 576.001 464 578.39L464.51 583.22Z" fill="black"/>
<path opacity="0.1" d="M451.57 528.8H395.64V538.45H451.57V528.8Z" fill="black"/>
<path d="M461.95 530.64H384.69C380.272 530.64 376.69 534.222 376.69 538.64V573.63C376.69 578.048 380.272 581.63 384.69 581.63H461.95C466.368 581.63 469.95 578.048 469.95 573.63V538.64C469.95 534.222 466.368 530.64 461.95 530.64Z" fill="#4E5A86"/>
<path d="M451 -109H395.64V538.45H451V-109Z" fill="#4E5A86"/>
<path opacity="0.1" d="M407.32 -109H399.36V507.661H407.32V-109Z" fill="black"/>
<path opacity="0.1" d="M420.64 -109H412.68V507.661H420.64V-109Z" fill="black"/>
<path opacity="0.1" d="M433.96 -109H426V507.661H433.96V-109Z" fill="black"/>
<path opacity="0.1" d="M447.29 -109H439.33V507.661H447.29V-109Z" fill="black"/>
<path d="M454.46 286.05C454.46 286.05 436.24 280.38 439 300.44C441.76 320.5 448.8 321.73 448.8 321.73C448.8 321.73 454.92 320.35 455.69 312.39C456.46 304.43 454.46 286.05 454.46 286.05Z" fill="#FFA2A2"/>
<g opacity="0.1">
<path opacity="0.1" d="M869.89 713.37C885.22 736 880.32 817.02 880.32 817.02C880.32 817.02 803.32 791.52 787.94 768.89C784.295 763.506 781.745 757.456 780.438 751.087C779.13 744.717 779.09 738.153 780.319 731.768C782.802 718.873 790.306 707.492 801.18 700.13C812.054 692.768 825.407 690.026 838.302 692.509C851.197 694.992 862.578 702.496 869.94 713.37H869.89Z" fill="#B3AC1E"/>
<path opacity="0.1" d="M869.89 713.37C885.22 736 880.32 817.02 880.32 817.02C880.32 817.02 803.32 791.52 787.94 768.89C784.295 763.506 781.745 757.456 780.438 751.087C779.13 744.717 779.09 738.153 780.319 731.768C782.802 718.873 790.306 707.492 801.18 700.13C812.054 692.768 825.407 690.026 838.302 692.509C851.197 694.992 862.578 702.496 869.94 713.37H869.89Z" fill="black"/>
<path opacity="0.1" d="M801.46 700.21C801.46 700.21 859.2 744.79 880.62 817.08" stroke="#535461" stroke-miterlimit="10"/>
<path opacity="0.1" d="M895.16 755.67C895.16 755.67 854.16 748.67 882.16 816.58C882.16 816.58 910.65 805.73 912.87 778.71C913.313 773.453 911.812 768.215 908.651 763.991C905.49 759.767 900.889 756.849 895.72 755.79L895.16 755.67Z" fill="#B3AC1E"/>
<path opacity="0.1" d="M895.77 755.61C895.77 755.61 903.58 793.17 882.21 816.61" stroke="#535461" stroke-miterlimit="10"/>
</g>
<g opacity="0.1">
<path opacity="0.1" d="M446.46 645.61C446.46 645.61 508.04 488.61 625.77 429.22C675.19 404.3 715.83 364.82 740.42 315.22C752.047 291.679 761.493 267.124 768.64 241.86" stroke="#535461" stroke-width="2" stroke-miterlimit="10"/>
<path opacity="0.1" d="M842.61 203.99C830.45 219.66 766.83 243.06 766.83 243.06C766.83 243.06 773.73 175.62 785.89 159.96C788.74 156.129 792.326 152.905 796.438 150.477C800.55 148.049 805.105 146.466 809.836 145.82C814.567 145.174 819.38 145.479 823.992 146.716C828.604 147.953 832.923 150.097 836.696 153.024C840.469 155.951 843.62 159.601 845.965 163.761C848.31 167.921 849.802 172.507 850.352 177.25C850.903 181.993 850.502 186.799 849.172 191.385C847.843 195.972 845.612 200.247 842.61 203.96V203.99Z" fill="#B3AC1E"/>
<path opacity="0.1" d="M822.13 327.15C803.41 333.69 737.28 318.75 737.28 318.75C737.28 318.75 779.73 265.9 798.45 259.36C802.901 257.805 807.615 257.142 812.322 257.409C817.029 257.676 821.638 258.867 825.885 260.915C830.132 262.963 833.934 265.828 837.074 269.345C840.214 272.863 842.63 276.964 844.185 281.415C845.74 285.866 846.403 290.58 846.136 295.287C845.869 299.995 844.677 304.603 842.629 308.85C840.581 313.097 837.717 316.899 834.2 320.039C830.682 323.179 826.581 325.595 822.13 327.15V327.15Z" fill="#B3AC1E"/>
<path opacity="0.1" d="M704.98 473.82C685.51 470.02 635.98 423.74 635.98 423.74C635.98 423.74 699.31 399.54 718.77 403.35C723.397 404.255 727.801 406.062 731.729 408.669C735.658 411.275 739.035 414.63 741.667 418.542C744.299 422.454 746.135 426.845 747.07 431.467C748.004 436.088 748.02 440.848 747.115 445.475C746.21 450.102 744.403 454.506 741.796 458.434C739.19 462.363 735.835 465.74 731.923 468.372C728.011 471.004 723.619 472.84 718.998 473.775C714.377 474.709 709.617 474.725 704.99 473.82H704.98Z" fill="#B3AC1E"/>
<path opacity="0.1" d="M591.34 564.84C571.52 564.38 514.87 527.14 514.87 527.14C514.87 527.14 573.19 492.59 593.02 493.05C597.733 493.16 602.379 494.198 606.692 496.104C611.005 498.01 614.9 500.746 618.155 504.157C621.41 507.568 623.962 511.587 625.664 515.985C627.366 520.382 628.185 525.071 628.075 529.785C627.964 534.499 626.927 539.145 625.021 543.457C623.115 547.77 620.378 551.665 616.967 554.921C613.556 558.176 609.537 560.727 605.14 562.429C600.743 564.131 596.053 564.95 591.34 564.84V564.84Z" fill="#B3AC1E"/>
<path opacity="0.1" d="M675.41 275.61C678.17 295.24 721.73 347.18 721.73 347.18C721.73 347.18 749.28 285.24 746.52 265.6C745.059 256.288 739.996 247.924 732.422 242.312C724.848 236.701 715.372 234.292 706.038 235.606C696.704 236.92 688.261 241.851 682.531 249.335C676.801 256.819 674.243 266.257 675.41 275.61V275.61Z" fill="#B3AC1E"/>
<path opacity="0.1" d="M543.84 383.68C552.35 401.61 609.41 438.12 609.41 438.12C609.41 438.12 617.17 370.77 608.65 352.86C606.626 348.602 603.784 344.784 600.284 341.624C596.785 338.465 592.698 336.025 588.256 334.446C583.814 332.866 579.105 332.176 574.396 332.416C569.688 332.656 565.073 333.821 560.815 335.845C556.557 337.869 552.739 340.711 549.579 344.21C546.42 347.709 543.98 351.797 542.4 356.239C540.82 360.68 540.131 365.39 540.371 370.098C540.611 374.807 541.776 379.422 543.8 383.68H543.84Z" fill="#B3AC1E"/>
<path opacity="0.1" d="M430.41 506.32C435.77 525.41 485.89 571.07 485.89 571.07C485.89 571.07 504.89 506 499.55 486.91C496.872 477.862 490.739 470.231 482.479 465.669C474.22 461.106 464.496 459.978 455.411 462.529C446.326 465.079 438.61 471.103 433.931 479.298C429.253 487.493 427.988 497.2 430.41 506.32V506.32Z" fill="#B3AC1E"/>
</g>
<g opacity="0.1">
<path opacity="0.1" d="M436.27 362.83C436.27 362.83 458.52 306.1 501.05 284.66C518.948 275.775 533.481 261.326 542.47 243.48C546.672 234.977 550.087 226.106 552.67 216.98" stroke="#535461" stroke-width="2" stroke-miterlimit="10"/>
<path opacity="0.1" d="M579.41 203.31C575.01 208.97 552.03 217.42 552.03 217.42C552.03 217.42 554.52 193.06 558.92 187.42C559.908 185.93 561.194 184.661 562.695 183.69C564.197 182.72 565.882 182.069 567.647 181.78C569.411 181.49 571.216 181.568 572.949 182.008C574.682 182.447 576.305 183.24 577.718 184.335C579.131 185.431 580.303 186.806 581.16 188.375C582.017 189.944 582.542 191.673 582.7 193.454C582.859 195.235 582.649 197.029 582.083 198.725C581.516 200.421 580.607 201.982 579.41 203.31V203.31Z" fill="#B3AC1E"/>
<path opacity="0.1" d="M571.99 247.8C565.23 250.16 541.34 244.8 541.34 244.8C541.34 244.8 556.67 225.7 563.43 223.34C565.067 222.643 566.83 222.289 568.61 222.301C570.39 222.313 572.148 222.69 573.776 223.41C575.404 224.129 576.867 225.175 578.074 226.482C579.282 227.79 580.208 229.331 580.795 231.011C581.382 232.692 581.618 234.474 581.488 236.249C581.358 238.024 580.865 239.754 580.04 241.33C579.214 242.907 578.074 244.298 576.689 245.416C575.305 246.534 573.705 247.355 571.99 247.83V247.8Z" fill="#B3AC1E"/>
<path opacity="0.1" d="M529.66 300.79C522.66 299.41 504.74 282.69 504.74 282.69C504.74 282.69 527.61 273.95 534.64 275.33C536.402 275.56 538.099 276.149 539.625 277.06C541.151 277.972 542.474 279.186 543.512 280.629C544.55 282.072 545.281 283.713 545.66 285.449C546.039 287.186 546.058 288.982 545.715 290.726C545.373 292.47 544.676 294.126 543.669 295.59C542.661 297.054 541.364 298.297 539.857 299.24C538.351 300.183 536.667 300.807 534.909 301.074C533.152 301.34 531.358 301.244 529.64 300.79H529.66Z" fill="#B3AC1E"/>
<path opacity="0.1" d="M488.61 333.67C481.45 333.5 460.99 320.05 460.99 320.05C460.99 320.05 482.06 307.56 489.22 307.73C492.512 308.018 495.57 309.549 497.774 312.011C499.978 314.474 501.161 317.683 501.083 320.986C501.005 324.29 499.673 327.44 497.356 329.796C495.039 332.152 491.911 333.537 488.61 333.67V333.67Z" fill="#B3AC1E"/>
<path opacity="0.1" d="M518.97 229.16C519.97 236.25 535.71 255.02 535.71 255.02C535.71 255.02 545.71 232.64 544.71 225.55C544.58 223.775 544.087 222.045 543.261 220.468C542.436 218.891 541.295 217.501 539.91 216.383C538.524 215.265 536.924 214.443 535.209 213.969C533.493 213.494 531.698 213.377 529.936 213.625C528.173 213.873 526.48 214.48 524.961 215.409C523.443 216.337 522.131 217.568 521.108 219.025C520.084 220.481 519.371 222.132 519.012 223.876C518.653 225.619 518.656 227.418 519.02 229.16H518.97Z" fill="#B3AC1E"/>
<path opacity="0.1" d="M471.41 268.22C474.49 274.69 495.12 287.89 495.12 287.89C495.12 287.89 497.92 263.56 494.84 257.09C493.227 254.218 490.583 252.066 487.444 251.068C484.305 250.071 480.904 250.302 477.928 251.715C474.953 253.129 472.625 255.619 471.415 258.682C470.205 261.746 470.203 265.155 471.41 268.22V268.22Z" fill="#B3AC1E"/>
<path opacity="0.1" d="M430.47 312.53C432.41 319.42 450.47 335.92 450.47 335.92C450.47 335.92 457.41 312.41 455.41 305.51C455.027 303.785 454.296 302.157 453.263 300.724C452.229 299.291 450.914 298.084 449.399 297.176C447.883 296.268 446.198 295.679 444.447 295.444C442.696 295.21 440.915 295.334 439.214 295.811C437.513 296.287 435.926 297.105 434.552 298.215C433.177 299.325 432.044 300.703 431.22 302.266C430.396 303.829 429.899 305.544 429.76 307.305C429.62 309.066 429.842 310.837 430.41 312.51L430.47 312.53Z" fill="#B3AC1E"/>
</g>
<g opacity="0.1">
<path opacity="0.1" d="M623.66 833.37C623.66 833.37 624.6 772.45 656.91 737.45C670.564 722.861 679.112 704.234 681.27 684.37C682.22 674.931 682.304 665.424 681.52 655.97" stroke="#535461" stroke-width="2" stroke-miterlimit="10"/>
<path opacity="0.1" d="M701.75 633.8C699.62 640.61 681.06 656.61 681.06 656.61C681.06 656.61 674.86 632.91 676.99 626.07C678.188 623.006 680.502 620.51 683.467 619.086C686.432 617.661 689.827 617.413 692.967 618.392C696.108 619.371 698.76 621.505 700.39 624.362C702.02 627.219 702.506 630.588 701.75 633.79V633.8Z" fill="#B3AC1E"/>
<path opacity="0.1" d="M710.41 678.06C704.9 682.64 680.64 685.97 680.64 685.97C680.64 685.97 688.3 662.71 693.81 658.12C696.479 656.176 699.788 655.321 703.065 655.728C706.342 656.135 709.341 657.774 711.454 660.311C713.567 662.849 714.634 666.096 714.441 669.392C714.247 672.688 712.806 675.787 710.41 678.06V678.06Z" fill="#B3AC1E"/>
<path opacity="0.1" d="M689.41 742.52C682.34 743.7 659.72 734.32 659.72 734.32C659.72 734.32 678.08 718.11 685.14 716.93C688.423 716.602 691.709 717.535 694.33 719.54C696.951 721.544 698.712 724.471 699.255 727.726C699.798 730.981 699.083 734.321 697.255 737.068C695.426 739.815 692.622 741.764 689.41 742.52V742.52Z" fill="#B3AC1E"/>
<path opacity="0.1" d="M662.41 787.71C655.64 790.06 631.76 784.64 631.76 784.64C631.76 784.64 647.16 765.61 653.92 763.21C655.561 762.502 657.331 762.14 659.119 762.146C660.907 762.153 662.674 762.529 664.311 763.25C665.947 763.97 667.417 765.021 668.628 766.335C669.84 767.65 670.768 769.2 671.353 770.89C671.939 772.579 672.169 774.371 672.031 776.154C671.892 777.936 671.388 779.671 670.548 781.249C669.709 782.828 668.553 784.217 667.153 785.328C665.752 786.44 664.138 787.251 662.41 787.71V787.71Z" fill="#B3AC1E"/>
<path opacity="0.1" d="M654.24 679.19C657.66 685.49 678.98 697.54 678.98 697.54C678.98 697.54 680.45 673.1 676.98 666.8C675.214 664.018 672.457 662.011 669.267 661.184C666.077 660.358 662.692 660.774 659.797 662.348C656.901 663.922 654.712 666.536 653.671 669.663C652.63 672.79 652.816 676.195 654.19 679.19H654.24Z" fill="#B3AC1E"/>
<path opacity="0.1" d="M623.41 732.44C628.56 737.44 652.51 742.54 652.51 742.54C652.51 742.54 646.6 718.78 641.45 713.79C638.925 711.711 635.709 710.659 632.444 710.846C629.178 711.032 626.103 712.443 623.832 714.797C621.56 717.15 620.259 720.274 620.189 723.544C620.118 726.814 621.283 729.991 623.45 732.44H623.41Z" fill="#B3AC1E"/>
<path opacity="0.1" d="M600.59 788.3C604.82 794.08 627.59 803.18 627.59 803.18C627.59 803.18 625.78 778.75 621.59 772.97C619.469 770.442 616.467 768.815 613.191 768.419C609.915 768.023 606.611 768.887 603.949 770.837C601.287 772.787 599.466 775.676 598.855 778.919C598.244 782.162 598.89 785.515 600.66 788.3H600.59Z" fill="#B3AC1E"/>
</g>
<g opacity="0.1">
<path opacity="0.1" d="M473.71 823.79C473.71 823.79 474.65 762.86 506.96 727.86C520.614 713.271 529.162 694.644 531.32 674.78C532.27 665.344 532.354 655.841 531.57 646.39" stroke="#535461" stroke-width="2" stroke-miterlimit="10"/>
<path opacity="0.1" d="M551.8 624.21C549.67 631.05 531.11 647.03 531.11 647.03C531.11 647.03 524.91 623.34 527.04 616.5C527.447 614.761 528.208 613.124 529.275 611.693C530.342 610.261 531.693 609.064 533.244 608.177C534.794 607.291 536.51 606.733 538.286 606.539C540.061 606.345 541.858 606.519 543.563 607.05C545.268 607.581 546.846 608.458 548.197 609.625C549.548 610.793 550.645 612.226 551.418 613.836C552.19 615.447 552.623 617.199 552.689 618.983C552.755 620.768 552.452 622.547 551.8 624.21V624.21Z" fill="#B3AC1E"/>
<path opacity="0.1" d="M560.48 668.47C554.97 673.06 530.71 676.38 530.71 676.38C530.71 676.38 538.37 653.12 543.88 648.54C546.549 646.613 549.85 645.771 553.116 646.183C556.383 646.595 559.371 648.231 561.478 650.761C563.585 653.29 564.654 656.525 564.468 659.812C564.283 663.099 562.858 666.193 560.48 668.47V668.47Z" fill="#B3AC1E"/>
<path opacity="0.1" d="M539.41 732.94C532.34 734.11 509.72 724.73 509.72 724.73C509.72 724.73 528.08 708.52 535.14 707.35C536.872 706.942 538.669 706.895 540.42 707.21C542.171 707.525 543.838 708.196 545.32 709.182C546.801 710.167 548.064 711.447 549.031 712.94C549.997 714.434 550.647 716.11 550.94 717.865C551.233 719.62 551.162 721.416 550.733 723.142C550.303 724.869 549.524 726.489 548.443 727.902C547.362 729.315 546.003 730.492 544.449 731.358C542.895 732.225 541.18 732.763 539.41 732.94Z" fill="#B3AC1E"/>
<path opacity="0.1" d="M512.5 778.12C505.73 780.48 481.85 775.05 481.85 775.05C481.85 775.05 497.21 755.98 503.97 753.61C505.608 752.914 507.372 752.562 509.152 752.576C510.932 752.59 512.69 752.969 514.317 753.69C515.945 754.411 517.407 755.459 518.613 756.768C519.819 758.077 520.743 759.62 521.328 761.301C521.913 762.982 522.147 764.766 522.015 766.541C521.883 768.316 521.388 770.045 520.56 771.621C519.732 773.197 518.59 774.586 517.203 775.702C515.817 776.818 514.216 777.638 512.5 778.11V778.12Z" fill="#B3AC1E"/>
<path opacity="0.1" d="M504.29 669.61C507.71 675.91 529.03 687.96 529.03 687.96C529.03 687.96 530.5 663.52 527.03 657.22C526.311 655.564 525.256 654.076 523.93 652.851C522.605 651.626 521.039 650.69 519.332 650.103C517.625 649.516 515.815 649.291 514.016 649.442C512.218 649.593 510.47 650.118 508.885 650.981C507.3 651.845 505.912 653.029 504.81 654.458C503.708 655.888 502.916 657.531 502.483 659.283C502.051 661.036 501.988 662.859 502.299 664.637C502.61 666.415 503.288 668.108 504.29 669.61V669.61Z" fill="#B3AC1E"/>
<path opacity="0.1" d="M473.48 722.85C478.63 727.85 502.58 732.96 502.58 732.96C502.58 732.96 496.67 709.19 491.52 704.21C490.334 702.86 488.881 701.77 487.252 701.01C485.624 700.25 483.856 699.835 482.059 699.793C480.263 699.75 478.477 700.081 476.814 700.763C475.152 701.446 473.649 702.466 472.401 703.759C471.153 705.051 470.186 706.589 469.562 708.274C468.938 709.959 468.67 711.756 468.775 713.55C468.88 715.344 469.356 717.096 470.173 718.697C470.989 720.298 472.129 721.712 473.52 722.85H473.48Z" fill="#B3AC1E"/>
<path opacity="0.1" d="M450.64 778.71C454.87 784.49 477.64 793.59 477.64 793.59C477.64 793.59 475.83 769.16 471.64 763.38C470.685 761.879 469.433 760.589 467.959 759.591C466.486 758.594 464.824 757.909 463.075 757.58C461.327 757.25 459.529 757.283 457.794 757.677C456.059 758.07 454.423 758.816 452.988 759.867C451.552 760.919 450.348 762.253 449.449 763.789C448.551 765.325 447.977 767.028 447.763 768.795C447.55 770.561 447.701 772.352 448.208 774.058C448.715 775.764 449.566 777.347 450.71 778.71H450.64Z" fill="#B3AC1E"/>
</g>
<path d="M405.41 113.47C407.41 119.63 401.99 141.07 401.99 141.07C401.99 141.07 385.11 126.8 383.13 120.61C382.579 119.127 382.335 117.547 382.412 115.966C382.489 114.386 382.886 112.838 383.578 111.415C384.27 109.992 385.243 108.724 386.439 107.688C387.635 106.651 389.028 105.868 390.535 105.385C392.042 104.902 393.631 104.73 395.206 104.878C396.781 105.026 398.31 105.492 399.7 106.248C401.091 107.004 402.313 108.033 403.295 109.274C404.276 110.516 404.995 111.943 405.41 113.47V113.47Z" fill="#B3AC1E"/>
<path d="M322.41 250.61C324.41 256.77 318.99 278.21 318.99 278.21C318.99 278.21 302.09 263.94 300.11 257.78C299.639 256.316 299.461 254.773 299.587 253.24C299.712 251.707 300.138 250.214 300.841 248.846C301.543 247.477 302.508 246.261 303.681 245.266C304.854 244.27 306.211 243.516 307.675 243.045C309.139 242.574 310.682 242.396 312.215 242.522C313.748 242.647 315.241 243.073 316.609 243.776C317.978 244.478 319.194 245.443 320.189 246.616C321.185 247.789 321.939 249.146 322.41 250.61V250.61Z" fill="#B3AC1E"/>
<path d="M497.27 190.16C499.27 196.32 493.84 217.76 493.84 217.76C493.84 217.76 476.95 203.5 474.97 197.34C474.018 194.383 474.279 191.169 475.697 188.404C477.115 185.64 479.573 183.552 482.53 182.6C485.487 181.648 488.701 181.909 491.466 183.327C494.23 184.745 496.318 187.203 497.27 190.16V190.16Z" fill="#B3AC1E"/>
<path d="M587.73 293.79C589.73 299.94 584.31 321.38 584.31 321.38C584.31 321.38 567.41 307.12 565.41 300.96C564.902 299.487 564.692 297.927 564.795 296.372C564.897 294.816 565.309 293.297 566.006 291.903C566.703 290.509 567.671 289.268 568.854 288.254C570.037 287.239 571.41 286.47 572.894 285.993C574.377 285.515 575.941 285.339 577.494 285.474C579.047 285.609 580.557 286.053 581.936 286.779C583.315 287.505 584.535 288.499 585.525 289.703C586.515 290.907 587.254 292.297 587.7 293.79H587.73Z" fill="#B3AC1E"/>
<path d="M526.69 123.61C523.4 129.18 503.78 139.37 503.78 139.37C503.78 139.37 503.23 117.27 506.52 111.7C508.099 109.025 510.677 107.088 513.685 106.313C516.693 105.538 519.885 105.991 522.56 107.57C525.235 109.149 527.173 111.727 527.947 114.735C528.722 117.743 528.27 120.935 526.69 123.61V123.61Z" fill="#B3AC1E"/>
<path d="M747.94 106.92C744.65 112.49 725.03 122.68 725.03 122.68C725.03 122.68 724.49 100.57 727.78 95.01C728.545 93.6532 729.573 92.4627 730.804 91.5082C732.035 90.5537 733.444 89.8543 734.949 89.4511C736.453 89.0478 738.023 88.9488 739.566 89.1598C741.11 89.3708 742.595 89.8875 743.936 90.6798C745.277 91.4721 746.447 92.524 747.376 93.7738C748.306 95.0237 748.977 96.4465 749.35 97.9589C749.722 99.4712 749.79 101.043 749.548 102.581C749.306 104.12 748.759 105.595 747.94 106.92V106.92Z" fill="#B3AC1E"/>
<path d="M302.41 149.84C296.15 151.47 275.05 144.84 275.05 144.84C275.05 144.84 290.26 128.79 296.52 127.16C298.009 126.773 299.56 126.684 301.084 126.896C302.607 127.109 304.074 127.619 305.401 128.399C306.727 129.179 307.887 130.212 308.815 131.44C309.742 132.667 310.418 134.066 310.805 135.555C311.192 137.044 311.281 138.595 311.069 140.119C310.856 141.643 310.345 143.11 309.566 144.436C308.786 145.763 307.753 146.923 306.525 147.85C305.297 148.777 303.899 149.453 302.41 149.84V149.84Z" fill="#B3AC1E"/>
<path d="M505.13 402.91C501.84 408.48 482.22 418.67 482.22 418.67C482.22 418.67 481.67 396.57 484.96 391C485.742 389.676 486.777 388.518 488.007 387.594C489.236 386.67 490.635 385.996 492.125 385.613C493.614 385.229 495.165 385.143 496.687 385.359C498.21 385.574 499.676 386.088 501 386.87C502.324 387.652 503.482 388.687 504.406 389.917C505.33 391.146 506.004 392.545 506.387 394.035C506.771 395.524 506.857 397.074 506.641 398.597C506.426 400.12 505.912 401.586 505.13 402.91V402.91Z" fill="#B3AC1E"/>
</g>
<defs>
<linearGradient id="paint0_linear" x1="214.53" y1="828.31" x2="214.53" y2="199.31" gradientUnits="userSpaceOnUse">
<stop stop-color="#808080" stop-opacity="0.25"/>
<stop offset="0.54" stop-color="#808080" stop-opacity="0.12"/>
<stop offset="1" stop-color="#808080" stop-opacity="0.1"/>
</linearGradient>
<clipPath id="clip0">
<rect width="1324" height="835" fill="white"/>
</clipPath>
</defs>
</svg>
