<svg width="1826" height="1668" viewBox="0 0 1826 1668" fill="none" xmlns="http://www.w3.org/2000/svg">
<circle cx="861" cy="574" r="501" fill="#231F58"/>
<circle cx="860.01" cy="573.01" r="393.077" fill="#C0DBEA"/>
<mask id="mask0" mask-type="alpha" maskUnits="userSpaceOnUse" x="466" y="179" width="788" height="788">
<circle cx="860.01" cy="573.01" r="393.077" fill="#D3EBF8"/>
</mask>
<g mask="url(#mask0)">
<rect opacity="0.4" x="490.696" y="276.964" width="71.2885" height="592.091" fill="white"/>
<rect opacity="0.4" x="629.312" y="217.557" width="43.5652" height="699.024" fill="white"/>
</g>
<path d="M135.904 1232.99H1607L1521.1 1333.93H50.0005L135.904 1232.99Z" fill="#A6805D"/>
<path opacity="0.1" d="M135.904 1232.99H1607L1521.1 1333.93H50.0005L135.904 1232.99Z" fill="black"/>
<rect x="50" y="1333.93" width="1471.1" height="103.084" fill="#A6805D"/>
<path d="M1607 1232.99L1521.1 1333.93V1437.01L1607 1333.93V1232.99Z" fill="#A6805D"/>
<path opacity="0.2" d="M1607 1232.99L1521.1 1333.93V1437.01L1607 1333.93V1232.99Z" fill="black"/>
<path d="M206.222 950.545L159.222 995.924C158.441 996.678 158 997.716 158 998.802V1072C158 1074.21 159.791 1076 162 1076H209C211.209 1076 213 1074.21 213 1072V953.422C213 949.892 208.761 948.093 206.222 950.545Z" fill="#682610"/>
<path opacity="0.1" d="M168 987.46L177 978.755V1076H168V987.46Z" fill="white"/>
<path fill-rule="evenodd" clip-rule="evenodd" d="M155 1075C152.239 1075 150 1077.24 150 1080V1103H153C145.82 1103 140 1108.82 140 1116V1286C140 1293.18 145.82 1299 153 1299H216C223.18 1299 229 1293.18 229 1286V1116C229 1108.82 223.18 1103 216 1103H219V1080C219 1077.24 216.761 1075 214 1075H155Z" fill="#231F58"/>
<rect opacity="0.1" x="166" y="1075" width="13" height="224" fill="white"/>
<path fill-rule="evenodd" clip-rule="evenodd" d="M323 808C323 805.239 325.239 803 328 803C330.761 803 333 805.239 333 808V818H341.5C344.538 818 347 820.462 347 823.5C347 826.538 344.538 829 341.5 829H333V840H348.5C351.538 840 354 842.462 354 845.5C354 848.538 351.538 851 348.5 851H333V862H351.5C354.538 862 357 864.462 357 867.5C357 870.538 354.538 873 351.5 873H333V885H351.5C354.538 885 357 887.462 357 890.5C357 893.538 354.538 896 351.5 896H333V906H348.5C351.538 906 354 908.462 354 911.5C354 914.538 351.538 917 348.5 917H333V927H341.5C344.538 927 347 929.462 347 932.5C347 935.538 344.538 938 341.5 938H333V1112H323V938H314.5C311.462 938 309 935.538 309 932.5C309 929.462 311.462 927 314.5 927H323V917H308.5C305.462 917 303 914.538 303 911.5C303 908.462 305.462 906 308.5 906H323V896H304.5C301.462 896 299 893.538 299 890.5C299 887.462 301.462 885 304.5 885H323V873H304.5C301.462 873 299 870.538 299 867.5C299 864.462 301.462 862 304.5 862H323V851H308.5C305.462 851 303 848.538 303 845.5C303 842.462 305.462 840 308.5 840H323V829H314.5C311.462 829 309 826.538 309 823.5C309 820.462 311.462 818 314.5 818H323V808Z" fill="black"/>
<path fill-rule="evenodd" clip-rule="evenodd" d="M329.5 1109C323.877 1109 315.942 1108.46 312.163 1108.17C310.996 1108.08 310 1109 310 1110.18V1127C310 1128.1 309.105 1129 308 1129H301C299.895 1129 299 1129.9 299 1131V1297C299 1298.1 299.895 1299 301 1299H358C359.105 1299 360 1298.1 360 1297V1131C360 1129.9 359.105 1129 358 1129H351C349.895 1129 349 1128.1 349 1127V1110.18C349 1109 348.004 1108.08 346.837 1108.17C343.058 1108.46 335.123 1109 329.5 1109Z" fill="#231F58"/>
<path opacity="0.3" d="M310 1111C310 1111 321.875 1112 329.5 1112C337.125 1112 349 1111 349 1111" stroke="black" stroke-width="0.5"/>
<path opacity="0.5" d="M310 1114C310 1114 321.875 1115 329.5 1115C337.125 1115 349 1114 349 1114" stroke="black" stroke-width="0.5"/>
<path opacity="0.5" d="M310 1117C310 1117 321.875 1118 329.5 1118C337.125 1118 349 1117 349 1117" stroke="black" stroke-width="0.5"/>
<path opacity="0.5" d="M310 1120C310 1120 321.875 1121 329.5 1121C337.125 1121 349 1120 349 1120" stroke="black" stroke-width="0.5"/>
<path opacity="0.5" d="M310 1123C310 1123 321.875 1124 329.5 1124C337.125 1124 349 1123 349 1123" stroke="black" stroke-width="0.5"/>
<path opacity="0.1" d="M317 1108.5L326 1109V1299H317V1108.5Z" fill="white"/>
<path opacity="0.8" d="M319.386 823.463C319.716 818.677 323.702 815 328.5 815V815C333.298 815 337.284 818.677 337.614 823.463C338.492 836.167 340 860.537 340 878C340 895.463 338.492 919.833 337.614 932.537C337.284 937.323 333.298 941 328.5 941V941C323.702 941 319.716 937.323 319.386 932.537C318.508 919.833 317 895.463 317 878C317 860.537 318.508 836.167 319.386 823.463Z" fill="black"/>
</svg>
