<svg width="482" height="525" viewBox="0 0 482 525" fill="none" xmlns="http://www.w3.org/2000/svg">
<path fill-rule="evenodd" clip-rule="evenodd" d="M481.337 190.122C452.954 92.3428 365.27 21.102 261.5 21.102C134.751 21.102 32 127.389 32 258.5C32 389.611 134.751 495.898 261.5 495.898C365.27 495.898 452.954 424.657 481.337 326.878C452.922 436.462 357.875 517 245 517C109.69 517 0 401.266 0 258.5C0 115.734 109.69 0 245 0C357.875 0 452.922 80.5383 481.337 190.122Z" fill="#793D3D"/>
<ellipse cx="193.529" cy="497.59" rx="10.5" ry="25.5" transform="rotate(7 193.529 497.59)" fill="#EEE857"/>
<ellipse cx="207.529" cy="497.59" rx="10.5" ry="25.5" fill="#EEE857"/>
<ellipse cx="222.529" cy="497.59" rx="10.5" ry="25.5" transform="rotate(-7 222.529 497.59)" fill="#EEE857"/>
<ellipse cx="266.529" cy="497.59" rx="10.5" ry="25.5" transform="rotate(7 266.529 497.59)" fill="#EEE857"/>
<ellipse cx="280.529" cy="497.59" rx="10.5" ry="25.5" fill="#EEE857"/>
<ellipse cx="295.529" cy="497.59" rx="10.5" ry="25.5" transform="rotate(-7 295.529 497.59)" fill="#EEE857"/>
<circle cx="245.5" cy="341.5" r="156.5" fill="#793D3D"/>
<path d="M391 356.296C391 448.917 325.051 504 244.98 504C164.91 504 100 448.917 100 356.296C100 263.674 164.91 185 244.98 185C325.051 185 391 263.674 391 356.296Z" fill="#B15A5A"/>
<path fill-rule="evenodd" clip-rule="evenodd" d="M149.87 260.153C161.802 252.393 168.469 237.921 165.587 223.09C162.704 208.259 151.1 197.338 137.13 194.613C125.198 202.373 118.531 216.846 121.413 231.676C124.296 246.507 135.9 257.428 149.87 260.153Z" fill="#B15A5A"/>
<path fill-rule="evenodd" clip-rule="evenodd" d="M346.13 260.153C360.1 257.428 371.704 246.507 374.587 231.677C377.469 216.846 370.802 202.373 358.87 194.614C344.9 197.338 333.296 208.26 330.413 223.09C327.531 237.921 334.198 252.393 346.13 260.153Z" fill="#B15A5A"/>
<path d="M245.5 386L193.971 317.75H297.029L245.5 386Z" fill="#EEE857"/>
<circle cx="193.5" cy="297.5" r="60.5" fill="white"/>
<circle cx="299.5" cy="297.5" r="60.5" fill="white"/>
<circle cx="193.5" cy="297.5" r="42" stroke="#B15A5A" stroke-width="3"/>
<circle cx="299.5" cy="297.5" r="42" stroke="#B15A5A" stroke-width="3"/>
<circle cx="193" cy="297" r="36" fill="black"/>
<circle cx="299" cy="297" r="36" fill="black"/>
<circle cx="176.5" cy="276.5" r="4.5" fill="white"/>
<circle cx="284.5" cy="276.5" r="4.5" fill="white"/>
</svg>
