<svg width="38" height="38" viewBox="0 0 38 38" fill="none" xmlns="http://www.w3.org/2000/svg">
<rect y="-0.000244141" width="38" height="38" rx="4" fill="#793D3D"/>
<path d="M13.6486 18.5758C14.8006 18.5758 15.7446 18.9118 16.4806 19.5838C17.2486 20.2238 17.6326 21.0398 17.6326 22.0318C17.6326 23.0238 17.2326 23.8558 16.4326 24.5278C15.6646 25.1998 14.6886 25.5358 13.5046 25.5358C12.2566 25.5358 11.2486 25.1838 10.4806 24.4798C9.74456 23.7438 9.37656 22.7678 9.37656 21.5518C9.37656 20.0798 9.85656 18.4958 10.8166 16.7998C11.8086 15.0718 12.9926 13.8078 14.3686 13.0078L15.7606 14.2558L15.6646 14.4478C15.1526 14.7678 14.6886 15.3598 14.2726 16.2238C13.8566 17.0558 13.6326 17.8398 13.6006 18.5758H13.6486ZM24.6406 18.5278C25.7926 18.5278 26.7366 18.8638 27.4726 19.5358C28.2406 20.1758 28.6246 20.9918 28.6246 21.9838C28.6246 22.9758 28.2246 23.8078 27.4246 24.4798C26.6566 25.1518 25.6806 25.4878 24.4966 25.4878C23.2486 25.4878 22.2406 25.1358 21.4726 24.4318C20.7366 23.6958 20.3686 22.7198 20.3686 21.5038C20.3686 20.0318 20.8486 18.4478 21.8086 16.7518C22.8006 15.0238 23.9846 13.7598 25.3606 12.9598L26.7526 14.2078L26.6566 14.3998C26.1446 14.7198 25.6806 15.3118 25.2646 16.1758C24.8486 17.0078 24.6246 17.7918 24.5926 18.5278H24.6406Z" fill="white"/>
</svg>
