<svg width="176" height="52" viewBox="0 0 176 52" fill="none" xmlns="http://www.w3.org/2000/svg">
<path d="M68.472 27.72C68.472 28.456 68.408 29.096 68.28 29.64C68.408 30.152 68.472 30.792 68.472 31.56C68.472 32.296 68.408 32.936 68.28 33.48H66.84C66.968 33.992 67.032 34.632 67.032 35.4C67.032 36.136 66.968 36.776 66.84 37.32C66.968 37.832 67.032 38.472 67.032 39.24C67.032 39.976 66.968 40.616 66.84 41.16H65.88C66.008 41.672 66.072 42.312 66.072 43.08C66.072 43.816 66.008 44.456 65.88 45H63C62.872 44.456 62.808 43.816 62.808 43.08C62.808 42.312 62.872 41.672 63 41.16H62.04C61.912 40.616 61.848 39.976 61.848 39.24C61.848 38.472 61.912 37.832 62.04 37.32H59.16C59.288 37.832 59.352 38.472 59.352 39.24C59.352 39.976 59.288 40.616 59.16 41.16H58.2C58.328 41.672 58.392 42.312 58.392 43.08C58.392 43.816 58.328 44.456 58.2 45H55.32C55.192 44.456 55.128 43.816 55.128 43.08C55.128 42.312 55.192 41.672 55.32 41.16H54.36C54.232 40.616 54.168 39.976 54.168 39.24C54.168 38.472 54.232 37.832 54.36 37.32C54.232 36.776 54.168 36.136 54.168 35.4C54.168 34.632 54.232 33.992 54.36 33.48H52.92C52.792 32.936 52.728 32.296 52.728 31.56C52.728 30.792 52.792 30.152 52.92 29.64C52.792 29.096 52.728 28.456 52.728 27.72C52.728 26.952 52.792 26.312 52.92 25.8H56.76C56.888 26.312 56.952 26.952 56.952 27.72C56.952 28.456 56.888 29.096 56.76 29.64C56.888 30.152 56.952 30.792 56.952 31.56C56.952 32.296 56.888 32.936 56.76 33.48C56.888 33.992 56.952 34.632 56.952 35.4C56.952 36.136 56.888 36.776 56.76 37.32H58.2C58.072 36.776 58.008 36.136 58.008 35.4C58.008 34.632 58.072 33.992 58.2 33.48H59.16C59.032 32.936 58.968 32.296 58.968 31.56C58.968 30.792 59.032 30.152 59.16 29.64C59.032 29.096 58.968 28.456 58.968 27.72C58.968 26.952 59.032 26.312 59.16 25.8H62.04C62.168 26.312 62.232 26.952 62.232 27.72C62.232 28.456 62.168 29.096 62.04 29.64C62.168 30.152 62.232 30.792 62.232 31.56C62.232 32.296 62.168 32.936 62.04 33.48H63C63.128 33.992 63.192 34.632 63.192 35.4C63.192 36.136 63.128 36.776 63 37.32H64.44C64.312 36.776 64.248 36.136 64.248 35.4C64.248 34.632 64.312 33.992 64.44 33.48C64.312 32.936 64.248 32.296 64.248 31.56C64.248 30.792 64.312 30.152 64.44 29.64C64.312 29.096 64.248 28.456 64.248 27.72C64.248 26.952 64.312 26.312 64.44 25.8H68.28C68.408 26.312 68.472 26.952 68.472 27.72ZM84.1388 41.16C84.2667 41.672 84.3307 42.312 84.3307 43.08C84.3307 43.816 84.2667 44.456 84.1388 45H72.6187C72.4907 44.456 72.4267 43.816 72.4267 43.08C72.4267 42.312 72.4907 41.672 72.6187 41.16H76.4588C76.3307 40.616 76.2667 39.976 76.2667 39.24C76.2667 38.472 76.3307 37.832 76.4588 37.32C76.3307 36.776 76.2667 36.136 76.2667 35.4C76.2667 34.632 76.3307 33.992 76.4588 33.48C76.3307 32.936 76.2667 32.296 76.2667 31.56C76.2667 30.792 76.3307 30.152 76.4588 29.64C76.3307 29.096 76.2667 28.456 76.2667 27.72C76.2667 26.952 76.3307 26.312 76.4588 25.8C76.3307 25.256 76.2667 24.616 76.2667 23.88C76.2667 23.112 76.3307 22.472 76.4588 21.96H73.5787C73.4507 21.416 73.3867 20.776 73.3867 20.04C73.3867 19.272 73.4507 18.632 73.5787 18.12H80.2987C80.4268 18.632 80.4908 19.272 80.4908 20.04C80.4908 20.776 80.4268 21.416 80.2987 21.96C80.4268 22.472 80.4908 23.112 80.4908 23.88C80.4908 24.616 80.4268 25.256 80.2987 25.8C80.4268 26.312 80.4908 26.952 80.4908 27.72C80.4908 28.456 80.4268 29.096 80.2987 29.64C80.4268 30.152 80.4908 30.792 80.4908 31.56C80.4908 32.296 80.4268 32.936 80.2987 33.48C80.4268 33.992 80.4908 34.632 80.4908 35.4C80.4908 36.136 80.4268 36.776 80.2987 37.32C80.4268 37.832 80.4908 38.472 80.4908 39.24C80.4908 39.976 80.4268 40.616 80.2987 41.16H84.1388ZM104.03 39.24C104.03 39.976 103.965 40.616 103.837 41.16C103.965 41.672 104.03 42.312 104.03 43.08C104.03 43.816 103.965 44.456 103.837 45H99.9975C99.8695 44.456 99.8055 43.816 99.8055 43.08C99.8055 42.312 99.8695 41.672 99.9975 41.16C99.8695 40.616 99.8055 39.976 99.8055 39.24C99.8055 38.472 99.8695 37.832 99.9975 37.32H92.3175C92.4455 37.832 92.5095 38.472 92.5095 39.24C92.5095 39.976 92.4455 40.616 92.3175 41.16C92.4455 41.672 92.5095 42.312 92.5095 43.08C92.5095 43.816 92.4455 44.456 92.3175 45H88.4775C88.3495 44.456 88.2855 43.816 88.2855 43.08C88.2855 42.312 88.3495 41.672 88.4775 41.16C88.3495 40.616 88.2855 39.976 88.2855 39.24C88.2855 38.472 88.3495 37.832 88.4775 37.32H89.9175C89.7895 36.776 89.7255 36.136 89.7255 35.4C89.7255 34.632 89.7895 33.992 89.9175 33.48C89.7895 32.936 89.7255 32.296 89.7255 31.56C89.7255 30.792 89.7895 30.152 89.9175 29.64H90.8775C90.7495 29.096 90.6855 28.456 90.6855 27.72C90.6855 26.952 90.7495 26.312 90.8775 25.8H92.3175C92.1895 25.256 92.1255 24.616 92.1255 23.88C92.1255 23.112 92.1895 22.472 92.3175 21.96H93.2775C93.1495 21.416 93.0855 20.776 93.0855 20.04C93.0855 19.272 93.1495 18.632 93.2775 18.12H99.0375C99.1655 18.632 99.2295 19.272 99.2295 20.04C99.2295 20.776 99.1655 21.416 99.0375 21.96H99.9975C100.125 22.472 100.189 23.112 100.189 23.88C100.189 24.616 100.125 25.256 99.9975 25.8H101.437C101.565 26.312 101.629 26.952 101.629 27.72C101.629 28.456 101.565 29.096 101.437 29.64H102.397C102.525 30.152 102.589 30.792 102.589 31.56C102.589 32.296 102.525 32.936 102.397 33.48C102.525 33.992 102.589 34.632 102.589 35.4C102.589 36.136 102.525 36.776 102.397 37.32H103.837C103.965 37.832 104.03 38.472 104.03 39.24ZM98.5575 33.48C98.4295 32.936 98.3655 32.296 98.3655 31.56C98.3655 30.792 98.4295 30.152 98.5575 29.64H97.5975C97.4695 29.096 97.4055 28.456 97.4055 27.72C97.4055 26.952 97.4695 26.312 97.5975 25.8H94.7175C94.8455 26.312 94.9095 26.952 94.9095 27.72C94.9095 28.456 94.8455 29.096 94.7175 29.64H93.7575C93.8855 30.152 93.9495 30.792 93.9495 31.56C93.9495 32.296 93.8855 32.936 93.7575 33.48H98.5575ZM110.096 37.32C110.224 37.832 110.288 38.472 110.288 39.24C110.288 39.976 110.224 40.616 110.096 41.16H108.176C108.304 41.672 108.368 42.312 108.368 43.08C108.368 43.816 108.304 44.456 108.176 45H106.256C106.128 44.456 106.064 43.816 106.064 43.08C106.064 42.312 106.128 41.672 106.256 41.16C106.128 40.616 106.064 39.976 106.064 39.24C106.064 38.472 106.128 37.832 106.256 37.32C106.128 36.776 106.064 36.136 106.064 35.4C106.064 34.632 106.128 33.992 106.256 33.48C106.128 32.936 106.064 32.296 106.064 31.56C106.064 30.792 106.128 30.152 106.256 29.64C106.128 29.096 106.064 28.456 106.064 27.72C106.064 26.952 106.128 26.312 106.256 25.8C106.128 25.256 106.064 24.616 106.064 23.88C106.064 23.112 106.128 22.472 106.256 21.96C106.128 21.416 106.064 20.776 106.064 20.04C106.064 19.272 106.128 18.632 106.256 18.12H110.096C110.224 18.632 110.288 19.272 110.288 20.04C110.288 20.776 110.224 21.416 110.096 21.96C110.224 22.472 110.288 23.112 110.288 23.88C110.288 24.616 110.224 25.256 110.096 25.8C110.224 26.312 110.288 26.952 110.288 27.72C110.288 28.456 110.224 29.096 110.096 29.64H112.016C112.144 30.152 112.208 30.792 112.208 31.56C112.208 32.296 112.144 32.936 112.016 33.48H110.096C110.224 33.992 110.288 34.632 110.288 35.4C110.288 36.136 110.224 36.776 110.096 37.32ZM121.808 35.4C121.808 36.136 121.744 36.776 121.616 37.32H119.696C119.824 37.832 119.888 38.472 119.888 39.24C119.888 39.976 119.824 40.616 119.696 41.16H115.856C115.728 40.616 115.664 39.976 115.664 39.24C115.664 38.472 115.728 37.832 115.856 37.32H117.776C117.648 36.776 117.584 36.136 117.584 35.4C117.584 34.632 117.648 33.992 117.776 33.48H115.856C115.728 32.936 115.664 32.296 115.664 31.56C115.664 30.792 115.728 30.152 115.856 29.64H112.016C111.888 29.096 111.824 28.456 111.824 27.72C111.824 26.952 111.888 26.312 112.016 25.8H117.776C117.904 26.312 117.968 26.952 117.968 27.72C117.968 28.456 117.904 29.096 117.776 29.64H119.696C119.824 30.152 119.888 30.792 119.888 31.56C119.888 32.296 119.824 32.936 119.696 33.48H121.616C121.744 33.992 121.808 34.632 121.808 35.4ZM109.904 43.08C109.904 42.312 109.968 41.672 110.096 41.16H115.856C115.984 41.672 116.048 42.312 116.048 43.08C116.048 43.816 115.984 44.456 115.856 45H110.096C109.968 44.456 109.904 43.816 109.904 43.08ZM139.587 35.4C139.587 36.136 139.523 36.776 139.395 37.32H137.955C138.083 37.832 138.147 38.472 138.147 39.24C138.147 39.976 138.083 40.616 137.955 41.16H135.555C135.683 41.672 135.747 42.312 135.747 43.08C135.747 43.816 135.683 44.456 135.555 45H127.875C127.747 44.456 127.683 43.816 127.683 43.08C127.683 42.312 127.747 41.672 127.875 41.16H125.475C125.347 40.616 125.283 39.976 125.283 39.24C125.283 38.472 125.347 37.832 125.475 37.32H124.035C123.907 36.776 123.843 36.136 123.843 35.4C123.843 34.632 123.907 33.992 124.035 33.48H125.475C125.347 32.936 125.283 32.296 125.283 31.56C125.283 30.792 125.347 30.152 125.475 29.64H127.875C127.747 29.096 127.683 28.456 127.683 27.72C127.683 26.952 127.747 26.312 127.875 25.8H135.555C135.683 26.312 135.747 26.952 135.747 27.72C135.747 28.456 135.683 29.096 135.555 29.64H137.955C138.083 30.152 138.147 30.792 138.147 31.56C138.147 32.296 138.083 32.936 137.955 33.48H139.395C139.523 33.992 139.587 34.632 139.587 35.4ZM135.555 37.32C135.427 36.776 135.363 36.136 135.363 35.4C135.363 34.632 135.427 33.992 135.555 33.48H134.115C133.987 32.936 133.923 32.296 133.923 31.56C133.923 30.792 133.987 30.152 134.115 29.64H129.315C129.443 30.152 129.507 30.792 129.507 31.56C129.507 32.296 129.443 32.936 129.315 33.48H127.875C128.003 33.992 128.067 34.632 128.067 35.4C128.067 36.136 128.003 36.776 127.875 37.32H129.315C129.443 37.832 129.507 38.472 129.507 39.24C129.507 39.976 129.443 40.616 129.315 41.16H134.115C133.987 40.616 133.923 39.976 133.923 39.24C133.923 38.472 133.987 37.832 134.115 37.32H135.555ZM147.286 39.24C147.286 39.976 147.222 40.616 147.094 41.16H151.894C152.022 41.672 152.086 42.312 152.086 43.08C152.086 43.816 152.022 44.456 151.894 45H144.214C144.086 44.456 144.022 43.816 144.022 43.08C144.022 42.312 144.086 41.672 144.214 41.16H141.814C141.686 40.616 141.622 39.976 141.622 39.24C141.622 38.472 141.686 37.832 141.814 37.32C141.686 36.776 141.622 36.136 141.622 35.4C141.622 34.632 141.686 33.992 141.814 33.48C141.686 32.936 141.622 32.296 141.622 31.56C141.622 30.792 141.686 30.152 141.814 29.64C141.686 29.096 141.622 28.456 141.622 27.72C141.622 26.952 141.686 26.312 141.814 25.8H145.654C145.782 26.312 145.846 26.952 145.846 27.72C145.846 28.456 145.782 29.096 145.654 29.64C145.782 30.152 145.846 30.792 145.846 31.56C145.846 32.296 145.782 32.936 145.654 33.48C145.782 33.992 145.846 34.632 145.846 35.4C145.846 36.136 145.782 36.776 145.654 37.32H147.094C147.222 37.832 147.286 38.472 147.286 39.24ZM157.174 29.64C157.302 30.152 157.366 30.792 157.366 31.56C157.366 32.296 157.302 32.936 157.174 33.48C157.302 33.992 157.366 34.632 157.366 35.4C157.366 36.136 157.302 36.776 157.174 37.32C157.302 37.832 157.366 38.472 157.366 39.24C157.366 39.976 157.302 40.616 157.174 41.16C157.302 41.672 157.366 42.312 157.366 43.08C157.366 43.816 157.302 44.456 157.174 45H153.334C153.206 44.456 153.142 43.816 153.142 43.08C153.142 42.312 153.206 41.672 153.334 41.16H151.894C151.766 40.616 151.702 39.976 151.702 39.24C151.702 38.472 151.766 37.832 151.894 37.32H153.334C153.206 36.776 153.142 36.136 153.142 35.4C153.142 34.632 153.206 33.992 153.334 33.48C153.206 32.936 153.142 32.296 153.142 31.56C153.142 30.792 153.206 30.152 153.334 29.64C153.206 29.096 153.142 28.456 153.142 27.72C153.142 26.952 153.206 26.312 153.334 25.8H157.174C157.302 26.312 157.366 26.952 157.366 27.72C157.366 28.456 157.302 29.096 157.174 29.64ZM173.033 41.16C173.161 41.672 173.225 42.312 173.225 43.08C173.225 43.816 173.161 44.456 173.033 45H165.353C165.225 44.456 165.161 43.816 165.161 43.08C165.161 42.312 165.225 41.672 165.353 41.16H163.433C163.305 40.616 163.241 39.976 163.241 39.24C163.241 38.472 163.305 37.832 163.433 37.32C163.305 36.776 163.241 36.136 163.241 35.4C163.241 34.632 163.305 33.992 163.433 33.48C163.305 32.936 163.241 32.296 163.241 31.56C163.241 30.792 163.305 30.152 163.433 29.64H159.593C159.465 29.096 159.401 28.456 159.401 27.72C159.401 26.952 159.465 26.312 159.593 25.8H163.433C163.305 25.256 163.241 24.616 163.241 23.88C163.241 23.112 163.305 22.472 163.433 21.96C163.305 21.416 163.241 20.776 163.241 20.04C163.241 19.272 163.305 18.632 163.433 18.12H167.273C167.401 18.632 167.465 19.272 167.465 20.04C167.465 20.776 167.401 21.416 167.273 21.96C167.401 22.472 167.465 23.112 167.465 23.88C167.465 24.616 167.401 25.256 167.273 25.8H173.033C173.161 26.312 173.225 26.952 173.225 27.72C173.225 28.456 173.161 29.096 173.033 29.64H167.273C167.401 30.152 167.465 30.792 167.465 31.56C167.465 32.296 167.401 32.936 167.273 33.48C167.401 33.992 167.465 34.632 167.465 35.4C167.465 36.136 167.401 36.776 167.273 37.32C167.401 37.832 167.465 38.472 167.465 39.24C167.465 39.976 167.401 40.616 167.273 41.16H173.033Z" fill="#696969"/>
<g clip-path="url(#clip0)">
<path fill-rule="evenodd" clip-rule="evenodd" d="M47.934 18.8606C45.1075 9.16065 36.3754 2.09337 26.0415 2.09337C13.4192 2.09337 3.18672 12.6373 3.18672 25.6439C3.18672 38.6504 13.4192 49.1944 26.0415 49.1944C36.3754 49.1944 45.1075 42.1271 47.934 32.4272C45.1043 43.2982 35.639 51.2878 24.3983 51.2878C10.9235 51.2878 0 39.8067 0 25.6439C0 11.4811 10.9235 0 24.3983 0C35.639 0 45.1043 7.98961 47.934 18.8606Z" fill="#793D3D"/>
<path d="M18.9631 51.873C19.5363 51.9432 20.1395 50.8759 20.3104 49.4892C20.4814 48.1025 20.1553 46.9215 19.5821 46.8514C19.0089 46.7813 18.4057 47.8486 18.2347 49.2353C18.0638 50.622 18.3899 51.8029 18.9631 51.873Z" fill="#EEE857"/>
<path d="M20.6668 51.8919C21.2443 51.8919 21.7124 50.7593 21.7124 49.3622C21.7124 47.9652 21.2443 46.8326 20.6668 46.8326C20.0893 46.8326 19.6212 47.9652 19.6212 49.3622C19.6212 50.7593 20.0893 51.8919 20.6668 51.8919Z" fill="#EEE857"/>
<path d="M22.47 51.8731C23.0432 51.803 23.3693 50.622 23.1984 49.2353C23.0275 47.8486 22.4243 46.7813 21.8511 46.8514C21.2779 46.9215 20.9518 48.1025 21.1227 49.4892C21.2936 50.8759 21.8968 51.9432 22.47 51.8731Z" fill="#EEE857"/>
<path d="M26.2328 51.8731C26.806 51.9432 27.4092 50.8759 27.5802 49.4892C27.7511 48.1025 27.425 46.9215 26.8518 46.8514C26.2786 46.7813 25.6754 47.8486 25.5045 49.2353C25.3335 50.622 25.6596 51.8029 26.2328 51.8731Z" fill="#EEE857"/>
<path d="M27.9365 51.8919C28.514 51.8919 28.9821 50.7593 28.9821 49.3622C28.9821 47.9652 28.514 46.8326 27.9365 46.8326C27.359 46.8326 26.8909 47.9652 26.8909 49.3622C26.8909 50.7593 27.359 51.8919 27.9365 51.8919Z" fill="#EEE857"/>
<path d="M29.7397 51.8731C30.3129 51.803 30.639 50.622 30.4681 49.2353C30.2972 47.8486 29.694 46.7813 29.1208 46.8514C28.5476 46.9215 28.2215 48.1025 28.3924 49.4892C28.5633 50.8759 29.1665 51.9432 29.7397 51.8731Z" fill="#EEE857"/>
<path d="M24.4481 49.4029C33.0555 49.4029 40.0332 42.452 40.0332 33.8777C40.0332 25.3034 33.0555 18.3525 24.4481 18.3525C15.8407 18.3525 8.86307 25.3034 8.86307 33.8777C8.86307 42.452 15.8407 49.4029 24.4481 49.4029Z" fill="#793D3D"/>
<path d="M38.9378 35.3455C38.9378 44.5337 32.3702 49.9981 24.3964 49.9981C16.4226 49.9981 9.95851 44.5337 9.95851 35.3455C9.95851 26.1571 16.4226 18.3525 24.3964 18.3525C32.3702 18.3525 38.9378 26.1571 38.9378 35.3455Z" fill="#B15A5A"/>
<path fill-rule="evenodd" clip-rule="evenodd" d="M14.9248 25.8079C16.1131 25.038 16.777 23.6024 16.49 22.1311C16.2029 20.6598 15.0473 19.5764 13.6561 19.3061C12.4679 20.0759 11.8039 21.5117 12.0909 22.9829C12.378 24.4541 13.5336 25.5375 14.9248 25.8079Z" fill="#B15A5A"/>
<path fill-rule="evenodd" clip-rule="evenodd" d="M34.4694 25.8079C35.8606 25.5375 37.0162 24.4541 37.3033 22.9829C37.5903 21.5117 36.9263 20.0759 35.7381 19.3061C34.3469 19.5764 33.1913 20.6598 32.9042 22.1311C32.6172 23.6024 33.2811 25.038 34.4694 25.8079Z" fill="#B15A5A"/>
<path d="M24.4481 38.2922L19.3166 31.5216H29.5796L24.4481 38.2922Z" fill="#EEE857"/>
<path d="M19.2697 35.5146C22.5972 35.5146 25.2946 32.8275 25.2946 29.5128C25.2946 26.1981 22.5972 23.511 19.2697 23.511C15.9422 23.511 13.2448 26.1981 13.2448 29.5128C13.2448 32.8275 15.9422 35.5146 19.2697 35.5146Z" fill="white"/>
<path d="M29.8257 35.5146C33.1532 35.5146 35.8506 32.8275 35.8506 29.5128C35.8506 26.1981 33.1532 23.511 29.8257 23.511C26.4983 23.511 23.8008 26.1981 23.8008 29.5128C23.8008 32.8275 26.4983 35.5146 29.8257 35.5146Z" fill="white"/>
<path d="M19.2492 33.6664C21.5592 33.6664 23.4318 31.801 23.4318 29.4999C23.4318 27.1988 21.5592 25.3333 19.2492 25.3333C16.9393 25.3333 15.0667 27.1988 15.0667 29.4999C15.0667 31.801 16.9393 33.6664 19.2492 33.6664Z" stroke="#B15A5A" stroke-width="0.7"/>
<path d="M29.7826 33.6664C32.0925 33.6664 33.9651 31.801 33.9651 29.4999C33.9651 27.1988 32.0925 25.3333 29.7826 25.3333C27.4726 25.3333 25.6 27.1988 25.6 29.4999C25.6 31.801 27.4726 33.6664 29.7826 33.6664Z" stroke="#B15A5A" stroke-width="0.7"/>
<path d="M19.2199 33.0345C21.1999 33.0345 22.805 31.4356 22.805 29.4632C22.805 27.4908 21.1999 25.8919 19.2199 25.8919C17.2399 25.8919 15.6349 27.4908 15.6349 29.4632C15.6349 31.4356 17.2399 33.0345 19.2199 33.0345Z" fill="black"/>
<path d="M29.7759 33.0345C31.7559 33.0345 33.361 31.4356 33.361 29.4632C33.361 27.4908 31.7559 25.8919 29.7759 25.8919C27.796 25.8919 26.1909 27.4908 26.1909 29.4632C26.1909 31.4356 27.796 33.0345 29.7759 33.0345Z" fill="black"/>
<path d="M17.5768 27.8759C17.8243 27.8759 18.0249 27.6761 18.0249 27.4295C18.0249 27.183 17.8243 26.9831 17.5768 26.9831C17.3293 26.9831 17.1286 27.183 17.1286 27.4295C17.1286 27.6761 17.3293 27.8759 17.5768 27.8759Z" fill="white"/>
<path d="M28.332 27.8759C28.5794 27.8759 28.7801 27.6761 28.7801 27.4295C28.7801 27.183 28.5794 26.9831 28.332 26.9831C28.0845 26.9831 27.8838 27.183 27.8838 27.4295C27.8838 27.6761 28.0845 27.8759 28.332 27.8759Z" fill="white"/>
</g>
<defs>
<clipPath id="clip0">
<rect width="48" height="52" fill="white"/>
</clipPath>
</defs>
</svg>
