<svg width="1557" height="1365" viewBox="0 0 1557 1365" fill="none" xmlns="http://www.w3.org/2000/svg">
<circle cx="811" cy="501" r="501" fill="#231F58"/>
<circle cx="810.01" cy="500.01" r="393.077" fill="#C0DBEA"/>
<mask id="mask0" mask-type="alpha" maskUnits="userSpaceOnUse" x="416" y="106" width="788" height="788">
<circle cx="810.01" cy="500.01" r="393.077" fill="#D3EBF8"/>
</mask>
<g mask="url(#mask0)">
<rect opacity="0.4" x="440.696" y="203.964" width="71.2885" height="592.091" fill="white"/>
<rect opacity="0.4" x="579.312" y="144.557" width="43.5652" height="699.024" fill="white"/>
</g>
<path d="M85.9039 1159.99H1557L1471.1 1260.93H0.000488281L85.9039 1159.99Z" fill="#A6805D"/>
<path opacity="0.1" d="M85.9039 1159.99H1557L1471.1 1260.93H0.000488281L85.9039 1159.99Z" fill="black"/>
<rect y="1260.93" width="1471.1" height="103.084" fill="#A6805D"/>
<path d="M1557 1159.99L1471.1 1260.93V1364.01L1557 1260.93V1159.99Z" fill="#A6805D"/>
<path opacity="0.2" d="M1557 1159.99L1471.1 1260.93V1364.01L1557 1260.93V1159.99Z" fill="black"/>
<path d="M156.222 877.545L109.222 922.924C108.441 923.678 108 924.716 108 925.802V999C108 1001.21 109.791 1003 112 1003H159C161.209 1003 163 1001.21 163 999V880.422C163 876.892 158.761 875.093 156.222 877.545Z" fill="#682610"/>
<path opacity="0.1" d="M118 914.46L127 905.755V1003H118V914.46Z" fill="white"/>
<path fill-rule="evenodd" clip-rule="evenodd" d="M105 1002C102.239 1002 100 1004.24 100 1007V1030H103C95.8203 1030 90 1035.82 90 1043V1213C90 1220.18 95.8203 1226 103 1226H166C173.18 1226 179 1220.18 179 1213V1043C179 1035.82 173.18 1030 166 1030H169V1007C169 1004.24 166.761 1002 164 1002H105Z" fill="#231F58"/>
<rect opacity="0.1" x="116" y="1002" width="13" height="224" fill="white"/>
<path fill-rule="evenodd" clip-rule="evenodd" d="M273 735C273 732.239 275.239 730 278 730C280.761 730 283 732.239 283 735V745H291.5C294.538 745 297 747.462 297 750.5C297 753.538 294.538 756 291.5 756H283V767H298.5C301.538 767 304 769.462 304 772.5C304 775.538 301.538 778 298.5 778H283V789H301.5C304.538 789 307 791.462 307 794.5C307 797.538 304.538 800 301.5 800H283V812H301.5C304.538 812 307 814.462 307 817.5C307 820.538 304.538 823 301.5 823H283V833H298.5C301.538 833 304 835.462 304 838.5C304 841.538 301.538 844 298.5 844H283V854H291.5C294.538 854 297 856.462 297 859.5C297 862.538 294.538 865 291.5 865H283V1039H273V865H264.5C261.462 865 259 862.538 259 859.5C259 856.462 261.462 854 264.5 854H273V844H258.5C255.462 844 253 841.538 253 838.5C253 835.462 255.462 833 258.5 833H273V823H254.5C251.462 823 249 820.538 249 817.5C249 814.462 251.462 812 254.5 812H273V800H254.5C251.462 800 249 797.538 249 794.5C249 791.462 251.462 789 254.5 789H273V778H258.5C255.462 778 253 775.538 253 772.5C253 769.462 255.462 767 258.5 767H273V756H264.5C261.462 756 259 753.538 259 750.5C259 747.462 261.462 745 264.5 745H273V735Z" fill="black"/>
<path fill-rule="evenodd" clip-rule="evenodd" d="M279.5 1036C273.877 1036 265.942 1035.46 262.163 1035.17C260.996 1035.08 260 1036 260 1037.18V1054C260 1055.1 259.105 1056 258 1056H251C249.895 1056 249 1056.9 249 1058V1224C249 1225.1 249.895 1226 251 1226H308C309.105 1226 310 1225.1 310 1224V1058C310 1056.9 309.105 1056 308 1056H301C299.895 1056 299 1055.1 299 1054V1037.18C299 1036 298.004 1035.08 296.837 1035.17C293.058 1035.46 285.123 1036 279.5 1036Z" fill="#231F58"/>
<path opacity="0.3" d="M260 1038C260 1038 271.875 1039 279.5 1039C287.125 1039 299 1038 299 1038" stroke="black" stroke-width="0.5"/>
<path opacity="0.5" d="M260 1041C260 1041 271.875 1042 279.5 1042C287.125 1042 299 1041 299 1041" stroke="black" stroke-width="0.5"/>
<path opacity="0.5" d="M260 1044C260 1044 271.875 1045 279.5 1045C287.125 1045 299 1044 299 1044" stroke="black" stroke-width="0.5"/>
<path opacity="0.5" d="M260 1047C260 1047 271.875 1048 279.5 1048C287.125 1048 299 1047 299 1047" stroke="black" stroke-width="0.5"/>
<path opacity="0.5" d="M260 1050C260 1050 271.875 1051 279.5 1051C287.125 1051 299 1050 299 1050" stroke="black" stroke-width="0.5"/>
<path opacity="0.1" d="M267 1035.5L276 1036V1226H267V1035.5Z" fill="white"/>
<path opacity="0.8" d="M269.386 750.463C269.716 745.677 273.702 742 278.5 742V742C283.298 742 287.284 745.677 287.614 750.463C288.492 763.167 290 787.537 290 805C290 822.463 288.492 846.833 287.614 859.537C287.284 864.323 283.298 868 278.5 868V868C273.702 868 269.716 864.323 269.386 859.537C268.508 846.833 267 822.463 267 805C267 787.537 268.508 763.167 269.386 750.463Z" fill="black"/>
</svg>
