<svg width="3300" height="2313" viewBox="0 0 3300 2313" fill="none" xmlns="http://www.w3.org/2000/svg">
<g clip-path="url(#clip0)">
<path d="M1313.46 2313H3300V14.1899L1313.46 631.463V2313Z" fill="#F2F2F2"/>
<path d="M1554.22 1500.61H3115.08V2227.86H1554.22V1500.61Z" fill="#3F3D56"/>
<path d="M1892.25 1364.56C1772.38 1364.56 1675.2 1267.38 1675.2 1147.5C1675.2 1027.62 1772.38 930.441 1892.25 930.441C2012.13 930.441 2109.31 1027.62 2109.31 1147.5C2109.31 1267.38 2012.13 1364.56 1892.25 1364.56Z" fill="#B15A5A"/>
<path d="M1894.22 1540.04L1892.44 1146.3" stroke="#3F3D56" stroke-width="2" stroke-miterlimit="10"/>
<path d="M1892.44 1201.98C1861.69 1201.98 1836.76 1177.06 1836.76 1146.3C1836.76 1115.55 1861.69 1090.62 1892.44 1090.62C1923.19 1090.62 1948.12 1115.55 1948.12 1146.3C1948.12 1177.06 1923.19 1201.98 1892.44 1201.98Z" fill="#3F3D56"/>
<path d="M1893.54 1388.97C1893.54 1388.97 1900.72 1217.86 2063.86 1237.01Z" fill="#3F3D56"/>
<path d="M2801.51 928.769C2681.63 928.769 2584.46 831.589 2584.46 711.71C2584.46 591.832 2681.63 494.651 2801.51 494.651C2921.38 494.651 3018.56 591.832 3018.56 711.71C3018.56 831.589 2921.38 928.769 2801.51 928.769Z" fill="#B15A5A"/>
<path d="M2813.8 1513.04L2801.3 711.47" stroke="#3F3D56" stroke-width="2" stroke-miterlimit="10"/>
<path d="M2801.31 767.15C2770.56 767.15 2745.63 742.222 2745.63 711.471C2745.63 680.719 2770.56 655.791 2801.31 655.791C2832.06 655.791 2856.98 680.719 2856.98 711.471C2856.98 742.222 2832.06 767.15 2801.31 767.15Z" fill="#3F3D56"/>
<path d="M2804.84 938.203C2804.84 938.203 2810.13 767.02 2973.47 784.362Z" fill="#3F3D56"/>
<path d="M2813.56 1497.73C2813.56 1497.73 2772.64 1169.34 2979.17 1150.22" stroke="#3F3D56" stroke-width="2" stroke-miterlimit="10"/>
<path d="M2979.17 1205.89C2948.42 1205.89 2923.5 1180.97 2923.5 1150.22C2923.5 1119.46 2948.42 1094.54 2979.17 1094.54C3009.92 1094.54 3034.85 1119.46 3034.85 1150.22C3034.85 1180.97 3009.92 1205.89 2979.17 1205.89Z" fill="#3F3D56"/>
<path d="M2334.74 446.888C2214.87 446.888 2117.69 349.707 2117.69 229.829C2117.69 109.95 2214.87 12.7695 2334.74 12.7695C2454.62 12.7695 2551.79 109.95 2551.79 229.829C2551.79 349.707 2454.62 446.888 2334.74 446.888Z" fill="#B15A5A"/>
<path d="M2334.61 1543.95V230.626" stroke="#3F3D56" stroke-width="2" stroke-miterlimit="10"/>
<path d="M2334.61 285.684C2303.86 285.684 2278.93 260.755 2278.93 230.004C2278.93 199.253 2303.86 174.324 2334.61 174.324C2365.36 174.324 2390.28 199.253 2390.28 230.004C2390.28 260.755 2365.36 285.684 2334.61 285.684Z" fill="#3F3D56"/>
<path d="M2505.62 1235.88C2474.87 1235.88 2449.94 1210.95 2449.94 1180.2C2449.94 1149.45 2474.87 1124.52 2505.62 1124.52C2536.37 1124.52 2561.29 1149.45 2561.29 1180.2C2561.29 1210.95 2536.37 1235.88 2505.62 1235.88Z" fill="#3F3D56"/>
<path d="M2334.61 514.42C2334.61 514.42 2342.56 343.34 2505.62 363.226Z" fill="#3F3D56"/>
<path d="M2334.61 999.412C2334.61 999.412 2342.56 828.332 2505.62 848.218Z" fill="#3F3D56"/>
<path d="M2334.61 1528.64C2334.61 1528.64 2298.81 1196.11 2505.62 1180.2" stroke="#3F3D56" stroke-width="2" stroke-miterlimit="10"/>
<path d="M2160.18 713.58C2129.43 713.58 2104.5 688.651 2104.5 657.9C2104.5 627.149 2129.43 602.22 2160.18 602.22C2190.93 602.22 2215.86 627.149 2215.86 657.9C2215.86 688.651 2190.93 713.58 2160.18 713.58Z" fill="#3F3D56"/>
<path d="M2331.19 988.606C2331.19 988.606 2366.98 673.809 2160.18 657.9" stroke="#3F3D56" stroke-width="2" stroke-miterlimit="10"/>
<path d="M1870.4 532.132C1885.83 532.132 1900.92 527.555 1913.76 518.979C1926.59 510.403 1936.59 498.214 1942.5 483.953C1948.41 469.692 1949.95 453.999 1946.94 438.86C1943.93 423.721 1936.5 409.814 1925.58 398.899C1914.67 387.984 1900.76 380.551 1885.62 377.54C1870.48 374.528 1854.79 376.074 1840.53 381.981C1826.27 387.888 1814.08 397.891 1805.51 410.726C1796.93 423.561 1792.35 438.65 1792.35 454.086C1792.38 474.778 1800.61 494.616 1815.24 509.247C1829.87 523.878 1849.71 532.109 1870.4 532.132V532.132ZM1870.4 383.135C1884.43 383.135 1898.15 387.296 1909.81 395.093C1921.48 402.889 1930.58 413.97 1935.95 426.934C1941.31 439.899 1942.72 454.165 1939.98 467.928C1937.24 481.691 1930.49 494.333 1920.57 504.256C1910.64 514.179 1898 520.936 1884.24 523.674C1870.48 526.411 1856.21 525.006 1843.25 519.636C1830.28 514.266 1819.2 505.172 1811.41 493.504C1803.61 481.836 1799.45 468.119 1799.45 454.086C1799.47 435.275 1806.95 417.241 1820.25 403.94C1833.55 390.639 1851.59 383.157 1870.4 383.135Z" fill="#3F3D56"/>
<path d="M3097.8 156.092C3113.23 156.092 3128.32 151.515 3141.16 142.939C3153.99 134.363 3163.99 122.174 3169.9 107.913C3175.81 93.6519 3177.35 77.9595 3174.34 62.82C3171.33 47.6806 3163.9 33.7741 3152.98 22.8592C3142.07 11.9443 3128.16 4.51109 3113.02 1.49966C3097.88 -1.51176 3082.19 0.0338261 3067.93 5.94094C3053.67 11.8481 3041.48 21.8514 3032.91 34.686C3024.33 47.5206 3019.76 62.61 3019.76 78.0461C3019.78 98.738 3028.01 118.576 3042.64 133.207C3057.27 147.839 3077.11 156.069 3097.8 156.092V156.092ZM3097.8 7.09513C3111.83 7.09513 3125.55 11.2563 3137.21 19.0525C3148.88 26.8487 3157.98 37.9297 3163.35 50.8943C3168.72 63.8589 3170.12 78.1248 3167.38 91.8879C3164.65 105.651 3157.89 118.293 3147.97 128.216C3138.04 138.139 3125.4 144.896 3111.64 147.634C3097.88 150.371 3083.61 148.966 3070.65 143.596C3057.68 138.226 3046.6 129.132 3038.81 117.464C3031.01 105.796 3026.85 92.0788 3026.85 78.0461C3026.87 59.2353 3034.35 41.2012 3047.65 27.8999C3060.95 14.5987 3078.99 7.11664 3097.8 7.09513V7.09513Z" fill="#3F3D56"/>
<path d="M1313.46 1312.59C1328.89 1312.59 1343.98 1308.01 1356.81 1299.44C1369.65 1290.86 1379.65 1278.67 1385.56 1264.41C1391.46 1250.15 1393.01 1234.46 1390 1219.32C1386.99 1204.18 1379.55 1190.27 1368.64 1179.36C1357.73 1168.44 1343.82 1161.01 1328.68 1158C1313.54 1154.99 1297.85 1156.53 1283.59 1162.44C1269.33 1168.35 1257.14 1178.35 1248.57 1191.19C1239.99 1204.02 1235.41 1219.11 1235.41 1234.55C1235.44 1255.24 1243.67 1275.08 1258.3 1289.71C1272.93 1304.34 1292.76 1312.57 1313.46 1312.59ZM1313.46 1163.6C1327.49 1163.6 1341.2 1167.76 1352.87 1175.55C1364.54 1183.35 1373.63 1194.43 1379 1207.39C1384.37 1220.36 1385.78 1234.62 1383.04 1248.39C1380.3 1262.15 1373.55 1274.79 1363.62 1284.72C1353.7 1294.64 1341.06 1301.4 1327.3 1304.13C1313.53 1306.87 1299.27 1305.47 1286.31 1300.1C1273.34 1294.73 1262.26 1285.63 1254.46 1273.96C1246.67 1262.3 1242.51 1248.58 1242.51 1234.55C1242.53 1215.74 1250.01 1197.7 1263.31 1184.4C1276.61 1171.1 1294.65 1163.62 1313.46 1163.6V1163.6Z" fill="#3F3D56"/>
<path d="M1643.36 702.414C1617.9 702.414 1597.25 681.766 1597.25 656.296C1597.25 630.826 1617.9 610.178 1643.36 610.178C1668.83 610.178 1689.48 630.826 1689.48 656.296C1689.48 681.766 1668.83 702.414 1643.36 702.414Z" fill="#3F3D56"/>
<path d="M1281.53 1543.18C1256.06 1543.18 1235.41 1522.53 1235.41 1497.06C1235.41 1471.59 1256.06 1450.95 1281.53 1450.95C1307 1450.95 1327.65 1471.59 1327.65 1497.06C1327.65 1522.53 1307 1543.18 1281.53 1543.18Z" fill="#3F3D56"/>
<path d="M1313.46 2313V1500.61H1643.36C1643.36 1880.71 1951.48 2188.84 2331.56 2188.84C2711.64 2188.84 3019.76 1880.71 3019.76 1500.61H3300V2313H1313.46Z" fill="#3F3D56"/>
<path d="M2331.56 2188.84C1951.48 2188.84 1643.36 1880.71 1643.36 1500.61H3019.76C3019.76 1880.71 2711.64 2188.84 2331.56 2188.84Z" fill="#B15A5A"/>
<path d="M377.711 1789.94C38.5526 1618.37 -97.3152 1204.34 74.2423 865.166L1302.45 1486.46C1130.89 1825.63 716.87 1961.5 377.711 1789.94Z" fill="#3F3D56"/>
<path d="M601.649 1094.31L614.665 700.786" stroke="#6C63FF" stroke-width="2" stroke-miterlimit="10"/>
<path d="M574.665 736.465C543.915 736.465 518.987 711.537 518.987 680.785C518.987 650.034 543.915 625.105 574.665 625.105C605.414 625.105 630.342 650.034 630.342 680.785C630.342 711.537 605.414 736.465 574.665 736.465Z" fill="#B15A5A"/>
<path d="M606.643 943.321C606.643 943.321 620.248 772.598 782.558 797.863Z" fill="#6C63FF"/>
<path d="M329.586 1167.5L323.424 1151.31L304.329 1154.07L305.527 1158.92L310.686 1169.8L316.626 1178.84L323.96 1192.28L327.877 1204.8L332.519 1218.18L339.254 1229.19L340.635 1229.77L341.681 1228.59L341.307 1215.39L337.168 1195.71L334.159 1179.77L329.586 1167.5Z" fill="#793D3D" stroke="black"/>
<path d="M218.716 1078.07L235.987 1060.42L254.576 1081.89L224.987 1106.81L208.636 1124.86L195.967 1144.46L194.851 1144.53L194.126 1143.68L195.289 1119.19L202.226 1093.89L218.716 1078.07Z" fill="#793D3D" stroke="black"/>
<path d="M231.738 1103.7L250.39 1086.63L277.055 1108.27L258.807 1128.23L238.982 1148.06L222.406 1176.87L214.939 1200.86L213.893 1202.05L212.247 1200.8L205.456 1192.49L203.996 1169.06L219.347 1127.77L231.738 1103.7Z" fill="#793D3D" stroke="black"/>
<path d="M264.846 1128.07L274.32 1114.71L301.935 1126.44L295.836 1147.2L286.902 1183.61L286.418 1233.37L285.831 1234.75L284.911 1234.36L276.461 1221L263.816 1190.65L259.164 1155.54L264.846 1128.07Z" fill="#793D3D" stroke="black"/>
<path d="M355.254 939.4L413.799 915.365L460.571 1036.79L358.262 1106.35L341.62 1116.12L324.527 1147.43L325.404 1154.32L315.027 1153.18L305.219 1164.77L299.726 1152.11L298.501 1139.64L278.919 1134.59L272.518 1125.36L263.522 1124.8L264.403 1113.76L248.797 1100.62L235.867 1101.65L235.91 1095.15L245.049 1080.02L241.996 1070.57L230.49 1065.69L223.417 1070.84L233.381 1047.36L258.689 1018.45L309.148 972.518L355.254 939.4Z" fill="#A39898" stroke="black"/>
<path d="M532.828 1369.47L498.927 1400.71L449.783 1428.19L448.667 1428.26L448.137 1426.95L450.802 1419.39L467.448 1391.69L511.282 1347.29L532.828 1369.47Z" fill="#793D3D" stroke="black"/>
<path d="M427.83 1345.55L465.979 1346.53L475.935 1358.9L448.72 1367.99L439.976 1364.28L420.797 1362.11L393.53 1355.97L386.57 1355.73L385.844 1354.88L386.235 1353.96L395.483 1351.37L427.83 1345.55Z" fill="#793D3D" stroke="black"/>
<path d="M462.485 1380.35L478.68 1374.19L473.23 1355.04L462.74 1359.28L435.33 1368.83L408.003 1383.3L391.986 1403.12L391.4 1404.5L391.93 1405.81L394.161 1405.67L409.506 1400.23L422.353 1394.28L462.485 1380.35Z" fill="#793D3D" stroke="black"/>
<path d="M565.021 1224.53L509.374 1194.39L449.696 1157.11L426.343 1105.91L406.749 1021.55L395.356 935.782L390.608 891.942L444.138 841.334L593.966 786.52L717.907 801.65L815.501 811.028L946.212 866.512L1060.67 966.697L1113.3 1074.32L1124.35 1194.16L1049.84 1253.25L961.611 1293.47L876.887 1303.68L771.86 1290.06L684.114 1280.51L565.021 1224.53Z" fill="#A39898" stroke="black"/>
<path d="M647.089 1168.11L691.324 1144.52L728.587 1174.46L730.802 1188.44L708.302 1269.6L672.256 1287.97L630.614 1320.81L635.452 1333.73L632.24 1354.09L611.468 1365.92L575.644 1391.45L534.761 1396.91L498.467 1400.51L520.245 1376.08L501.083 1359.8L477.325 1381.22L467.776 1353.81L457.82 1341.44L471.575 1332.07L504.994 1332.67L511.051 1318.4L530.974 1289.38L572.212 1253.65L588.858 1225.96L647.089 1168.11Z" fill="#A39898" stroke="black"/>
<path d="M963.072 1338.83L935.111 1375.48L891.485 1411.08L890.398 1411.34L889.649 1410.14L890.961 1402.24L902.544 1372.07L938.002 1320.73L963.072 1338.83Z" fill="#793D3D" stroke="black"/>
<path d="M855.514 1333.5L893.254 1327.84L905.208 1338.3L879.985 1351.98L870.728 1349.84L851.465 1351.04L823.545 1349.72L816.649 1350.7L815.787 1349.99L816.012 1349.01L824.67 1344.85L855.514 1333.5Z" fill="#793D3D" stroke="black"/>
<path d="M895.687 1361.76L910.566 1352.88L901.873 1334.97L892.278 1340.96L866.943 1355.13L842.544 1374.12L830.212 1396.42L829.874 1397.88L830.624 1399.08L832.798 1398.56L846.964 1390.54L858.583 1382.44L895.687 1361.76Z" fill="#793D3D" stroke="black"/>
<path d="M1040.63 1120.69L1080.1 1089.77L1121.99 1112.79L1126.6 1126.17L1118.54 1210L1086.23 1234.36L1050.92 1273.93L1057.93 1285.81L1058.3 1306.42L1039.9 1321.68L1009.05 1353.04L969.74 1365.52L934.623 1375.37L951.828 1347.53L930.13 1334.82L910.452 1360.04L896.289 1334.7L884.335 1324.25L896.253 1312.63L929.271 1307.42L932.757 1292.32L947.339 1260.28L981.746 1217.93L993.329 1187.77L1040.63 1120.69Z" fill="#A39898" stroke="black"/>
<path d="M744.864 1248.72L708.302 1269.6L730.998 1187.98L728.783 1174L746.229 1187.92L750.163 1186.33L762.811 1198.76L777.401 1202.78L781.222 1206.58L766.278 1232.83L744.864 1248.72Z" fill="#A39898" stroke="black"/>
<path d="M484.5 931.796L498.029 933.194L522.34 938.624L564.875 974.061L580.437 993.703L600.724 1031.65L603.79 1044.9L592.512 1086.82L576.184 1130.41L526.41 1165.77L472.987 1171.34L442.372 1165.41L416.806 1157.81L406.932 1150.36L386.221 1141.57L369.5 1128.5L353.951 1112.66L350.216 1095.87L349.507 1080.9L340.289 1073.19L339.859 1062.69L344.548 1051.64L350.995 1036.45L351.654 1018.26L353.412 1014.12L354.697 1005.98L372.094 986.744L373.253 980.175L381.068 961.765L390.276 947.748L417.395 929.928L461.609 938.375L484.5 931.796Z" fill="#A39898" stroke="black"/>
<path d="M495.993 932.873L522.144 939.085L565.404 975.373L580.702 994.359L601.91 1032.69L603.595 1045.36L594.131 1080.45L569.747 1091.83L542.085 1104.53L517.285 1109.21L498.441 1108.82L478.759 1112.95L468.895 1127.24L441.332 1130.75L432.505 1122.11L409.366 1113.92L387.274 1104.54L369.533 1100.27L356.563 1089.87L348.977 1079.59L340.024 1072.53L340.975 1062.62L351.134 1038.68L351.919 1018.92L354.627 1004.86L373.21 986.675L373.713 980.37L381.723 961.5L390.932 947.484L410.518 934.613L419.892 930.445L444.593 934.955L462.334 939.227L475.712 934.584L486.466 931.002L495.993 932.873Z" fill="black" fill-opacity="0.17"/>
<path d="M526.145 1165.12L576.184 1130.41L575.359 1138.75L574.773 1140.13L557.385 1181.09L550.912 1188.67L491.771 1192.35L468.298 1182.39L438.815 1162.27L472.987 1171.34L526.145 1165.12Z" fill="#A39898" stroke="black"/>
<path fill-rule="evenodd" clip-rule="evenodd" d="M518.827 928.986L502.549 930.224L497.108 932.803L508.406 934.34L521.879 938.429L535.77 949.214L548.279 959.413L564.875 974.061L580.242 994.164L591.94 1016.51L600.529 1032.11L603.135 1045.16L596.406 1073.81L581.654 1117.52L576.379 1129.95L575.359 1138.75L569.889 1151.64L557.19 1181.55L549.141 1189L559.909 1189.23L572.309 1186.88L592.689 1175.98L617.451 1159.88L645.073 1135.75L666.947 1120.05L667.897 1110.13L662.212 1080.02L653.441 1068.69L642.773 1059.27L616.191 1042.56L576.676 969.294L567.57 956.194L554.349 948.953L539.008 936.466L520.333 927.996L518.827 928.986Z" fill="#A39898"/>
<path d="M502.549 930.224L502.511 929.725L502.418 929.732L502.335 929.772L502.549 930.224ZM518.827 928.986L518.864 929.484L518.993 929.475L519.101 929.404L518.827 928.986ZM497.108 932.803L496.894 932.351L495.374 933.072L497.041 933.299L497.108 932.803ZM508.406 934.34L508.551 933.861L508.513 933.85L508.474 933.844L508.406 934.34ZM521.879 938.429L522.186 938.034L522.113 937.978L522.025 937.951L521.879 938.429ZM535.77 949.214L536.086 948.826L536.076 948.819L535.77 949.214ZM548.279 959.413L548.61 959.038L548.603 959.031L548.595 959.025L548.279 959.413ZM564.875 974.061L565.272 973.758L565.242 973.719L565.206 973.687L564.875 974.061ZM580.242 994.164L580.685 993.932L580.665 993.894L580.639 993.86L580.242 994.164ZM591.94 1016.51L591.497 1016.74L591.502 1016.75L591.94 1016.51ZM600.529 1032.11L601.019 1032.01L601.004 1031.93L600.967 1031.87L600.529 1032.11ZM603.135 1045.16L603.621 1045.28L603.646 1045.17L603.625 1045.07L603.135 1045.16ZM596.406 1073.81L596.88 1073.97L596.887 1073.95L596.893 1073.93L596.406 1073.81ZM581.654 1117.52L582.114 1117.72L582.122 1117.7L582.128 1117.68L581.654 1117.52ZM576.379 1129.95L575.919 1129.75L575.891 1129.82L575.882 1129.89L576.379 1129.95ZM575.359 1138.75L575.819 1138.95L575.848 1138.88L575.856 1138.81L575.359 1138.75ZM569.889 1151.64L569.429 1151.44L569.889 1151.64ZM557.19 1181.55L557.53 1181.92L557.608 1181.85L557.65 1181.75L557.19 1181.55ZM549.141 1189L548.801 1188.63L547.892 1189.47L549.13 1189.5L549.141 1189ZM559.909 1189.23L559.898 1189.73L559.95 1189.73L560.001 1189.72L559.909 1189.23ZM572.309 1186.88L572.402 1187.38L572.477 1187.36L572.545 1187.33L572.309 1186.88ZM592.689 1175.98L592.925 1176.42L592.944 1176.41L592.962 1176.4L592.689 1175.98ZM617.451 1159.88L617.723 1160.3L617.753 1160.28L617.78 1160.25L617.451 1159.88ZM645.073 1135.75L644.781 1135.34L644.762 1135.36L644.744 1135.37L645.073 1135.75ZM666.947 1120.05L667.238 1120.46L667.423 1120.32L667.445 1120.1L666.947 1120.05ZM667.897 1110.13L668.395 1110.18L668.402 1110.11L668.389 1110.04L667.897 1110.13ZM662.212 1080.02L662.704 1079.92L662.681 1079.81L662.608 1079.71L662.212 1080.02ZM653.441 1068.69L653.836 1068.38L653.807 1068.35L653.772 1068.31L653.441 1068.69ZM642.773 1059.27L643.103 1058.9L643.073 1058.87L643.039 1058.85L642.773 1059.27ZM616.191 1042.56L615.75 1042.79L615.813 1042.91L615.924 1042.98L616.191 1042.56ZM576.676 969.294L577.116 969.056L577.102 969.031L577.086 969.008L576.676 969.294ZM567.57 956.194L567.981 955.909L567.914 955.812L567.81 955.756L567.57 956.194ZM554.349 948.953L554.033 949.34L554.068 949.369L554.109 949.391L554.349 948.953ZM539.008 936.466L539.324 936.078L539.274 936.037L539.215 936.011L539.008 936.466ZM520.333 927.996L520.54 927.54L520.289 927.427L520.059 927.578L520.333 927.996ZM502.587 930.722L518.864 929.484L518.789 928.487L502.511 929.725L502.587 930.722ZM497.323 933.255L502.763 930.676L502.335 929.772L496.894 932.351L497.323 933.255ZM508.474 933.844L497.176 932.308L497.041 933.299L508.339 934.835L508.474 933.844ZM522.025 937.951L508.551 933.861L508.261 934.818L521.734 938.908L522.025 937.951ZM536.076 948.819L522.186 938.034L521.573 938.824L535.463 949.609L536.076 948.819ZM548.595 959.025L536.086 948.826L535.454 949.602L547.963 959.8L548.595 959.025ZM565.206 973.687L548.61 959.038L547.948 959.787L564.544 974.436L565.206 973.687ZM580.639 993.86L565.272 973.758L564.477 974.365L579.844 994.468L580.639 993.86ZM592.383 1016.28L580.685 993.932L579.799 994.396L591.497 1016.74L592.383 1016.28ZM600.967 1031.87L592.378 1016.27L591.502 1016.75L600.091 1032.35L600.967 1031.87ZM603.625 1045.07L601.019 1032.01L600.038 1032.2L602.644 1045.26L603.625 1045.07ZM596.893 1073.93L603.621 1045.28L602.648 1045.05L595.919 1073.7L596.893 1073.93ZM582.128 1117.68L596.88 1073.97L595.932 1073.65L581.18 1117.36L582.128 1117.68ZM576.839 1130.14L582.114 1117.72L581.194 1117.33L575.919 1129.75L576.839 1130.14ZM575.856 1138.81L576.876 1130.01L575.882 1129.89L574.862 1138.69L575.856 1138.81ZM570.349 1151.83L575.819 1138.95L574.899 1138.55L569.429 1151.44L570.349 1151.83ZM557.65 1181.75L570.349 1151.83L569.429 1151.44L556.73 1181.36L557.65 1181.75ZM549.48 1189.37L557.53 1181.92L556.851 1181.19L548.801 1188.63L549.48 1189.37ZM559.919 1188.73L549.151 1188.5L549.13 1189.5L559.898 1189.73L559.919 1188.73ZM572.216 1186.39L559.816 1188.73L560.001 1189.72L572.402 1187.38L572.216 1186.39ZM592.454 1175.54L572.073 1186.44L572.545 1187.33L592.925 1176.42L592.454 1175.54ZM617.178 1159.46L592.417 1175.56L592.962 1176.4L617.723 1160.3L617.178 1159.46ZM644.744 1135.37L617.122 1159.5L617.78 1160.25L645.402 1136.13L644.744 1135.37ZM666.655 1119.64L644.781 1135.34L645.364 1136.16L667.238 1120.46L666.655 1119.64ZM667.399 1110.08L666.449 1120L667.445 1120.1L668.395 1110.18L667.399 1110.08ZM661.721 1080.11L667.406 1110.23L668.389 1110.04L662.704 1079.92L661.721 1080.11ZM653.046 1069L661.817 1080.32L662.608 1079.71L653.836 1068.38L653.046 1069ZM642.442 1059.65L653.11 1069.06L653.772 1068.31L643.103 1058.9L642.442 1059.65ZM615.924 1042.98L642.506 1059.7L643.039 1058.85L616.457 1042.13L615.924 1042.98ZM576.236 969.531L615.75 1042.79L616.631 1042.32L577.116 969.056L576.236 969.531ZM567.16 956.48L576.265 969.579L577.086 969.008L567.981 955.909L567.16 956.48ZM554.109 949.391L567.33 956.633L567.81 955.756L554.589 948.514L554.109 949.391ZM538.692 936.854L554.033 949.34L554.664 948.565L539.324 936.078L538.692 936.854ZM520.127 928.451L538.802 936.921L539.215 936.011L520.54 927.54L520.127 928.451ZM519.101 929.404L520.608 928.414L520.059 927.578L518.552 928.568L519.101 929.404Z" fill="black"/>
<path d="M576.676 969.293L567.57 956.194L570.696 948.83L594.229 938.178L621.083 919.702L622.646 916.02L626.662 919.355L712.074 956.153L723.381 979.421L758.453 1020.92L742.814 1036.01L693.851 1059.23L669.176 1062.33L639.66 1070.44L632.895 1069.75L629.074 1065.95L613.486 1038.69L576.676 969.293Z" fill="#B15A5A" stroke="black"/>
<path d="M576.676 969.293L567.57 956.194L570.696 948.83L594.229 938.178L621.083 919.702L622.646 916.02L626.662 919.355L712.074 956.153L723.381 979.421L758.453 1020.92L742.814 1036.01L693.851 1059.23L669.176 1062.33L639.66 1070.44L632.895 1069.75L629.074 1065.95L613.486 1038.69L576.676 969.293Z" fill="black" fill-opacity="0.12" stroke="black"/>
<path d="M712.004 955.037L829.877 829.624L919.964 851.568L1010.11 1097.33L990.576 1107.5L899.048 1105.59L834.404 1074.89L758.453 1020.92C746.083 1006.98 721.713 979.256 723.186 979.881C724.659 980.506 715.475 965.201 712.004 955.037Z" fill="#B15A5A" stroke="black"/>
<path d="M669.762 1060.95L640.315 1070.18L642.978 1080.54L658.566 1107.8L664.967 1117.04L691.77 1140.91L720.554 1167.79L745.504 1187.07L747.736 1186.93L778.649 1165.29L806.874 1125.67L833.218 1073.84L757.532 1020.53L742.549 1035.36L693.656 1059.69L669.762 1060.95Z" fill="#B15A5A" stroke="black"/>
<path d="M898.588 1105.39L833.023 1074.3L806.414 1125.48L778.189 1165.1L749.702 1186.14L762.742 1197.65L776.94 1202.59L819.561 1225.03L851.193 1240.08L861.517 1226L881.948 1172.75L894.607 1131.41L898.588 1105.39Z" fill="#B15A5A" stroke="black"/>
<path d="M990.115 1107.31L898.588 1105.39L894.607 1131.41L881.948 1172.75L861.518 1226L850.733 1239.89L854.68 1242.11L886.941 1249.28L921.824 1255.4L943.82 1256.04L949.191 1252.35L952.456 1247.22L964.764 1218.22L985.668 1168.97L1000 1118.57L990.115 1107.31Z" fill="#B15A5A" stroke="black"/>
<path d="M1010.3 1096.87L990.115 1107.31L1000 1118.57L986.254 1167.59L962.419 1223.74L952.651 1246.76L949.386 1251.89L942.704 1256.11L993.908 1254.49L1015.12 1256.98L1029.1 1254.76L1046.16 1251.68L1050.87 1248.25L1052.83 1243.65L1051.07 1229.87L1056.85 1211.14L1068.76 1161.33L1066.92 1142.63L1077.28 1118.23L1079.2 1106.01L1010.3 1096.87Z" fill="#B15A5A" stroke="black"/>
<path d="M1134 1118.96L1132.67 1093.95L1078.09 1106.08L1077.67 1117.31L1066.53 1143.55L1068.95 1160.87L1049.89 1228.82L1053.09 1244.31L1050.36 1250.75L1110.91 1237.34L1111.49 1214.23L1122.97 1175.65L1134 1118.96Z" fill="#B15A5A" stroke="black"/>
<path d="M1168.62 1106.49L1163.8 1079.46L1156.35 1089.33L1133.32 1093.68L1133.54 1118.76L1123.56 1174.27L1110.96 1212.92L1109.99 1236.95L1144.42 1224.95L1143.81 1200.79L1158.07 1167.19L1168.62 1106.49Z" fill="#B15A5A" stroke="black"/>
<path d="M1180.37 1104.42L1173.76 1073.91L1163.54 1078.8L1167.9 1105.64L1158.26 1166.73L1143.81 1200.79L1144.61 1224.49L1164.47 1216.08L1179.26 1201.72L1180.37 1104.42Z" fill="#B15A5A" stroke="black"/>
<path d="M1183.06 1104.47L1174.62 1073.19L1180.37 1104.42L1179.04 1194.56L1186.77 1189.15L1194.29 1180.4L1193.89 1159.58L1183.06 1104.47Z" fill="#B15A5A" stroke="black"/>
<path d="M919.435 850.257L1009.84 1096.67L1081.43 1105.88L1132.6 1092.83L1127.76 1022.34L1097.66 938.403L1056.45 848.666L964.61 795.017L919.435 850.257Z" fill="#B15A5A" stroke="black"/>
<path d="M723.136 738.145L829.877 829.624L712.074 956.153L626.927 920.01L569.651 874.514L546.883 821.939L723.136 738.145Z" fill="#B15A5A" stroke="black"/>
<path d="M723.136 738.145L829.877 829.624L712.074 956.153L626.927 920.01L569.651 874.514L546.883 821.939L723.136 738.145Z" fill="black" fill-opacity="0.07" stroke="black"/>
<path d="M919.309 851.833L964.68 796.133L838.925 712.335L742.248 721.271L723.596 738.34L829.878 829.624L919.309 851.833Z" fill="#B15A5A" stroke="black"/>
<path d="M711.898 715.992L723.596 738.34L546.102 823.779L493.713 824.355L477.425 803.862L499.676 783.432L570.066 748.129L711.898 715.992Z" fill="#B15A5A" stroke="black"/>
<path d="M723.722 736.764L712.944 714.807L751.136 709.291L791.111 707.249L819.733 706.362L838.925 712.335L742.248 721.271L723.722 736.764Z" fill="#B15A5A" stroke="black"/>
<path d="M1156.16 1089.79L1133.52 1093.22L1126.18 1022.21L1097.2 938.207L1056.64 848.206L1072.96 840.468L1112.56 918.655L1142.98 982.628L1157.45 1027.88L1164 1079L1156.16 1089.79Z" fill="#B15A5A" stroke="black"/>
<path d="M1174.62 1073.19L1163.27 1078.15L1157.65 1027.42L1142.33 982.892L1071.85 840.537L1075.13 839.213L1095.24 863.5L1124.14 924.655L1149.41 981.555L1166.85 1031.33L1174.62 1073.19Z" fill="#B15A5A" stroke="black"/>
<path d="M860.669 716.134L819.929 705.902L838.465 712.14L964.875 795.673L1056.91 848.862L1072.37 838.041C1065.86 830.754 1049.04 812.386 1017.85 793.717L923.042 735.548L860.669 716.134Z" fill="#B15A5A" stroke="black"/>
<path d="M478.541 803.793L373.748 876.637L368.642 880.988L367.092 888.478L373.088 894.826L388.346 902.389L407.468 907.247L419.743 906.482L428.899 877.234L448.054 853.861L494.563 823.63L478.541 803.793Z" fill="#B15A5A" stroke="black"/>
<path d="M712.004 955.037L829.877 829.624L919.964 851.568L1010.11 1097.33L990.576 1107.5L899.048 1105.59L834.404 1074.89L758.453 1020.92C746.083 1006.98 721.713 979.256 723.186 979.881C724.659 980.506 715.475 965.201 712.004 955.037Z" fill="black" fill-opacity="0.08" stroke="black"/>
<path d="M669.762 1060.95L640.315 1070.18L642.978 1080.54L658.566 1107.8L664.967 1117.04L691.77 1140.91L720.554 1167.79L745.504 1187.07L747.736 1186.93L778.649 1165.29L806.874 1125.67L833.218 1073.84L757.532 1020.53L742.549 1035.36L693.656 1059.69L669.762 1060.95Z" fill="black" fill-opacity="0.15" stroke="black"/>
<path d="M898.588 1105.39L833.023 1074.3L806.414 1125.48L778.189 1165.1L749.702 1186.14L762.742 1197.65L776.94 1202.59L819.561 1225.03L851.193 1240.08L861.517 1226L881.948 1172.75L894.607 1131.41L898.588 1105.39Z" fill="black" fill-opacity="0.18" stroke="black"/>
<path d="M990.115 1107.31L898.588 1105.39L894.607 1131.41L881.948 1172.75L861.518 1226L850.733 1239.89L854.68 1242.11L886.941 1249.28L921.824 1255.4L943.82 1256.04L949.191 1252.35L952.456 1247.22L964.764 1218.22L985.668 1168.97L1000 1118.57L990.115 1107.31Z" fill="black" fill-opacity="0.22" stroke="black"/>
<path d="M1010.3 1096.87L990.115 1107.31L1000 1118.57L986.254 1167.59L962.419 1223.74L952.651 1246.76L949.386 1251.89L942.704 1256.11L993.908 1254.49L1015.12 1256.98L1029.1 1254.76L1046.16 1251.68L1050.87 1248.25L1052.83 1243.65L1051.07 1229.87L1056.85 1211.14L1068.76 1161.33L1066.92 1142.63L1077.28 1118.23L1079.2 1106.01L1010.3 1096.87Z" fill="black" fill-opacity="0.25" stroke="black"/>
<path d="M1134 1118.96L1132.67 1093.95L1078.09 1106.08L1077.67 1117.31L1066.53 1143.55L1068.95 1160.87L1049.89 1228.82L1053.09 1244.31L1050.36 1250.75L1110.91 1237.34L1111.49 1214.23L1122.97 1175.65L1134 1118.96Z" fill="black" fill-opacity="0.27" stroke="black"/>
<path d="M1168.62 1106.49L1163.8 1079.46L1156.35 1089.33L1133.32 1093.68L1133.54 1118.76L1123.56 1174.27L1110.96 1212.92L1109.99 1236.95L1144.42 1224.95L1143.81 1200.79L1158.07 1167.19L1168.62 1106.49Z" fill="black" fill-opacity="0.33" stroke="black"/>
<path d="M1180.37 1104.42L1173.76 1073.91L1163.54 1078.8L1167.9 1105.64L1158.26 1166.73L1143.81 1200.79L1144.61 1224.49L1164.47 1216.08L1179.26 1201.72L1180.37 1104.42Z" fill="black" fill-opacity="0.35" stroke="black"/>
<path d="M1183.06 1104.47L1174.62 1073.19L1180.37 1104.42L1179.04 1194.56L1186.77 1189.15L1194.29 1180.4L1193.89 1159.58L1183.06 1104.47Z" fill="black" fill-opacity="0.4" stroke="black"/>
<path d="M919.435 850.257L1009.84 1096.67L1081.43 1105.88L1132.6 1092.83L1127.76 1022.34L1097.66 938.403L1056.45 848.666L964.61 795.017L919.435 850.257Z" fill="black" fill-opacity="0.15" stroke="black"/>
<path d="M919.309 851.833L964.68 796.133L838.925 712.335L742.248 721.271L723.596 738.34L829.878 829.624L919.309 851.833Z" fill="black" fill-opacity="0.03" stroke="black"/>
<path d="M711.898 715.992L723.596 738.34L546.102 823.779L493.713 824.355L477.425 803.862L499.676 783.432L570.066 748.129L711.898 715.992Z" fill="black" fill-opacity="0.28" stroke="black"/>
<path d="M723.722 736.764L712.944 714.807L751.136 709.291L791.111 707.249L819.733 706.362L838.925 712.335L742.248 721.271L723.722 736.764Z" fill="black" fill-opacity="0.25" stroke="black"/>
<path d="M1156.16 1089.79L1133.52 1093.22L1126.18 1022.21L1097.2 938.207L1056.64 848.206L1072.96 840.468L1112.56 918.655L1142.98 982.628L1157.45 1027.88L1164 1079L1156.16 1089.79Z" fill="black" fill-opacity="0.25" stroke="black"/>
<path d="M1174.62 1073.19L1163.27 1078.15L1157.65 1027.42L1142.33 982.892L1071.85 840.537L1075.13 839.213L1095.24 863.5L1124.14 924.655L1149.41 981.555L1166.85 1031.33L1174.62 1073.19Z" fill="black" fill-opacity="0.28" stroke="black"/>
<path d="M860.669 716.134L819.929 705.902L838.465 712.14L964.875 795.673L1056.91 848.862L1072.37 838.041C1065.86 830.754 1049.04 812.386 1017.85 793.717L923.042 735.548L860.669 716.134Z" stroke="black"/>
<path d="M478.541 803.793L373.748 876.637L368.642 880.988L367.092 888.478L373.088 894.826L388.346 902.389L407.468 907.247L419.743 906.482L428.899 877.234L448.054 853.861L494.563 823.63L478.541 803.793Z" fill="black" fill-opacity="0.33" stroke="black"/>
<path d="M494.173 824.55L547.218 823.71L570.306 874.249L580.71 883.011L563.664 889.898L539.664 936.201L516.191 926.237L505.158 925.356L437.359 912.329L426.66 913.22L419.743 906.482L428.634 876.578L448.71 853.596L494.173 824.55Z" fill="#B15A5A" stroke="black"/>
<path d="M494.173 824.55L547.218 823.71L570.306 874.249L580.71 883.011L563.664 889.898L539.664 936.201L516.191 926.237L505.158 925.356L437.359 912.329L426.66 913.22L419.743 906.482L428.634 876.578L448.71 853.596L494.173 824.55Z" fill="black" fill-opacity="0.12" stroke="black"/>
<path d="M548.422 943.721L539.008 936.466L563.859 889.437L580.515 883.471L622.715 917.136L621.348 920.358L594.689 938.374L570.305 949.75L567.57 956.194L554.349 948.952L548.422 943.721Z" fill="#B15A5A" stroke="black"/>
<path d="M548.422 943.721L539.008 936.466L563.859 889.437L580.515 883.471L622.715 917.136L621.348 920.358L594.689 938.374L570.305 949.75L567.57 956.194L554.349 948.952L548.422 943.721Z" fill="black" fill-opacity="0.07" stroke="black"/>
<path fill-rule="evenodd" clip-rule="evenodd" d="M465.924 1083.92C481.511 1090.53 499.406 1083.51 505.892 1068.23C506.793 1066.11 507.426 1063.94 507.807 1061.76C504.583 1055.95 499.435 1051.12 492.798 1048.3C477.211 1041.68 459.316 1048.71 452.83 1063.99C451.929 1066.11 451.296 1068.28 450.915 1070.46C454.138 1076.26 459.287 1081.1 465.924 1083.92Z" fill="#793D3D"/>
<path fill-rule="evenodd" clip-rule="evenodd" d="M468.472 1080.89C481.435 1086.39 496.318 1080.55 501.713 1067.84C502.461 1066.07 502.988 1064.27 503.305 1062.46C500.624 1057.63 496.342 1053.61 490.822 1051.26C477.859 1045.76 462.976 1051.6 457.581 1064.31C456.833 1066.08 456.306 1067.88 455.989 1069.69C458.67 1074.52 462.952 1078.54 468.472 1080.89Z" fill="black"/>
</g>
<defs>
<clipPath id="clip0">
<rect width="3300" height="2313" fill="white" transform="matrix(-1 0 0 1 3300 0)"/>
</clipPath>
</defs>
</svg>
