<svg width="1041" height="944" viewBox="0 0 1041 944" fill="none" xmlns="http://www.w3.org/2000/svg">
<g clip-path="url(#clip0)">
<path opacity="0.1" d="M617.83 276.77C553.11 274.11 491.47 249.4 432.61 222.36C373.75 195.32 315.41 165.36 252.27 151.03C211.64 141.82 165.18 140.52 132.41 166.28C100.91 191.08 90.7302 233.88 85.2602 273.6C81.1402 303.48 78.7202 334.93 90.0002 362.9C97.8302 382.32 111.74 398.65 121.36 417.25C154.83 481.98 131.17 561.79 94.9102 625C77.9102 654.64 58.1602 682.93 45.0302 714.49C31.9002 746.05 25.8302 782.21 37.3202 814.4C48.7002 846.31 75.8302 870.28 105.22 887.14C164.91 921.38 235.22 931.14 303.83 936.73C455.65 949.01 608.29 943.73 760.52 938.37C816.85 936.37 873.44 934.37 928.86 924.09C959.64 918.37 991.41 909.29 1013.75 887.36C1042.12 859.53 1049.15 812.36 1030.14 777.5C998.26 718.96 910.14 704.42 887.83 641.59C875.57 607.01 888.16 568.49 905.99 536.42C944.22 467.62 1008.32 407.26 1011.69 328.62C1014.01 274.62 983.2 220.52 935.56 194.97C885.63 168.18 816.38 171.55 779.56 215.89C741.64 261.55 674.98 279.12 617.83 276.77Z" fill="#B3AC1E"/>
<path d="M425.89 406.54L372.61 414.89L345.31 417.49L338.03 418.19C338.03 418.19 325.03 420.25 323.76 418.19C322.49 416.13 297.44 418.19 297.44 418.19C297.44 418.19 282.22 400.05 246.06 409.63C242.409 411.792 238.296 413.054 234.06 413.31C234.055 413.237 234.055 413.163 234.06 413.09C234.19 408.92 233.67 394.54 220.98 386.67C217.371 387.043 213.869 388.116 210.67 389.83L210.38 389.99L209.52 390.49L209.41 390.61C209.784 388.964 210.038 387.293 210.17 385.61C210.17 384.98 210.17 384.35 210.24 383.72C211.696 383.316 212.969 382.427 213.85 381.2C214.212 380.472 214.367 379.66 214.3 378.85C214.3 378.56 214.3 378.26 214.3 377.97C214.295 377.907 214.295 377.843 214.3 377.78C214.3 377.78 214.3 377.78 214.3 377.84C214.09 374.878 213.656 371.936 213 369.04L216.92 371.64C217.86 372.26 219.04 372.92 220.16 372.57C220.52 372.442 220.845 372.231 221.109 371.955C221.372 371.679 221.568 371.345 221.68 370.98C222.38 369.08 221.87 366.81 223.35 365.24C223.7 364.87 224.14 364.57 224.44 364.18C224.848 363.646 225.044 362.98 224.99 362.31C224.994 361.921 224.964 361.533 224.9 361.15V361.23C224.641 360.251 224.6 359.227 224.78 358.23C225.303 358.434 225.877 358.463 226.418 358.314C226.959 358.164 227.436 357.844 227.78 357.4C228.318 356.557 228.583 355.569 228.54 354.57C228.63 352.88 228.7 351.15 228.66 349.43C228.665 349.397 228.665 349.363 228.66 349.33V349.33C228.56 345.26 227.79 341.25 224.99 338C225.72 333.34 220.65 328.26 214.99 327.62C213.6 327.47 211.89 327.39 211.27 326.34C211.06 325.841 210.968 325.3 211 324.76C210.86 322.99 209.64 321.42 208.47 319.93C207.994 319.279 207.421 318.706 206.77 318.23C204.91 317.03 202.27 317.35 199.97 317.76C195.757 318.5 191.57 319.327 187.41 320.24C186.911 318.227 186.942 316.118 187.5 314.12C187.887 313.12 188.123 312.069 188.2 311C188.219 310.663 188.182 310.325 188.09 310V310.13C188.032 309.963 187.965 309.8 187.89 309.64C187.691 309.274 187.404 308.964 187.054 308.737C186.705 308.51 186.305 308.374 185.89 308.34C185.347 308.322 184.811 308.462 184.346 308.742C183.881 309.023 183.507 309.432 183.27 309.92C180.89 313.385 179.24 317.298 178.42 321.42C176.833 320.313 174.995 319.62 173.072 319.403C171.15 319.187 169.203 319.454 167.41 320.18C166.507 320.667 165.531 321.004 164.52 321.18C163.679 321.182 162.852 320.965 162.12 320.549C161.389 320.134 160.779 319.534 160.35 318.81C159.2 317.1 158.69 315.06 156.47 313.93C155.975 313.676 155.426 313.544 154.87 313.544C154.314 313.544 153.765 313.676 153.27 313.93C153.011 314.066 152.781 314.253 152.596 314.48C152.41 314.707 152.272 314.969 152.19 315.25C152.195 315.2 152.195 315.15 152.19 315.1C152.175 315.246 152.175 315.394 152.19 315.54C152.19 315.6 152.19 315.66 152.19 315.72C152.19 315.78 152.19 315.87 152.19 315.94C152.11 317.87 153.46 320.37 151.93 321.89C151.316 322.403 150.6 322.781 149.83 323L144.39 324.95C141.485 326.156 138.413 326.912 135.28 327.19C132.43 327.29 129.55 326.66 126.74 326.73C126.608 326.663 126.481 326.586 126.36 326.5C125.733 326.533 125.108 326.607 124.49 326.72C124.551 326.798 124.618 326.872 124.69 326.94H124.49C125.923 328.532 127.812 329.643 129.9 330.12C131.19 330.44 132.55 330.54 133.8 330.94C135.05 331.34 136.24 332.14 136.46 333.24C136.483 334.161 136.262 335.072 135.82 335.88L135.77 335.8C135.639 336.155 135.575 336.531 135.58 336.91C135.556 337.089 135.556 337.271 135.58 337.45C135.799 338.079 136.239 338.608 136.819 338.937C137.398 339.266 138.077 339.374 138.73 339.24L132.3 343.29C131.821 343.577 131.372 343.912 130.96 344.29L130.78 344.24C130.597 344.419 130.453 344.634 130.357 344.872C130.26 345.109 130.214 345.364 130.22 345.62C130.199 345.816 130.223 346.014 130.29 346.2L132.36 346.79L126.71 354.61C126.366 355.064 126.064 355.55 125.81 356.06L125.75 355.96C125.622 356.278 125.554 356.617 125.55 356.96C125.53 357.129 125.53 357.301 125.55 357.47C125.598 357.751 125.706 358.019 125.866 358.255C126.026 358.491 126.235 358.69 126.479 358.838C126.722 358.987 126.994 359.082 127.278 359.117C127.561 359.152 127.848 359.125 128.12 359.04C126.882 360.282 125.885 361.744 125.18 363.35L125.09 363.29L125 363.5C124.859 363.814 124.787 364.155 124.79 364.5C124.748 364.763 124.801 365.033 124.94 365.26C125.194 365.527 125.508 365.729 125.856 365.849C126.204 365.969 126.576 366.003 126.94 365.95C129.94 365.95 132.73 363.9 133.2 361.45C134.12 362.45 133.13 363.64 132.26 364.67C128.72 368.81 125.12 373.02 123.26 377.85C122.606 379.507 122.208 381.254 122.08 383.03C122.08 383.03 122.08 382.95 122.08 382.91C122.08 383.04 122.08 383.17 122.08 383.3C121.829 386.616 122.876 389.901 125 392.46C125.786 393.257 126.49 394.131 127.1 395.07C128.22 397.15 127.58 399.82 129.32 401.58C130.724 397.838 132.423 394.213 134.4 390.74C134.369 391.68 134.228 392.613 133.98 393.52V393.44C133.98 393.68 133.9 393.91 133.88 394.14C133.87 394.31 133.87 394.48 133.88 394.65C133.834 395.253 133.98 395.855 134.298 396.369C134.616 396.883 135.09 397.283 135.65 397.51C137.42 398.14 139.25 396.86 140.45 395.58C140.62 396.02 140.79 396.45 140.98 396.88C144.702 405.16 151.429 411.718 159.8 415.23L159.96 415.56C153.21 419.56 137.52 429.29 136.5 433.02C135.19 437.78 135.66 450.3 145.06 452.84C147.094 453.395 149.205 453.617 151.31 453.5C150.91 454.13 150.52 454.77 150.14 455.39C147.54 459.61 145.36 463.52 144.7 465.62C142.8 471.75 125.04 479.17 125.04 479.17C125.04 479.17 108.86 492.17 105.38 517.17C105.38 517.17 88.2501 539.43 78.7401 544.07C69.2301 548.71 52.7401 577.15 52.7401 577.15C52.7401 577.15 36.4101 588.61 32.9401 599.78C29.4701 610.95 20.9401 613.7 20.9401 613.7C20.9401 613.7 21.7201 614.08 22.9401 614.84C22.5501 615.05 22.1401 615.29 21.6801 615.57C13.9201 620.19 -3.20992 632.84 0.580077 652.57C4.26008 671.57 25.7401 653.08 36.1801 642.74L37.1201 641.8C36.9604 642.865 36.74 643.92 36.4601 644.96C38.7185 641.435 41.5197 638.29 44.7601 635.64C48.2471 632.823 51.1109 629.312 53.1701 625.33C54.7501 622.33 57.2801 619.33 61.1701 618.33C69.7301 616.17 113.17 582.78 122.7 565.46C132.23 548.14 152.19 541.46 152.19 541.46L161.35 570.11C162.747 574.491 162.992 579.157 162.06 583.66C160.06 593.42 157.55 612.28 163.61 626.95C163.61 626.95 163.89 626.69 164.4 626.26C165.23 629.98 166.29 634.87 167.25 639.68C167.48 640.86 167.7 642.04 167.91 643.2C168.52 646.47 169.03 649.54 169.32 651.99C170.59 662.51 174.08 686.63 176.93 689.1C179.78 691.57 195.93 741.66 195.93 741.66C195.93 741.66 210.2 774.44 207.99 788.97C207.789 790.75 207.819 792.548 208.08 794.32C208.572 797.934 209.3 801.511 210.26 805.03C210.54 806.09 210.82 807.17 211.14 808.27C211.4 809.22 211.68 810.19 211.96 811.16C218.87 834.61 232.09 865.96 232.09 865.96C232.09 865.96 233.19 868.81 234.62 872.62C235.09 873.9 235.62 875.29 236.13 876.72C238.48 883.12 240.96 890.3 240.96 891.93C240.96 892.3 241.46 892.71 242.33 893.13C240.065 896.895 238.061 900.811 236.33 904.85C233.55 911.41 225.55 917.91 225.55 917.91C225.55 917.91 216.03 920.61 216.03 928.91V935.25C216.03 935.25 236.25 934.86 242.91 936.72C249.57 938.58 258.45 935.4 258.45 935.4L260.35 932.94C260.35 932.94 283.42 933.94 284.85 928.21C285.27 926.53 285.25 922.95 284.91 918.68C284.474 913.473 283.706 908.299 282.61 903.19C284.13 903.13 285.17 903.03 285.17 903.03C285.17 903.03 295.72 909.83 296.82 916.56C297.157 918.538 297.92 920.419 299.057 922.074C300.193 923.728 301.675 925.115 303.4 926.14C303.4 926.14 314.35 931.14 335.35 928.85C346.35 927.68 348.42 922.08 347.41 917.1C346.49 912.54 342.97 908.5 341.3 908.83C337.82 909.53 323.78 889.35 323.78 889.35L316.65 874.35C317.29 866.35 315.41 862.56 312.77 860.95C314.58 844.08 314.82 821.47 314.82 821.47C314.82 821.47 316.41 794.26 314.82 769.83C313.23 745.4 313.23 697.48 307.82 681.4C305.32 673.92 301.7 652.97 298.56 632.71C298.32 631.19 298.08 629.71 297.86 628.18C297.1 623.25 296.39 618.43 295.73 613.91C296.04 613.76 296.36 613.61 296.64 613.45L294.94 598.61L294.7 596.56C294.76 596.62 294.84 596.66 294.9 596.71C300.61 601.96 293 572.9 293 572.9C293 572.9 289.57 539.48 289.8 520.26C289.822 513.422 289.458 506.587 288.71 499.79C288.13 494.07 289.48 486.64 298.12 481.41C300.39 479.977 302.519 478.333 304.48 476.5C306.89 474.31 312.15 471.5 323.48 471.17C342.48 470.56 361.48 460.66 361.48 460.66C361.48 460.66 383.37 461.9 393.48 448.91C403.59 435.92 429 432.84 429 432.84L425.89 406.54ZM34.0901 625.93L31.2801 621.99C32.324 623.223 33.2639 624.541 34.0901 625.93V625.93ZM273.26 786.78C273.1 788.78 272.98 791.13 272.96 793.78C272.88 802.06 273.7 813.1 277.43 823.65L275.84 865.2H275.71C274.37 865.06 273.12 869.3 272.15 874.89C271.357 872.583 270.373 870.345 269.21 868.2C267.31 865.42 268.9 849.97 268.9 849.97C268.9 849.97 260.96 837.29 260.34 834.5C259.72 831.71 250.18 786.57 250.18 786.57C250.18 786.57 249.55 751.33 246.06 742.37C242.57 733.41 241.62 694.44 241.62 694.44C241.62 694.44 259.06 722.57 260.34 736.8L273.97 780.4C273.97 780.4 273.55 782.78 273.26 786.78Z" fill="url(#paint0_linear)"/>
<path d="M311.41 820.18C311.41 820.18 310.89 869.65 305.68 876.38C300.47 883.11 273.22 876.69 273.22 876.69L275.22 822.32C271.61 811.88 270.81 800.94 270.9 792.74C270.9 790.12 271.03 787.74 271.18 785.81C271.47 781.81 271.87 779.45 271.87 779.45L258.7 736.27C257.47 722.17 240.63 694.27 240.63 694.27C240.63 694.27 241.55 732.86 244.92 741.74C248.29 750.62 248.92 785.53 248.92 785.53C248.92 785.53 258.11 830.25 258.72 833.01C259.33 835.77 266.99 848.32 266.99 848.32C266.99 848.32 265.46 863.63 267.3 866.39C269.14 869.15 276.79 890.59 274.95 894.57C273.11 898.55 240.04 893.03 240.04 889.97C240.04 888.36 237.64 881.24 235.37 874.9L233.91 870.84C232.53 867.07 231.46 864.25 231.46 864.25C231.46 864.25 218.7 833.19 212.03 809.96C211.75 808.96 211.49 808.04 211.23 807.11C210.93 806.01 210.65 804.94 210.39 803.89C209.465 800.404 208.76 796.864 208.28 793.29C208.029 791.534 207.999 789.753 208.19 787.99C210.33 773.59 196.55 741.13 196.55 741.13C196.55 741.13 180.93 691.51 178.17 689.06C175.41 686.61 172.04 662.73 170.82 652.31C170.54 649.87 170.05 646.83 169.46 643.6C169.26 642.45 169.04 641.28 168.82 640.1C166.95 630.45 164.65 620.46 164.65 620.46L199 597.79L289.35 587.99C289.35 587.99 291.87 607.35 295.04 628.69C295.26 630.17 295.49 631.69 295.72 633.18C298.72 653.24 302.25 674 304.66 681.4C309.86 697.33 309.86 744.8 311.4 768.99C312.94 793.18 311.41 820.18 311.41 820.18Z" fill="#63667E"/>
<path opacity="0.1" d="M222.54 616.28L233.91 674.33H239.31L228.51 614.26L222.54 616.28Z" fill="black"/>
<path opacity="0.1" d="M169.5 643.61C169.3 642.46 169.08 641.29 168.86 640.11C174.15 639.03 186.12 634.62 184.26 616.94H187.93C187.93 616.94 191.41 640.23 169.5 643.61Z" fill="black"/>
<path opacity="0.1" d="M295.76 633.22C288.9 634.48 267.46 638.17 262.97 635.73C257.62 632.82 252.33 617.05 252.33 617.05L257.23 616.28C257.23 616.28 252.91 639.41 295.08 628.73C295.3 630.21 295.53 631.71 295.76 633.22Z" fill="black"/>
<path d="M293.91 614.14C287.73 617.73 273.22 619.46 256.33 620.14C254.79 620.2 253.24 620.26 251.66 620.3C224.28 621.16 192.31 619.61 179.57 618.88C175.98 618.68 173.92 618.54 173.92 618.54L185.1 610.81L203.48 604.07L242.14 596.49L291.68 595.11L292.18 599.36L293.91 614.14Z" fill="#33363D"/>
<path d="M256.33 620.18C254.79 620.24 253.24 620.3 251.66 620.34C249.72 612.12 243.6 598.98 243.6 598.98L248.8 598.29L256.33 620.18Z" fill="#63667E"/>
<path d="M47.7402 637.23C47.7402 637.23 45.5802 639.73 42.2602 643.11C32.1802 653.36 11.4302 671.67 7.89018 652.85C4.22018 633.34 20.7702 620.85 28.2602 616.23C30.3802 614.92 31.7702 614.23 31.7702 614.23L47.7402 637.23Z" fill="#FFA2A2"/>
<path d="M233.34 416.83C233.34 416.83 221.63 409.48 219.45 410.17C217.27 410.86 219.45 420.72 219.45 420.72C216.626 426.108 212.161 430.458 206.7 433.14C200.441 436.413 194.38 440.052 188.55 444.04C184.037 443.6 179.481 444.108 175.176 445.532C170.871 446.956 166.911 449.265 163.55 452.31C161.201 453.89 158.542 454.953 155.752 455.428C152.961 455.904 150.1 455.782 147.36 455.07C138.28 452.55 137.83 440.15 139.09 435.44C140.09 431.74 155.23 422.14 161.75 418.14C163.55 417.04 164.69 416.37 164.69 416.37C164.69 416.37 194.11 415.37 200.75 402.82C202.793 398.941 205.839 395.681 209.57 393.38V393.38L209.74 393.29L210.58 392.79L210.85 392.64C213.941 390.937 217.341 389.869 220.85 389.5C235.22 398.68 233.34 416.83 233.34 416.83Z" fill="#CED7E7"/>
<path opacity="0.1" d="M233.34 416.83C233.34 416.83 221.63 409.48 219.45 410.17C217.27 410.86 219.45 420.72 219.45 420.72C216.626 426.108 212.161 430.458 206.7 433.14C200.441 436.413 194.38 440.052 188.55 444.04C184.037 443.6 179.481 444.108 175.176 445.532C170.871 446.956 166.911 449.265 163.55 452.31C161.201 453.89 158.542 454.953 155.752 455.428C152.961 455.904 150.1 455.782 147.36 455.07C138.28 452.55 137.83 440.15 139.09 435.44C140.09 431.74 155.23 422.14 161.75 418.14C163.55 417.04 164.69 416.37 164.69 416.37C164.69 416.37 194.11 415.37 200.75 402.82C202.793 398.941 205.839 395.681 209.57 393.38V393.38L209.74 393.29L210.58 392.79L210.85 392.64C213.941 390.937 217.341 389.869 220.85 389.5C235.22 398.68 233.34 416.83 233.34 416.83Z" fill="black"/>
<path opacity="0.1" d="M292.18 599.4C286.67 594.19 252.37 603.68 252.37 603.68C252.37 603.68 228.75 610.46 210.73 611.56C208.277 611.723 205.816 611.753 203.36 611.65C195.79 611.26 187.9 614.32 181.28 617.99L179.61 618.99C176.02 618.79 173.96 618.65 173.96 618.65L185.14 610.92L203.52 604.18L242.18 596.6L291.72 595.22L292.18 599.4Z" fill="black"/>
<path opacity="0.1" d="M42.2598 643.11C44.5498 627.85 32.7098 618.98 28.2598 616.23C30.3798 614.92 31.7698 614.23 31.7698 614.23L47.7698 637.23C47.7698 637.23 45.5798 639.73 42.2598 643.11Z" fill="black"/>
<path d="M421.7 435.21C421.7 435.21 397.19 438.21 387.4 451.13C377.61 464.05 356.46 462.77 356.46 462.77C356.46 462.77 338.08 472.57 319.71 473.18C308.8 473.54 303.71 476.28 301.39 478.45C299.503 480.265 297.447 481.896 295.25 483.32C286.91 488.5 285.6 495.85 286.17 501.52C286.885 508.256 287.235 515.026 287.22 521.8C287 540.8 290.31 573.94 290.31 573.94C290.31 573.94 297.66 602.73 292.14 597.53C286.62 592.33 252.33 601.81 252.33 601.81C252.33 601.81 228.71 608.59 210.69 609.7C208.237 609.86 205.776 609.887 203.32 609.78C195.75 609.39 187.86 612.45 181.24 616.13C175.544 619.343 170.215 623.169 165.35 627.54C159.49 613.01 161.93 594.32 163.85 584.66C164.747 580.2 164.513 575.586 163.17 571.24L154.32 542.86C154.32 542.86 135.03 549.44 125.84 566.59C116.65 583.74 74.69 616.82 66.41 618.97C62.62 619.97 60.18 622.92 58.65 625.86C56.6829 629.791 53.9213 633.271 50.54 636.08C47.4061 638.718 44.7064 641.833 42.54 645.31C48.06 624.48 27.54 614.37 27.54 614.37C27.54 614.37 35.8 611.61 39.17 600.61C42.54 589.61 58.17 578.26 58.17 578.26C58.17 578.26 74.1 550.08 83.29 545.48C92.48 540.88 109.02 518.84 109.02 518.84C112.38 494.03 128.02 481.17 128.02 481.17C128.02 481.17 145.18 473.82 147.02 467.75C147.66 465.67 149.76 461.8 152.27 457.62C154.61 453.68 157.27 449.49 159.42 446.22C161.57 442.95 163.26 440.43 163.26 440.43L190.76 440.17L195.76 440.12L210.41 412.54C210.41 412.54 215.62 407.34 224.65 413.46C227.246 415.194 230.333 416.042 233.45 415.88C237.543 415.615 241.512 414.367 245.02 412.24C279.94 402.74 294.64 420.72 294.64 420.72C294.64 420.72 318.83 418.67 320.05 420.72C321.27 422.77 333.83 420.72 333.83 420.72L367.22 417.44L418.68 409.18L421.7 435.21Z" fill="#CED7E7"/>
<path d="M220.78 426.02L205.16 451.74C205.16 451.74 162.59 482.68 168.72 458.48C169.713 454.41 170.067 450.209 169.77 446.03C169.68 444.4 169.49 442.77 169.25 441.16C168.14 434.487 166.177 427.983 163.41 421.81C163.1 421.07 162.78 420.36 162.41 419.66C161.93 418.66 161.46 417.66 160.99 416.72C159.018 412.728 156.776 408.876 154.28 405.19C154.28 405.19 200.53 367.52 202.06 391.1C202.395 396.427 203.611 401.661 205.66 406.59L206.02 407.42C208.594 413.233 212.295 418.477 216.91 422.85C218.117 424.004 219.41 425.064 220.78 426.02V426.02Z" fill="#FFA2A2"/>
<path d="M158.92 449.91L166.12 471.34L195.41 476.09L212.21 457.61C212.21 457.61 221.86 443.83 222.47 443.52C223.08 443.21 224.61 430.05 224.61 430.05L226.41 422.61L215.08 418.8L199.15 436.1L192.64 440.1L185.41 441.86L161.41 448.86L158.92 449.91Z" fill="#CED7E7"/>
<path opacity="0.1" d="M233.34 418.67C233.34 418.67 225.34 418.59 223.21 419.28C221.08 419.97 219.45 422.55 219.45 422.55C216.628 427.942 212.163 432.296 206.7 434.98C200.441 438.253 194.38 441.892 188.55 445.88C184.037 445.437 179.481 445.944 175.175 447.369C170.869 448.793 166.909 451.103 163.55 454.15C160.199 456.399 156.256 457.603 152.22 457.61C154.56 453.67 157.22 449.48 159.37 446.21C169.25 445.13 190.16 441.3 190.16 441.3L190.71 440.16C192.65 436.16 199.22 422.65 201.64 418.57C204.46 413.81 213.3 398.94 213.58 398.47L204.9 406.41L209.54 395.23L209.71 395.14L210.55 394.64L210.82 394.49C213.911 392.787 217.311 391.719 220.82 391.35C231.77 398.35 233.33 410.45 233.45 415.9C233.466 416.825 233.429 417.749 233.34 418.67Z" fill="black"/>
<path opacity="0.1" d="M161.72 416.31L163.99 421.31C163.99 421.31 163.8 421.47 163.4 421.77C163.09 421.03 162.77 420.32 162.4 419.62C161.92 418.62 161.45 417.62 160.98 416.68C161.22 416.54 161.44 416.39 161.66 416.27L161.72 416.31Z" fill="black"/>
<path opacity="0.1" d="M216.95 422.85C214.195 426.385 210.695 429.27 206.7 431.3C200.439 434.574 194.378 438.217 188.55 442.21C182.048 441.567 175.504 442.898 169.77 446.03C169.68 444.4 169.49 442.77 169.25 441.16C179.09 439.64 190.16 437.61 190.16 437.61C190.16 437.61 198.78 419.7 201.64 414.88C202.64 413.26 204.28 410.43 206.06 407.42C208.634 413.233 212.335 418.477 216.95 422.85Z" fill="black"/>
<path d="M233.34 416.83C233.34 416.83 225.34 416.75 223.2 417.44C221.06 418.13 219.45 420.72 219.45 420.72C216.626 426.108 212.161 430.458 206.7 433.14C200.441 436.413 194.38 440.052 188.55 444.04C184.037 443.6 179.481 444.108 175.176 445.532C170.871 446.956 166.911 449.265 163.55 452.31C161.201 453.89 158.542 454.953 155.752 455.428C152.961 455.904 150.1 455.782 147.36 455.07C138.28 452.55 137.83 440.15 139.09 435.44C140.09 431.74 155.23 422.14 161.75 418.14L164.02 423.19C159.291 426.815 154.338 430.138 149.19 433.14C139.42 438.99 144.36 445.31 144.36 445.31C147.875 444.701 151.445 444.466 155.01 444.61C160.07 444.95 190.16 439.44 190.16 439.44C190.16 439.44 198.78 421.52 201.64 416.71C204.5 411.9 213.3 397.08 213.58 396.61L204.9 404.61L209.54 393.43L209.71 393.34L210.55 392.84L210.82 392.69C213.911 390.987 217.311 389.919 220.82 389.55C235.22 398.68 233.34 416.83 233.34 416.83Z" fill="#CED7E7"/>
<path opacity="0.1" d="M205.7 406.61C201.201 413.562 194.379 418.691 186.45 421.081C178.522 423.471 170.002 422.968 162.41 419.66C160.099 414.623 157.38 409.783 154.28 405.19C154.28 405.19 200.53 367.52 202.06 391.1C202.405 396.436 203.636 401.677 205.7 406.61Z" fill="black"/>
<path d="M210.41 385.8C210.41 386.673 210.38 387.533 210.32 388.38C209.663 397.527 205.441 406.051 198.564 412.118C191.687 418.184 182.703 421.31 173.545 420.821C164.387 420.332 155.787 416.269 149.595 409.504C143.402 402.74 140.112 393.816 140.431 384.65C140.751 375.485 144.655 366.812 151.304 360.495C157.953 354.179 166.815 350.725 175.985 350.875C185.155 351.026 193.899 354.77 200.337 361.301C206.774 367.832 210.392 376.629 210.41 385.8V385.8Z" fill="#FFA2A2"/>
<path opacity="0.1" d="M119.72 498.3C119.72 498.3 127.41 512.69 136.87 520.61C146.33 528.53 151.87 540.83 151.87 540.83C151.87 540.83 149.12 516.98 119.72 498.3Z" fill="black"/>
<path opacity="0.1" d="M107.77 534.44C107.77 534.44 134.77 527.7 148.36 534.44H107.77Z" fill="black"/>
<path opacity="0.1" d="M97.9702 574.61L127.02 564.61C127.02 564.61 108.41 577.93 97.9702 574.61Z" fill="black"/>
<path opacity="0.1" d="M47.7402 613.76C47.7402 613.76 60.3002 613.15 64.2802 617.13C64.2802 617.13 52.0302 618.05 47.7402 613.76Z" fill="black"/>
<path opacity="0.1" d="M340.82 420.02C340.82 420.02 312.66 436.74 311.41 463.69L340.82 420.02Z" fill="black"/>
<path opacity="0.1" d="M374.84 445.31C374.84 445.31 339.92 452.36 334.1 456.03C328.28 459.7 315.73 461.54 315.73 461.54C315.73 461.54 366.26 454.81 374.84 445.31Z" fill="black"/>
<path opacity="0.1" d="M272.41 593.12C269.87 595.76 238.52 603.2 210.5 609.42C207.957 609.588 205.406 609.618 202.86 609.51C195.01 609.11 186.86 612.26 179.96 616.04C171.5 617.84 166.03 618.97 166.03 618.97C166.03 618.97 156.82 611.71 169.52 595.32C182.22 578.93 184.45 553.07 184.45 553.07L240.99 538.61C240.99 538.61 256.24 559.61 263.54 562.98C270.84 566.35 277.11 588.26 272.41 593.12Z" fill="black"/>
<path d="M270.41 593.85C267.95 596.43 237.72 603.65 210.7 609.7C208.247 609.86 205.787 609.887 203.33 609.78C195.76 609.39 187.87 612.45 181.25 616.13C173.09 617.87 167.81 618.97 167.81 618.97C167.81 618.97 158.93 611.92 171.18 595.97C183.43 580.02 185.57 554.92 185.57 554.92L240.09 540.84C240.09 540.84 254.79 561.24 261.83 564.52C268.87 567.8 274.91 589.14 270.41 593.85Z" fill="#CED7E7"/>
<path opacity="0.1" d="M226.15 794.61L210.41 803.93C209.485 800.444 208.78 796.904 208.3 793.33C210.59 795.24 226.15 794.61 226.15 794.61Z" fill="black"/>
<path opacity="0.1" d="M211.27 807.15C216.83 806.09 230.03 803.45 237.27 800.97C230.71 804.17 218.84 809.52 212.1 809.97C211.79 809.04 211.53 808.08 211.27 807.15Z" fill="black"/>
<path opacity="0.1" d="M241.91 798.61C241.33 799.32 239.63 800.12 237.28 800.93C240.09 799.61 241.91 798.61 241.91 798.61Z" fill="black"/>
<path opacity="0.1" d="M251.41 875.61C246.95 875.98 239.7 875.38 235.41 874.94L233.95 870.88C238.54 871.37 247.65 872.14 251.41 871.02C256.54 869.5 258.08 875.08 251.41 875.61Z" fill="black"/>
<path opacity="0.1" d="M291.26 794.22C290.52 794.12 278.62 792.78 270.96 792.74C270.96 790.12 271.09 787.74 271.24 785.81C276.52 788.04 290.47 793.95 291.26 794.22Z" fill="black"/>
<path d="M282.5 925.92C281.12 931.61 258.84 930.61 258.84 930.61L257 933.05C257 933.05 248.43 936.19 242 934.35C235.57 932.51 216 932.9 216 932.9V926.61C216 918.42 225.19 915.74 225.19 915.74C225.19 915.74 232.92 909.31 235.6 902.8C237.271 898.77 239.212 894.858 241.41 891.09C241.41 891.09 234.22 882.36 253.51 880.09C272.51 877.89 265.06 895.14 264.85 895.62C265.16 895.34 272.29 888.93 276.25 890.95C279.11 892.42 281.7 906.34 282.51 916.42C282.88 920.7 282.9 924.25 282.5 925.92Z" fill="#CED7E7"/>
<path opacity="0.1" d="M282.5 925.92C281.12 931.61 258.84 930.61 258.84 930.61L257 933.05C257 933.05 248.43 936.19 242 934.35C235.57 932.51 216 932.9 216 932.9V926.9C227.78 927.48 251.36 928.26 256.66 925.53C256.66 925.53 263.01 923.92 264.47 922.85C265.7 921.94 278.64 917.71 282.47 916.46C282.88 920.7 282.9 924.25 282.5 925.92Z" fill="black"/>
<path d="M331.27 926.55C310.98 928.77 300.41 923.86 300.41 923.86C298.73 922.83 297.292 921.448 296.196 919.81C295.1 918.172 294.371 916.316 294.06 914.37C292.99 907.71 282.8 900.98 282.8 900.98C282.8 900.98 270.25 902.2 268.71 898.52C268.34 896.959 268.199 895.352 268.29 893.75C268.29 883.88 270.76 863.15 273.61 863.45C276.97 863.82 287.36 877.58 288.4 878.96C287.49 877.48 278.45 862.07 298.5 860.24C298.5 860.24 314.88 850.98 313.2 872.57L320.09 887.42C320.09 887.42 333.65 907.42 337.01 906.72C338.62 906.39 342.01 910.39 342.91 914.91C343.88 919.84 341.87 925.39 331.27 926.55Z" fill="#CED7E7"/>
<path opacity="0.1" d="M210.41 385.8C210.41 386.673 210.38 387.533 210.32 388.38L209.47 388.7L206.18 389.9C205.626 390.138 205.033 390.273 204.43 390.3C203.96 390.28 203.5 390.154 203.086 389.931C202.672 389.707 202.314 389.392 202.04 389.01C201.566 388.287 201.228 387.484 201.04 386.64L198.55 377.07C198.05 375.17 197.28 372.98 195.15 372.27C194.528 372.134 193.916 371.953 193.32 371.73C191.99 371.1 191.71 369.62 191.26 368.38C190.26 365.49 187.59 363.18 184.7 361.38C182.746 360.012 180.425 359.266 178.04 359.24C176.763 359.26 175.528 359.703 174.53 360.5C172.44 362.27 172.73 364.66 172.98 367.18C173.23 369.7 173.9 372.39 173.16 374.91C172.66 376.55 171.59 378.08 171.4 379.78C171.24 381.15 171.69 382.54 171.61 383.91C171.594 384.65 171.329 385.363 170.857 385.933C170.385 386.503 169.734 386.897 169.01 387.05C168.88 386.22 167.67 385.95 166.86 385.5C165.03 384.5 164.93 382.32 165.01 380.5C165.15 377.78 165.28 375.05 165.41 372.33C164.602 378.414 163.349 384.43 161.66 390.33C161.452 391.356 160.976 392.308 160.28 393.09C159.87 393.498 159.347 393.775 158.778 393.883C158.21 393.992 157.622 393.928 157.09 393.7C156.471 393.31 156.013 392.71 155.8 392.01C154.522 388.842 154.082 385.398 154.52 382.01C153.41 386.44 152.3 390.92 150.16 395.08C149.31 396.73 148.02 398.52 145.93 398.85C145.292 398.87 144.66 398.974 144.05 399.16C143.806 399.276 143.586 399.435 143.4 399.63C141.362 394.872 140.408 389.721 140.606 384.55C140.804 379.378 142.149 374.315 144.544 369.727C146.94 365.139 150.326 361.141 154.456 358.023C158.587 354.904 163.359 352.744 168.428 351.697C173.496 350.65 178.734 350.743 183.763 351.969C188.791 353.195 193.483 355.525 197.501 358.788C201.518 362.051 204.759 366.167 206.99 370.837C209.221 375.507 210.386 380.614 210.4 385.79L210.41 385.8Z" fill="black"/>
<path d="M174.53 358.71C175.526 357.907 176.761 357.46 178.04 357.44C180.424 357.469 182.745 358.215 184.7 359.58C187.59 361.34 190.22 363.64 191.26 366.58C191.71 367.82 191.98 369.31 193.26 369.94C193.859 370.153 194.47 370.33 195.09 370.47C197.23 371.18 198 373.37 198.49 375.27L201 384.84C201.163 385.683 201.485 386.488 201.95 387.21C202.223 387.594 202.581 387.911 202.995 388.136C203.409 388.362 203.869 388.489 204.34 388.51C204.947 388.483 205.544 388.344 206.1 388.1L209.39 386.9C211.12 386.27 213 385.52 213.79 384.06C214.204 383.118 214.343 382.078 214.19 381.06C213.998 378.005 213.57 374.969 212.91 371.98L216.69 374.55C217.6 375.16 218.74 375.81 219.82 375.47C220.171 375.339 220.486 375.128 220.742 374.854C220.997 374.579 221.185 374.25 221.29 373.89C221.97 372.01 221.48 369.76 222.9 368.21C223.24 367.85 223.66 367.54 223.96 367.16C225.25 365.5 223.72 363.25 224.25 361.31C224.76 361.511 225.323 361.539 225.85 361.389C226.378 361.239 226.842 360.92 227.17 360.48C227.69 359.641 227.944 358.666 227.9 357.68C228.2 352.03 228.34 345.91 224.47 341.31C225.18 336.69 220.28 331.66 214.86 331.03C213.51 330.87 211.86 330.79 211.27 329.76C211.06 329.264 210.968 328.727 211 328.19C210.86 326.44 209.69 324.88 208.56 323.41C208.108 322.762 207.554 322.191 206.92 321.72C205.13 320.54 202.58 320.86 200.36 321.26C196.287 321.987 192.24 322.803 188.22 323.71C187.748 321.734 187.779 319.671 188.31 317.71C188.72 316.23 189.42 314.71 188.66 313.23C188.467 312.86 188.181 312.547 187.83 312.321C187.48 312.095 187.076 311.964 186.66 311.94C186.131 311.926 185.61 312.067 185.16 312.346C184.71 312.625 184.352 313.03 184.13 313.51C181.827 316.954 180.236 320.823 179.45 324.89C177.939 323.821 176.183 323.151 174.344 322.941C172.505 322.731 170.643 322.989 168.93 323.69C168.065 324.176 167.126 324.514 166.15 324.69C165.337 324.679 164.54 324.456 163.839 324.044C163.138 323.632 162.556 323.045 162.15 322.34C161.05 320.64 160.55 318.62 158.41 317.51C157.934 317.259 157.403 317.127 156.865 317.127C156.326 317.127 155.796 317.259 155.32 317.51C152.49 319.16 156.02 323.25 153.92 325.4C153.337 325.902 152.656 326.276 151.92 326.5L146.67 328.43C143.871 329.626 140.901 330.371 137.87 330.64C134.39 330.78 130.87 329.71 127.45 330.43C128.825 331.996 130.653 333.097 132.68 333.58C133.92 333.89 135.23 333.99 136.44 334.39C137.027 334.521 137.57 334.798 138.02 335.197C138.47 335.596 138.81 336.103 139.01 336.67C139.28 338.08 137.92 339.44 138.19 340.85C138.395 341.455 138.811 341.967 139.362 342.292C139.912 342.616 140.561 342.733 141.19 342.62L134.98 346.62C133.86 347.34 132.61 348.39 133.03 349.53L135.03 350.11L129.64 357.84C128.94 358.624 128.539 359.63 128.51 360.68C128.562 360.949 128.669 361.205 128.825 361.431C128.98 361.657 129.18 361.849 129.413 361.994C129.646 362.139 129.906 362.235 130.177 362.276C130.448 362.317 130.725 362.301 130.99 362.23C129.698 363.575 128.68 365.158 127.99 366.89C127.864 367.117 127.794 367.37 127.786 367.629C127.777 367.888 127.83 368.145 127.94 368.38C128.177 368.637 128.473 368.834 128.801 368.954C129.13 369.074 129.483 369.114 129.83 369.07C132.73 369.07 135.42 367.07 135.83 364.6C136.72 365.6 135.77 366.78 134.92 367.79C131.51 371.89 128.03 376.07 126.22 380.85C124.41 385.63 124.49 391.21 127.88 395.32C128.63 396.115 129.3 396.983 129.88 397.91C130.96 399.97 130.34 402.61 132.02 404.36C133.371 400.658 135.009 397.067 136.92 393.62C136.812 394.832 136.635 396.038 136.39 397.23C136.309 397.861 136.431 398.502 136.739 399.059C137.046 399.616 137.523 400.061 138.1 400.33C139.86 400.97 141.69 399.6 142.84 398.33C143.126 397.952 143.491 397.642 143.91 397.42C144.518 397.238 145.146 397.134 145.78 397.11C147.87 396.78 149.15 395 150.01 393.34C152.15 389.19 153.27 384.71 154.37 380.26C153.928 383.649 154.373 387.094 155.66 390.26C155.867 390.96 156.322 391.561 156.94 391.95C157.473 392.174 158.061 392.235 158.629 392.125C159.197 392.014 159.719 391.738 160.13 391.33C160.828 390.55 161.304 389.597 161.51 388.57C163.195 382.669 164.448 376.653 165.26 370.57L164.86 378.74C164.77 380.58 164.86 382.74 166.7 383.74C167.53 384.19 168.7 384.46 168.86 385.28C169.585 385.134 170.237 384.743 170.709 384.173C171.18 383.604 171.442 382.889 171.45 382.15C171.54 380.77 171.09 379.39 171.25 378.01C171.44 376.32 172.52 374.79 173.01 373.14C173.75 370.63 173.1 368 172.83 365.42C172.56 362.84 172.41 360.47 174.53 358.71Z" fill="#896363"/>
<path opacity="0.1" d="M331.27 926.55C310.98 928.77 300.41 923.86 300.41 923.86C298.73 922.83 297.292 921.448 296.196 919.81C295.1 918.172 294.371 916.316 294.06 914.37C292.99 907.71 282.8 900.98 282.8 900.98C282.8 900.98 270.25 902.2 268.71 898.52C268.34 896.959 268.199 895.352 268.29 893.75C272.93 894.86 283.62 897.41 286.93 898.36C291.23 899.58 303.79 919.95 303.79 919.95C315.88 926.31 335.89 918.15 342.91 914.95C343.88 919.84 341.87 925.39 331.27 926.55Z" fill="black"/>
<path opacity="0.1" d="M241.41 891.09C241.41 891.09 235.23 900.57 264.85 895.67Z" fill="black"/>
<path opacity="0.1" d="M288.41 878.96C288.41 878.96 319.65 885.75 313.21 872.57Z" fill="black"/>
<g opacity="0.1">
<path opacity="0.1" d="M138.41 339.15C138.239 339.592 138.184 340.071 138.25 340.54C138.381 341.08 138.719 341.547 139.19 341.84L141.3 340.48C140.74 340.579 140.163 340.505 139.647 340.267C139.13 340.03 138.699 339.64 138.41 339.15V339.15Z" fill="black"/>
<path opacity="0.1" d="M132.69 333.28C133.94 333.59 135.25 333.69 136.46 334.09C137.471 334.358 138.336 335.012 138.87 335.91C139.042 335.472 139.097 334.996 139.03 334.53C138.831 333.963 138.49 333.456 138.04 333.057C137.591 332.658 137.047 332.381 136.46 332.25C135.25 331.85 133.94 331.75 132.69 331.44C131.472 331.135 130.318 330.617 129.28 329.91C128.672 329.933 128.066 330.007 127.47 330.13C128.843 331.694 130.667 332.794 132.69 333.28V333.28Z" fill="black"/>
<path opacity="0.1" d="M137.07 391.48C135.156 394.927 133.514 398.517 132.16 402.22C130.49 400.47 131.1 397.83 130.02 395.77C129.444 394.84 128.774 393.972 128.02 393.18C126.316 391.089 125.331 388.505 125.21 385.81C124.933 389.127 125.939 392.423 128.02 395.02C128.774 395.812 129.444 396.68 130.02 397.61C131.1 399.67 130.49 402.3 132.16 404.06C133.431 400.598 134.952 397.232 136.71 393.99C136.929 393.171 137.05 392.328 137.07 391.48Z" fill="black"/>
<path opacity="0.1" d="M128.8 359.12C128.623 359.515 128.55 359.949 128.59 360.38C128.648 360.687 128.776 360.976 128.965 361.224C129.155 361.473 129.4 361.673 129.68 361.81C130.098 361.201 130.563 360.626 131.07 360.09C130.638 360.221 130.174 360.196 129.759 360.018C129.344 359.841 129.004 359.523 128.8 359.12Z" fill="black"/>
<path opacity="0.1" d="M187.99 319.73C188.034 318.946 188.158 318.169 188.36 317.41C188.72 316.13 189.28 314.83 188.93 313.53C188.79 314.21 188.55 314.9 188.36 315.53C187.989 316.897 187.864 318.319 187.99 319.73Z" fill="black"/>
<path opacity="0.1" d="M154.31 318.61C154.198 319.774 154.289 320.948 154.58 322.08C154.695 320.916 154.604 319.742 154.31 318.61V318.61Z" fill="black"/>
<path opacity="0.1" d="M135.94 362.46C135.49 364.89 132.79 366.88 129.94 366.93C129.309 366.98 128.683 366.787 128.19 366.39L128.1 366.59C127.975 366.817 127.905 367.069 127.894 367.328C127.884 367.587 127.934 367.844 128.04 368.08C128.28 368.335 128.578 368.53 128.908 368.648C129.239 368.767 129.592 368.805 129.94 368.76C131.12 368.74 132.275 368.412 133.29 367.81C133.88 367.08 134.48 366.36 135.07 365.65C135.383 365.29 135.67 364.909 135.93 364.51C135.951 364.441 135.968 364.371 135.98 364.3V364.35C136.191 364.078 136.302 363.742 136.295 363.398C136.288 363.054 136.162 362.723 135.94 362.46V362.46Z" fill="black"/>
<path opacity="0.1" d="M133.58 347.53C133.348 347.739 133.18 348.01 133.095 348.311C133.01 348.612 133.012 348.93 133.1 349.23L134.04 349.5L135.1 347.97L133.58 347.53Z" fill="black"/>
<path opacity="0.1" d="M224.01 365.08C223.71 365.46 223.29 365.77 222.95 366.08C221.52 367.63 222.02 369.88 221.34 371.76C221.233 372.119 221.045 372.448 220.79 372.722C220.535 372.996 220.22 373.208 219.87 373.34C218.79 373.68 217.65 373.03 216.74 372.42L212.96 369.85C213.11 370.55 213.25 371.26 213.38 371.97L216.74 374.25C217.65 374.87 218.79 375.52 219.87 375.18C220.219 375.046 220.533 374.834 220.788 374.561C221.043 374.287 221.232 373.958 221.34 373.6C222.02 371.72 221.52 369.47 222.95 367.92C223.29 367.55 223.71 367.25 224.01 366.87C224.272 366.466 224.446 366.012 224.521 365.536C224.595 365.06 224.567 364.574 224.44 364.11C224.373 364.462 224.226 364.794 224.01 365.08V365.08Z" fill="black"/>
<path opacity="0.1" d="M214.22 380.61C214.178 381.067 214.049 381.512 213.84 381.92C213.05 383.38 211.17 384.13 209.43 384.76L206.15 385.96C205.592 386.2 204.996 386.338 204.39 386.37C203.919 386.349 203.459 386.221 203.045 385.996C202.631 385.771 202.273 385.454 202 385.07C201.523 384.349 201.184 383.545 201 382.7L198.5 373.13C198 371.23 197.24 369.04 195.1 368.33C194.48 368.19 193.869 368.013 193.27 367.8C191.94 367.16 191.66 365.68 191.27 364.44C190.27 361.54 187.6 359.24 184.71 357.44C182.754 356.077 180.434 355.331 178.05 355.3C176.771 355.319 175.535 355.766 174.54 356.57C172.87 357.98 172.72 359.79 172.85 361.75C172.888 361.106 173.058 360.476 173.349 359.9C173.639 359.324 174.045 358.814 174.54 358.4C175.539 357.604 176.772 357.158 178.05 357.13C180.432 357.17 182.75 357.915 184.71 359.27C187.6 361.04 190.23 363.34 191.27 366.27C191.71 367.51 191.99 368.99 193.27 369.63C193.869 369.843 194.48 370.02 195.1 370.16C197.24 370.87 198 373.06 198.5 374.96L201 384.52C201.181 385.366 201.521 386.17 202 386.89C202.271 387.277 202.628 387.597 203.042 387.824C203.457 388.051 203.918 388.18 204.39 388.2C204.995 388.164 205.591 388.025 206.15 387.79L209.41 386.61C211.15 385.98 213.03 385.23 213.82 383.77C214.234 382.828 214.373 381.788 214.22 380.77C214.23 380.75 214.23 380.69 214.22 380.61Z" fill="black"/>
<path opacity="0.1" d="M227.95 355.61C227.994 356.596 227.74 357.571 227.22 358.41C226.892 358.85 226.428 359.169 225.901 359.319C225.373 359.469 224.811 359.441 224.3 359.24C224.157 359.899 224.157 360.581 224.3 361.24V361.1C224.811 361.301 225.373 361.329 225.901 361.179C226.428 361.029 226.892 360.71 227.22 360.27C227.739 359.431 227.993 358.455 227.95 357.47C228.04 355.84 228.11 354.17 228.07 352.52C228.05 353.53 228 354.61 227.95 355.61Z" fill="black"/>
<path opacity="0.1" d="M154.52 378.09C153.583 382.605 152.12 386.995 150.16 391.17C149.3 392.83 148.02 394.61 145.92 394.94C145.286 394.966 144.658 395.07 144.05 395.25C143.636 395.474 143.275 395.785 142.99 396.16C141.84 397.46 139.99 398.83 138.25 398.16C137.837 398 137.473 397.736 137.191 397.395C136.909 397.053 136.719 396.646 136.64 396.21C136.64 396.45 136.56 396.68 136.54 396.91C136.45 397.541 136.569 398.184 136.877 398.742C137.186 399.299 137.668 399.741 138.25 400C140.01 400.65 141.84 399.27 142.99 398C143.278 397.63 143.639 397.324 144.05 397.1C144.656 396.91 145.285 396.806 145.92 396.79C148.02 396.46 149.3 394.68 150.16 393.02C152.033 389.06 153.439 384.895 154.35 380.61C154.351 379.767 154.408 378.925 154.52 378.09Z" fill="black"/>
<path opacity="0.1" d="M165.41 368.43C164.598 374.513 163.345 380.529 161.66 386.43C161.455 387.459 160.975 388.413 160.27 389.19C159.86 389.599 159.338 389.876 158.77 389.987C158.202 390.097 157.613 390.036 157.08 389.81C156.469 389.416 156.019 388.817 155.81 388.12C154.983 386.043 154.51 383.843 154.41 381.61C154.28 384.464 154.768 387.312 155.84 389.96C156.048 390.66 156.498 391.262 157.11 391.66C157.644 391.883 158.231 391.943 158.799 391.833C159.367 391.722 159.889 391.447 160.3 391.04C161.003 390.261 161.483 389.308 161.69 388.28C163.291 382.667 164.501 376.95 165.31 371.17L165.41 368.43Z" fill="black"/>
<path opacity="0.1" d="M173.15 371.03C172.66 372.68 171.59 374.2 171.4 375.9C171.335 376.448 171.335 377.002 171.4 377.55C171.64 375.93 172.65 374.46 173.12 372.87C173.438 371.708 173.543 370.499 173.43 369.3C173.396 369.885 173.302 370.464 173.15 371.03V371.03Z" fill="black"/>
<path opacity="0.1" d="M169.01 383.17C168.87 382.35 167.67 382.08 166.85 381.63C166.28 381.262 165.813 380.755 165.493 380.157C165.173 379.558 165.01 378.888 165.02 378.21V378.44C164.93 380.28 165.02 382.44 166.86 383.44C167.68 383.89 168.86 384.15 169.02 384.98C169.744 384.828 170.395 384.434 170.865 383.864C171.336 383.293 171.599 382.58 171.61 381.84C171.633 381.366 171.617 380.891 171.56 380.42C171.486 381.091 171.198 381.721 170.739 382.216C170.28 382.711 169.674 383.045 169.01 383.17Z" fill="black"/>
</g>
<path d="M480.71 944.22H364.22C362.845 944.222 361.484 943.933 360.229 943.371C358.974 942.81 357.851 941.988 356.937 940.961C356.022 939.934 355.335 938.724 354.922 937.412C354.509 936.101 354.379 934.716 354.54 933.35L382.9 692.35L383.49 687.26C383.769 684.891 384.908 682.707 386.69 681.122C388.473 679.537 390.775 678.661 393.16 678.66H454.32C456.723 678.661 459.04 679.55 460.827 681.156C462.613 682.762 463.744 684.971 464 687.36L464.51 692.19L490.41 933.44C490.556 934.8 490.414 936.176 489.993 937.478C489.572 938.78 488.881 939.978 487.966 940.995C487.051 942.012 485.932 942.825 484.682 943.38C483.432 943.936 482.078 944.222 480.71 944.22Z" fill="#4E5A86"/>
<path opacity="0.1" d="M390.94 707.48C390.94 707.48 395.22 816.81 378.69 858.48C378.69 858.48 380.41 867.36 385.06 858.48C389.71 849.6 405.64 757.1 397.98 709.02C397.98 709.01 396.41 703.8 390.94 707.48Z" fill="black"/>
<path opacity="0.1" d="M411.46 707.48C411.46 707.48 415.74 816.81 399.21 858.48C399.21 858.48 400.93 867.36 405.58 858.48C410.23 849.6 426.16 757.1 418.5 709.02C418.5 709.01 416.97 703.8 411.46 707.48Z" fill="black"/>
<path opacity="0.1" d="M461.41 707.48C461.41 707.48 457.12 816.81 473.66 858.48C473.66 858.48 471.93 867.36 467.28 858.48C462.63 849.6 446.68 757.09 454.33 709.01C454.33 709.01 455.87 703.8 461.41 707.48Z" fill="black"/>
<path opacity="0.1" d="M440.86 707.48C440.86 707.48 436.57 816.81 453.11 858.48C453.11 858.48 451.38 867.36 446.73 858.48C442.08 849.6 426.16 757.09 433.81 709.01C433.81 709.01 435.35 703.8 440.86 707.48Z" fill="black"/>
<path opacity="0.1" d="M464.51 692.22C463.887 692.385 463.245 692.47 462.6 692.47H384.05C383.665 692.471 383.28 692.441 382.9 692.38L383.49 687.29C383.769 684.921 384.908 682.737 386.69 681.152C388.473 679.567 390.775 678.691 393.16 678.69H454.32C456.722 678.691 459.04 679.58 460.826 681.186C462.613 682.792 463.743 685.001 464 687.39L464.51 692.22Z" fill="black"/>
<path opacity="0.1" d="M451.57 637.8H395.64V647.45H451.57V637.8Z" fill="black"/>
<path d="M461.95 639.64H384.69C380.272 639.64 376.69 643.222 376.69 647.64V682.63C376.69 687.048 380.272 690.63 384.69 690.63H461.95C466.368 690.63 469.95 687.048 469.95 682.63V647.64C469.95 643.222 466.368 639.64 461.95 639.64Z" fill="#4E5A86"/>
<path d="M451 0H395.64V647.45H451V0Z" fill="#4E5A86"/>
<path opacity="0.1" d="M407.32 0H399.36V616.661H407.32V0Z" fill="black"/>
<path opacity="0.1" d="M420.64 0H412.68V616.661H420.64V0Z" fill="black"/>
<path opacity="0.1" d="M433.96 0H426V616.661H433.96V0Z" fill="black"/>
<path opacity="0.1" d="M447.29 0H439.33V616.661H447.29V0Z" fill="black"/>
<path d="M454.46 395.05C454.46 395.05 436.24 389.38 439 409.44C441.76 429.5 448.8 430.73 448.8 430.73C448.8 430.73 454.92 429.35 455.69 421.39C456.46 413.43 454.46 395.05 454.46 395.05Z" fill="#FFA2A2"/>
<g opacity="0.1">
<path opacity="0.1" d="M869.89 822.37C885.22 845 880.32 926.02 880.32 926.02C880.32 926.02 803.32 900.52 787.94 877.89C784.295 872.506 781.745 866.456 780.438 860.087C779.13 853.717 779.09 847.153 780.319 840.768C782.802 827.873 790.306 816.492 801.18 809.13C812.054 801.768 825.407 799.026 838.302 801.509C851.197 803.992 862.578 811.496 869.94 822.37H869.89Z" fill="#B3AC1E"/>
<path opacity="0.1" d="M869.89 822.37C885.22 845 880.32 926.02 880.32 926.02C880.32 926.02 803.32 900.52 787.94 877.89C784.295 872.506 781.745 866.456 780.438 860.087C779.13 853.717 779.09 847.153 780.319 840.768C782.802 827.873 790.306 816.492 801.18 809.13C812.054 801.768 825.407 799.026 838.302 801.509C851.197 803.992 862.578 811.496 869.94 822.37H869.89Z" fill="black"/>
<path opacity="0.1" d="M801.46 809.21C801.46 809.21 859.2 853.79 880.62 926.08" stroke="#535461" stroke-miterlimit="10"/>
<path opacity="0.1" d="M895.16 864.67C895.16 864.67 854.16 857.67 882.16 925.58C882.16 925.58 910.65 914.73 912.87 887.71C913.313 882.453 911.812 877.215 908.651 872.991C905.49 868.767 900.889 865.849 895.72 864.79L895.16 864.67Z" fill="#B3AC1E"/>
<path opacity="0.1" d="M895.77 864.61C895.77 864.61 903.58 902.17 882.21 925.61" stroke="#535461" stroke-miterlimit="10"/>
</g>
<g opacity="0.1">
<path opacity="0.1" d="M446.46 754.61C446.46 754.61 508.04 597.61 625.77 538.22C675.19 513.3 715.83 473.82 740.42 424.22C752.047 400.679 761.493 376.124 768.64 350.86" stroke="#535461" stroke-width="2" stroke-miterlimit="10"/>
<path opacity="0.1" d="M842.61 312.99C830.45 328.66 766.83 352.06 766.83 352.06C766.83 352.06 773.73 284.62 785.89 268.96C788.74 265.129 792.326 261.905 796.438 259.477C800.55 257.049 805.105 255.466 809.836 254.82C814.567 254.174 819.38 254.479 823.992 255.716C828.604 256.953 832.923 259.097 836.696 262.024C840.469 264.951 843.62 268.601 845.965 272.761C848.31 276.921 849.802 281.507 850.352 286.25C850.903 290.993 850.502 295.799 849.172 300.385C847.843 304.972 845.612 309.247 842.61 312.96V312.99Z" fill="#B3AC1E"/>
<path opacity="0.1" d="M822.13 436.15C803.41 442.69 737.28 427.75 737.28 427.75C737.28 427.75 779.73 374.9 798.45 368.36C802.901 366.805 807.615 366.142 812.322 366.409C817.029 366.676 821.638 367.867 825.885 369.915C830.132 371.963 833.934 374.828 837.074 378.345C840.214 381.863 842.63 385.964 844.185 390.415C845.74 394.866 846.403 399.58 846.136 404.287C845.869 408.995 844.677 413.603 842.629 417.85C840.581 422.097 837.717 425.899 834.2 429.039C830.682 432.179 826.581 434.595 822.13 436.15V436.15Z" fill="#B3AC1E"/>
<path opacity="0.1" d="M704.98 582.82C685.51 579.02 635.98 532.74 635.98 532.74C635.98 532.74 699.31 508.54 718.77 512.35C723.397 513.255 727.801 515.062 731.729 517.669C735.658 520.275 739.035 523.63 741.667 527.542C744.299 531.454 746.135 535.845 747.07 540.467C748.004 545.088 748.02 549.848 747.115 554.475C746.21 559.102 744.403 563.506 741.796 567.434C739.19 571.363 735.835 574.74 731.923 577.372C728.011 580.004 723.619 581.84 718.998 582.775C714.377 583.709 709.617 583.725 704.99 582.82H704.98Z" fill="#B3AC1E"/>
<path opacity="0.1" d="M591.34 673.84C571.52 673.38 514.87 636.14 514.87 636.14C514.87 636.14 573.19 601.59 593.02 602.05C597.733 602.16 602.379 603.198 606.692 605.104C611.005 607.01 614.9 609.746 618.155 613.157C621.41 616.568 623.962 620.587 625.664 624.985C627.366 629.382 628.185 634.071 628.075 638.785C627.964 643.499 626.927 648.145 625.021 652.457C623.115 656.77 620.378 660.665 616.967 663.921C613.556 667.176 609.537 669.727 605.14 671.429C600.743 673.131 596.053 673.95 591.34 673.84V673.84Z" fill="#B3AC1E"/>
<path opacity="0.1" d="M675.41 384.61C678.17 404.24 721.73 456.18 721.73 456.18C721.73 456.18 749.28 394.24 746.52 374.6C745.059 365.288 739.996 356.924 732.422 351.312C724.848 345.701 715.372 343.292 706.038 344.606C696.704 345.92 688.261 350.851 682.531 358.335C676.801 365.819 674.243 375.257 675.41 384.61V384.61Z" fill="#B3AC1E"/>
<path opacity="0.1" d="M543.84 492.68C552.35 510.61 609.41 547.12 609.41 547.12C609.41 547.12 617.17 479.77 608.65 461.86C606.626 457.602 603.784 453.784 600.284 450.624C596.785 447.465 592.698 445.025 588.256 443.446C583.814 441.866 579.105 441.176 574.396 441.416C569.688 441.656 565.073 442.821 560.815 444.845C556.557 446.869 552.739 449.711 549.579 453.21C546.42 456.709 543.98 460.797 542.4 465.239C540.82 469.68 540.131 474.39 540.371 479.098C540.611 483.807 541.776 488.422 543.8 492.68H543.84Z" fill="#B3AC1E"/>
<path opacity="0.1" d="M430.41 615.32C435.77 634.41 485.89 680.07 485.89 680.07C485.89 680.07 504.89 615 499.55 595.91C496.872 586.862 490.739 579.231 482.479 574.669C474.22 570.106 464.496 568.978 455.411 571.529C446.326 574.079 438.61 580.103 433.931 588.298C429.253 596.493 427.988 606.2 430.41 615.32V615.32Z" fill="#B3AC1E"/>
</g>
<g opacity="0.1">
<path opacity="0.1" d="M436.27 471.83C436.27 471.83 458.52 415.1 501.05 393.66C518.948 384.775 533.481 370.326 542.47 352.48C546.672 343.977 550.087 335.106 552.67 325.98" stroke="#535461" stroke-width="2" stroke-miterlimit="10"/>
<path opacity="0.1" d="M579.41 312.31C575.01 317.97 552.03 326.42 552.03 326.42C552.03 326.42 554.52 302.06 558.92 296.42C559.908 294.93 561.194 293.661 562.695 292.69C564.197 291.72 565.882 291.069 567.647 290.78C569.411 290.49 571.216 290.568 572.949 291.008C574.682 291.447 576.305 292.24 577.718 293.335C579.131 294.431 580.303 295.806 581.16 297.375C582.017 298.944 582.542 300.673 582.7 302.454C582.859 304.235 582.649 306.029 582.083 307.725C581.516 309.421 580.607 310.982 579.41 312.31V312.31Z" fill="#B3AC1E"/>
<path opacity="0.1" d="M571.99 356.8C565.23 359.16 541.34 353.8 541.34 353.8C541.34 353.8 556.67 334.7 563.43 332.34C565.067 331.643 566.83 331.289 568.61 331.301C570.39 331.313 572.148 331.69 573.776 332.41C575.404 333.129 576.867 334.175 578.074 335.482C579.282 336.79 580.208 338.331 580.795 340.011C581.382 341.692 581.618 343.474 581.488 345.249C581.358 347.024 580.865 348.754 580.04 350.33C579.214 351.907 578.074 353.298 576.689 354.416C575.305 355.534 573.705 356.355 571.99 356.83V356.8Z" fill="#B3AC1E"/>
<path opacity="0.1" d="M529.66 409.79C522.66 408.41 504.74 391.69 504.74 391.69C504.74 391.69 527.61 382.95 534.64 384.33C536.402 384.56 538.099 385.149 539.625 386.06C541.151 386.972 542.474 388.186 543.512 389.629C544.55 391.072 545.281 392.713 545.66 394.449C546.039 396.186 546.058 397.982 545.715 399.726C545.373 401.47 544.676 403.126 543.669 404.59C542.661 406.054 541.364 407.297 539.857 408.24C538.351 409.183 536.667 409.807 534.909 410.074C533.152 410.34 531.358 410.244 529.64 409.79H529.66Z" fill="#B3AC1E"/>
<path opacity="0.1" d="M488.61 442.67C481.45 442.5 460.99 429.05 460.99 429.05C460.99 429.05 482.06 416.56 489.22 416.73C492.512 417.018 495.57 418.549 497.774 421.011C499.978 423.474 501.161 426.683 501.083 429.986C501.005 433.29 499.673 436.44 497.356 438.796C495.039 441.152 491.911 442.537 488.61 442.67V442.67Z" fill="#B3AC1E"/>
<path opacity="0.1" d="M518.97 338.16C519.97 345.25 535.71 364.02 535.71 364.02C535.71 364.02 545.71 341.64 544.71 334.55C544.58 332.775 544.087 331.045 543.261 329.468C542.436 327.891 541.295 326.501 539.91 325.383C538.524 324.265 536.924 323.443 535.209 322.969C533.493 322.494 531.698 322.377 529.936 322.625C528.173 322.873 526.48 323.48 524.961 324.409C523.443 325.337 522.131 326.568 521.108 328.025C520.084 329.481 519.371 331.132 519.012 332.876C518.653 334.619 518.656 336.418 519.02 338.16H518.97Z" fill="#B3AC1E"/>
<path opacity="0.1" d="M471.41 377.22C474.49 383.69 495.12 396.89 495.12 396.89C495.12 396.89 497.92 372.56 494.84 366.09C493.227 363.218 490.583 361.066 487.444 360.068C484.305 359.071 480.904 359.302 477.928 360.715C474.953 362.129 472.625 364.619 471.415 367.682C470.205 370.746 470.203 374.155 471.41 377.22V377.22Z" fill="#B3AC1E"/>
<path opacity="0.1" d="M430.47 421.53C432.41 428.42 450.47 444.92 450.47 444.92C450.47 444.92 457.41 421.41 455.41 414.51C455.027 412.785 454.296 411.157 453.263 409.724C452.229 408.291 450.914 407.084 449.399 406.176C447.883 405.268 446.198 404.679 444.447 404.444C442.696 404.21 440.915 404.334 439.214 404.811C437.513 405.287 435.926 406.105 434.552 407.215C433.177 408.325 432.044 409.703 431.22 411.266C430.396 412.829 429.899 414.544 429.76 416.305C429.62 418.066 429.842 419.837 430.41 421.51L430.47 421.53Z" fill="#B3AC1E"/>
</g>
<g opacity="0.1">
<path opacity="0.1" d="M623.66 942.37C623.66 942.37 624.6 881.45 656.91 846.45C670.564 831.861 679.112 813.234 681.27 793.37C682.22 783.931 682.304 774.424 681.52 764.97" stroke="#535461" stroke-width="2" stroke-miterlimit="10"/>
<path opacity="0.1" d="M701.75 742.8C699.62 749.61 681.06 765.61 681.06 765.61C681.06 765.61 674.86 741.91 676.99 735.07C678.188 732.006 680.502 729.51 683.467 728.086C686.432 726.661 689.827 726.413 692.967 727.392C696.108 728.371 698.76 730.505 700.39 733.362C702.02 736.219 702.506 739.588 701.75 742.79V742.8Z" fill="#B3AC1E"/>
<path opacity="0.1" d="M710.41 787.06C704.9 791.64 680.64 794.97 680.64 794.97C680.64 794.97 688.3 771.71 693.81 767.12C696.479 765.176 699.788 764.321 703.065 764.728C706.342 765.135 709.341 766.774 711.454 769.311C713.567 771.849 714.634 775.096 714.441 778.392C714.247 781.688 712.806 784.787 710.41 787.06V787.06Z" fill="#B3AC1E"/>
<path opacity="0.1" d="M689.41 851.52C682.34 852.7 659.72 843.32 659.72 843.32C659.72 843.32 678.08 827.11 685.14 825.93C688.423 825.602 691.709 826.535 694.33 828.54C696.951 830.544 698.712 833.471 699.255 836.726C699.798 839.981 699.083 843.321 697.255 846.068C695.426 848.815 692.622 850.764 689.41 851.52V851.52Z" fill="#B3AC1E"/>
<path opacity="0.1" d="M662.41 896.71C655.64 899.06 631.76 893.64 631.76 893.64C631.76 893.64 647.16 874.61 653.92 872.21C655.561 871.502 657.331 871.14 659.119 871.146C660.907 871.153 662.674 871.529 664.311 872.25C665.947 872.97 667.417 874.021 668.628 875.335C669.84 876.65 670.768 878.2 671.353 879.89C671.939 881.579 672.169 883.371 672.031 885.154C671.892 886.936 671.388 888.671 670.548 890.249C669.709 891.828 668.553 893.217 667.153 894.328C665.752 895.44 664.138 896.251 662.41 896.71V896.71Z" fill="#B3AC1E"/>
<path opacity="0.1" d="M654.24 788.19C657.66 794.49 678.98 806.54 678.98 806.54C678.98 806.54 680.45 782.1 676.98 775.8C675.214 773.018 672.457 771.011 669.267 770.184C666.077 769.358 662.692 769.774 659.797 771.348C656.901 772.922 654.712 775.536 653.671 778.663C652.63 781.79 652.816 785.195 654.19 788.19H654.24Z" fill="#B3AC1E"/>
<path opacity="0.1" d="M623.41 841.44C628.56 846.44 652.51 851.54 652.51 851.54C652.51 851.54 646.6 827.78 641.45 822.79C638.925 820.711 635.709 819.659 632.444 819.846C629.178 820.032 626.103 821.443 623.832 823.797C621.56 826.15 620.259 829.274 620.189 832.544C620.118 835.814 621.283 838.991 623.45 841.44H623.41Z" fill="#B3AC1E"/>
<path opacity="0.1" d="M600.59 897.3C604.82 903.08 627.59 912.18 627.59 912.18C627.59 912.18 625.78 887.75 621.59 881.97C619.469 879.442 616.467 877.815 613.191 877.419C609.915 877.023 606.611 877.887 603.949 879.837C601.287 881.787 599.466 884.676 598.855 887.919C598.244 891.162 598.89 894.515 600.66 897.3H600.59Z" fill="#B3AC1E"/>
</g>
<g opacity="0.1">
<path opacity="0.1" d="M473.71 932.79C473.71 932.79 474.65 871.86 506.96 836.86C520.614 822.271 529.162 803.644 531.32 783.78C532.27 774.344 532.354 764.841 531.57 755.39" stroke="#535461" stroke-width="2" stroke-miterlimit="10"/>
<path opacity="0.1" d="M551.8 733.21C549.67 740.05 531.11 756.03 531.11 756.03C531.11 756.03 524.91 732.34 527.04 725.5C527.447 723.761 528.208 722.124 529.275 720.693C530.342 719.261 531.693 718.064 533.244 717.177C534.794 716.291 536.51 715.733 538.286 715.539C540.061 715.345 541.858 715.519 543.563 716.05C545.268 716.581 546.846 717.458 548.197 718.625C549.548 719.793 550.645 721.226 551.418 722.836C552.19 724.447 552.623 726.199 552.689 727.983C552.755 729.768 552.452 731.547 551.8 733.21V733.21Z" fill="#B3AC1E"/>
<path opacity="0.1" d="M560.48 777.47C554.97 782.06 530.71 785.38 530.71 785.38C530.71 785.38 538.37 762.12 543.88 757.54C546.549 755.613 549.85 754.771 553.116 755.183C556.383 755.595 559.371 757.231 561.478 759.761C563.585 762.29 564.654 765.525 564.468 768.812C564.283 772.099 562.858 775.193 560.48 777.47V777.47Z" fill="#B3AC1E"/>
<path opacity="0.1" d="M539.41 841.94C532.34 843.11 509.72 833.73 509.72 833.73C509.72 833.73 528.08 817.52 535.14 816.35C536.872 815.942 538.669 815.895 540.42 816.21C542.171 816.525 543.838 817.196 545.32 818.182C546.801 819.167 548.064 820.447 549.031 821.94C549.997 823.434 550.647 825.11 550.94 826.865C551.233 828.62 551.162 830.416 550.733 832.142C550.303 833.869 549.524 835.489 548.443 836.902C547.362 838.315 546.003 839.492 544.449 840.358C542.895 841.225 541.18 841.763 539.41 841.94Z" fill="#B3AC1E"/>
<path opacity="0.1" d="M512.5 887.12C505.73 889.48 481.85 884.05 481.85 884.05C481.85 884.05 497.21 864.98 503.97 862.61C505.608 861.914 507.372 861.562 509.152 861.576C510.932 861.59 512.69 861.969 514.317 862.69C515.945 863.411 517.407 864.459 518.613 865.768C519.819 867.077 520.743 868.62 521.328 870.301C521.913 871.982 522.147 873.766 522.015 875.541C521.883 877.316 521.388 879.045 520.56 880.621C519.732 882.197 518.59 883.586 517.203 884.702C515.817 885.818 514.216 886.638 512.5 887.11V887.12Z" fill="#B3AC1E"/>
<path opacity="0.1" d="M504.29 778.61C507.71 784.91 529.03 796.96 529.03 796.96C529.03 796.96 530.5 772.52 527.03 766.22C526.311 764.564 525.256 763.076 523.93 761.851C522.605 760.626 521.039 759.69 519.332 759.103C517.625 758.516 515.815 758.291 514.016 758.442C512.218 758.593 510.47 759.118 508.885 759.981C507.3 760.845 505.912 762.029 504.81 763.458C503.708 764.888 502.916 766.531 502.483 768.283C502.051 770.036 501.988 771.859 502.299 773.637C502.61 775.415 503.288 777.108 504.29 778.61V778.61Z" fill="#B3AC1E"/>
<path opacity="0.1" d="M473.48 831.85C478.63 836.85 502.58 841.96 502.58 841.96C502.58 841.96 496.67 818.19 491.52 813.21C490.334 811.86 488.881 810.77 487.252 810.01C485.624 809.25 483.856 808.835 482.059 808.793C480.263 808.75 478.477 809.081 476.814 809.763C475.152 810.446 473.649 811.466 472.401 812.759C471.153 814.051 470.186 815.589 469.562 817.274C468.938 818.959 468.67 820.756 468.775 822.55C468.88 824.344 469.356 826.096 470.173 827.697C470.989 829.298 472.129 830.712 473.52 831.85H473.48Z" fill="#B3AC1E"/>
<path opacity="0.1" d="M450.64 887.71C454.87 893.49 477.64 902.59 477.64 902.59C477.64 902.59 475.83 878.16 471.64 872.38C470.685 870.879 469.433 869.589 467.959 868.591C466.486 867.594 464.824 866.909 463.075 866.58C461.327 866.25 459.529 866.283 457.794 866.677C456.059 867.07 454.423 867.816 452.988 868.867C451.552 869.919 450.348 871.253 449.449 872.789C448.551 874.325 447.977 876.028 447.763 877.795C447.55 879.561 447.701 881.352 448.208 883.058C448.715 884.764 449.566 886.347 450.71 887.71H450.64Z" fill="#B3AC1E"/>
</g>
<path d="M405.41 222.47C407.41 228.63 401.99 250.07 401.99 250.07C401.99 250.07 385.11 235.8 383.13 229.61C382.579 228.127 382.335 226.547 382.412 224.966C382.489 223.386 382.886 221.838 383.578 220.415C384.27 218.992 385.243 217.724 386.439 216.688C387.635 215.651 389.028 214.868 390.535 214.385C392.042 213.902 393.631 213.73 395.206 213.878C396.781 214.026 398.31 214.492 399.7 215.248C401.091 216.004 402.313 217.033 403.295 218.274C404.276 219.516 404.995 220.943 405.41 222.47V222.47Z" fill="#B3AC1E"/>
<path d="M322.41 359.61C324.41 365.77 318.99 387.21 318.99 387.21C318.99 387.21 302.09 372.94 300.11 366.78C299.639 365.316 299.461 363.773 299.587 362.24C299.712 360.707 300.138 359.214 300.841 357.846C301.543 356.477 302.508 355.261 303.681 354.266C304.854 353.27 306.211 352.516 307.675 352.045C309.139 351.574 310.682 351.396 312.215 351.522C313.748 351.647 315.241 352.073 316.609 352.776C317.978 353.478 319.194 354.443 320.189 355.616C321.185 356.789 321.939 358.146 322.41 359.61V359.61Z" fill="#B3AC1E"/>
<path d="M497.27 299.16C499.27 305.32 493.84 326.76 493.84 326.76C493.84 326.76 476.95 312.5 474.97 306.34C474.018 303.383 474.279 300.169 475.697 297.404C477.115 294.64 479.573 292.552 482.53 291.6C485.487 290.648 488.701 290.909 491.466 292.327C494.23 293.745 496.318 296.203 497.27 299.16V299.16Z" fill="#B3AC1E"/>
<path d="M587.73 402.79C589.73 408.94 584.31 430.38 584.31 430.38C584.31 430.38 567.41 416.12 565.41 409.96C564.902 408.487 564.692 406.927 564.795 405.372C564.897 403.816 565.309 402.297 566.006 400.903C566.703 399.509 567.671 398.268 568.854 397.254C570.037 396.239 571.41 395.47 572.894 394.993C574.377 394.515 575.941 394.339 577.494 394.474C579.047 394.609 580.557 395.053 581.936 395.779C583.315 396.505 584.535 397.499 585.525 398.703C586.515 399.907 587.254 401.297 587.7 402.79H587.73Z" fill="#B3AC1E"/>
<path d="M526.69 232.61C523.4 238.18 503.78 248.37 503.78 248.37C503.78 248.37 503.23 226.27 506.52 220.7C508.099 218.025 510.677 216.088 513.685 215.313C516.693 214.538 519.885 214.991 522.56 216.57C525.235 218.149 527.173 220.727 527.947 223.735C528.722 226.743 528.27 229.935 526.69 232.61V232.61Z" fill="#B3AC1E"/>
<path d="M747.94 215.92C744.65 221.49 725.03 231.68 725.03 231.68C725.03 231.68 724.49 209.57 727.78 204.01C728.545 202.653 729.573 201.463 730.804 200.508C732.035 199.554 733.444 198.854 734.949 198.451C736.453 198.048 738.023 197.949 739.566 198.16C741.11 198.371 742.595 198.888 743.936 199.68C745.277 200.472 746.447 201.524 747.376 202.774C748.306 204.024 748.977 205.447 749.35 206.959C749.722 208.471 749.79 210.043 749.548 211.581C749.306 213.12 748.759 214.595 747.94 215.92V215.92Z" fill="#B3AC1E"/>
<path d="M302.41 258.84C296.15 260.47 275.05 253.84 275.05 253.84C275.05 253.84 290.26 237.79 296.52 236.16C298.009 235.773 299.56 235.684 301.084 235.896C302.607 236.109 304.074 236.619 305.401 237.399C306.727 238.179 307.887 239.212 308.815 240.44C309.742 241.667 310.418 243.066 310.805 244.555C311.192 246.044 311.281 247.595 311.069 249.119C310.856 250.643 310.345 252.11 309.566 253.436C308.786 254.763 307.753 255.923 306.525 256.85C305.297 257.777 303.899 258.453 302.41 258.84V258.84Z" fill="#B3AC1E"/>
<path d="M505.13 511.91C501.84 517.48 482.22 527.67 482.22 527.67C482.22 527.67 481.67 505.57 484.96 500C485.742 498.676 486.777 497.518 488.007 496.594C489.236 495.67 490.635 494.996 492.125 494.613C493.614 494.229 495.165 494.143 496.687 494.359C498.21 494.574 499.676 495.088 501 495.87C502.324 496.652 503.482 497.687 504.406 498.917C505.33 500.146 506.004 501.545 506.387 503.035C506.771 504.524 506.857 506.074 506.641 507.597C506.426 509.12 505.912 510.586 505.13 511.91V511.91Z" fill="#B3AC1E"/>
</g>
<defs>
<linearGradient id="paint0_linear" x1="214.53" y1="937.31" x2="214.53" y2="308.31" gradientUnits="userSpaceOnUse">
<stop stop-color="#808080" stop-opacity="0.25"/>
<stop offset="0.54" stop-color="#808080" stop-opacity="0.12"/>
<stop offset="1" stop-color="#808080" stop-opacity="0.1"/>
</linearGradient>
<clipPath id="clip0">
<rect width="1041" height="944" fill="white"/>
</clipPath>
</defs>
</svg>
