<svg width="872" height="434" viewBox="0 0 872 434" fill="none" xmlns="http://www.w3.org/2000/svg">
<path d="M797.628 193.712L719.647 230.636L788.664 179.006C777.447 161.49 764.845 144.901 750.981 129.397L412.787 213.494L718.271 96.911C704.312 84.5889 689.487 73.2841 673.911 63.0837L158.583 146.126C103.869 214.576 74.0421 299.604 74 387.25H849.707C849.676 319.276 831.711 252.515 797.628 193.712V193.712Z" fill="#F2F2F2" fill-opacity="0.87"/>
<path d="M631.735 39.111C578.827 13.2942 520.72 -0.0833681 461.854 2.12607e-05C342.046 2.12607e-05 234.932 54.3495 163.787 139.744C285.617 113.038 497.732 66.8089 631.735 39.111Z" fill="#F2F2F2" fill-opacity="0.87"/>
<path d="M539.712 385.691C539.712 397.74 427.781 434 289.707 434C151.633 434 39.7017 397.74 39.7017 385.691C39.7017 373.642 151.633 390.366 289.707 390.366C427.781 390.366 539.712 373.642 539.712 385.691Z" fill="#3F3D56"/>
<path opacity="0.1" d="M539.712 385.691C539.712 397.74 427.781 434 289.707 434C151.633 434 39.7017 397.74 39.7017 385.691C39.7017 373.642 151.633 390.366 289.707 390.366C427.781 390.366 539.712 373.642 539.712 385.691Z" fill="black"/>
<path d="M289.707 407.508C427.781 407.508 539.712 397.74 539.712 385.691C539.712 373.642 427.781 363.874 289.707 363.874C151.633 363.874 39.7017 373.642 39.7017 385.691C39.7017 397.74 151.633 407.508 289.707 407.508Z" fill="#3F3D56"/>
<path d="M220.116 208.138C220.116 208.138 230.172 224.093 226.58 228.413C222.989 232.733 253.523 232.841 253.523 232.841C253.523 232.841 248.936 209.631 250.286 204.29L220.116 208.138Z" fill="#FFB8B8"/>
<path opacity="0.1" d="M220.116 208.138C220.116 208.138 230.172 224.093 226.58 228.413C222.989 232.733 253.523 232.841 253.523 232.841C253.523 232.841 248.936 209.631 250.286 204.29L220.116 208.138Z" fill="black"/>
<path d="M236.186 213.92C253.6 213.92 267.717 199.797 267.717 182.376C267.717 164.954 253.6 150.831 236.186 150.831C218.773 150.831 204.656 164.954 204.656 182.376C204.656 199.797 218.773 213.92 236.186 213.92Z" fill="#C9C55C"/>
<path d="M310.347 353.355V372.056L329.039 368.16L327.481 354.914L310.347 353.355Z" fill="#FFB8B8"/>
<path d="M376.547 356.472L428.729 365.043L415.489 384.522C415.489 384.522 378.883 372.056 369.537 372.056C360.191 372.056 376.547 356.472 376.547 356.472Z" fill="#FFB8B8"/>
<path d="M258.164 319.072C258.164 319.072 297.106 273.88 309.567 276.217C322.029 278.555 327.48 292.58 327.48 292.58L334.49 361.926C334.49 361.926 309.567 364.264 309.567 361.926C309.567 359.589 304.894 309.722 304.894 309.722C304.894 309.722 268.289 390.756 248.818 336.993L258.164 319.072Z" fill="#2F2E41"/>
<path d="M195.079 349.46C195.079 349.46 195.858 388.418 219.223 390.756C242.588 393.093 268.289 375.172 268.289 375.172L310.346 355.015C310.346 355.015 360.192 381.406 374.99 374.393C374.99 374.393 390.566 358.031 380.441 353.356C370.317 348.68 379.663 353.356 379.663 353.356L319.692 322.189C319.692 322.189 308.01 319.072 287.76 327.643C267.511 336.214 240.251 340.11 240.251 340.11L195.079 349.46Z" fill="#2F2E41"/>
<path d="M234.021 216.221C246.925 216.221 257.386 205.755 257.386 192.846C257.386 179.936 246.925 169.47 234.021 169.47C221.117 169.47 210.656 179.936 210.656 192.846C210.656 205.755 221.117 216.221 234.021 216.221Z" fill="#FFB8B8"/>
<path d="M267.51 258.296L265.953 291.022C265.953 291.022 266.732 333.876 259.722 336.993C256.178 338.567 249.06 341.73 242.479 345.19C237.541 347.777 232.907 350.519 230.321 352.88C229.636 353.464 229.044 354.15 228.569 354.914C225.453 360.368 205.204 359.589 200.531 355.693C195.858 351.797 198.973 360.368 195.079 361.926C191.309 363.438 186.083 351.08 189.284 332.629C189.386 332.014 189.503 331.391 189.627 330.759C193.202 312.877 187.587 270.046 188.451 253.497C188.501 252.232 188.634 250.972 188.848 249.725C191.185 237.259 220.999 211.889 226.575 222.696C233.444 236.035 249.223 223.849 251.934 217.779C267.51 217 272.962 235.7 272.962 235.7L267.51 258.296Z" fill="#3F3D56"/>
<path d="M330.596 365.043C330.596 365.043 318.135 369.718 314.24 368.939C310.346 368.16 306.452 371.276 306.452 375.952C306.452 380.627 301.779 391.535 308.789 392.314C315.798 393.093 344.615 391.535 350.846 393.873C350.846 393.873 378.884 394.652 376.547 382.964C374.211 371.276 362.528 372.056 362.528 372.056C362.528 372.056 330.596 370.497 330.596 365.043Z" fill="#2F2E41"/>
<path d="M421.719 367.381C421.719 367.381 423.277 362.706 425.614 362.706C427.95 362.706 446.642 365.822 448.979 365.043C451.315 364.264 478.574 362.706 473.901 375.952C469.228 389.197 453.652 390.756 453.652 390.756C453.652 390.756 425.614 387.639 421.719 388.418C417.825 389.197 403.806 388.418 406.143 384.522C408.479 380.627 423.277 373.614 421.719 367.381Z" fill="#2F2E41"/>
<path d="M350.825 255.463L355.098 273.096C355.146 273.292 355.138 273.498 355.077 273.691L335.694 334.287C335.618 334.527 335.461 334.734 335.251 334.872C335.04 335.01 334.789 335.072 334.538 335.048C334.287 335.023 334.053 334.913 333.873 334.736C333.694 334.559 333.581 334.326 333.552 334.076L330.871 310.47C330.853 310.313 330.869 310.154 330.918 310.004L348.709 255.381C348.783 255.153 348.93 254.956 349.126 254.819C349.323 254.682 349.559 254.612 349.798 254.622C350.037 254.631 350.267 254.718 350.453 254.87C350.638 255.022 350.769 255.23 350.825 255.463V255.463Z" fill="#D0CDE1"/>
<path d="M349.254 256.952L353.198 272.081L336.103 327.334L332.158 310.232L349.254 256.952Z" fill="#F2F2F2"/>
<path d="M263.122 339.175C263.779 341.148 331.501 338.517 332.159 337.859C332.732 337.035 333.217 336.153 333.605 335.228C334.223 333.912 334.789 332.597 334.789 332.597L332.159 311.298L265.094 308.917C265.094 308.917 263.418 326.966 263.076 335.228C262.959 336.542 262.975 337.864 263.122 339.175Z" fill="#D0CDE1"/>
<path opacity="0.1" d="M323.611 314.179L324.926 332.597H295.339V314.179H323.611Z" fill="black"/>
<path opacity="0.1" d="M285.477 320.099L285.654 320.064L284.819 327.993H268.381V320.099H285.477Z" fill="black"/>
<path opacity="0.1" d="M263.122 339.175C263.779 341.148 331.501 338.517 332.159 337.859C332.732 337.035 333.217 336.153 333.605 335.228H263.076C262.959 336.542 262.975 337.864 263.122 339.175Z" fill="black"/>
<path d="M252.644 126.226C250.261 129.631 246.73 132.059 242.699 133.066C235.745 134.929 242.642 145.384 242.642 145.384C242.642 145.384 240.134 141.582 243.752 137.556C247.37 133.53 253.191 130.777 252.644 126.226Z" fill="#C9C55C"/>
<path d="M241.41 156.683C246.263 156.683 250.198 152.747 250.198 147.892C250.198 143.036 246.263 139.101 241.41 139.101C236.557 139.101 232.623 143.036 232.623 147.892C232.623 152.747 236.557 156.683 241.41 156.683Z" fill="#C9C55C"/>
<path d="M252.629 155.26C245.466 152.549 233.538 151.175 227.401 152.114L228.243 145.966C234.143 149.017 246.016 150.45 253.471 149.112L252.629 155.26Z" fill="#3F3D56"/>
<path d="M238.768 157.461C238.768 157.461 229.79 172.4 208.914 177.993C188.037 183.586 208.743 214.971 208.743 214.971C208.743 214.971 201.214 203.558 212.074 191.472C222.934 179.385 240.411 171.122 238.768 157.461Z" fill="#C9C55C"/>
<path d="M239.481 156.553C239.481 156.553 248.105 177.073 257.574 179.013C267.043 180.953 266.324 213.378 251.517 218.24C251.517 218.24 262.314 199.231 253.085 186.483C243.856 173.735 238.026 163.657 239.481 156.553Z" fill="#C9C55C"/>
<path opacity="0.1" d="M242.479 345.19C240.555 348.829 238.297 352.607 237.915 354.135C237.658 355.171 234.807 354.571 230.321 352.88C221.326 349.475 205.734 341.676 191.185 333.876C190.514 333.52 189.878 333.103 189.285 332.629C189.386 332.014 189.503 331.391 189.627 330.759C193.202 312.877 187.587 270.046 188.451 253.497L195.079 251.284L208.319 263.75V316.734C208.319 316.734 242.588 335.434 244.924 336.993C246.116 337.788 244.473 341.411 242.479 345.19Z" fill="black"/>
<path d="M271.404 302.709L292.433 313.618C292.433 313.618 304.894 300.372 312.682 310.501C320.471 320.63 290.096 323.747 290.096 323.747C290.096 323.747 263.616 317.513 262.837 308.943C262.058 300.372 271.404 302.709 271.404 302.709Z" fill="#FFB8B8"/>
<path d="M236.357 331.539L248.818 334.655C248.818 334.655 262.837 317.514 277.635 323.747C292.433 329.98 258.943 342.447 258.943 342.447C258.943 342.447 241.03 351.797 234.02 344.005C227.011 336.214 236.357 331.539 236.357 331.539Z" fill="#FFB8B8"/>
<path d="M263.616 228.688C264.395 229.467 272.962 235.7 272.962 235.7C272.962 235.7 275.299 265.309 272.183 271.542C269.068 277.776 266.731 277.776 269.068 280.892C271.404 284.009 274.52 281.671 271.404 287.126C268.289 292.58 265.174 291.801 267.51 294.138C269.847 296.476 269.068 297.255 269.068 297.255L278.414 305.047C278.414 305.047 272.68 314.184 265.422 313.511C258.164 312.838 251.934 277.776 251.934 277.776L263.616 228.688Z" fill="#3F3D56"/>
<path d="M195.079 247.388L188.069 249.725C188.069 249.725 169.377 318.293 191.185 329.98C212.992 341.668 237.136 353.356 237.915 350.239C238.693 347.122 247.261 334.655 244.924 333.097C242.588 331.539 208.319 312.838 208.319 312.838V259.855L195.079 247.388Z" fill="#3F3D56"/>
<path opacity="0.1" d="M205.593 275.828L204.036 313.228L245.314 332.707L207.151 313.228L205.593 275.828Z" fill="black"/>
<path d="M12.3243 370.398C24.1695 384.249 43.5739 387.101 43.5739 387.101C43.5739 387.101 43.7734 367.497 31.9282 353.646C20.083 339.795 0.678625 336.943 0.678625 336.943C0.678625 336.943 0.479174 356.547 12.3243 370.398Z" fill="#3F3D56"/>
<path d="M47.1816 351.523C50.7128 369.407 40.9284 386.397 40.9284 386.397C40.9284 386.397 25.4187 374.392 21.8875 356.508C18.3562 338.624 28.1406 321.634 28.1406 321.634C28.1406 321.634 43.6503 333.639 47.1816 351.523Z" fill="#B15A5A"/>
<path d="M511.129 138.768C512.85 138.768 514.245 137.373 514.245 135.652C514.245 133.93 512.85 132.535 511.129 132.535C509.409 132.535 508.014 133.93 508.014 135.652C508.014 137.373 509.409 138.768 511.129 138.768Z" fill="#B15A5A"/>
<path d="M519.696 138.768C521.417 138.768 522.812 137.373 522.812 135.652C522.812 133.93 521.417 132.535 519.696 132.535C517.976 132.535 516.581 133.93 516.581 135.652C516.581 137.373 517.976 138.768 519.696 138.768Z" fill="#B15A5A"/>
<path d="M528.264 138.768C529.984 138.768 531.379 137.373 531.379 135.652C531.379 133.93 529.984 132.535 528.264 132.535C526.543 132.535 525.148 133.93 525.148 135.652C525.148 137.373 526.543 138.768 528.264 138.768Z" fill="#B15A5A"/>
<path opacity="0.3" d="M600.695 253.208H555.523V257.883H600.695V253.208Z" fill="#B15A5A"/>
<path opacity="0.3" d="M598.253 263.337H555.523V268.012H598.253V263.337Z" fill="#B15A5A"/>
<path opacity="0.3" d="M586.655 273.466H555.523V278.141H586.655V273.466Z" fill="#B15A5A"/>
<g opacity="0.3">
<path opacity="0.3" d="M705.837 253.208H660.665V257.883H705.837V253.208Z" fill="#6C63FF"/>
<path opacity="0.3" d="M703.396 263.337H660.665V268.012H703.396V263.337Z" fill="#6C63FF"/>
<path opacity="0.3" d="M691.797 273.466H660.665V278.141H691.797V273.466Z" fill="#6C63FF"/>
<path opacity="0.3" d="M705.837 253.208H660.665V257.883H705.837V253.208Z" fill="#B15A5A"/>
<path opacity="0.3" d="M703.396 263.337H660.665V268.012H703.396V263.337Z" fill="#B15A5A"/>
<path opacity="0.3" d="M691.797 273.466H660.665V278.141H691.797V273.466Z" fill="#B15A5A"/>
</g>
<path opacity="0.3" d="M814.874 253.208H769.702V257.883H814.874V253.208Z" fill="#B15A5A"/>
<path opacity="0.3" d="M812.433 263.337H769.702V268.012H812.433V263.337Z" fill="#B15A5A"/>
<path opacity="0.3" d="M800.834 273.466H769.702V278.141H800.834V273.466Z" fill="#B15A5A"/>
<path opacity="0.3" d="M606.926 192.432H549.292V243.858H606.926V192.432Z" fill="#B15A5A"/>
<path d="M712.068 192.432H654.435V243.858H712.068V192.432Z" fill="#3F3D56"/>
<path d="M821.105 192.432H763.471V243.858H821.105V192.432Z" fill="#3F3D56"/>
<path d="M675.742 243.641L674.982 243.627C674.998 242.784 675.473 222.931 683.286 217.443L683.723 218.066C676.225 223.332 675.746 243.439 675.742 243.641Z" fill="#B15A5A"/>
<path d="M687.306 217.192C689.406 217.192 691.108 215.489 691.108 213.389C691.108 211.288 689.406 209.585 687.306 209.585C685.206 209.585 683.504 211.288 683.504 213.389C683.504 215.489 685.206 217.192 687.306 217.192Z" fill="#B15A5A"/>
<path d="M686.538 226.818C684.56 227.44 682.454 227.531 680.431 227.082C681.716 225.446 683.446 224.215 685.414 223.54C687.382 222.865 689.503 222.773 691.521 223.276C690.199 224.873 688.48 226.095 686.538 226.818V226.818Z" fill="#B15A5A"/>
<path d="M784.779 243.641L784.019 243.627C784.035 242.784 784.51 222.931 792.323 217.443L792.759 218.066C785.262 223.332 784.783 243.439 784.779 243.641Z" fill="#B15A5A"/>
<path d="M796.343 217.192C798.442 217.192 800.145 215.489 800.145 213.389C800.145 211.288 798.442 209.585 796.343 209.585C794.243 209.585 792.541 211.288 792.541 213.389C792.541 215.489 794.243 217.192 796.343 217.192Z" fill="#B15A5A"/>
<path d="M795.574 226.818C793.596 227.44 791.491 227.531 789.467 227.082C790.752 225.446 792.482 224.215 794.45 223.54C796.418 222.865 798.539 222.773 800.557 223.276C799.235 224.873 797.516 226.095 795.574 226.818V226.818Z" fill="#B15A5A"/>
<path d="M871.729 342.912H498.668V127.081H871.729V342.912ZM500.226 341.354H870.171V128.639H500.226V341.354Z" fill="#2F2E41"/>
<path d="M870.95 142.715H499.447V144.273H870.95V142.715Z" fill="#2F2E41"/>
</svg>
