<svg width="1138" height="860" viewBox="0 0 1138 860" fill="none" xmlns="http://www.w3.org/2000/svg">
<g clip-path="url(#clip0)">
<path opacity="0.1" d="M12.2798 406.51C30.2798 476.66 68.3898 537.3 128.62 566.69C253.84 627.78 536.07 596.27 746.74 560.11C855.74 541.4 951.48 489.81 1021.07 417.11L12.2798 406.51Z" fill="#6C63FF"/>
<path opacity="0.1" d="M1117.05 76.32H1001.46C995.96 76.32 991.46 72.22 991.46 67.21C991.46 62.2 995.95 58.1 1001.46 58.1H1021.46C1015.96 58.1 1011.46 54 1011.46 48.99C1011.46 43.98 1015.95 39.89 1021.46 39.89H1007.19C1001.69 39.89 997.19 35.79 997.19 30.78C997.19 25.77 1001.68 21.67 1007.19 21.67H1067.52C1054.13 15.99 1038.52 11.96 1020.46 9.85C855.95 -9.42 797.21 3.32 776.46 16.43C750.667 32.9392 721.977 44.4053 691.91 50.22C590.41 69.31 400.59 92.28 228.54 42.86C143.03 18.31 79.4799 59.86 41.3799 129.17H1137.12C1135.69 109.01 1131.41 90.39 1123.55 74.1C1121.69 75.5492 1119.4 76.3312 1117.05 76.32V76.32Z" fill="#6C63FF"/>
<path opacity="0.1" d="M2.46978 260.09C-1.9654 300.889 -0.452953 342.116 6.95978 382.48L1021.84 416.32C1049.8 387.105 1073.54 354.118 1092.35 318.32L2.46978 260.09ZM403.84 347.4H383.84C389.33 347.4 393.84 351.5 393.84 356.51C393.84 361.52 389.34 365.61 383.84 365.61H268.3C262.81 365.61 258.3 361.52 258.3 356.51C258.3 351.5 262.8 347.4 268.3 347.4H288.3C282.81 347.4 278.3 343.3 278.3 338.29C278.3 333.28 282.8 329.18 288.3 329.18H274.01C268.52 329.18 264.01 325.09 264.01 320.08C264.01 315.07 268.51 310.97 274.01 310.97H389.6C395.1 310.97 399.6 315.07 399.6 320.08C399.6 325.09 395.11 329.18 389.6 329.18H403.84C409.34 329.18 413.84 333.28 413.84 338.29C413.84 343.3 409.37 347.4 403.84 347.4Z" fill="#6C63FF"/>
<path opacity="0.1" d="M1137.17 129.8L29.1701 154.37C15.6701 185.96 6.74012 221.67 2.62012 258.69H1117.75C1125.01 237.028 1130.4 214.783 1133.85 192.2C1137.17 170.44 1138.5 149.4 1137.17 129.8ZM227.59 210.31H207.59C213.08 210.31 217.59 214.41 217.59 219.42C217.59 224.43 213.09 228.53 207.59 228.53H92.0101C86.5201 228.53 82.0101 224.43 82.0101 219.42C82.0101 214.41 86.5101 210.31 92.0101 210.31H112.01C106.52 210.31 102.01 206.22 102.01 201.21C102.01 196.2 106.51 192.1 112.01 192.1H97.7201C92.2301 192.1 87.7201 188 87.7201 182.99C87.7201 177.98 92.2201 173.88 97.7201 173.88H213.31C218.81 173.88 223.31 177.98 223.31 182.99C223.31 188 218.82 192.1 213.31 192.1H227.59C233.08 192.1 237.59 196.2 237.59 201.21C237.59 206.22 233.08 210.31 227.59 210.31Z" fill="#6C63FF"/>
<path opacity="0.1" d="M664.34 766.83C705.888 766.83 739.57 759.268 739.57 749.94C739.57 740.612 705.888 733.05 664.34 733.05C622.792 733.05 589.11 740.612 589.11 749.94C589.11 759.268 622.792 766.83 664.34 766.83Z" fill="#6C63FF"/>
<path opacity="0.1" d="M839.15 814.72C914.106 814.72 974.87 809.732 974.87 803.58C974.87 797.428 914.106 792.44 839.15 792.44C764.194 792.44 703.43 797.428 703.43 803.58C703.43 809.732 764.194 814.72 839.15 814.72Z" fill="#6C63FF"/>
<path opacity="0.1" d="M154.22 803.58C229.176 803.58 289.94 796.018 289.94 786.69C289.94 777.362 229.176 769.8 154.22 769.8C79.2639 769.8 18.5 777.362 18.5 786.69C18.5 796.018 79.2639 803.58 154.22 803.58Z" fill="#6C63FF"/>
<path opacity="0.1" d="M501.15 719.03C557.549 719.03 603.27 711.468 603.27 702.14C603.27 692.812 557.549 685.25 501.15 685.25C444.75 685.25 399.03 692.812 399.03 702.14C399.03 711.468 444.75 719.03 501.15 719.03Z" fill="#6C63FF"/>
<path d="M747.351 394.939C747.351 394.939 758.869 375.996 755.808 346.278C752.747 316.559 741.673 268.459 741.673 268.459C741.673 268.459 746.481 241.512 720.403 237.727C720.403 237.727 704.195 234.711 692.604 227.422C688.294 224.706 684.627 221.419 682.644 217.462C682.644 217.462 682.49 217.905 682.191 218.72C681.935 218.313 681.699 217.893 681.485 217.462C681.485 217.462 681.421 217.625 681.322 217.914L676.894 211.015C676.894 211.015 676.287 211.657 675.264 212.717C673.483 210.16 671.966 207.43 670.737 204.567C671.838 204.302 672.918 203.957 673.969 203.535C674.974 203.203 675.88 202.624 676.604 201.851C677.239 200.97 677.649 199.947 677.799 198.872C678.505 195.43 678.707 191.904 678.397 188.404C678.153 185.688 677.6 182.971 677.79 180.21C677.99 177.267 679.031 174.423 679.176 171.472C679.429 166.274 676.849 161.33 673.661 157.21C671.76 154.756 669.623 152.474 667.975 149.848C666.544 147.566 665.503 145.049 663.963 142.831C660.341 137.669 654.302 134.627 648.108 133.549C641.915 132.472 635.54 133.142 629.337 134.165C623.904 135.071 618.471 136.384 613.038 136.7C608.294 136.972 604.427 135.369 600.081 138.511C598.641 139.573 597.445 140.93 596.574 142.492C595.702 144.054 595.175 145.784 595.028 147.566C594.957 148.173 595.003 148.788 595.164 149.377C595.42 149.988 595.723 150.578 596.069 151.143C597.998 154.946 595.064 159.465 595.445 163.711C595.676 165.589 596.536 167.334 597.884 168.662C599.232 169.99 600.988 170.824 602.87 171.028C602.698 171.39 602.507 171.743 602.344 172.114C599.939 177.548 598.858 183.474 599.188 189.406C599.519 195.339 601.252 201.108 604.246 206.241C607.239 211.373 611.408 215.722 616.409 218.93C621.41 222.139 627.1 224.115 633.014 224.697L634.698 225.991C638.501 228.934 642.775 232.457 646.895 236.287L646.813 236.35L646.143 235.97C644.889 236.962 643.57 237.87 642.195 238.687C638.383 241.023 632.235 244.056 625.317 244.4C625.317 244.4 612.93 250.965 608.665 272.615C602.544 278.103 589.441 288.009 572.128 290.59C547.797 294.212 517.798 295.398 517.798 295.398C517.798 295.398 517.554 295.832 517.21 296.629L514.439 296.122C514.439 296.122 514.439 296.457 514.321 297.028L513.235 296.539C504.641 292.781 487.473 287.303 485.3 302.397C482.384 322.644 501.689 320.317 501.689 320.317C505.507 318.867 509.419 317.678 513.397 316.758L514.475 316.55C514.658 317.078 514.914 317.578 515.236 318.035H517.862C518.774 319.923 519.875 321.713 521.149 323.378L582.342 322.037C582.342 322.037 592.8 319.756 602.453 321.204C598.242 352.68 593.271 387.197 593.271 387.197C593.271 387.197 582.858 441.862 590.147 447.576C594.378 446.164 598.69 445.009 603.06 444.117C603.126 447.494 603.484 450.86 604.128 454.177L608.792 484.701C608.792 484.701 610.603 515.886 616.66 534.503L622.003 559.948L626.476 579.18L628.993 611.824C632.45 625.652 634.949 639.703 636.473 653.875C638.836 675.806 651.667 711.247 653.378 715.91C648.996 722.113 639.995 732.635 628.703 733.722C612.586 735.279 612.196 744.995 623.461 748.49C634.725 751.985 658.431 748.49 658.431 748.49L691.862 740.223C690.857 746.389 690.332 751.261 691.065 751.786C693.202 753.344 725.646 761.747 726.814 748.291C726.905 747.18 726.986 746.103 727.059 745.058C727.541 736.439 726.389 727.805 723.663 719.614C723.4 718.808 723.165 717.993 722.957 717.178C723.438 716.64 723.88 716.068 724.279 715.467C724.279 715.467 726.615 679.138 728.362 666.117C728.498 665.076 728.589 663.808 728.634 662.377C729.44 646.767 723.744 605.702 723.744 605.702C723.744 605.702 716.709 578.99 716.971 566.712C717.012 565.691 717.185 564.681 717.487 563.706C717.487 563.706 717.487 563.461 717.397 563.054C717.397 562.882 717.478 562.7 717.533 562.537C717.533 562.537 713.965 538.089 714.463 523.547C714.533 521.377 714.836 519.222 715.368 517.118C715.935 514.355 716.223 511.543 716.229 508.724C716.681 498.763 716.156 481.559 715.432 465.423C715.513 465.151 715.595 464.88 715.658 464.563C715.804 463.278 715.653 461.976 715.215 460.76C715.16 459.718 715.115 458.686 715.061 457.663C715.359 456.64 715.604 455.553 715.821 454.43H716.292V454.494C716.292 454.494 746.735 453.036 753.734 444.877C753.734 444.877 746.662 422.901 742.742 405.035L747.351 394.939ZM616.162 326.583L615.682 326.411C616.452 323.695 617.367 320.534 618.399 317.22C617.521 320.806 616.76 324.066 616.162 326.583ZM647.058 236.495L647.194 236.622L647.049 236.541L647.058 236.495ZM685.089 707.824C683.45 702.183 676.939 679.183 677.148 668.218C677.193 667.265 677.36 666.321 677.646 665.411C678.249 663.424 678.554 661.358 678.551 659.281C679.203 647.835 674.82 627.326 674.82 627.326C674.82 627.326 665.014 599.663 665.765 577.695C665.765 577.143 665.829 576.591 665.865 576.038C666.028 573.956 666.155 571.701 666.245 569.32V569.274C666.617 560.79 666.535 550.576 666.291 541.05L666.236 540.697C665.901 528.083 665.276 516.728 665.014 512.237C665.919 518.729 671.714 559.142 674.214 565.752C674.214 565.752 675.581 584.396 681.793 600.161L688.602 641.144C688.602 641.144 690.35 689.914 693.256 703.704C694.56 709.844 695.665 713.982 696.489 716.68C695.312 722.176 693.41 731.385 692.133 739.01C691.382 734.038 688.738 715.095 685.098 707.824H685.089Z" fill="url(#paint0_linear)"/>
<path d="M655.977 709.083C655.977 709.083 644.613 729.683 628.631 731.223C612.649 732.762 612.269 742.387 623.433 745.855C634.598 749.323 658.096 745.855 658.096 745.855L691.599 737.579C691.599 737.579 687.552 704.456 682.164 702.727C676.776 700.997 655.977 709.083 655.977 709.083Z" fill="#9F6968"/>
<path d="M696.815 709.463C696.815 709.463 688.339 747.585 690.476 749.133C692.613 750.682 724.749 758.949 725.908 745.665C725.999 744.548 726.08 743.48 726.153 742.46C726.627 733.916 725.485 725.361 722.784 717.242C721.879 714.525 721.245 711.618 721.481 709.463C722.015 704.076 696.815 709.463 696.815 709.463Z" fill="#9F6968"/>
<path d="M686.302 226.825C686.302 226.825 660.305 290.68 664.933 270.171C667.993 256.588 648.208 238.542 634.526 227.938C627.563 222.505 622.184 219.055 622.184 219.055C622.184 219.055 670.99 162.154 667.531 186.702C666.583 193.425 667.504 200.28 670.193 206.514C675.581 219.318 686.302 226.825 686.302 226.825Z" fill="#FFB9B9"/>
<path d="M520.243 317.537C518.867 317.184 516.621 317.411 514.294 317.909C510.353 318.819 506.477 319.996 502.695 321.431C502.695 321.431 483.562 323.74 486.45 303.674C488.596 288.715 505.611 294.148 514.131 297.861C517.029 299.138 518.949 300.206 518.949 300.206L520.243 317.537Z" fill="#FFB9B9"/>
<path opacity="0.1" d="M520.243 317.537C518.867 317.184 516.621 317.41 514.294 317.908C512.211 312.657 513.796 300.206 514.131 297.861C517.029 299.137 518.948 300.206 518.948 300.206L520.243 317.537Z" fill="black"/>
<path d="M520.325 298.377L515.317 297.471C515.317 297.471 512.755 314.676 516.105 319.203H521.864L520.325 298.377Z" fill="#CBCDDA"/>
<path d="M620.753 329.771C620.753 329.771 605.451 320.616 603.621 332.17C601.792 343.724 599.384 363.464 599.384 363.464L595.146 388.592L589.659 438.937L590.428 447.503C590.428 447.503 606.727 442.016 610.549 443.945C614.37 445.873 617.485 422.765 617.485 422.765L623.823 398.887L624.783 348.252L620.753 329.771Z" fill="#444053"/>
<path opacity="0.1" d="M620.753 329.771C620.753 329.771 605.451 320.616 603.621 332.17C601.792 343.724 599.384 363.464 599.384 363.464L595.146 388.592L589.659 438.937L590.428 447.503C590.428 447.503 606.727 442.016 610.549 443.945C614.37 445.873 617.485 422.765 617.485 422.765L623.823 398.887L624.783 348.252L620.753 329.771Z" fill="black"/>
<path d="M612.504 270.46C612.504 270.46 596.622 288.371 572.508 291.975C548.395 295.579 518.64 296.747 518.64 296.747C518.64 296.747 511.134 310.175 521.964 324.473L582.632 323.133C582.632 323.133 596.06 320.217 606.464 323.133L612.504 270.46Z" fill="#444053"/>
<path opacity="0.05" d="M612.504 270.46C612.504 270.46 596.622 288.371 572.508 291.975C548.395 295.579 518.64 296.747 518.64 296.747C518.64 296.747 511.134 310.175 521.964 324.473L582.632 323.133C582.632 323.133 596.06 320.217 606.464 323.133L612.504 270.46Z" fill="black"/>
<path opacity="0.1" d="M667.622 205.962C661.7 218.639 651.404 227.984 636.473 227.984C635.812 227.984 635.169 227.984 634.526 227.938C627.563 222.505 622.184 219.055 622.184 219.055C622.184 219.055 670.99 162.154 667.531 186.702C666.463 194.218 665.24 200.321 667.622 205.962Z" fill="black"/>
<path d="M673.671 189.618C673.665 196.976 671.478 204.167 667.386 210.282C663.294 216.397 657.481 221.162 650.681 223.974C643.882 226.785 636.401 227.518 629.185 226.078C621.969 224.639 615.342 221.092 610.142 215.887C604.941 210.681 601.401 204.051 599.969 196.834C598.536 189.616 599.276 182.136 602.094 175.339C604.913 168.543 609.683 162.734 615.802 158.648C621.921 154.562 629.115 152.382 636.473 152.384C641.363 152.374 646.208 153.331 650.727 155.199C655.247 157.067 659.353 159.81 662.81 163.27C666.266 166.73 669.005 170.839 670.869 175.36C672.733 179.882 673.685 184.727 673.671 189.618Z" fill="#FFB9B9"/>
<path d="M696.407 416.988C696.407 416.988 613.428 424.313 610.385 413.719C607.343 403.125 618.852 374.439 618.852 374.439L615.103 334.389L614.967 332.858C614.967 332.858 625.362 289.53 624.982 286.071C624.62 282.956 641.715 246.601 645.229 239.166C645.645 238.306 645.862 237.835 645.862 237.835L646.524 238.216L646.813 238.388L650.879 240.76L666.933 236.957L686.284 226.825L688.095 337.666L696.407 416.988Z" fill="#CBCDDA"/>
<path opacity="0.1" d="M653.279 239.176C653.279 239.176 647.601 237.636 645.383 243.314C644.515 245.754 643.486 248.135 642.304 250.44L640.095 263.624L636.047 284.45L633.059 376.585L634.408 392.947L641.824 379.763L643.173 293.641V282.929C643.608 273.668 645.699 264.559 649.349 256.036L650.381 253.618L656.828 245.333L653.279 239.176Z" fill="black"/>
<path d="M652.128 238.017C652.128 238.017 646.442 236.477 644.232 242.155C643.363 244.596 642.331 246.977 641.145 249.281L638.935 262.474L634.888 283.3L631.909 375.435L633.258 391.806L640.674 378.577L642.023 292.509V281.77C642.466 272.51 644.557 263.403 648.199 254.877L649.24 252.459L655.687 244.183L652.128 238.017Z" fill="#7B74E0"/>
<path opacity="0.1" d="M676.387 214.238C676.387 214.238 656.747 235.064 649.811 237.536C649.811 237.536 653.279 253.328 656.747 256.407C656.747 256.407 677.356 235.39 681.005 233.688L684.065 226.2L676.387 214.238Z" fill="black"/>
<path d="M676.387 213.052C676.387 213.052 656.747 233.878 649.811 236.35C649.811 236.35 653.279 252.142 656.747 255.221C656.747 255.221 677.356 234.204 681.005 232.502L684.065 225.023L676.387 213.052Z" fill="#CBCDDA"/>
<path opacity="0.1" d="M647.013 237.835L646.814 238.379L640.52 255.248L629.265 287.076C629.265 287.076 629.165 287.402 628.966 287.982C627.101 293.777 617.077 325.225 615.103 334.361L614.967 332.831C614.967 332.831 625.362 289.503 624.982 286.044C624.62 282.929 641.716 246.573 645.229 239.139C645.79 238.759 646.225 238.433 646.524 238.188L647.013 237.835Z" fill="black"/>
<path d="M645.863 237.826L639.361 255.248L628.106 287.076C628.106 287.076 628.006 287.402 627.807 287.982C625.833 294.157 614.578 329.408 613.672 335.856C612.649 342.937 598.496 381.212 598.496 381.212L590.41 447.485C583.166 441.862 593.453 387.722 593.453 387.722C593.453 387.722 605.007 307.432 607.741 280.72C610.476 254.008 625.227 246.202 625.227 246.202C632.036 245.858 638.175 242.852 641.951 240.543C643.315 239.727 644.622 238.819 645.863 237.826V237.826Z" fill="#444053"/>
<path opacity="0.1" d="M727.403 664.216C725.673 677.119 723.364 713.112 723.364 713.112C715.278 725.237 697.367 718.69 697.367 718.69C697.367 718.69 695.447 715.068 692.559 701.359C689.67 687.65 687.941 639.36 687.941 639.36L681.195 598.794C675.038 583.192 673.688 564.711 673.688 564.711C670.972 557.584 664.443 510.797 664.443 510.797C664.443 510.797 667.16 552.767 665.412 574.916C663.665 597.064 674.259 626.864 674.259 626.864C674.259 626.864 680.235 654.789 677.147 663.455C674.06 672.121 684.853 707.924 684.853 707.924C683.948 718.328 653.288 714.09 653.288 714.09C653.288 714.09 638.863 675.38 636.337 652.082C634.823 638.044 632.345 624.127 628.921 610.429L626.421 578.076L621.985 558.952L616.696 533.734C610.72 515.252 608.9 484.348 608.9 484.348L604.273 454.023C601.249 439.028 605.179 421.425 607.786 412.216C608.918 408.223 609.824 405.787 609.824 405.787C612.477 407.67 627.671 409.88 635.531 411.673C639.832 412.664 644.256 413.018 648.66 412.723C668.532 411.145 688.189 407.541 707.328 401.966C708.622 401.576 709.311 401.35 709.311 401.35L709.718 404.818L710.678 413.076L712.389 427.736C712.389 427.736 717.587 505.908 714.508 516.475C711.429 527.042 716.627 562.655 716.627 562.655C713.739 571.103 722.784 605.44 722.784 605.44C722.784 605.44 729.141 651.312 727.403 664.216Z" fill="black"/>
<path d="M727.403 663.084C725.673 675.987 723.364 711.981 723.364 711.981C715.278 724.114 697.367 717.558 697.367 717.558C697.367 717.558 695.447 713.937 692.559 700.236C689.67 686.536 687.941 638.228 687.941 638.228L681.195 597.607C675.083 582.006 673.688 563.479 673.688 563.479C670.972 556.353 664.443 509.566 664.443 509.566C664.443 509.566 667.16 551.536 665.412 573.684C663.665 595.833 674.259 625.669 674.259 625.669C674.259 625.669 680.235 653.594 677.147 662.26C674.06 670.925 684.853 706.738 684.853 706.738C683.948 717.133 653.288 712.895 653.288 712.895C653.288 712.895 638.863 674.23 636.337 650.923C634.823 636.885 632.345 622.968 628.921 609.27L626.421 576.926L621.985 557.865L616.696 532.647C610.72 514.157 608.9 483.252 608.9 483.252L604.273 452.927C601.249 437.932 605.179 420.329 607.786 411.12C608.918 407.136 609.824 404.7 609.824 404.7C612.477 406.584 627.671 408.784 635.531 410.577C639.832 411.573 644.256 411.927 648.66 411.627C668.532 410.05 688.189 406.445 707.328 400.87L709.311 400.263L709.718 403.722L710.678 411.99L712.389 426.65C712.389 426.65 717.587 504.812 714.508 515.388C711.429 525.964 716.627 561.569 716.627 561.569C713.739 570.008 722.784 604.344 722.784 604.344C722.784 604.344 729.141 650.162 727.403 663.084Z" fill="#444053"/>
<path opacity="0.1" d="M673.671 189.618C673.682 196.124 671.984 202.519 668.745 208.162C662.95 209.185 656.783 208.054 652.446 204.223C649.476 201.606 647.556 198.03 645.003 194.996C643.35 193.132 641.574 191.381 639.688 189.754C638.456 188.526 637.042 187.497 635.495 186.702C634.717 186.309 633.86 186.1 632.989 186.091C632.117 186.081 631.256 186.272 630.47 186.648C628.423 187.789 627.753 190.333 626.567 192.361C625.675 194.103 624.148 195.435 622.302 196.083C621.379 196.378 620.386 196.369 619.468 196.058C618.55 195.747 617.757 195.149 617.204 194.353C615.945 192.189 616.869 188.812 614.759 187.49C614.203 187.215 613.628 186.979 613.039 186.783C610.322 185.552 610.005 181.903 609.77 178.915C609.652 177.448 609.335 175.791 608.104 175.003C606.872 174.215 605.252 174.614 603.785 174.641C603.351 174.658 602.916 174.624 602.49 174.541C605.948 166.746 611.979 160.375 619.573 156.496C627.167 152.616 635.863 151.463 644.206 153.229C652.549 154.995 660.032 159.573 665.402 166.198C670.773 172.822 673.704 181.09 673.707 189.618H673.671Z" fill="black"/>
<path d="M600.208 141.228C598.778 142.283 597.591 143.632 596.727 145.185C595.863 146.738 595.343 148.458 595.2 150.229C595.132 150.821 595.178 151.42 595.336 151.994C595.589 152.604 595.892 153.192 596.242 153.751C598.143 157.527 595.236 162 595.608 166.211C595.86 168.2 596.824 170.03 598.323 171.362C599.821 172.694 601.752 173.438 603.757 173.455C605.224 173.455 606.836 173.02 608.076 173.817C609.317 174.614 609.625 176.262 609.743 177.729C609.978 180.717 610.277 184.366 613.002 185.597C613.59 185.798 614.164 186.033 614.723 186.304C616.842 187.626 615.918 191.012 617.177 193.167C617.729 193.963 618.523 194.561 619.441 194.872C620.358 195.183 621.352 195.192 622.275 194.897C624.117 194.251 625.641 192.922 626.53 191.184C627.699 189.147 628.396 186.657 630.442 185.471C631.227 185.091 632.089 184.898 632.96 184.906C633.832 184.914 634.69 185.123 635.468 185.516C637.014 186.314 638.429 187.347 639.66 188.577C641.549 190.201 643.325 191.953 644.975 193.819C647.529 196.844 649.449 200.42 652.419 203.037C658.015 207.954 666.581 208.47 673.48 205.636C674.476 205.304 675.375 204.732 676.097 203.97C676.727 203.094 677.134 202.078 677.284 201.009C677.984 197.6 678.185 194.108 677.881 190.641C677.637 187.925 677.084 185.208 677.274 182.492C677.465 179.576 678.506 176.76 678.651 173.844C678.904 168.683 676.342 163.784 673.218 159.7C671.334 157.264 669.216 155.01 667.586 152.402C666.164 150.138 665.132 147.648 663.611 145.457C660.043 140.341 654.03 137.307 647.891 136.248C641.752 135.188 635.441 135.84 629.292 136.864C623.932 137.769 618.535 139.055 613.102 139.372C608.348 139.707 604.518 138.104 600.208 141.228Z" fill="#472727"/>
<path opacity="0.1" d="M645.863 237.826L639.361 255.248L628.106 287.076C628.106 287.076 628.006 287.402 627.807 287.982V288.027L641.969 240.525C643.326 239.714 644.627 238.812 645.863 237.826V237.826Z" fill="black"/>
<path d="M716.147 437.208C716.147 437.208 716.818 458.288 711.14 463.585L696.027 435.089L708.704 428.922L716.147 437.208Z" fill="#FFB9B9"/>
<path opacity="0.1" d="M751.426 444.905C744.489 452.991 714.3 454.439 714.3 454.439L684.419 407.354C684.419 407.354 677.347 402.446 664.063 380.343C650.78 358.239 651.214 341.216 651.957 328.503C652.699 315.79 661.012 279.253 661.012 279.253C662.307 271.031 680.933 219.49 680.933 219.49C682.889 223.393 686.529 226.653 690.784 229.342C702.284 236.586 718.339 239.556 718.339 239.556C744.2 243.314 739.428 270.026 739.428 270.026C739.428 270.026 739.717 373.859 738.124 386.283C736.53 398.706 751.426 444.905 751.426 444.905Z" fill="black"/>
<path d="M716.537 441.246L715.668 448.952L705.173 445.104L697.476 433.45L703.253 428.922L716.537 441.246Z" fill="#CBCDDA"/>
<path opacity="0.1" d="M716.165 411.401L710.678 411.962L657.77 417.25C649.273 418.104 640.697 417.683 632.325 416.001L607.786 411.093C608.918 407.109 609.824 404.673 609.824 404.673C612.477 406.557 627.671 408.757 635.531 410.55C639.831 411.546 644.256 411.9 648.66 411.6C668.531 410.022 688.189 406.418 707.327 400.843L709.718 403.695L716.165 411.401Z" fill="black"/>
<g opacity="0.1">
<path opacity="0.1" d="M610.376 404.963C610.202 404.877 610.032 404.78 609.869 404.673C609.869 404.673 609.869 404.728 609.815 404.809L610.376 404.963Z" fill="black"/>
<path opacity="0.1" d="M722.83 604.335C722.83 604.335 713.775 569.999 716.673 561.56C716.673 561.56 711.475 525.974 714.563 515.379C717.651 504.785 712.435 426.641 712.435 426.641L710.724 411.981L709.764 403.713L709.365 400.254L707.373 400.861L706.142 401.223L706.296 402.563L707.256 410.822L708.967 425.482C708.967 425.482 714.165 503.653 711.095 514.22C708.025 524.787 713.205 560.4 713.205 560.4C710.316 568.849 719.362 603.176 719.362 603.176C719.362 603.176 725.701 649.012 723.989 661.907C722.278 674.801 719.942 710.803 719.942 710.803C714.038 719.668 702.891 718.564 697.304 717.323L697.404 717.54C697.404 717.54 715.315 724.096 723.401 711.963C723.401 711.963 725.71 675.951 727.448 663.066C729.187 650.18 722.83 604.335 722.83 604.335Z" fill="black"/>
<path opacity="0.1" d="M677.202 662.296C680.281 653.63 674.313 625.705 674.313 625.705C674.313 625.705 663.728 595.824 665.458 573.72C666.182 564.493 666.137 551.835 665.829 540.217C663.375 525.231 661.021 508.525 661.021 508.525C661.021 508.525 663.737 550.494 661.999 572.634C660.26 594.773 670.845 624.627 670.845 624.627C670.845 624.627 676.822 652.544 673.734 661.209C670.646 669.875 681.422 705.642 681.422 705.642C680.652 713.973 660.867 712.886 653.016 712.162L653.315 712.959C653.315 712.959 683.93 717.196 684.89 706.801C684.908 706.774 674.123 670.962 677.202 662.296Z" fill="black"/>
</g>
<path d="M752.576 444.905C745.649 452.991 715.45 454.439 715.45 454.439L685.569 407.354C685.569 407.354 678.497 402.446 665.204 380.343C651.912 358.239 652.364 341.216 653.098 328.503C653.831 315.79 662.153 279.253 662.153 279.253C663.448 271.031 682.074 219.49 682.074 219.49C684.02 223.393 687.661 226.653 691.925 229.342C703.425 236.586 719.48 239.556 719.48 239.556C745.332 243.314 740.56 270.026 740.56 270.026C740.56 270.026 740.849 373.859 739.256 386.283C737.662 398.706 752.576 444.905 752.576 444.905Z" fill="#444053"/>
<path opacity="0.1" d="M687.606 245.043L681.104 247.461L685.433 250.494L653.106 328.476C653.858 315.799 662.161 279.226 662.161 279.226C663.456 271.004 682.082 219.463 682.082 219.463C684.029 223.365 687.669 226.625 691.934 229.315L687.606 245.043Z" fill="black"/>
<path opacity="0.1" d="M695.402 383.965L728.471 375.444L732.808 388.872L699.015 397.112L695.402 383.965Z" fill="black"/>
<path opacity="0.1" d="M714.318 250.53C714.318 250.53 699.296 264.665 704.964 296.167C710.633 327.67 719.697 361.87 719.697 361.87L695.249 429.601C695.249 429.601 712.29 447.367 720.666 449.522L745.069 395.365C745.069 395.365 756.478 376.594 753.445 347.138C750.411 317.682 739.437 270.017 739.437 270.017C739.437 270.017 739.446 241.005 714.318 250.53Z" fill="black"/>
<path d="M715.468 250.53C715.468 250.53 700.437 264.665 706.087 296.167C711.738 327.67 720.811 361.87 720.811 361.87L696.362 429.601C696.362 429.601 713.404 447.367 721.78 449.522L746.228 395.365C746.228 395.365 757.637 376.594 754.604 347.138C751.57 317.682 740.596 270.017 740.596 270.017C740.596 270.017 740.596 241.005 715.468 250.53Z" fill="#444053"/>
<path opacity="0.1" d="M697.177 431.041C697.177 431.041 716.238 457.427 714.798 464.454C713.358 471.481 707.772 467.723 707.772 467.723L700.265 457.427L693.519 438.168C693.519 438.168 694.18 429.855 697.177 431.041Z" fill="black"/>
<path opacity="0.1" d="M694.868 431.041C694.868 431.041 713.884 457.427 712.489 464.454C711.095 471.481 705.462 467.723 705.462 467.723L697.947 457.427L691.21 438.168C691.21 438.168 691.871 429.855 694.868 431.041Z" fill="black"/>
<path d="M696.027 431.041C696.027 431.041 715.042 457.427 713.639 464.454C712.235 471.481 706.612 467.723 706.612 467.723L699.106 457.427L692.369 438.168C692.369 438.168 693.021 429.855 696.027 431.041Z" fill="#444053"/>
<path d="M577.46 300.33C575.3 285.79 562.09 251.86 562.09 251.86C561.86 250.86 561.6 249.86 561.31 248.86C551.94 216.66 538.97 213.86 538.97 213.86L492.51 203.86C492.9 204.103 493.239 204.419 493.51 204.79C493.265 204.813 493.021 204.849 492.78 204.9C490.653 202.389 489.246 199.347 488.71 196.1C488.62 195.62 488.54 195.1 488.48 194.61C491.817 191.357 494.42 187.429 496.114 183.088C497.808 178.747 498.554 174.094 498.302 169.441C498.05 164.788 496.806 160.243 494.653 156.11C492.5 151.978 489.489 148.353 485.82 145.48C485.33 145.1 484.82 144.73 484.33 144.38C486.52 142.05 486.59 138.81 484.95 135.57C481.29 127.97 473.33 123.16 465.15 120.81C458.9 119.02 452.15 118.44 445.93 120.4C442.4 121.52 439.18 123.4 435.87 125.07C429.7 128.15 422.87 130.59 418.26 135.66C417.18 136.84 416.18 138.35 416.5 139.91C416.74 141.07 417.66 141.97 418.25 143C419.58 145.31 419.25 148.22 418.34 150.74C417.43 153.26 416.1 155.6 415.47 158.18C414.84 160.76 415.08 163.8 417.02 165.65C417.95 166.368 418.918 167.036 419.92 167.65C420.982 168.555 421.914 169.601 422.69 170.76C424.53 173.227 426.363 175.703 428.19 178.19C430.769 181.486 433.074 184.988 435.08 188.66C436.45 191.36 437.51 194.24 439.34 196.66C439.876 197.366 440.49 198.01 441.17 198.58L440.63 198.37C441.425 199.179 442.377 199.818 443.428 200.246C444.479 200.674 445.606 200.883 446.74 200.86C446.84 200.86 446.93 200.86 447.02 200.86C447.438 200.851 447.837 200.687 448.14 200.4C448.14 200.74 448.14 201.08 448.14 201.4C448.25 204.97 448.23 208.77 447.98 212.34L447.55 212.12C446.912 211.803 446.197 211.674 445.489 211.748C444.781 211.823 444.108 212.097 443.55 212.54L400.78 246.86C400.78 246.86 391.48 259.58 392.78 281.54L385.28 314.47C385.28 314.47 375.91 342.41 383.12 362.36C390.33 382.31 394.51 393.72 394.51 393.72C394.51 393.72 397.39 416.39 401.72 418.24C406.05 420.09 407.92 421.09 407.92 421.09L408.78 426.51C408.78 426.51 409.07 427.04 409.58 427.93C412.73 433.41 424.4 452.75 431.18 450.68C432.034 455.932 432.402 461.251 432.28 466.57L438.99 511.62C438.99 511.62 443.67 523.87 443.38 530.29C443.09 536.71 448.84 545.86 448.84 545.86C445.347 552.255 444.322 559.71 445.96 566.81C448.7 578.81 452.16 634.09 452.16 634.09L457.16 647.49L457.02 663.2C456.61 665.762 455.542 668.174 453.92 670.2C450.68 673.72 450.92 677.79 443.11 682.6C435.3 687.41 430.35 689.23 430.35 695.6C430.341 696.488 430.26 697.374 430.11 698.25C429.39 702.93 427.99 705.47 442.35 706.83C459.22 708.43 470.47 697.43 470.47 697.43C470.47 697.43 472.95 692.93 484.63 691.11C484.63 691.11 488.63 690.9 488.84 687.37C488.92 686.15 488.9 683.82 488.84 681.25C488.65 676.36 488.18 670.65 487.56 670.37C486.78 670.02 485.42 665.1 484.95 663.32H488.2C488.2 663.32 491.2 640.65 488.2 625.97C485.2 611.29 487.91 600.88 487.91 600.88L487.33 562.11C487.33 562.11 483.33 557.83 486.47 550.27C489.61 542.71 486.47 505.37 486.47 505.37C486.47 505.37 487.63 491.97 490.94 488.83C494.25 485.69 491.1 469.2 490.94 468.34L496.84 488.13C496.84 488.13 499.43 527.47 504.92 534.59L506.5 552.41C506.5 552.41 517.74 568.81 515.58 577.64C513.42 586.47 517.89 618.41 517.89 618.41V651.06C517.89 651.06 512.84 664.17 519.89 668.88L522.89 668.76C521.89 669.69 521.12 671.09 519.95 672.3C518.6 673.69 517.83 678.98 517.4 683.53C517.04 687.38 516.92 690.69 516.92 690.69C516.92 690.69 519.92 695.49 525.57 695.82C531.22 696.15 549.84 710.31 549.84 710.31C549.84 710.31 568.23 710.31 572.99 709.31L573.27 709.24C574.798 708.759 576.083 707.711 576.86 706.31C577.814 704.685 578.121 702.761 577.72 700.92C577.13 698.11 574.9 695.03 569.96 692.41C557.67 685.93 555.84 679.86 555.84 679.86L547.77 667.75H548.92C548.92 667.75 548.21 654.92 556.99 640.52L556.42 577.09C556.42 577.09 560.02 555.28 553.83 543.44C553.83 543.44 553.32 530.9 557.46 527.05C561.6 523.2 551.95 484.29 551.95 484.29C551.95 484.29 549.95 463.4 547.6 444.34C557.33 453.57 567.42 420.34 569.12 414.43H569.37L569.26 414C569.33 413.72 569.37 413.58 569.37 413.58C569.37 413.58 567.21 405.9 568.79 407.46C570.37 409.02 574.27 403.18 574.27 403.18C574.27 403.18 573.69 371.39 580.47 355.37C587.25 339.35 577.46 300.33 577.46 300.33ZM548.46 320.56L548.51 320.47C549.51 339.88 548.32 381.3 548.32 381.3C548.32 381.3 546.98 386.61 545.55 392.86L544.55 353.51L543.55 316.44L548.46 320.56ZM424.35 307.18C424.35 307.18 429.25 368.47 424.35 377.31C422.96 379.83 421.79 384.31 420.82 389.42C419.2 385.17 415.77 375.19 417 369.9C418.59 363.06 413.83 345.09 413.83 344.67C413.83 344.25 413.4 334.67 416.83 327.35C420.26 320.03 418.01 316.86 418.01 316.86C418.01 316.86 420.89 304.86 424.35 307.18Z" fill="url(#paint1_linear)"/>
<path d="M436.29 445.22C432.02 463.99 415.04 435.61 411.17 428.8C410.67 427.91 410.39 427.39 410.39 427.39L412.23 418.76L421.96 414.76C423.501 415.565 424.961 416.516 426.32 417.6C431.65 421.79 439.58 430.68 436.29 445.22Z" fill="#D38884"/>
<path d="M568.02 414.51C568.02 414.51 568.02 414.65 567.91 414.93C567.91 415.05 567.83 415.21 567.78 415.38C566.11 421.24 556.21 454.23 546.65 445.07C536.19 435.07 541.27 411.95 541.27 411.95H541.34L563.34 409.7L567.7 414.18L568.02 414.51Z" fill="#D38884"/>
<path d="M555.29 576.86L555.85 639.86C547.22 654.16 547.93 666.86 547.93 666.86L519.49 667.98C512.55 663.31 517.49 650.3 517.49 650.3V617.86C517.49 617.86 513.1 586.17 515.22 577.39C517.34 568.61 506.31 552.39 506.31 552.39L504.75 534.7C499.37 527.63 496.82 488.58 496.82 488.58L491.05 468.86C491.21 469.71 494.21 486.17 491.05 489.2C487.89 492.23 486.66 505.61 486.66 505.61C486.66 505.61 489.77 542.69 486.66 550.18C483.55 557.67 487.5 561.93 487.5 561.93L488.07 600.42C488.07 600.42 485.38 610.75 488.35 625.32C491.32 639.89 488.35 662.4 488.35 662.4H457.84L457.98 646.69L453.04 633.39C453.04 633.39 449.64 578.49 446.95 566.6C445.34 559.554 446.342 552.163 449.77 545.8C449.77 545.8 444.12 536.75 444.4 530.38C444.68 524.01 440.04 511.86 440.04 511.86L433.46 467.15C433.641 458.545 432.543 449.962 430.2 441.68C426.38 428.94 420.72 412.24 420.72 412.24L427.11 412.81L459.35 415.68C459.35 415.68 537.74 410.41 541.25 414.79C541.991 416.222 542.491 417.766 542.73 419.36C546.25 435.17 550.9 484.7 550.9 484.7C550.9 484.7 560.38 523.33 556.31 527.15C552.24 530.97 552.74 543.41 552.74 543.41C558.84 555.16 555.29 576.86 555.29 576.86Z" fill="#444053"/>
<path d="M489.02 686.29C488.8 689.8 484.89 690.01 484.89 690.01C473.43 691.81 470.99 696.27 470.99 696.27C470.99 696.27 459.99 707.2 443.4 705.61C429.3 704.25 430.67 701.74 431.4 697.09C431.542 696.224 431.619 695.348 431.63 694.47C431.63 688.1 436.51 686.29 444.15 681.47C451.79 676.65 451.58 672.66 454.76 669.16C457.94 665.66 458.27 658.87 458.27 658.87C461.87 652.6 471 659.87 471 659.87C471.43 662.09 485 661.78 485 661.78C485 661.78 486.8 669 487.73 669.42C488.34 669.7 488.8 675.36 488.98 680.22C489.08 682.77 489.1 685.08 489.02 686.29Z" fill="#B07473"/>
<path opacity="0.1" d="M489.02 686.29C488.8 689.8 484.89 690.01 484.89 690.01C473.43 691.81 470.99 696.27 470.99 696.27C470.99 696.27 459.99 707.2 443.4 705.61C429.3 704.25 430.67 701.74 431.4 697.09C437.7 698.65 449.74 700.83 456.77 697.01C466.54 691.71 473.55 688.01 473.55 688.01L488.99 680.24C489.08 682.77 489.1 685.08 489.02 686.29Z" fill="black"/>
<path d="M575.39 705.18C574.638 706.569 573.376 707.612 571.87 708.09L571.6 708.16C566.93 709.16 548.88 709.16 548.88 709.16C548.88 709.16 530.63 695.05 525.11 694.73C519.59 694.41 516.62 689.63 516.62 689.63C516.62 689.63 516.73 686.35 517.08 682.53C517.51 678.01 518.26 672.76 519.59 671.38C522.03 668.83 522.59 665.38 528.08 667.56C528.08 667.56 535.92 653.74 545.16 664.42L554.72 678.92C554.72 678.92 556.52 684.92 568.63 691.43C573.47 694.03 575.63 697.09 576.24 699.88C576.625 701.691 576.322 703.58 575.39 705.18Z" fill="#B07473"/>
<path opacity="0.1" d="M575.39 705.18C574.31 706.09 573.12 707.07 571.87 708.09L571.6 708.16C566.93 709.16 548.88 709.16 548.88 709.16C548.88 709.16 530.63 695.05 525.11 694.73C519.59 694.41 516.62 689.63 516.62 689.63C516.62 689.63 516.73 686.35 517.08 682.53C522.7 684.21 531.21 687.18 533.49 690.38C536.99 695.25 547.62 702.05 547.62 702.05C547.62 702.05 567.44 700.14 576.24 699.88C576.625 701.691 576.322 703.58 575.39 705.18Z" fill="black"/>
<path d="M498.26 211.39L472.16 238.98C472.16 238.98 440.53 236.65 446.05 227.31C448.86 222.55 449.3 212.59 449.05 203.93C448.82 195.58 447.96 188.47 447.96 188.47C447.96 188.47 492.32 166.39 488.96 186.98C488.236 190.86 488.196 194.836 488.84 198.73C490.73 209.13 498.26 211.39 498.26 211.39Z" fill="#D38884"/>
<path opacity="0.1" d="M488.92 186.98C488.196 190.86 488.155 194.836 488.8 198.73C485.766 201.805 482.15 204.245 478.164 205.909C474.177 207.572 469.9 208.426 465.58 208.42C459.58 208.42 453.09 203.49 448.24 200.64C448.01 192.28 447.96 188.47 447.96 188.47C447.96 188.47 492.32 166.39 488.92 186.98Z" fill="black"/>
<path d="M498.26 174.03C498.263 181.437 495.75 188.625 491.133 194.417C486.517 200.209 480.071 204.261 472.85 205.911C465.629 207.56 458.063 206.709 451.389 203.496C444.716 200.283 439.331 194.899 436.118 188.226C432.904 181.553 432.051 173.986 433.7 166.765C435.349 159.544 439.4 153.098 445.192 148.48C450.983 143.863 458.171 141.35 465.578 141.352C472.984 141.353 480.171 143.87 485.96 148.49C489.796 151.551 492.893 155.436 495.022 159.857C497.152 164.279 498.258 169.123 498.26 174.03V174.03Z" fill="#D38884"/>
<path opacity="0.1" d="M542.73 419.36C534.59 438.73 482.23 439.13 482.23 439.13V418.01L479.06 417.8C480.43 423.85 477.14 438.6 477.14 438.6C435.76 444.44 425.67 420.86 425.67 420.86L427.11 412.79L459.35 415.66C459.35 415.66 537.74 410.39 541.25 414.77C541.992 416.208 542.492 417.759 542.73 419.36V419.36Z" fill="black"/>
<path d="M482.23 436.58V415.46L479.06 415.26C480.43 421.26 477.14 436.06 477.14 436.06C446 440.45 432.58 428.19 427.85 421.85C426.999 420.758 426.269 419.578 425.67 418.33L438.31 347.23L441.31 242.59L445.84 224.23L446.89 215.42V215.32H447L450.22 216.7L469.49 225.03L491.38 208.5L491.7 208.27L492.79 207.44L494.6 208.89L499.1 212.5L513.53 305.69C513.53 305.69 538.53 377.44 543.21 406.4C543.4 407.56 543.55 408.64 543.67 409.65C546.76 436.09 482.23 436.58 482.23 436.58Z" fill="#7B74E0"/>
<path d="M471.83 228.95C472.857 228.95 473.69 228.117 473.69 227.09C473.69 226.063 472.857 225.23 471.83 225.23C470.803 225.23 469.97 226.063 469.97 227.09C469.97 228.117 470.803 228.95 471.83 228.95Z" fill="#67647E"/>
<path d="M472.69 245.93C473.717 245.93 474.55 245.097 474.55 244.07C474.55 243.043 473.717 242.21 472.69 242.21C471.663 242.21 470.83 243.043 470.83 244.07C470.83 245.097 471.663 245.93 472.69 245.93Z" fill="#67647E"/>
<path d="M474.55 273.42C475.577 273.42 476.41 272.587 476.41 271.56C476.41 270.533 475.577 269.7 474.55 269.7C473.523 269.7 472.69 270.533 472.69 271.56C472.69 272.587 473.523 273.42 474.55 273.42Z" fill="#67647E"/>
<path d="M477.62 303.03C478.647 303.03 479.48 302.197 479.48 301.17C479.48 300.143 478.647 299.31 477.62 299.31C476.593 299.31 475.76 300.143 475.76 301.17C475.76 302.197 476.593 303.03 477.62 303.03Z" fill="#67647E"/>
<path d="M479.48 330.83C480.507 330.83 481.34 329.997 481.34 328.97C481.34 327.943 480.507 327.11 479.48 327.11C478.453 327.11 477.62 327.943 477.62 328.97C477.62 329.997 478.453 330.83 479.48 330.83Z" fill="#67647E"/>
<path d="M481.34 360.44C482.367 360.44 483.2 359.607 483.2 358.58C483.2 357.553 482.367 356.72 481.34 356.72C480.313 356.72 479.48 357.553 479.48 358.58C479.48 359.607 480.313 360.44 481.34 360.44Z" fill="#67647E"/>
<path d="M480.6 389.73C481.628 389.73 482.46 388.897 482.46 387.87C482.46 386.843 481.628 386.01 480.6 386.01C479.573 386.01 478.74 386.843 478.74 387.87C478.74 388.897 479.573 389.73 480.6 389.73Z" fill="#67647E"/>
<path opacity="0.1" d="M448.13 357.57C448.13 357.57 446.05 384.8 442.23 392.72C438.41 400.64 436.71 422.86 436.71 422.86L427.84 421.86C426.99 420.768 426.259 419.588 425.66 418.34L438.3 347.24L441.3 242.6L445.84 224.23L446.89 215.42L447.01 215.37C447.506 215.136 448.048 215.019 448.596 215.027C449.144 215.036 449.682 215.17 450.17 215.42L450.59 215.64C450.463 216 450.343 216.37 450.23 216.75C446.77 227.58 445.48 247.54 445.48 247.54C445.48 247.54 450.48 284.05 451 301.03C451.52 318.01 448.13 357.57 448.13 357.57Z" fill="black"/>
<path opacity="0.1" d="M426.32 417.63C426.223 417.858 426.109 418.079 425.98 418.29C422.54 424.1 413.82 427.79 411.17 428.8C410.67 427.91 410.39 427.39 410.39 427.39L412.23 418.76L421.96 414.76C423.502 415.575 424.962 416.536 426.32 417.63V417.63Z" fill="black"/>
<path d="M402.75 278.67L394.68 283.48L387.33 316.17C387.33 316.17 378.13 343.9 385.2 363.71C392.27 383.52 396.38 394.86 396.38 394.86C396.38 394.86 399.21 417.36 403.46 419.2C407.71 421.04 409.54 422.03 409.54 422.03L410.39 427.41C410.39 427.41 421.91 423.5 425.98 416.61C430.05 409.72 422.98 392.61 422.98 392.61C422.98 392.61 416.9 378.03 418.46 371.24C420.02 364.45 415.34 346.62 415.34 346.24C415.34 345.86 414.92 336.33 418.34 329.04C421.76 321.75 419.48 318.64 419.48 318.64L417.35 297.84L402.75 278.67Z" fill="#67647E"/>
<path opacity="0.1" d="M543.4 413.24C543.4 413.24 522.03 421.3 515.24 414.24C508.45 407.18 509.15 374.05 509.15 374.05C509.15 374.05 502.65 312.92 498.54 302.88C494.43 292.84 496.54 220.38 496.54 220.38C496.54 220.38 493.78 211.01 491.37 208.56C491.218 208.403 491.046 208.265 490.86 208.15L491.69 208.33L494.59 208.95L499.09 212.56L513.52 305.75C513.52 305.75 538.52 377.5 543.2 406.46L543.4 413.24Z" fill="black"/>
<path opacity="0.1" d="M568.02 415.36H567.78C565.09 415.71 541.35 418.58 541.25 413.64C541.246 413.069 541.276 412.498 541.34 411.93L563.34 409.68L567.7 414.16C567.78 414.45 567.84 414.7 567.9 414.9L568.02 415.36Z" fill="black"/>
<path d="M545.24 245.93L560.84 254.07C560.84 254.07 573.84 287.73 575.92 302.16C575.92 302.16 585.55 340.82 578.92 356.72C572.29 372.62 572.84 404.18 572.84 404.18C572.84 404.18 569.02 409.98 567.46 408.43C565.9 406.88 568.03 414.51 568.03 414.51C568.03 414.51 541.36 418.05 541.25 412.81C541.14 407.57 547.37 382.53 547.37 382.53C547.37 382.53 549.07 322.96 546.66 313.62C544.25 304.28 545.24 245.93 545.24 245.93Z" fill="#67647E"/>
<path opacity="0.1" d="M498.69 309.38C498.69 309.38 489.91 330.88 487.08 332.3C484.25 333.72 487.65 339.37 487.65 339.37C487.65 339.37 503.64 317.02 498.69 309.38Z" fill="black"/>
<path opacity="0.1" d="M493.45 233.96C493.55 233.55 482.98 244.33 480.15 245.96C477.32 247.59 490.48 245.86 493.45 233.96Z" fill="black"/>
<path opacity="0.1" d="M464.02 307.68C464.02 307.68 447.89 318.11 450.02 322.24C452.15 326.37 464.02 307.68 464.02 307.68Z" fill="black"/>
<path opacity="0.1" d="M493.31 459.93C493.31 459.93 507.04 468.76 528.4 470.93L493.31 459.93Z" fill="black"/>
<path opacity="0.1" d="M460.34 481.16C460.34 481.16 473.07 497.16 478.88 497.57C484.69 497.98 460.34 481.16 460.34 481.16Z" fill="black"/>
<path opacity="0.1" d="M478.17 543.86C477.6 544.14 470.95 558.29 464.17 558.72C457.39 559.15 478.17 543.86 478.17 543.86Z" fill="black"/>
<path opacity="0.1" d="M537.17 574.86C537.17 574.86 549.79 572.03 552.6 581.08C552.6 581.05 551.75 578.22 537.17 574.86Z" fill="black"/>
<path opacity="0.1" d="M528.68 626.62C528.68 626.62 543.97 623.5 547.22 627.75C550.47 632 528.68 626.62 528.68 626.62Z" fill="black"/>
<path opacity="0.1" d="M485.43 633.86C485.43 634 469.87 636.98 470.43 638.96C470.99 640.94 487.03 640.66 487.6 637.54C487.702 637.156 487.727 636.755 487.672 636.361C487.618 635.968 487.486 635.588 487.285 635.246C487.083 634.904 486.815 634.605 486.496 634.367C486.178 634.129 485.815 633.957 485.43 633.86Z" fill="black"/>
<path opacity="0.1" d="M523.59 647.28C523.59 647.28 549.16 644.16 547.59 649.54C546.02 654.92 523.59 647.28 523.59 647.28Z" fill="black"/>
<path opacity="0.1" d="M389.73 332.3C389.87 332.72 406.57 334.99 408.83 340.37C408.83 340.37 392.42 332.72 389.83 332.72" fill="black"/>
<path opacity="0.1" d="M413.22 376.02C413.22 376.02 399.35 380.41 400.34 387.02C401.33 393.63 398.93 383.96 413.22 376.02Z" fill="black"/>
<path opacity="0.1" d="M406.76 409.7C406.76 409.7 411.81 402.77 416.62 404.04C421.43 405.31 406.76 409.7 406.76 409.7Z" fill="black"/>
<path opacity="0.1" d="M485.96 148.49C485.474 148.961 484.93 149.368 484.34 149.7C480.34 152.03 479.24 155.62 477.34 159.76C475.57 163.55 473.62 167.56 470.05 169.71C465.44 172.49 459.37 171.47 454.58 173.89C452.454 174.997 450.708 176.716 449.567 178.824C448.426 180.933 447.943 183.334 448.18 185.72C448.484 187.561 448.939 189.374 449.54 191.14C450.629 194.965 451.122 198.935 451 202.91C451.01 203.026 451.01 203.144 451 203.26C446.902 201.212 443.28 198.326 440.369 194.788C437.459 191.25 435.324 187.14 434.105 182.724C432.886 178.308 432.608 173.685 433.291 169.155C433.974 164.625 435.602 160.289 438.069 156.428C440.536 152.568 443.787 149.269 447.611 146.747C451.435 144.224 455.747 142.533 460.267 141.785C464.786 141.036 469.413 141.246 473.846 142.402C478.279 143.557 482.42 145.631 486 148.49H485.96Z" fill="black"/>
<path d="M485.11 138.65C481.52 131.11 473.71 126.33 465.68 124C459.55 122.23 452.89 121.65 446.81 123.6C443.34 124.7 440.19 126.6 436.94 128.23C430.88 131.29 424.22 133.71 419.66 138.74C418.59 139.91 417.66 141.41 417.93 142.96C418.16 144.11 419.06 144.96 419.64 146.02C420.95 148.32 420.64 151.21 419.73 153.71C418.82 156.21 417.53 158.53 416.91 161.1C416.29 163.67 416.53 166.68 418.43 168.51C419.28 169.32 420.37 169.83 421.29 170.51C422.33 171.408 423.241 172.444 424 173.59L429.4 180.97C431.937 184.24 434.198 187.716 436.16 191.36C437.5 194.04 438.54 196.9 440.34 199.29C442.14 201.68 444.94 203.6 447.92 203.34C448.151 203.346 448.379 203.297 448.588 203.198C448.796 203.099 448.979 202.953 449.12 202.77C449.231 202.536 449.282 202.279 449.27 202.02C449.402 198.06 448.919 194.103 447.84 190.29C447.238 188.524 446.783 186.711 446.48 184.87C446.25 182.485 446.736 180.086 447.876 177.979C449.016 175.872 450.758 174.152 452.88 173.04C457.68 170.62 463.75 171.64 468.35 168.87C471.93 166.71 473.88 162.7 475.64 158.87C477.57 154.73 478.64 151.14 482.64 148.81C486.64 146.48 487.1 142.62 485.11 138.65Z" fill="#585268"/>
<path opacity="0.1" d="M470.47 672.92C470.47 672.92 475.47 679.29 474.17 682.92C472.87 686.55 470.47 672.92 470.47 672.92Z" fill="black"/>
<path opacity="0.1" d="M538.12 688.86C538.12 688.86 539.23 680.32 543.68 680.24C548.13 680.16 548.35 679.78 551.75 681.09C555.15 682.4 558.34 684.43 557.32 684.73C556.3 685.03 551.47 679.85 546.51 682.5C543.415 684.194 540.587 686.337 538.12 688.86V688.86Z" fill="black"/>
<path opacity="0.1" d="M455.55 235.74L469.55 225.93C469.55 225.93 449.07 213.83 446.63 215.53C444.19 217.23 442.51 232.53 442.51 232.53L455.55 235.74Z" fill="black"/>
<path d="M455.49 235.11L469.49 225.11C469.49 225.11 449.01 213.01 446.57 214.71C444.13 216.41 442.45 232.55 442.45 232.55L455.49 235.11Z" fill="#E1E7EF"/>
<path d="M455.49 235.11L469.49 225.11C469.49 225.11 449.01 213.01 446.57 214.71C444.13 216.41 442.45 232.55 442.45 232.55L455.49 235.11Z" fill="#7B74E0"/>
<path d="M448.89 214.79L448.47 214.58C447.845 214.261 447.142 214.131 446.444 214.203C445.747 214.276 445.085 214.549 444.54 214.99L402.54 249.06C402.54 249.06 393.41 261.69 394.68 283.48L419.45 318.57C419.45 318.57 422.28 306.69 425.67 308.95C425.67 308.95 430.48 369.8 425.67 378.57C420.86 387.34 418.74 420.17 418.74 420.17L435.01 422.01C435.01 422.01 436.71 399.79 440.53 391.87C444.35 383.95 446.43 356.72 446.43 356.72C446.43 356.72 449.87 317.16 449.3 300.18C448.73 283.2 443.78 246.69 443.78 246.69C443.78 246.69 445.17 225.29 448.89 214.79Z" fill="#67647E"/>
<path opacity="0.1" d="M490.73 229.54L473.28 223.08C473.28 223.08 495.5 198.74 498.28 212.24L490.73 229.54Z" fill="black"/>
<path d="M490.73 228.69L473.28 222.23C473.28 222.23 495.5 197.89 498.28 211.39L490.73 228.69Z" fill="#E1E7EF"/>
<path d="M490.73 228.69L473.28 222.23C473.28 222.23 495.5 197.89 498.28 211.39L490.73 228.69Z" fill="#7B74E0"/>
<path opacity="0.1" d="M490.16 207.98C490.412 207.94 490.669 207.997 490.88 208.14L490.16 207.98Z" fill="black"/>
<path d="M491.84 206.29L538.14 216.29C538.14 216.29 550.88 219.12 560.08 251.1C569.28 283.08 547.48 322.26 547.48 322.26L542.67 318.17L545.08 411.56C545.08 411.56 523.71 419.62 516.92 412.56C510.13 405.5 510.84 372.34 510.84 372.34C510.84 372.34 504.33 311.22 500.22 301.17C496.11 291.12 498.22 218.68 498.22 218.68C498.22 218.68 494.44 205.73 491.84 206.29Z" fill="#67647E"/>
<path opacity="0.1" d="M534.2 265.8C533.55 266.4 532.79 294.66 535.62 316.17C537.35 329.269 540.024 342.226 543.62 354.94L539.42 268.77C539.42 268.77 536.18 263.96 534.2 265.8Z" fill="black"/>
<path opacity="0.1" d="M528.54 241.46C529.67 242.17 534.63 253.91 532.36 258.72C530.09 263.53 528.54 241.46 528.54 241.46Z" fill="black"/>
<path opacity="0.1" d="M484.84 138.65C482.567 134.174 479.026 130.467 474.66 127.99C477.907 130.315 480.528 133.407 482.29 136.99C484.29 140.99 483.7 144.99 479.81 147.18C475.92 149.37 474.71 153.1 472.81 157.24C471.04 161.03 469.09 165.04 465.51 167.24C460.91 170.02 454.84 168.99 450.04 171.41C447.919 172.526 446.178 174.248 445.038 176.356C443.899 178.464 443.412 180.864 443.64 183.25C443.948 185.088 444.406 186.897 445.01 188.66C446.099 192.485 446.591 196.455 446.47 200.43C446.479 200.689 446.424 200.947 446.31 201.18C446.172 201.364 445.992 201.511 445.785 201.61C445.577 201.71 445.349 201.758 445.12 201.75C443.92 201.842 442.716 201.618 441.63 201.1C442.417 201.88 443.355 202.492 444.387 202.896C445.419 203.3 446.522 203.488 447.63 203.45C447.81 203.476 447.994 203.46 448.167 203.404C448.34 203.347 448.498 203.251 448.628 203.123C448.758 202.995 448.856 202.839 448.915 202.667C448.975 202.494 448.993 202.311 448.97 202.13C449.099 198.155 448.61 194.184 447.52 190.36C446.91 188.596 446.452 186.782 446.15 184.94C445.92 182.555 446.406 180.156 447.546 178.049C448.686 175.942 450.428 174.222 452.55 173.11C457.35 170.69 463.42 171.71 468.02 168.94C471.6 166.78 473.55 162.77 475.31 158.94C477.24 154.8 478.31 151.21 482.31 148.88C486.31 146.55 486.84 142.62 484.84 138.65Z" fill="black"/>
<path d="M932.71 332.04C911.54 319.86 903.54 316.86 903.5 316.86L903.06 316.55C900.754 314.778 898.923 312.462 897.73 309.81C897.705 309.327 897.705 308.843 897.73 308.36C897.725 308.407 897.725 308.454 897.73 308.5C898.06 302.05 902.65 296.18 907 291.06L918.13 277.97C919.395 276.675 920.372 275.128 921 273.43C921.225 272.518 921.326 271.579 921.3 270.64C921.3 270.26 921.3 269.88 921.3 269.5C921.24 266.25 921.15 262.99 921.03 259.74C920.93 256.9 920.2 253.32 917.36 252.74C915.88 252.44 913.92 252.97 913.14 251.74C912.875 251.218 912.808 250.618 912.95 250.05C912.944 250.096 912.944 250.143 912.95 250.19V250.03C913.5 247.836 913.852 245.597 914 243.34C914.062 242.191 913.906 241.041 913.54 239.95C911.9 235.24 906.23 233.3 901.22 232.41C896.21 231.52 890.59 230.76 887.45 226.84C886.609 225.532 885.695 224.273 884.71 223.07C883.261 221.783 881.493 220.909 879.59 220.54C873.371 219.008 866.821 219.578 860.96 222.16C858.54 223.24 856.11 224.7 853.45 224.54C850.79 224.38 848.33 222.46 845.61 222C841.21 221.25 837 224.48 834.83 228.31C833.545 230.581 832.857 233.141 832.83 235.75V236.19C832.767 238.997 833.792 241.721 835.69 243.79C837.59 245.79 840.41 247.11 841.2 249.7C841.52 250.75 841.44 251.89 841.73 252.96C841.761 253.093 841.801 253.223 841.85 253.35L841.71 253.54C837.17 259.348 834.706 266.508 834.71 273.88C834.759 281.04 837.084 287.999 841.348 293.751C845.611 299.503 851.594 303.751 858.43 305.88C858.43 306.21 858.43 306.54 858.43 306.88C858.43 310.88 857.28 315.05 853.83 318.08L823.84 330.06C823.84 330.06 805.76 327.91 799.24 354.33C798.198 358.715 797.821 363.232 798.12 367.73C798.36 371.73 797.81 378.73 793.12 387.8C785.71 402.32 787.4 435.65 802.56 438.95C816.87 442.07 822.47 440.77 823.06 440.62V441.2C822.82 447.46 820.55 501.4 812.3 507.92C810.02 509.73 810.44 510.92 812.3 511.77C812.3 511.77 812.3 512.12 812.25 512.77C812 516.77 810.73 531.77 805.25 540.29C798.84 550.19 799.51 607.29 799.51 607.29L795.14 640.95C795.14 640.95 797.83 661.74 795.14 665.37C792.73 668.6 789.53 745.51 788.86 762.19H788.58C787.255 762.276 785.972 762.686 784.842 763.383C783.712 764.081 782.771 765.044 782.1 766.19C778.56 771.94 766.16 782.57 766.16 782.57C763.47 786.39 753.52 790.05 748.26 791.77C747.566 791.997 746.896 792.292 746.26 792.65C744.291 793.722 742.709 795.388 741.74 797.41C741.393 798.009 741.172 798.673 741.089 799.361C741.007 800.048 741.065 800.746 741.26 801.41C742.6 804.7 770.57 807.02 777.65 803.71C783.21 801.12 805.25 797.71 814.4 796.37C816.062 796.161 817.606 795.405 818.791 794.221C819.975 793.036 820.731 791.492 820.94 789.83C821.027 789.256 820.998 788.671 820.853 788.109C820.709 787.547 820.453 787.02 820.1 786.56C818.35 784.39 817.46 778.46 817.1 774.56C817.843 774.258 818.537 773.846 819.16 773.34C818.395 761.352 820.097 749.334 824.16 738.03C830.9 720.21 832.92 687.21 831.24 665.76C831.24 665.76 851.79 577.32 867.97 569.07C868.22 569.39 876.07 579.46 877.07 610.65C878.07 642.33 889.53 663.12 889.53 663.12C889.53 663.12 884.47 716.91 889.53 737.04L882.92 768.79C882.43 768.38 882.12 768.06 882.12 768.06C882.12 768.06 882.32 768.94 882.59 770.35L882.45 771.03L882.74 771.09C883.49 775.09 884.6 781.98 884.14 786.09C883.88 788.4 883.23 791.57 882.79 794.68C882.09 799.57 881.9 804.31 884.47 805.35C888.69 807.05 913.47 809.35 917.67 803.91C918.615 802.801 919.23 801.45 919.446 800.01C919.662 798.569 919.469 797.097 918.89 795.76C918.587 795.011 918.176 794.31 917.67 793.68C917.67 793.68 911.09 782.93 912.95 775.35C913.122 774.609 913.14 773.841 913.004 773.093C912.868 772.345 912.581 771.633 912.16 771C912.45 767.28 913.95 750.06 917.83 735.44C922.05 719.56 930.94 684.74 924.4 661.85C924.153 660.95 923.873 660.07 923.56 659.21C919.785 646.711 918.524 633.589 919.85 620.6C917.422 609.511 917.422 598.029 919.85 586.94C923.9 568.46 926.73 550.31 926.73 550.31C926.73 550.31 928.96 525.89 927.01 510.92C927.01 510.6 926.92 510.28 926.88 509.92L927.94 509.68C927.94 509.68 922.21 484.27 920.19 468.1C919.71 464.28 919.09 459.45 918.41 454.29C920.274 453.981 922.11 453.523 923.9 452.92C942.09 446.65 947.82 389.92 947.82 389.92V371.92C947.82 371.92 953.94 344.25 932.71 332.04ZM797.15 770.28C796.59 770 796.26 769.81 796.26 769.81L797.15 770.28Z" fill="url(#paint2_linear)"/>
<path d="M921.73 659.57C929.62 682.26 920.41 719.09 916.13 735.57C911.85 752.05 910.54 771.75 910.54 771.75C893.77 774.38 881.6 771.09 881.6 771.09L888.51 737.22C883.57 717.16 888.51 663.55 888.51 663.55C888.51 663.55 877.33 642.83 876.34 611.26C875.34 580.19 867.71 570.14 867.47 569.83C851.69 578.05 831.63 666.19 831.63 666.19C833.27 687.56 831.29 720.45 824.72 738.19C820.729 749.466 819.053 761.431 819.79 773.37C817.49 775.37 814.29 775.65 810.79 775.09C801.4 773.57 790.14 765.48 790.14 765.48C790.14 765.48 793.75 669.48 796.39 665.84C799.03 662.2 796.39 641.5 796.39 641.5L800.66 607.96C800.66 607.96 800 551.06 806.25 541.2C811.65 532.68 812.89 517.7 813.13 513.77C813.13 513.15 813.13 512.77 813.13 512.77L822.65 501.37C822.65 501.37 914.73 494.46 921.65 501.37C923.34 503.06 924.39 506.92 925.01 511.77C926.91 526.69 924.73 551.02 924.73 551.02C924.73 551.02 921.97 569.11 918.02 587.52C915.652 598.578 915.652 610.012 918.02 621.07C916.751 634.023 918.011 647.098 921.73 659.57V659.57Z" fill="#65617D"/>
<path d="M915.97 803.77C911.86 809.2 887.69 806.9 883.57 805.21C881.06 804.21 881.25 799.44 881.93 794.57C882.36 791.48 882.99 788.32 883.25 786.02C883.9 780.1 881.25 768.09 881.25 768.09C881.25 768.09 886.67 773.85 887.98 768.09C888.56 765.57 890.58 764.28 892.68 763.63C895.498 762.777 898.529 762.965 901.22 764.16C905.49 766.02 912.61 769.97 911.34 775.31C909.53 782.86 915.94 793.58 915.94 793.58C916.437 794.205 916.841 794.899 917.14 795.64C917.71 796.972 917.903 798.435 917.696 799.869C917.49 801.303 916.893 802.653 915.97 803.77V803.77Z" fill="#A27772"/>
<path opacity="0.1" d="M915.97 803.77C911.86 809.2 887.69 806.9 883.57 805.21C881.06 804.21 881.25 799.44 881.93 794.57C884.53 795.79 888.93 796.8 896.3 796.12C898.018 795.957 899.745 795.903 901.47 795.96C906.705 796.196 911.949 796.089 917.17 795.64C917.736 796.975 917.924 798.439 917.712 799.874C917.5 801.308 916.898 802.656 915.97 803.77V803.77Z" fill="black"/>
<path opacity="0.1" d="M831.62 666.15C833.26 687.52 831.28 720.41 824.71 738.15C820.72 749.426 819.043 761.391 819.78 773.33C817.48 775.33 814.28 775.61 810.78 775.05C812.78 761.18 821.22 701.42 826.63 654.2C832.8 600.43 861.63 563.44 861.63 563.44L867.38 569.77C851.68 578.01 831.62 666.15 831.62 666.15Z" fill="black"/>
<path d="M906.1 320.51L902.1 340.24L882.43 373.29L858.18 362.93C858.18 362.93 825.18 328.4 845.93 323.47C848.41 322.936 850.753 321.894 852.81 320.41C856.88 317.34 858.16 312.88 858.18 308.51C858.026 303.62 856.89 298.812 854.84 294.37L897.26 281.05C895.528 286.624 894.519 292.398 894.26 298.23C893.93 309.79 898.26 315.48 901.75 318.23C903.038 319.265 904.516 320.039 906.1 320.51V320.51Z" fill="#FBBEBE"/>
<path opacity="0.1" d="M897.22 281.05C895.488 286.624 894.479 292.398 894.22 298.23C893.446 299.152 892.622 300.03 891.75 300.86C887.37 305.043 881.939 307.963 876.035 309.309C870.13 310.656 863.97 310.38 858.21 308.51C858.046 303.618 856.9 298.81 854.84 294.37L897.22 281.05Z" fill="black"/>
<path d="M902.09 275.62C902.092 282.256 900.126 288.744 896.441 294.262C892.756 299.781 887.516 304.082 881.386 306.623C875.256 309.164 868.51 309.83 862.001 308.537C855.492 307.243 849.513 304.049 844.82 299.357C840.127 294.665 836.931 288.687 835.636 282.179C834.34 275.671 835.004 268.924 837.543 262.793C840.082 256.662 844.382 251.422 849.9 247.735C855.417 244.048 861.904 242.08 868.54 242.08C872.951 242.059 877.323 242.912 881.402 244.59C885.481 246.268 889.188 248.737 892.307 251.856C895.427 254.974 897.898 258.68 899.577 262.759C901.256 266.838 902.11 271.209 902.09 275.62V275.62Z" fill="#FBBEBE"/>
<path opacity="0.1" d="M906.1 320.51L902.1 340.24L882.43 373.29L858.18 362.93C858.18 362.93 825.18 328.4 845.93 323.47C848.41 322.936 850.753 321.894 852.81 320.41C849.07 330.69 864.51 352.08 864.51 352.08C866.31 354.73 870.43 353.08 870.43 353.08C880.38 351.57 898.69 322.96 901.68 318.2C902.987 319.254 904.489 320.039 906.1 320.51Z" fill="black"/>
<path opacity="0.1" d="M925.09 511.79C919.25 513.12 886.94 520.27 874.69 518.48C861.21 516.48 835 515.2 835 515.2C835 515.2 818.31 516.1 813.17 513.75C813.17 513.13 813.17 512.75 813.17 512.75L822.69 501.35C822.69 501.35 914.77 494.44 921.69 501.35C923.42 503.08 924.47 506.94 925.09 511.79Z" fill="black"/>
<path d="M864.5 353.07C864.5 353.07 847.15 329.07 853.69 319.67L824.38 331.67C824.38 331.67 806.74 329.53 800.38 355.86C799.364 360.236 798.996 364.737 799.29 369.22C799.53 373.22 798.99 380.22 794.46 389.22C787.23 403.69 788.87 436.91 803.67 440.22C818.47 443.53 823.72 441.86 823.72 441.86C823.72 441.86 821.72 502.04 813.2 508.95C804.68 515.86 835 514.21 835 514.21C835 514.21 861.21 515.53 874.7 517.5C888.19 519.47 926 510.59 926 510.59C926 510.59 920.41 485.27 918.43 469.16C916.45 453.05 911.84 418.73 911.84 418.73L945.38 373.29C945.38 373.29 951.3 345.83 930.58 333.66C909.86 321.49 902.07 318.51 902.07 318.51C902.07 318.51 881.25 352.41 870.4 354.05C870.42 354.05 866.3 355.71 864.5 353.07Z" fill="#7B74E0"/>
<path opacity="0.1" d="M826.02 362.6C826.02 362.6 825.7 373.46 827.67 377.73C829.64 382 836.88 405.73 836.88 405.73H820.43C820.43 405.73 829.31 396.19 828.66 391.58C828.01 386.97 826.02 362.6 826.02 362.6Z" fill="black"/>
<path d="M874.7 444.49C874.7 444.49 838.38 435.61 835 428.05C831.62 420.49 822.29 403.56 822.29 403.56L826.12 398.4L843.78 412.26C843.78 412.26 864.78 429.03 874.7 430.68C884.62 432.33 874.7 444.49 874.7 444.49Z" fill="#FBBEBE"/>
<path opacity="0.05" d="M874.7 444.49C874.7 444.49 838.38 435.61 835 428.05C831.62 420.49 822.29 403.56 822.29 403.56L826.12 398.4L843.78 412.26C843.78 412.26 864.78 429.03 874.7 430.68C884.62 432.33 874.7 444.49 874.7 444.49Z" fill="black"/>
<path d="M906.1 401.74V421.44H902.94C887.292 421.437 871.901 425.422 858.22 433.02L852.28 436.31L850.69 437.2L840.49 414.2L850.03 405.65H850.52C852.85 405.88 862.94 406.72 867.22 405.28C871.28 403.9 876.32 399.53 888.28 402.58C894.17 404.09 899.21 410.69 904.92 408.63L906.1 401.74Z" fill="#FBBEBE"/>
<path opacity="0.1" d="M937.84 365.86L944.41 373.26V391.19C944.41 391.19 938.82 447.75 921.07 454C903.32 460.25 871.61 450.38 871.61 450.38C871.61 450.38 863.42 428.68 867.25 427.38C871.08 426.08 901.1 418.14 901.1 418.14C901.1 418.14 900.68 384.96 907.25 375.09C907.25 375.09 902.98 344.18 917.78 343.52C932.58 342.86 937.84 365.86 937.84 365.86Z" fill="black"/>
<path d="M938.84 365.86L945.42 373.26V391.19C945.42 391.19 939.83 447.75 922.07 454C904.31 460.25 872.61 450.38 872.61 450.38C872.61 450.38 864.42 428.68 868.26 427.38C872.1 426.08 902.11 418.14 902.11 418.14C902.11 418.14 901.68 384.96 908.26 375.09C908.26 375.09 903.98 344.18 918.78 343.52C933.58 342.86 938.84 365.86 938.84 365.86Z" fill="#7B74E0"/>
<path opacity="0.1" d="M892.89 289.86C893.173 287.694 892.916 285.492 892.14 283.45C891.21 281.45 889.04 279.94 886.92 280.45C884.11 281.11 882.92 284.77 880.14 285.65C877.81 286.39 875.27 284.74 874.14 282.57C873.01 280.4 873 277.85 873 275.41C873 272.67 873 269.92 873 267.17C873 264.17 872.9 260.95 871.06 258.6C868.77 255.68 863.38 254.4 859.78 254.52C857.385 254.547 855.087 255.471 853.34 257.11C851.42 258.75 849.19 259.95 846.57 259.52C845.478 259.357 844.454 258.887 843.618 258.164C842.783 257.442 842.17 256.497 841.85 255.44V255.34C844.64 251.63 848.17 248.54 852.216 246.265C856.262 243.991 860.736 242.58 865.355 242.124C869.975 241.667 874.638 242.174 879.051 243.613C883.464 245.052 887.531 247.391 890.993 250.483C894.455 253.574 897.238 257.351 899.166 261.573C901.093 265.796 902.123 270.373 902.191 275.014C902.258 279.655 901.362 284.26 899.557 288.537C897.753 292.813 895.081 296.669 891.71 299.86C892.289 296.551 892.683 293.213 892.89 289.86V289.86Z" fill="black"/>
<path d="M846.57 258.55C845.477 258.382 844.453 257.909 843.616 257.186C842.78 256.462 842.164 255.518 841.84 254.46C841.57 253.4 841.64 252.27 841.33 251.22C840.56 248.63 837.8 247.29 835.95 245.32C832.25 241.39 832.49 234.93 835.11 230.2C837.23 226.39 841.33 223.2 845.63 223.92C848.29 224.38 850.63 226.27 853.29 226.45C855.95 226.63 858.29 225.16 860.62 224.08C866.333 221.486 872.759 220.915 878.84 222.46C880.705 222.835 882.433 223.709 883.84 224.99C884.795 226.192 885.687 227.444 886.51 228.74C889.57 232.64 895.06 233.41 899.95 234.29C904.84 235.17 910.37 237.11 911.95 241.81C913.02 244.93 911.95 248.31 911.37 251.55C911.178 252.211 911.224 252.919 911.5 253.55C912.27 254.81 914.18 254.28 915.62 254.55C918.39 255.14 919.1 258.71 919.21 261.55C919.323 264.79 919.41 268.033 919.47 271.28C919.55 272.488 919.452 273.701 919.18 274.88C918.58 276.57 917.629 278.114 916.39 279.41L905.53 292.46C900.71 298.24 895.6 304.98 896.53 312.46C894.25 313.46 891.53 311.51 890.79 309.12C890.05 306.73 890.64 304.12 891.15 301.71C892.035 297.474 892.617 293.179 892.89 288.86C893.174 286.697 892.916 284.498 892.14 282.46C891.21 280.46 889.04 278.95 886.92 279.46C884.1 280.12 882.92 283.78 880.14 284.66C877.81 285.4 875.27 283.75 874.14 281.58C873.01 279.41 873 276.87 873 274.43V266.18C873 263.18 872.9 259.96 871.06 257.61C868.77 254.69 863.38 253.41 859.78 253.53C857.388 253.559 855.095 254.483 853.35 256.12C851.42 257.77 849.19 258.98 846.57 258.55Z" fill="#7C5C5C"/>
<path opacity="0.1" d="M854.14 361.78L864.44 404.09C864.44 404.09 872.56 404.04 854.14 361.78Z" fill="black"/>
<path opacity="0.1" d="M889.33 354.71C889.33 354.71 875.85 376.79 881.11 399.63L883.62 399.81C883.62 399.81 879.14 389.24 889.33 354.71Z" fill="black"/>
<path opacity="0.1" d="M897.84 479.68C897.84 479.68 914.4 474.2 915.6 486.91C915.64 486.91 912.52 478.2 897.84 479.68Z" fill="black"/>
<path opacity="0.1" d="M850.03 406.67C850.03 406.67 846.74 429.67 852.66 438.9C852.66 438.9 840.66 443.83 823.72 442.85L821.72 406.67H850.03Z" fill="black"/>
<path opacity="0.1" d="M852.28 436.31L850.69 437.2L840.49 414.2L850.03 405.65H850.52C850.37 406.79 847.71 426.56 852.28 436.31Z" fill="black"/>
<path d="M850.03 405.69C850.03 405.69 846.74 428.69 852.66 437.91C852.66 437.91 840.66 442.85 823.72 441.86L812.21 405.69H850.03Z" fill="#7B74E0"/>
<path d="M821.59 789.77C821.399 791.412 820.667 792.943 819.511 794.123C818.354 795.304 816.837 796.066 815.2 796.29C806.27 797.62 784.76 801.02 779.33 803.61C772.42 806.9 745.13 804.61 743.81 801.31C743.619 800.645 743.563 799.95 743.644 799.263C743.724 798.576 743.941 797.912 744.28 797.31C745.216 795.307 746.759 793.648 748.69 792.57C749.328 792.215 749.997 791.92 750.69 791.69C755.83 789.98 765.54 786.34 768.16 782.52C768.16 782.52 780.27 771.93 783.72 766.21C784.368 765.084 785.284 764.136 786.386 763.449C787.489 762.761 788.744 762.356 790.04 762.27C792.92 762.14 796.13 763.59 797.45 769.9C797.45 769.9 813.22 778.9 817.45 771.01C817.45 771.01 818.11 783.13 820.73 786.45C821.088 786.918 821.349 787.453 821.497 788.023C821.644 788.593 821.676 789.187 821.59 789.77V789.77Z" fill="#A27772"/>
<path opacity="0.1" d="M821.59 789.77C821.399 791.412 820.667 792.943 819.511 794.123C818.354 795.304 816.837 796.066 815.2 796.29C806.27 797.62 784.76 801.02 779.33 803.61C772.42 806.9 745.13 804.61 743.81 801.31C743.619 800.645 743.563 799.95 743.644 799.263C743.724 798.576 743.941 797.912 744.28 797.31C745.216 795.307 746.759 793.648 748.69 792.57C753.14 795.57 763.02 798.41 784.75 795.02C805.48 791.78 815.75 788.61 820.75 786.45C821.105 786.919 821.362 787.455 821.506 788.025C821.65 788.595 821.679 789.189 821.59 789.77V789.77Z" fill="black"/>
<g opacity="0.1">
<path opacity="0.1" d="M911.32 252.01V251.85C911.79 249.39 912.5 246.85 912.32 244.38C912.11 246.399 911.776 248.402 911.32 250.38C911.197 250.916 911.197 251.474 911.32 252.01V252.01Z" fill="black"/>
<path opacity="0.1" d="M892.13 282.79C892.653 283.975 892.929 285.255 892.94 286.55C893.088 284.764 892.81 282.968 892.13 281.31C891.21 279.31 889.04 277.8 886.92 278.31C884.1 278.97 882.92 282.63 880.13 283.51C877.81 284.25 875.27 282.6 874.13 280.43C872.99 278.26 872.99 275.71 872.99 273.27C872.99 270.52 872.99 267.78 872.99 265.03C872.99 262.03 872.89 258.81 871.05 256.46C868.75 253.53 863.37 252.26 859.77 252.37C857.373 252.401 855.076 253.328 853.33 254.97C851.4 256.61 849.18 257.81 846.55 257.38C845.459 257.213 844.437 256.742 843.602 256.02C842.767 255.299 842.152 254.356 841.83 253.3C841.56 252.24 841.63 251.1 841.32 250.05C840.55 247.47 837.79 246.12 835.94 244.16C834.204 242.236 833.221 239.751 833.17 237.16C833.034 238.68 833.209 240.211 833.685 241.661C834.161 243.11 834.929 244.447 835.94 245.59C837.79 247.59 840.55 248.9 841.32 251.48C841.63 252.48 841.56 253.67 841.83 254.73C842.152 255.786 842.767 256.729 843.602 257.45C844.437 258.172 845.459 258.643 846.55 258.81C849.18 259.24 851.4 258.04 853.33 256.4C855.076 254.758 857.373 253.831 859.77 253.8C863.37 253.69 868.77 254.96 871.05 257.89C872.89 260.24 872.98 263.47 872.99 266.46C872.99 269.21 872.99 271.95 872.99 274.7C872.99 277.14 872.99 279.7 874.13 281.85C875.27 284 877.78 285.68 880.13 284.94C882.89 284.06 884.13 280.4 886.92 279.74C889.04 279.28 891.21 280.86 892.13 282.79Z" fill="black"/>
<path opacity="0.1" d="M919.16 273.74C918.558 275.428 917.603 276.969 916.36 278.26L905.5 291.31C900.93 296.8 896.1 303.16 896.5 310.17C896.83 303.74 901.31 297.89 905.5 292.79L916.36 279.74C917.603 278.449 918.558 276.908 919.16 275.22C919.432 274.037 919.529 272.821 919.45 271.61C919.434 272.329 919.337 273.043 919.16 273.74V273.74Z" fill="black"/>
<path opacity="0.1" d="M890.84 307.97C890.661 307.398 890.551 306.808 890.51 306.21C890.419 307.301 890.531 308.4 890.84 309.45C891.58 311.83 894.29 313.8 896.58 312.78C896.515 312.302 896.475 311.822 896.46 311.34C894.18 312.25 891.54 310.31 890.84 307.97Z" fill="black"/>
</g>
<path opacity="0.1" d="M781.53 769.22C781.53 769.22 784.97 775.22 797.43 769.94Z" fill="black"/>
<path opacity="0.1" d="M886.84 770.68C886.84 770.68 897.58 783.33 911.12 774.83Z" fill="black"/>
<path opacity="0.1" d="M918.1 621.09C918.1 621.09 910.51 625.83 910.27 628.54C910.03 631.25 914.19 626.54 914.19 626.54L918.1 621.09Z" fill="black"/>
<path opacity="0.1" d="M921.1 657.45C918.46 659.646 915.18 660.927 911.75 661.1C906.07 661.35 906.55 668.75 910.26 666.53C913.97 664.31 921.1 657.45 921.1 657.45Z" fill="black"/>
<path opacity="0.1" d="M922.54 662.2C922.54 662.2 918.9 680.09 915.94 676.64Z" fill="black"/>
<path d="M79.32 796.28C79.32 796.28 102.17 802.55 113.17 794.21C124.17 785.87 128.94 788.55 128.94 788.55C128.94 788.55 155.17 787.1 157.33 780.9C159.49 774.7 147.27 752.18 147.27 752.18C146.4 750.18 145.13 747.64 144.56 747.64L144.68 738.14L148.48 698.39C157.25 675.9 148.64 646.84 148.64 646.84L147.07 639.63C146.188 635.577 146.713 631.344 148.56 627.63L164.49 595.63C165.342 593.515 166.345 591.463 167.49 589.49C168.49 587.66 169.82 585.4 171.49 582.69C171.98 581.91 172.49 581.1 173.05 580.25C174.98 577.25 177.32 573.85 180.15 569.93C187.2 560.16 190.91 547.93 192.83 538.93L193.68 541.75H193.73H193.87L194.1 541.8H194.42H194.48L194.89 541.87H195.04L199.94 604.23C200.24 628.55 209.17 642.01 209.17 642.01L207.94 695.7C209.62 708.63 205.94 725.87 204.25 732.75L200.39 741.46C198.87 742.219 197.558 743.337 196.567 744.717C195.575 746.097 194.935 747.697 194.7 749.38C193.94 755.81 187.17 769.67 187.17 769.67C184.55 772.99 178.86 781.96 178.86 781.96C178.86 781.96 176.18 790.62 177.84 793.86C179.5 797.1 193.38 796.77 193.38 796.77C209.23 800.28 221.38 791.77 220.61 785.91C219.84 780.05 223.08 778.56 223.08 778.56C229.38 776.56 228.77 772.29 228.77 772.29C230.126 763.482 228.444 754.475 224 746.75L223 749.06C222.73 744.436 223.375 739.804 224.9 735.43L224.32 735.83L224.14 735.94H224.08C225.08 727.17 234.29 710.94 234.29 710.94C251.21 681.26 245.06 641.04 245.06 641.04L242.44 628.5L242.29 623.77C241.932 612.478 242.787 601.18 244.84 590.07C245.75 585.15 246.69 579.21 247.41 572.66C248.93 558.82 253.83 544.54 256.09 538.49L256.76 538.37H256.84C257.76 538.21 258.69 538.05 259.63 537.87H259.81C259.81 537.87 260.35 534.95 260.81 529.98C261.08 526.81 261.3 522.79 261.3 518.17C261.368 504.22 259.238 490.347 254.99 477.06L255.5 476.33C255.5 476.33 256.71 474.69 258.92 471.85C262.98 466.69 269.3 458.85 277.09 450.01C291.04 434.1 286.94 418.01 286.94 418.01C286.94 418.01 276.84 381 272.34 358.78C269.77 346.12 264.95 337.51 261.26 332.43C262.092 328.927 262.561 325.349 262.66 321.75C262.96 315.17 262.73 308.31 259.77 302.4C256.81 296.49 250.51 291.82 243.93 292.61C242.997 292.835 242.023 292.835 241.09 292.61C240.321 292.261 239.671 291.694 239.22 290.98C235.37 285.67 235.12 278.53 236.32 272.09C237.52 265.65 239.98 259.49 241.08 253.03C242.18 246.57 241.68 239.4 237.57 234.28C232.74 228.28 224.32 226.59 218.04 222.08C213.63 218.91 210.32 214.36 205.67 211.55C201.02 208.74 196.67 209.81 191.62 210.87C183.13 212.66 175.06 213.48 167.03 217.13C158.899 220.812 151.606 226.117 145.6 232.72C143.468 234.848 141.835 237.424 140.82 240.26C138.82 246.87 142.73 253.91 141.91 260.75C141.33 265.6 138.47 269.82 136.2 274.15C133.93 278.48 132.2 283.62 133.98 288.15C136.78 295.23 145.91 296.73 152.55 300.5C153.437 300.934 154.196 301.593 154.75 302.41C156.39 305.27 153.04 308.24 150.93 310.78C149.722 312.262 148.867 313.999 148.43 315.86C145.681 316.988 143.252 318.775 141.357 321.063C139.461 323.351 138.157 326.07 137.56 328.98C135.31 339.05 138.77 351.76 141.82 360.16C138.49 378.87 142.82 386.25 146.01 389.08C149.239 391.846 151.239 395.781 151.57 400.02V400.37C151.78 403.77 152.14 407.16 152.62 410.54C152.51 409.75 152.4 408.91 152.34 408.54C149.73 413.37 144.76 425.71 141.96 446.47C141.377 450.919 140.533 455.33 139.43 459.68C137.427 467.383 136.711 475.364 137.31 483.3L137.81 490.03C137.318 490.042 136.837 489.883 136.45 489.58L139.96 496.01V506.86C139.956 511.753 139.054 516.603 137.3 521.17C137.05 521.83 136.78 522.49 136.49 523.17C135.588 524.996 135.181 527.027 135.31 529.06C127.76 540.63 110.45 605.47 110.45 605.47C101.06 626.73 111.22 640.47 111.22 640.47C111.22 640.47 116.14 699.66 117.06 702.72C117.98 705.78 120.02 741.86 120.02 741.86C120.02 742.81 120.02 743.8 120.02 744.73C119.474 744.492 118.899 744.327 118.31 744.24C110.08 743.78 107.85 756.78 107.85 756.78L91.01 772.86C91.01 772.86 83.32 771.56 72.01 780.05C60.7 788.54 79.32 796.28 79.32 796.28ZM247.47 454.19L247.42 454.01L246.96 454.28L246.77 454.39L246.68 454.45L238.92 427.06C236.843 419.717 236.647 411.969 238.35 404.53L244.35 378.25V371.93L263.42 422.75C264.64 429.6 253.31 446.19 247.47 454.19Z" fill="url(#paint3_linear)"/>
<path d="M255.84 536.86C255.84 536.86 248.14 555.59 246.18 573.56C245.47 580.04 244.55 585.9 243.65 590.76C241.652 601.731 240.828 612.884 241.19 624.03L241.34 628.7L243.84 641.07C243.84 641.07 249.84 680.8 233.27 710.07C233.27 710.07 223.45 727.6 223.15 735.9L216.5 738.47L203.06 734.7C203.06 734.7 209.55 711.43 207.44 695.12L208.65 642.12C208.65 642.12 199.92 628.86 199.62 604.86L194.49 539L255.84 536.86Z" fill="#FDC2CC"/>
<path d="M194.49 527.48C194.49 527.48 192.84 553.16 180.14 570.86C167.44 588.56 164.74 596.24 164.74 596.24L149.1 627.86C147.289 631.524 146.771 635.694 147.63 639.69L149.17 646.81C149.17 646.81 157.63 675.51 149.02 697.72L144.94 740.62H121.08C121.08 740.62 119.08 704.97 118.21 701.95C117.34 698.93 112.47 640.47 112.47 640.47C112.47 640.47 102.47 626.87 111.71 605.88C111.71 605.88 132.56 527.33 138.14 528.69C143.72 530.05 194.49 527.48 194.49 527.48Z" fill="#FDC2CC"/>
<g opacity="0.1">
<path opacity="0.1" d="M146.75 646.86L145.22 639.74C144.337 635.729 144.852 631.537 146.68 627.86L162.32 596.21C162.32 596.21 165.03 588.51 177.72 570.83C189.91 553.83 191.92 529.47 192.06 527.6L194.49 527.48C194.49 527.48 192.84 553.16 180.14 570.86C167.44 588.56 164.74 596.24 164.74 596.24L149.1 627.86C147.289 631.524 146.771 635.694 147.63 639.69L149.17 646.81C149.17 646.81 157.63 675.51 149.02 697.72L144.94 740.62H142.52L146.6 697.72C155.21 675.51 146.75 646.86 146.75 646.86Z" fill="black"/>
</g>
<path opacity="0.1" d="M220.77 735.93C221.07 727.63 230.89 710.1 230.89 710.1C247.51 680.8 241.46 641.1 241.46 641.1L238.9 628.72L238.75 624.05C238.388 612.904 239.212 601.751 241.21 590.78C242.1 585.92 243.02 580.06 243.73 573.58C245.62 556.28 252.83 538.28 253.36 536.96L255.84 536.86C255.84 536.86 248.14 555.59 246.18 573.56C245.47 580.04 244.55 585.9 243.65 590.76C241.652 601.731 240.828 612.884 241.19 624.03L241.34 628.7L243.84 641.07C243.84 641.07 249.84 680.8 233.27 710.07C233.27 710.07 223.45 727.6 223.15 735.9L216.5 738.47L215.1 738.08L220.77 735.93Z" fill="black"/>
<path d="M213.07 735.63C214.871 736.343 216.822 736.592 218.744 736.354C220.666 736.117 222.497 735.4 224.07 734.27C221.869 740.694 221.557 747.614 223.17 754.21C225.89 765.09 197.79 745.45 197.79 745.45L203.79 731.74C203.79 731.74 206.12 736.08 213.07 735.63Z" fill="#D39999"/>
<path opacity="0.1" d="M215.16 736.24C216.706 736.552 218.299 736.535 219.838 736.191C221.377 735.846 222.825 735.182 224.09 734.24C221.889 740.664 221.577 747.584 223.19 754.18C225.91 765.06 197.81 745.42 197.81 745.42L203.81 731.71C203.81 731.71 205.55 735.05 210.66 735.57C212.21 735.75 213.69 735.96 215.16 736.24Z" fill="black"/>
<path d="M149.32 481.5H161.06V414.89L152.25 413.31L149.32 481.5Z" fill="#FDC2CC"/>
<path opacity="0.05" d="M149.32 481.5H161.06V414.89L152.25 413.31L149.32 481.5Z" fill="black"/>
<path d="M206.42 740.77C206.42 740.77 213.82 740.31 217.14 746.96L221.22 750.13L223.22 745.45C227.561 753.099 229.189 761.99 227.84 770.68C227.84 770.68 228.44 774.9 222.25 776.87C222.25 776.87 219.08 778.38 219.83 784.12C220.58 789.86 208.66 798.32 193.1 794.84C193.1 794.84 179.5 795.15 177.84 791.97C176.18 788.79 178.9 780.34 178.9 780.34C178.9 780.34 184.49 771.48 187.05 768.21C187.05 768.21 193.7 754.51 194.46 748.21C195.22 741.91 202.49 737.29 206.42 740.77Z" fill="#7E5659"/>
<path d="M145.17 746.36L145.29 736.97C145.29 736.97 131.78 740.86 120.84 736.46C120.84 736.46 121.76 745.9 120.24 747.19C118.72 748.48 125.3 760.63 125.3 760.63L132.65 768.33L145.29 763.73L148.72 752.93C148.72 752.93 146.07 746.36 145.17 746.36Z" fill="#D39999"/>
<path opacity="0.1" d="M145.17 746.36L145.29 736.97C145.29 736.97 131.78 740.86 120.84 736.46C120.84 736.46 121.76 745.9 120.24 747.19C118.72 748.48 125.3 760.63 125.3 760.63L132.65 768.33L145.29 763.73L148.72 752.93C148.72 752.93 146.07 746.36 145.17 746.36Z" fill="black"/>
<path d="M119.41 742.96C119.41 742.96 126.59 743.79 125.68 752.96C124.77 762.13 126.06 752.96 126.06 752.96C126.06 752.96 133.69 756.05 136.41 760.36C139.13 764.67 144.04 756.51 144.41 754.17C144.78 751.83 147.84 750.86 147.84 750.86C147.84 750.86 159.84 773.11 157.72 779.23C155.6 785.35 129.84 786.76 129.84 786.76C129.84 786.76 125.15 784.12 114.35 792.35C103.55 800.58 81.1199 794.35 81.1199 794.35C81.1199 794.35 62.8399 786.72 73.9499 778.35C85.0599 769.98 92.5999 771.25 92.5999 771.25L109.14 755.31C109.14 755.31 111.33 742.5 119.41 742.96Z" fill="#7E5659"/>
<path d="M205.16 216.95C209.73 219.72 212.98 224.22 217.31 227.35C223.47 231.8 231.74 233.46 236.48 239.4C240.48 244.46 241 251.53 239.92 257.91C238.84 264.29 236.42 270.38 235.25 276.74C234.08 283.1 234.32 290.15 238.1 295.39C238.539 296.095 239.175 296.655 239.93 297C240.847 297.219 241.803 297.219 242.72 297C249.18 296.22 255.38 300.84 258.28 306.67C261.18 312.5 261.41 319.28 261.11 325.78C260.86 331.11 260.26 336.55 257.92 341.35C253.92 349.51 245.6 354.55 237.39 358.41C232.054 360.919 226.582 363.129 221 365.03C217.16 366.33 213.11 367.5 209.12 366.82C202.29 365.64 197.45 359.43 190.97 357C185.66 355 179.77 355.72 174.12 356.22C169.3 356.64 163.79 356.63 160.47 353.11C156.21 348.59 158.13 341.3 160.31 335.48C158.001 335.334 155.778 334.552 153.885 333.221C151.993 331.891 150.505 330.063 149.586 327.939C148.667 325.816 148.353 323.48 148.679 321.19C149.004 318.899 149.956 316.743 151.43 314.96C153.49 312.45 156.78 309.52 155.17 306.69C154.63 305.883 153.884 305.234 153.01 304.81C146.5 301.09 137.53 299.6 134.79 292.62C133.03 288.13 134.73 283.05 136.96 278.78C139.19 274.51 141.96 270.33 142.57 265.55C143.37 258.79 139.57 251.84 141.5 245.32C142.498 242.52 144.099 239.973 146.19 237.86C152.069 231.353 159.215 226.116 167.19 222.47C175.08 218.86 182.99 218.05 191.33 216.29C196.33 215.23 200.47 214.11 205.16 216.95Z" fill="#C9C55C"/>
<path d="M161.05 317.62C161.05 317.62 141.92 316.62 138.3 332.93C134.68 349.24 146.15 372.6 146.15 372.6L161.05 317.62Z" fill="#FDC2CC"/>
<path opacity="0.05" d="M161.05 317.62C161.05 317.62 141.92 316.62 138.3 332.93C134.68 349.24 146.15 372.6 146.15 372.6L161.05 317.62Z" fill="black"/>
<path d="M148.84 366.16L156.09 371.9L189.92 373.41L211.04 358.91L232.52 322.05C219.39 318.7 214.08 309.63 212.1 301.15C210.84 295.411 210.698 289.483 211.68 283.69C211.68 283.69 177.24 265.86 181.47 293.69C182.05 297.106 182.158 300.585 181.79 304.03C179.79 320.33 163.97 317.26 163.97 317.26L157.9 326.62L150.95 349.62L148.84 366.16Z" fill="#FDC2CC"/>
<path opacity="0.1" d="M181.5 293.65C182.08 297.066 182.188 300.545 181.82 303.99C186.679 306.21 192.036 307.116 197.354 306.617C202.673 306.119 207.768 304.234 212.13 301.15C210.871 295.411 210.728 289.483 211.71 283.69C211.71 283.69 177.27 265.86 181.5 293.65Z" fill="black"/>
<path d="M194.51 305.54C211.36 305.54 225.02 291.88 225.02 275.03C225.02 258.18 211.36 244.52 194.51 244.52C177.66 244.52 164 258.18 164 275.03C164 291.88 177.66 305.54 194.51 305.54Z" fill="#FDC2CC"/>
<path d="M172.93 360.34C173.67 360.34 174.4 360.45 175.13 360.52C179.13 360.92 195.84 361.82 205.36 350.45C216.01 337.73 230.19 322.02 230.77 321.38L245.2 325.74C245.2 325.74 233.78 321.68 226.2 342.92C224.537 347.375 224.362 352.249 225.701 356.812C227.041 361.375 229.823 365.381 233.63 368.23C236.433 370.261 239.661 371.629 243.07 372.23C243.075 372.238 243.077 372.246 243.077 372.255C243.077 372.264 243.075 372.272 243.07 372.28V381.6L237.17 407.6C235.494 414.947 235.686 422.597 237.73 429.85L246.73 461.66C245.37 462.6 189.53 500.58 152.23 474.35C152.37 473.21 156.98 435.88 153.78 417.61C152.958 412.938 152.401 408.224 152.11 403.49C152.11 403.37 152.11 403.26 152.11 403.14C151.78 398.96 149.815 395.079 146.64 392.34C143.28 389.34 138.73 381.34 143.23 360.2C144.367 354.964 146.043 349.861 148.23 344.97L160.74 316.7L172.27 316.93V317.01C171.27 318.25 157.9 334.95 156.45 345.71C155.03 355.94 153.28 359.08 172.93 360.34Z" fill="#B15A5A"/>
<path d="M254.91 330.71C254.91 330.71 266.19 340.38 270.62 362.33C275.05 384.28 284.92 420.74 284.92 420.74C284.92 420.74 288.92 436.65 275.25 452.36C261.58 468.07 252.49 480.36 252.49 480.36L243.49 493.62C241.955 495.88 239.653 497.508 237.01 498.2C232.91 499.28 226.61 500.06 221.15 497.07C219.163 495.959 217.655 494.154 216.917 492C216.179 489.847 216.262 487.496 217.15 485.4L219.15 480.77C219.15 480.77 200.62 492.45 199.01 486C197.4 479.55 220.56 473.11 220.56 473.11C220.56 473.11 239.69 469.89 243.56 460.83C243.56 460.83 264.1 434.44 262.49 425.38L242.65 372.21C242.65 372.21 217.84 368.93 226.3 341.06C234.76 313.19 254.91 330.71 254.91 330.71Z" fill="#FDC2CC"/>
<path d="M136.28 531.31C136.28 531.31 181.6 540.37 192.28 539.16L193.43 542.99C193.43 542.99 210.63 546.84 249.52 540.67C252.06 540.27 254.697 539.82 257.43 539.32L258.34 539.16C258.34 539.16 258.87 536.28 259.29 531.37C260.22 520.22 260.55 498.63 252.7 476.53L246.16 456.39C246.16 456.39 205.74 480.62 178.98 478.39C176.59 478.19 174.22 478 171.83 477.92C166.34 477.71 157.83 477.92 152.3 473.49L140.7 475.49V508.49C140.696 513.317 139.808 518.103 138.08 522.61C137.83 523.27 137.57 523.92 137.28 524.61C136.216 526.672 135.864 529.028 136.28 531.31Z" fill="#65617D"/>
<path opacity="0.1" d="M193.42 532.72V542.99C193.42 542.99 213.22 547.42 258.33 539.16C258.33 539.16 258.86 536.28 259.28 531.37C245.44 533.59 207.27 538.93 193.42 532.72Z" fill="black"/>
<path opacity="0.1" d="M136.28 531.31C136.28 531.31 181.6 540.37 192.28 539.16L193.43 542.99V532.72C188.27 534.86 151.43 525.98 138.08 522.65C137.83 523.31 137.57 523.96 137.28 524.65C136.225 526.7 135.873 529.04 136.28 531.31V531.31Z" fill="black"/>
<path d="M246.15 519.86L249.51 540.7C252.05 540.3 254.687 539.85 257.42 539.35C256.37 533.26 254.08 519.35 254.71 517.04L250.48 513.42L246.15 519.86Z" fill="#65617D"/>
<path opacity="0.1" d="M246.62 519.41L249.98 540.26C252.52 539.853 255.157 539.403 257.89 538.91C256.84 532.82 254.55 518.91 255.18 516.6L250.95 512.97L246.62 519.41Z" fill="black"/>
<g opacity="0.05">
<path opacity="0.05" d="M176.55 478.38C174.17 478.18 171.79 477.99 169.4 477.91C164.06 477.71 155.91 477.91 150.35 473.82L152.29 473.48C157.85 477.89 166.29 477.7 171.82 477.91C174.21 477.99 176.58 478.18 178.97 478.38C179.75 478.45 180.55 478.49 181.36 478.51C179.756 478.553 178.15 478.509 176.55 478.38V478.38Z" fill="black"/>
<path opacity="0.05" d="M247.09 540.67C249.63 540.27 252.267 539.823 255 539.33L255.92 539.16C255.92 539.16 256.45 536.28 256.86 531.37C257.8 520.22 258.13 498.63 250.27 476.53L244.11 457.53C245.42 456.79 246.11 456.36 246.11 456.36L252.65 476.5C260.5 498.6 260.17 520.19 259.24 531.34C258.82 536.25 258.29 539.13 258.29 539.13L257.38 539.3C254.654 539.793 252.017 540.24 249.47 540.64C231.3 543.52 217.88 544.22 208.72 544.14C221.579 543.945 234.405 542.785 247.09 540.67V540.67Z" fill="black"/>
<path opacity="0.05" d="M189.84 539.16V539.27H188.54C189.033 539.237 189.467 539.2 189.84 539.16Z" fill="black"/>
</g>
<path d="M251.78 523.75C252.724 523.75 253.49 522.174 253.49 520.23C253.49 518.286 252.724 516.71 251.78 516.71C250.835 516.71 250.07 518.286 250.07 520.23C250.07 522.174 250.835 523.75 251.78 523.75Z" fill="#D39999"/>
<path d="M142.64 448.95C145.4 428.45 150.27 416.27 152.84 411.5C152.94 412.15 153.2 414.26 153.32 414.91C153.84 417.91 153.38 421.69 153.54 425.5L150.98 471.86L154.41 486.36C157.63 497.84 145.7 488.77 145.7 488.77C143.23 494.21 138.7 493.61 138.7 493.61L138.08 485.29C137.492 477.452 138.195 469.571 140.16 461.96C141.244 457.676 142.072 453.332 142.64 448.95V448.95Z" fill="#FDC2CC"/>
<path opacity="0.05" d="M142.64 448.95C145.4 428.45 150.27 416.27 152.84 411.5C152.94 412.15 153.2 414.26 153.32 414.91C153.84 417.91 153.38 421.69 153.54 425.5L150.98 471.86L154.41 486.36C157.63 497.84 145.7 488.77 145.7 488.77C143.23 494.21 138.7 493.61 138.7 493.61L138.08 485.29C137.492 477.452 138.195 469.571 140.16 461.96C141.244 457.676 142.072 453.332 142.64 448.95V448.95Z" fill="black"/>
<path d="M257.42 473.96C255.25 476.77 254.06 478.38 254.06 478.38L245.06 491.63C243.529 493.894 241.225 495.522 238.58 496.21C234.48 497.29 228.18 498.08 222.72 495.08C220.732 493.973 219.224 492.169 218.485 490.017C217.747 487.864 217.83 485.515 218.72 483.42L220.72 478.78C220.72 478.78 202.19 490.46 200.58 484.02C198.97 477.58 222.13 471.13 222.13 471.13C222.13 471.13 241.26 467.91 245.13 458.84C245.13 458.84 246.8 456.7 249.13 453.42" fill="#FDC2CC"/>
<path d="M246.15 496.17C246.15 496.17 224.24 494.04 217.3 481.51L214.12 491.86C214.12 491.86 237.12 507.74 242.37 505.68L246.15 496.17Z" fill="#65617D"/>
<path opacity="0.1" d="M245.37 496.07C245.37 496.07 223.47 493.94 216.52 481.4L213.35 491.72C213.35 491.72 236.35 507.6 241.59 505.54L245.37 496.07Z" fill="black"/>
<path d="M146.42 490.32C146.42 490.32 138.75 493.04 137.24 491.53L140.69 497.88L147.21 492.88L146.42 490.32Z" fill="#65617D"/>
<path opacity="0.1" d="M146.42 490.32C146.42 490.32 138.75 493.04 137.24 491.53L140.69 497.88L147.21 492.88L146.42 490.32Z" fill="black"/>
<path opacity="0.1" d="M193.42 532.72V519.47L190.27 533.04L193.42 532.72Z" fill="black"/>
<path opacity="0.1" d="M224.49 258.92C222.64 261.52 219.43 262.84 216.27 263.25C213.11 263.66 209.91 263.31 206.72 263.25C201.72 263.17 196.4 263.94 192.31 266.88C189.7 268.75 187.74 271.38 185.7 273.88C179.52 281.43 170.94 288.5 161.2 287.71C160.352 287.71 159.512 287.54 158.731 287.21C157.949 286.881 157.242 286.398 156.65 285.79C155.856 284.558 155.452 283.115 155.49 281.65C155.071 275.426 155.269 269.175 156.08 262.99C156.471 259.162 157.421 255.412 158.9 251.86C160.641 248.299 162.929 245.033 165.68 242.18C169.007 238.32 173.018 235.106 177.51 232.7C182.049 230.292 187.308 229.614 192.31 230.79C198.14 232.38 202.68 236.94 208.24 239.29C214.59 241.96 231.45 249.09 224.49 258.92Z" fill="black"/>
<path d="M224.49 257.71C222.64 260.31 219.43 261.63 216.27 262.04C213.11 262.45 209.91 262.1 206.72 262.04C201.72 261.95 196.4 262.72 192.31 265.66C189.7 267.53 187.74 270.16 185.7 272.66C179.52 280.21 170.94 287.28 161.2 286.49C160.351 286.492 159.511 286.324 158.729 285.994C157.947 285.664 157.24 285.18 156.65 284.57C155.855 283.339 155.45 281.895 155.49 280.43C155.071 274.206 155.269 267.955 156.08 261.77C156.471 257.942 157.421 254.192 158.9 250.64C160.638 247.081 162.926 243.818 165.68 240.97C169.004 237.104 173.015 233.887 177.51 231.48C182.049 229.072 187.308 228.394 192.31 229.57C198.14 231.16 202.68 235.72 208.24 238.07C214.59 240.75 231.45 247.86 224.49 257.71Z" fill="#C9C55C"/>
<path d="M152.3 473.47L152.22 477.12L151.4 473.63L152.3 473.47Z" fill="#FDC2CC"/>
<path opacity="0.05" d="M152.3 473.47L152.22 477.12L151.4 473.63L152.3 473.47Z" fill="black"/>
<g opacity="0.05">
<path opacity="0.05" d="M229.42 339.15C220.95 367.02 245.64 370.29 245.64 370.29L265.48 423.46C267.09 432.52 246.54 458.91 246.54 458.91C245.11 462.29 241.54 464.86 237.64 466.76C239.919 465.372 241.751 463.359 242.92 460.96C242.92 460.96 263.46 434.58 261.85 425.52L242.01 372.34C242.01 372.34 217.33 369.07 225.79 341.2C228.62 331.89 232.79 327.65 237.01 326.13C234.1 328.47 231.43 332.52 229.42 339.15Z" fill="black"/>
</g>
<g opacity="0.1">
<path opacity="0.1" d="M229.84 364.47C231 365.905 232.345 367.179 233.84 368.26C236.641 370.295 239.87 371.663 243.28 372.26C243.28 372.26 243.28 372.26 243.28 372.31V373.31C240.194 372.656 237.278 371.365 234.72 369.52C232.818 368.126 231.168 366.418 229.84 364.47V364.47Z" fill="black"/>
<path opacity="0.1" d="M153.12 404.34C153.12 404.45 153.12 404.57 153.12 404.69C153.432 409.441 154.006 414.172 154.84 418.86C157.84 436.1 153.91 470.33 153.35 475.06C153.03 474.85 152.71 474.65 152.35 474.42C152.5 473.28 157.11 435.95 153.91 417.69C153.09 413.018 152.532 408.304 152.24 403.57C152.24 403.45 152.24 403.33 152.24 403.22C152.042 400.476 151.113 397.835 149.55 395.57C151.623 398.051 152.871 401.117 153.12 404.34V404.34Z" fill="black"/>
<path opacity="0.1" d="M171.53 318.06L161.75 317.87C161.742 317.866 161.734 317.863 161.725 317.863C161.716 317.863 161.708 317.866 161.7 317.87L149.2 346.13C147.014 351.021 145.339 356.125 144.2 361.36C140.56 378.46 142.85 386.98 145.63 391.19C142.5 387.5 139.27 379.09 143.3 360.19C144.416 354.952 146.075 349.844 148.25 344.95L160.84 316.69L172.37 316.92V316.99C172.28 317.11 171.97 317.49 171.53 318.06Z" fill="black"/>
<path opacity="0.1" d="M245.23 325.73L245.4 325.78L245.23 325.73Z" fill="black"/>
<path opacity="0.1" d="M241.64 325.57L231.84 322.62H231.79C231.21 323.26 217.04 338.97 206.39 351.69C196.87 363.06 180.18 362.17 176.16 361.77C175.43 361.69 174.69 361.63 173.96 361.58C163.03 360.88 158.73 359.58 157.29 356.82C159.34 358.82 163.85 359.82 173.05 360.38C173.79 360.38 174.52 360.49 175.25 360.56C179.25 360.96 195.96 361.85 205.48 350.49C216.13 337.76 230.31 322.05 230.89 321.41L245.15 325.73C244.002 325.444 242.809 325.39 241.64 325.57V325.57Z" fill="black"/>
</g>
<path opacity="0.1" d="M125.61 757.49C125.61 757.49 111.81 761.26 109.14 755.34Z" fill="black"/>
<path opacity="0.1" d="M213.22 754.66C213.22 754.66 197.22 758.79 193.52 752.4Z" fill="black"/>
<path d="M578.38 836.86C578.38 836.86 577.04 842.42 572 838.28" stroke="#3F2B3B" stroke-miterlimit="10"/>
<path opacity="0.1" d="M86.5101 785.14C101.383 785.14 113.44 783.103 113.44 780.59C113.44 778.077 101.383 776.04 86.5101 776.04C71.637 776.04 59.5801 778.077 59.5801 780.59C59.5801 783.103 71.637 785.14 86.5101 785.14Z" fill="#6C63FF"/>
<path opacity="0.1" d="M1029.83 758.67C1044.7 758.67 1056.76 756.633 1056.76 754.12C1056.76 751.607 1044.7 749.57 1029.83 749.57C1014.96 749.57 1002.9 751.607 1002.9 754.12C1002.9 756.633 1014.96 758.67 1029.83 758.67Z" fill="#6C63FF"/>
<path d="M1011.75 732.97C1011.75 732.97 1027.11 732.5 1031.75 729.2C1036.39 725.9 1055.37 721.97 1056.52 727.26C1057.67 732.55 1079.61 753.55 1062.26 753.69C1044.91 753.83 1021.97 750.99 1017.35 748.17C1012.73 745.35 1011.75 732.97 1011.75 732.97Z" fill="#A8A8A8"/>
<path opacity="0.2" d="M1062.56 751.86C1045.22 752 1022.27 749.16 1017.65 746.34C1014.13 744.2 1012.73 736.51 1012.26 732.96H1011.75C1011.75 732.96 1012.75 745.35 1017.34 748.16C1021.93 750.97 1044.91 753.82 1062.25 753.68C1067.25 753.68 1068.99 751.86 1068.89 749.22C1068.2 750.86 1066.29 751.86 1062.56 751.86Z" fill="black"/>
</g>
<defs>
<linearGradient id="paint0_linear" x1="620.635" y1="755.852" x2="620.635" y2="132.988" gradientUnits="userSpaceOnUse">
<stop stop-color="#808080" stop-opacity="0.25"/>
<stop offset="0.54" stop-color="#808080" stop-opacity="0.12"/>
<stop offset="1" stop-color="#808080" stop-opacity="0.1"/>
</linearGradient>
<linearGradient id="paint1_linear" x1="481.63" y1="710.31" x2="481.63" y2="119.22" gradientUnits="userSpaceOnUse">
<stop stop-color="#808080" stop-opacity="0.25"/>
<stop offset="0.54" stop-color="#808080" stop-opacity="0.12"/>
<stop offset="1" stop-color="#808080" stop-opacity="0.1"/>
</linearGradient>
<linearGradient id="paint2_linear" x1="182597" y1="486363" x2="182597" y2="141095" gradientUnits="userSpaceOnUse">
<stop stop-color="#808080" stop-opacity="0.25"/>
<stop offset="0.54" stop-color="#808080" stop-opacity="0.12"/>
<stop offset="1" stop-color="#808080" stop-opacity="0.1"/>
</linearGradient>
<linearGradient id="paint3_linear" x1="-104724" y1="482237" x2="-104724" y2="135560" gradientUnits="userSpaceOnUse">
<stop stop-color="#808080" stop-opacity="0.25"/>
<stop offset="0.54" stop-color="#808080" stop-opacity="0.12"/>
<stop offset="1" stop-color="#808080" stop-opacity="0.1"/>
</linearGradient>
<clipPath id="clip0">
<rect width="1137.68" height="859.71" fill="white"/>
</clipPath>
</defs>
</svg>
