<svg width="765" height="980" viewBox="0 0 765 980" fill="none" xmlns="http://www.w3.org/2000/svg">
<path d="M385.479 0.694565C326.209 3.41457 249.629 17.9946 201.239 35.8746L188.999 40.3446L177.339 68.5246C161.019 107.975 142.939 144.315 130.109 163.755C121.949 175.995 119.229 181.825 119.229 187.075C119.229 209.225 152.659 243.235 192.299 261.115C199.299 264.415 204.539 267.725 203.569 268.495C202.599 269.275 196.189 274.325 189.189 279.375C182.189 284.625 171.309 293.175 164.899 298.615C150.129 311.055 105.619 354.395 105.619 356.535C105.619 359.065 126.219 358.285 141.379 355.175C149.149 353.625 163.149 349.535 172.669 346.425C193.849 339.235 202.209 339.235 234.859 346.035C257.019 350.705 261.289 352.255 269.649 358.665C274.899 362.745 286.559 370.515 295.499 376.155C304.629 381.595 312.599 387.425 313.179 388.985C314.739 392.875 304.629 400.845 298.219 400.845C295.109 400.845 287.529 398.125 281.309 394.815C268.679 388.405 231.559 373.245 230.589 374.215C229.619 375.185 245.549 386.265 254.299 390.545C258.579 392.685 267.319 395.985 273.729 397.735C289.469 402.405 309.679 413.475 338.249 433.305C366.239 452.735 376.339 462.845 375.369 470.425C374.399 478.975 368.179 478.005 347.579 465.955C337.089 459.925 321.539 451.575 312.789 447.105C297.049 439.135 264.979 427.285 263.429 428.835C262.459 430.005 298.799 447.505 301.719 447.505C307.549 447.505 366.049 480.545 375.379 488.895C380.629 493.755 380.819 500.165 376.159 504.635C372.859 507.555 371.689 507.555 364.689 505.025C360.219 503.475 350.309 498.615 342.339 494.335C326.399 485.585 296.859 474.125 268.879 465.965C258.769 463.045 249.059 460.135 247.499 459.555C245.359 458.775 245.169 459.165 246.719 460.915C247.889 462.085 255.659 465.775 263.819 468.885C271.979 471.795 294.139 482.875 312.599 493.175C340.199 508.335 346.799 512.805 347.779 516.885C348.559 519.605 348.169 523.295 347.199 525.045C343.509 531.075 335.539 529.515 310.269 518.435C279.369 504.635 227.869 484.035 226.899 485.005C225.149 486.755 257.999 504.435 272.769 509.685C287.929 515.125 298.039 522.125 298.039 527.365C298.039 531.645 288.319 538.835 282.489 538.835C279.189 538.835 261.109 533.585 242.069 527.365C223.219 520.955 195.229 512.595 180.069 508.905C146.819 500.945 131.469 493.365 99.7887 469.655C66.3587 444.775 67.1387 445.165 46.5387 451.385C34.4887 455.275 33.3188 456.045 28.8488 464.985C-16.4312 554.385 -8.08126 663.025 51.5887 759.025C66.1687 782.735 85.0188 806.835 115.529 841.035C130.689 858.135 147.009 877.185 151.679 883.595C163.339 899.335 168.779 917.605 168.779 940.145C168.779 957.825 166.639 965.025 158.869 975.705L155.759 979.985H423.959H692.159L707.709 956.085C735.109 914.495 747.939 886.705 757.659 849.385C765.239 820.235 766.599 777.475 760.579 748.905C755.139 722.475 740.169 683.025 721.709 646.685C707.909 619.475 682.059 574.775 679.149 573.025C678.569 572.635 662.239 587.015 642.999 605.285C605.099 641.245 584.109 659.315 563.899 673.495C556.709 678.545 540.769 692.155 528.529 703.815C506.369 724.995 505.989 725.195 465.759 745.605C443.609 756.875 411.539 773.985 394.629 783.505C358.679 803.715 336.329 811.875 293.179 820.435C257.999 827.435 226.519 829.185 179.099 826.845C143.919 825.095 137.699 823.545 140.039 817.125C141.789 812.465 144.509 810.905 152.279 810.715C163.159 810.525 153.449 807.415 141.199 807.215C122.149 806.825 116.709 801.585 125.849 792.635C129.539 788.745 133.039 787.775 147.619 786.615C178.329 784.285 178.719 782.145 148.199 781.945C118.469 781.755 115.359 780.975 115.359 772.615C115.359 766.395 125.469 755.705 134.209 752.795C138.289 751.435 155.199 749.685 171.719 748.715C195.239 747.355 207.089 745.605 225.159 740.945C277.439 727.345 305.419 715.295 307.369 705.385C308.339 700.915 300.179 701.105 265.979 705.965C218.749 712.965 217.389 712.965 213.699 707.715C209.619 701.695 209.809 695.665 214.279 691.585C216.419 689.645 231.379 683.035 247.899 676.815C264.419 670.595 288.319 660.685 301.149 654.855C313.779 649.025 329.519 643.195 335.939 642.025C347.799 639.885 348.769 639.885 384.919 646.495C418.349 652.715 446.909 640.475 488.119 602.185C525.239 567.595 587.039 485.385 624.939 420.275C630.769 410.165 641.069 392.675 647.479 381.405C685.179 316.495 710.449 235.845 720.549 148.385L723.469 124.285L715.309 114.955C693.929 90.8546 656.419 63.6446 618.719 44.6046C550.669 10.4146 477.209 -3.38543 385.479 0.694565Z" fill="#793D3D"/>
</svg>
