<svg width="723" height="684" viewBox="0 0 723 684" fill="none" xmlns="http://www.w3.org/2000/svg">
<g clip-path="url(#clip0)">
<path opacity="0.1" d="M0.000128346 344.898C-0.0163086 359.41 1.43849 373.882 4.34006 388.073C5.31403 392.825 6.44549 397.483 7.73457 402.047C9.33057 407.737 11.1558 413.252 13.2101 418.595C14.2536 421.315 15.3565 423.989 16.5187 426.615C16.479 441.42 19.0103 456.11 23.9893 469.97C32.798 494.351 48.8377 514.242 68.9104 525.861C81.4181 533.155 95.5008 536.989 109.823 537H585.75C611.188 537 634.766 527.549 654.096 511.444C659.747 506.717 664.999 501.49 669.792 495.821C676.459 487.912 682.248 479.24 687.047 469.97C698.182 448.572 704.597 423.381 704.597 396.42C716.229 371.801 723 342.287 723 310.526C723 270.496 712.221 233.987 694.511 206.34C690.859 200.624 686.815 195.193 682.413 190.087C678.16 185.146 673.533 180.572 668.576 176.408C664.691 173.144 660.588 170.172 656.3 167.515C654.525 166.424 652.745 165.398 650.935 164.442C649.347 163.586 647.738 162.788 646.11 162.048C644.158 161.15 642.181 160.327 640.18 159.578C638.179 158.83 636.204 158.173 634.256 157.608C631.377 156.768 628.457 156.089 625.509 155.574C623.054 155.132 620.598 154.804 618.143 154.593C616.191 154.426 614.222 154.33 612.238 154.304C611.875 154.304 611.526 154.304 611.163 154.304C608.978 154.304 606.805 154.413 604.651 154.586C604.423 154.035 604.178 153.483 603.951 152.931C603.091 150.955 602.201 148.991 601.305 147.054C601.303 147.037 601.303 147.019 601.305 147.002C601.152 146.669 600.998 146.361 600.839 146.008C600.114 144.429 599.359 142.864 598.586 141.311C598.23 140.593 597.88 139.88 597.518 139.168C597.438 139.001 597.358 138.841 597.266 138.674C596.898 137.936 596.523 137.205 596.143 136.473C594.248 132.825 592.277 129.232 590.231 125.694C590.053 125.392 589.888 125.091 589.71 124.796C589.39 124.25 589.096 123.705 588.74 123.166C587.893 121.729 587.021 120.298 586.143 118.88C585.529 117.879 584.915 116.878 584.252 115.89C582.656 113.388 581.02 110.917 579.342 108.479C577.664 106.041 575.92 103.603 574.112 101.165C573.866 100.831 573.621 100.523 573.363 100.17L570.742 96.7248L570.38 96.2564L569.428 95.0437C568.022 93.2536 566.58 91.4827 565.131 89.7311C557.836 80.9424 549.981 72.6788 541.621 64.9965C541.295 64.6821 540.964 64.3549 540.639 64.0854C539.08 62.6674 537.496 61.2687 535.912 59.8956C527.28 52.4146 518.172 45.5549 508.651 39.3637C508.001 38.9274 507.338 38.5039 506.668 38.0804C498.258 32.7092 489.548 27.8671 480.586 23.5797C475.675 21.2186 470.713 19.0328 465.7 17.0224C462.373 15.7006 459.034 14.4559 455.652 13.2753C450.422 11.4702 445.126 9.83405 439.765 8.36687C424.042 4.09785 407.956 1.45025 391.738 0.462078C386.827 0.154099 381.861 0.000109886 376.84 0.000109886C352.519 -0.023228 328.325 3.67096 305.026 10.9654C304.813 11.3894 304.492 11.744 304.099 11.9906C303.706 12.2372 303.256 12.3665 302.798 12.3642H300.729C299.833 12.6593 298.943 12.9673 298.047 13.2753C293.042 15.0119 288.109 16.9133 283.247 18.9793L282.019 19.5054C258.801 29.4898 237.162 43.0877 217.836 59.8379C216.399 61.0741 214.983 62.3295 213.588 63.6042C211.894 62.291 210.171 61.0356 208.419 59.8379C201.756 55.2327 194.562 51.5289 187.008 48.8148C171.541 43.2497 154.866 42.4612 138.981 46.5434C118.571 51.7727 100.094 64.7463 85.1712 83.1929C79.0183 90.8586 73.6123 99.1466 69.0333 107.934C68.6956 108.576 68.358 109.217 68.0327 109.859C64.0012 117.814 60.5657 126.083 57.7569 134.593C57.6526 134.901 57.5481 135.235 57.456 135.517C54.8237 143.601 52.7115 151.86 51.1335 160.239C51.0598 160.662 50.9739 161.092 50.9002 161.522C49.4118 169.695 48.4032 177.955 47.8801 186.257C47.8801 186.558 47.8801 186.86 47.831 187.162C47.5732 191.465 47.4422 195.815 47.4381 200.212C47.4381 204.147 47.5425 208.044 47.7512 211.903C47.7512 212.332 47.8003 212.769 47.831 213.186C47.8863 214.309 47.966 215.431 48.0458 216.548C43.3106 221.167 38.923 226.161 34.9218 231.485C33.1335 233.85 31.4025 236.299 29.7287 238.831C24.5765 246.646 20.0983 254.923 16.3468 263.566C5.96668 287.274 0.000128346 315.108 0.000128346 344.898Z" fill="#793D3D"/>
<path opacity="0.1" d="M278.53 624.72C203.574 624.72 142.81 619.732 142.81 613.58C142.81 607.428 203.574 602.44 278.53 602.44C353.486 602.44 414.25 607.428 414.25 613.58C414.25 619.732 353.486 624.72 278.53 624.72Z" fill="#793D3D"/>
<path opacity="0.1" d="M483.46 683.58C408.504 683.58 347.74 676.018 347.74 666.69C347.74 657.362 408.504 649.8 483.46 649.8C558.416 649.8 619.18 657.362 619.18 666.69C619.18 676.018 558.416 683.58 483.46 683.58Z" fill="#793D3D"/>
<path d="M184.97 142.04C206.14 129.86 214.14 126.86 214.18 126.86L214.62 126.55C216.926 124.778 218.757 122.462 219.95 119.81C219.975 119.327 219.975 118.843 219.95 118.36C219.956 118.407 219.956 118.454 219.95 118.5C219.62 112.05 215.03 106.18 210.68 101.06L199.55 87.97C198.286 86.6748 197.308 85.1279 196.68 83.43C196.455 82.5177 196.355 81.5792 196.38 80.64C196.38 80.26 196.38 79.88 196.38 79.5C196.44 76.25 196.53 72.99 196.65 69.74C196.75 66.9 197.48 63.32 200.32 62.74C201.8 62.44 203.76 62.97 204.54 61.74C204.805 61.2179 204.872 60.6178 204.73 60.05C204.736 60.0965 204.736 60.1435 204.73 60.19V60.03C204.18 57.8361 203.829 55.597 203.68 53.34C203.618 52.1911 203.774 51.0409 204.14 49.95C205.78 45.24 211.45 43.3 216.46 42.41C221.47 41.52 227.09 40.76 230.23 36.84C231.071 35.5321 231.986 34.2733 232.97 33.07C234.419 31.7829 236.188 30.9091 238.09 30.54C244.309 29.008 250.859 29.5777 256.72 32.16C259.14 33.24 261.57 34.7 264.23 34.54C266.89 34.38 269.35 32.46 272.07 32C276.47 31.25 280.68 34.48 282.85 38.31C284.135 40.581 284.823 43.1408 284.85 45.75V46.19C284.913 48.9975 283.889 51.7207 281.99 53.79C280.09 55.79 277.27 57.11 276.48 59.7C276.16 60.75 276.24 61.89 275.95 62.96C275.919 63.0927 275.879 63.223 275.83 63.35L275.97 63.54C280.51 69.3479 282.974 76.5085 282.97 83.88C282.921 91.04 280.596 97.9988 276.332 103.751C272.069 109.503 266.086 113.751 259.25 115.88C259.25 116.21 259.25 116.54 259.25 116.88C259.25 120.88 260.4 125.05 263.85 128.08L293.84 140.06C293.84 140.06 311.92 137.91 318.44 164.33C319.482 168.715 319.859 173.232 319.56 177.73C319.32 181.73 319.87 188.73 324.56 197.8C331.97 212.32 330.28 245.65 315.12 248.95C300.81 252.07 295.21 250.77 294.62 250.62V251.2C294.86 257.46 297.13 311.4 305.38 317.92C307.66 319.73 307.24 320.92 305.38 321.77C305.38 321.77 305.38 322.12 305.43 322.77C305.68 326.77 306.95 341.77 312.43 350.29C318.84 360.19 318.17 417.29 318.17 417.29L322.54 450.95C322.54 450.95 319.85 471.74 322.54 475.37C324.95 478.6 328.15 555.51 328.82 572.19H329.1C330.425 572.276 331.708 572.686 332.838 573.383C333.968 574.081 334.909 575.044 335.58 576.19C339.12 581.94 351.52 592.57 351.52 592.57C354.21 596.39 364.16 600.05 369.42 601.77C370.114 601.997 370.784 602.292 371.42 602.65C373.39 603.722 374.971 605.388 375.94 607.41C376.287 608.009 376.509 608.673 376.591 609.361C376.674 610.048 376.615 610.746 376.42 611.41C375.08 614.7 347.11 617.02 340.03 613.71C334.47 611.12 312.43 607.71 303.28 606.37C301.619 606.161 300.074 605.405 298.89 604.221C297.705 603.036 296.949 601.492 296.74 599.83C296.653 599.256 296.682 598.671 296.827 598.109C296.971 597.547 297.227 597.02 297.58 596.56C299.33 594.39 300.22 588.46 300.58 584.56C299.837 584.258 299.143 583.846 298.52 583.34C299.285 571.352 297.583 559.334 293.52 548.03C286.78 530.21 284.76 497.21 286.44 475.76C286.44 475.76 265.89 387.32 249.71 379.07C249.46 379.39 241.61 389.46 240.61 420.65C239.61 452.33 228.15 473.12 228.15 473.12C228.15 473.12 233.21 526.91 228.15 547.04L234.76 578.79C235.25 578.38 235.56 578.06 235.56 578.06C235.56 578.06 235.36 578.94 235.09 580.35L235.23 581.03L234.94 581.09C234.19 585.09 233.08 591.98 233.54 596.09C233.8 598.4 234.45 601.57 234.89 604.68C235.59 609.57 235.78 614.31 233.21 615.35C228.99 617.05 204.21 619.35 200.01 613.91C199.065 612.801 198.45 611.45 198.234 610.01C198.019 608.569 198.211 607.097 198.79 605.76C199.093 605.011 199.504 604.31 200.01 603.68C200.01 603.68 206.59 592.93 204.73 585.35C204.559 584.609 204.54 583.841 204.676 583.093C204.812 582.345 205.099 581.633 205.52 581C205.23 577.28 203.73 560.06 199.85 545.44C195.63 529.56 186.74 494.74 193.28 471.85C193.527 470.95 193.807 470.07 194.12 469.21C197.895 456.711 199.156 443.589 197.83 430.6C200.258 419.511 200.258 408.029 197.83 396.94C193.78 378.46 190.95 360.31 190.95 360.31C190.95 360.31 188.72 335.89 190.67 320.92C190.67 320.6 190.76 320.28 190.8 319.92L189.74 319.68C189.74 319.68 195.47 294.27 197.49 278.1C197.97 274.28 198.59 269.45 199.27 264.29C197.406 263.981 195.571 263.523 193.78 262.92C175.59 256.65 169.86 199.92 169.86 199.92V181.92C169.86 181.92 163.74 154.25 184.97 142.04ZM320.53 580.28C321.09 580 321.42 579.81 321.42 579.81L320.53 580.28Z" fill="url(#paint0_linear)"/>
<path d="M195.95 469.57C188.06 492.26 197.27 529.09 201.55 545.57C205.83 562.05 207.14 581.75 207.14 581.75C223.91 584.38 236.08 581.09 236.08 581.09L229.17 547.22C234.11 527.16 229.17 473.55 229.17 473.55C229.17 473.55 240.35 452.83 241.34 421.26C242.34 390.19 249.97 380.14 250.21 379.83C265.99 388.05 286.05 476.19 286.05 476.19C284.41 497.56 286.39 530.45 292.96 548.19C296.951 559.466 298.627 571.431 297.89 583.37C300.19 585.37 303.39 585.65 306.89 585.09C316.28 583.57 327.54 575.48 327.54 575.48C327.54 575.48 323.93 479.48 321.29 475.84C318.65 472.2 321.29 451.5 321.29 451.5L317.02 417.96C317.02 417.96 317.68 361.06 311.43 351.2C306.03 342.68 304.79 327.7 304.55 323.77C304.55 323.15 304.55 322.77 304.55 322.77L295.03 311.37C295.03 311.37 202.95 304.46 196.03 311.37C194.34 313.06 193.29 316.92 192.67 321.77C190.77 336.69 192.95 361.02 192.95 361.02C192.95 361.02 195.71 379.11 199.66 397.52C202.028 408.578 202.028 420.012 199.66 431.07C200.93 444.023 199.67 457.098 195.95 469.57Z" fill="#65617D"/>
<path d="M201.71 613.77C205.82 619.2 229.99 616.9 234.11 615.21C236.62 614.21 236.43 609.44 235.75 604.57C235.32 601.48 234.69 598.32 234.43 596.02C233.78 590.1 236.43 578.09 236.43 578.09C236.43 578.09 231.01 583.85 229.7 578.09C229.12 575.57 227.1 574.28 225 573.63C222.182 572.777 219.151 572.965 216.46 574.16C212.19 576.02 205.07 579.97 206.34 585.31C208.15 592.86 201.74 603.58 201.74 603.58C201.243 604.205 200.839 604.899 200.54 605.64C199.97 606.972 199.777 608.435 199.984 609.869C200.19 611.303 200.787 612.653 201.71 613.77Z" fill="#A27772"/>
<path opacity="0.1" d="M201.71 613.77C205.82 619.2 229.99 616.9 234.11 615.21C236.62 614.21 236.43 609.44 235.75 604.57C233.15 605.79 228.75 606.8 221.38 606.12C219.662 605.957 217.935 605.903 216.21 605.96C210.975 606.196 205.731 606.089 200.51 605.64C199.944 606.975 199.756 608.439 199.968 609.874C200.18 611.308 200.783 612.656 201.71 613.77Z" fill="black"/>
<path opacity="0.1" d="M286.06 476.15C284.42 497.52 286.4 530.41 292.97 548.15C296.961 559.426 298.637 571.391 297.9 583.33C300.2 585.33 303.4 585.61 306.9 585.05C304.9 571.18 296.46 511.42 291.05 464.2C284.88 410.43 256.05 373.44 256.05 373.44L250.3 379.77C266 388.01 286.06 476.15 286.06 476.15Z" fill="black"/>
<path d="M211.58 130.51L215.58 150.24L235.25 183.29L259.5 172.93C259.5 172.93 292.5 138.4 271.75 133.47C269.27 132.936 266.928 131.894 264.87 130.41C260.8 127.34 259.52 122.88 259.5 118.51C259.654 113.62 260.79 108.812 262.84 104.37L220.42 91.05C222.153 96.6244 223.161 102.398 223.42 108.23C223.75 119.79 219.42 125.48 215.93 128.23C214.642 129.265 213.164 130.039 211.58 130.51Z" fill="#FBBEBE"/>
<path opacity="0.1" d="M220.46 91.05C222.193 96.6244 223.201 102.398 223.46 108.23C224.234 109.152 225.059 110.03 225.93 110.86C230.31 115.043 235.741 117.963 241.646 119.309C247.55 120.656 253.71 120.38 259.47 118.51C259.634 113.618 260.78 108.81 262.84 104.37L220.46 91.05Z" fill="black"/>
<path d="M215.59 85.62C215.588 92.256 217.554 98.7435 221.239 104.262C224.925 109.781 230.164 114.082 236.294 116.623C242.424 119.164 249.17 119.83 255.679 118.537C262.188 117.243 268.167 114.049 272.86 109.357C277.553 104.665 280.749 98.6873 282.045 92.179C283.34 85.6706 282.676 78.9243 280.137 72.7933C277.598 66.6622 273.298 61.4218 267.78 57.7349C262.263 54.0479 255.776 52.08 249.14 52.08C244.729 52.0588 240.358 52.9118 236.278 54.5897C232.199 56.2676 228.492 58.7372 225.373 61.8558C222.253 64.9743 219.783 68.6801 218.103 72.759C216.424 76.8379 215.57 81.2091 215.59 85.62Z" fill="#FBBEBE"/>
<path opacity="0.1" d="M211.58 130.51L215.58 150.24L235.25 183.29L259.5 172.93C259.5 172.93 292.5 138.4 271.75 133.47C269.27 132.936 266.928 131.894 264.87 130.41C268.61 140.69 253.17 162.08 253.17 162.08C251.37 164.73 247.25 163.08 247.25 163.08C237.3 161.57 218.99 132.96 216 128.2C214.694 129.254 213.191 130.039 211.58 130.51Z" fill="black"/>
<path opacity="0.1" d="M192.59 321.79C198.43 323.12 230.74 330.27 242.99 328.48C256.47 326.48 282.68 325.2 282.68 325.2C282.68 325.2 299.37 326.1 304.51 323.75C304.51 323.13 304.51 322.75 304.51 322.75L294.99 311.35C294.99 311.35 202.91 304.44 195.99 311.35C194.26 313.08 193.21 316.94 192.59 321.79Z" fill="black"/>
<path d="M253.18 163.07C253.18 163.07 270.53 139.07 263.99 129.67L293.3 141.67C293.3 141.67 310.94 139.53 317.3 165.86C318.317 170.236 318.684 174.737 318.39 179.22C318.15 183.22 318.69 190.22 323.22 199.22C330.45 213.69 328.81 246.91 314.01 250.22C299.21 253.53 293.96 251.86 293.96 251.86C293.96 251.86 295.96 312.04 304.48 318.95C313 325.86 282.68 324.21 282.68 324.21C282.68 324.21 256.47 325.53 242.98 327.5C229.49 329.47 191.68 320.59 191.68 320.59C191.68 320.59 197.27 295.27 199.25 279.16C201.23 263.05 205.84 228.73 205.84 228.73L172.3 183.29C172.3 183.29 166.38 155.83 187.1 143.66C207.82 131.49 215.61 128.51 215.61 128.51C215.61 128.51 236.43 162.41 247.28 164.05C247.26 164.05 251.38 165.71 253.18 163.07Z" fill="#B15A5A"/>
<path opacity="0.1" d="M291.66 172.6C291.66 172.6 291.98 183.46 290.01 187.73C288.04 192 280.8 215.73 280.8 215.73H297.25C297.25 215.73 288.37 206.19 289.02 201.58C289.67 196.97 291.66 172.6 291.66 172.6Z" fill="black"/>
<path d="M242.98 254.49C242.98 254.49 279.3 245.61 282.68 238.05C286.06 230.49 295.39 213.56 295.39 213.56L291.56 208.4L273.9 222.26C273.9 222.26 252.9 239.03 242.98 240.68C233.06 242.33 242.98 254.49 242.98 254.49Z" fill="#FBBEBE"/>
<path opacity="0.05" d="M242.98 254.49C242.98 254.49 279.3 245.61 282.68 238.05C286.06 230.49 295.39 213.56 295.39 213.56L291.56 208.4L273.9 222.26C273.9 222.26 252.9 239.03 242.98 240.68C233.06 242.33 242.98 254.49 242.98 254.49Z" fill="black"/>
<path d="M211.58 211.74V231.44H214.74C230.389 231.437 245.78 235.422 259.46 243.02L265.4 246.31L266.99 247.2L277.19 224.2L267.65 215.65H267.16C264.83 215.88 254.74 216.72 250.46 215.28C246.4 213.9 241.36 209.53 229.4 212.58C223.51 214.09 218.47 220.69 212.76 218.63L211.58 211.74Z" fill="#FBBEBE"/>
<path opacity="0.1" d="M179.84 175.86L173.27 183.26V201.19C173.27 201.19 178.86 257.75 196.61 264C214.36 270.25 246.07 260.38 246.07 260.38C246.07 260.38 254.26 238.68 250.43 237.38C246.6 236.08 216.58 228.14 216.58 228.14C216.58 228.14 217 194.96 210.43 185.09C210.43 185.09 214.7 154.18 199.9 153.52C185.1 152.86 179.84 175.86 179.84 175.86Z" fill="black"/>
<path d="M178.84 175.86L172.26 183.26V201.19C172.26 201.19 177.85 257.75 195.61 264C213.37 270.25 245.07 260.38 245.07 260.38C245.07 260.38 253.26 238.68 249.42 237.38C245.58 236.08 215.57 228.14 215.57 228.14C215.57 228.14 216 194.96 209.42 185.09C209.42 185.09 213.7 154.18 198.9 153.52C184.1 152.86 178.84 175.86 178.84 175.86Z" fill="#B15A5A"/>
<path opacity="0.1" d="M224.79 99.86C224.507 97.6942 224.764 95.4919 225.54 93.45C226.47 91.45 228.64 89.94 230.76 90.45C233.57 91.11 234.76 94.77 237.54 95.65C239.87 96.39 242.41 94.74 243.54 92.57C244.67 90.4 244.68 87.85 244.68 85.41C244.68 82.67 244.68 79.92 244.68 77.17C244.68 74.17 244.78 70.95 246.62 68.6C248.91 65.68 254.3 64.4 257.9 64.52C260.295 64.547 262.593 65.4711 264.34 67.11C266.26 68.75 268.49 69.95 271.11 69.52C272.203 69.3569 273.226 68.8868 274.062 68.1645C274.897 67.4422 275.511 66.4973 275.83 65.44V65.34C273.04 61.6305 269.51 58.5404 265.464 56.2655C261.418 53.9905 256.944 52.5801 252.325 52.1235C247.706 51.667 243.042 52.1742 238.629 53.613C234.216 55.0519 230.149 57.3911 226.687 60.4827C223.225 63.5742 220.442 67.3508 218.514 71.5734C216.587 75.796 215.557 80.3727 215.489 85.014C215.422 89.6552 216.319 94.2599 218.123 98.5367C219.927 102.813 222.599 106.669 225.97 109.86C225.391 106.551 224.997 103.213 224.79 99.86Z" fill="black"/>
<path d="M271.11 68.55C272.203 68.3822 273.227 67.9093 274.064 67.1859C274.9 66.4624 275.516 65.5176 275.84 64.46C276.11 63.4 276.04 62.27 276.35 61.22C277.12 58.63 279.88 57.29 281.73 55.32C285.43 51.39 285.19 44.93 282.57 40.2C280.45 36.39 276.35 33.2 272.05 33.92C269.39 34.38 267.05 36.27 264.39 36.45C261.73 36.63 259.39 35.16 257.06 34.08C251.347 31.4862 244.921 30.9149 238.84 32.46C236.975 32.8348 235.247 33.7093 233.84 34.99C232.885 36.1923 231.994 37.444 231.17 38.74C228.11 42.64 222.62 43.41 217.73 44.29C212.84 45.17 207.31 47.11 205.73 51.81C204.66 54.93 205.73 58.31 206.31 61.55C206.502 62.2113 206.456 62.9191 206.18 63.55C205.41 64.81 203.5 64.28 202.06 64.55C199.29 65.14 198.58 68.71 198.47 71.55C198.357 74.79 198.27 78.0334 198.21 81.28C198.13 82.4877 198.228 83.7006 198.5 84.88C199.1 86.5699 200.051 88.1137 201.29 89.41L212.15 102.46C216.97 108.24 222.08 114.98 221.15 122.46C223.43 123.46 226.15 121.51 226.89 119.12C227.63 116.73 227.04 114.12 226.53 111.71C225.645 107.474 225.063 103.179 224.79 98.86C224.507 96.6975 224.764 94.4984 225.54 92.46C226.47 90.46 228.64 88.95 230.76 89.46C233.58 90.12 234.76 93.78 237.54 94.66C239.87 95.4 242.41 93.75 243.54 91.58C244.67 89.41 244.68 86.87 244.68 84.43V76.18C244.68 73.18 244.78 69.96 246.62 67.61C248.91 64.69 254.3 63.41 257.9 63.53C260.292 63.5595 262.586 64.4835 264.33 66.12C266.26 67.77 268.49 68.98 271.11 68.55Z" fill="#7C5C5C"/>
<path opacity="0.1" d="M263.54 171.78L253.24 214.09C253.24 214.09 245.12 214.04 263.54 171.78Z" fill="black"/>
<path opacity="0.1" d="M228.35 164.71C228.35 164.71 241.83 186.79 236.57 209.63L234.06 209.81C234.06 209.81 238.54 199.24 228.35 164.71Z" fill="black"/>
<path opacity="0.1" d="M219.84 289.68C219.84 289.68 203.28 284.2 202.08 296.91C202.04 296.91 205.16 288.2 219.84 289.68Z" fill="black"/>
<path opacity="0.1" d="M267.65 216.67C267.65 216.67 270.94 239.67 265.02 248.9C265.02 248.9 277.02 253.83 293.96 252.85L295.96 216.67H267.65Z" fill="black"/>
<path opacity="0.1" d="M265.4 246.31L266.99 247.2L277.19 224.2L267.65 215.65H267.16C267.31 216.79 269.97 236.56 265.4 246.31Z" fill="black"/>
<path d="M267.65 215.69C267.65 215.69 270.94 238.69 265.02 247.91C265.02 247.91 277.02 252.85 293.96 251.86L305.47 215.69H267.65Z" fill="#B15A5A"/>
<path d="M296.09 599.77C296.281 601.412 297.013 602.943 298.17 604.123C299.326 605.304 300.843 606.066 302.48 606.29C311.41 607.62 332.92 611.02 338.35 613.61C345.26 616.9 372.55 614.61 373.87 611.31C374.061 610.645 374.117 609.95 374.037 609.263C373.956 608.576 373.74 607.912 373.4 607.31C372.464 605.307 370.921 603.648 368.99 602.57C368.353 602.215 367.683 601.92 366.99 601.69C361.85 599.98 352.14 596.34 349.52 592.52C349.52 592.52 337.41 581.93 333.96 576.21C333.312 575.084 332.396 574.136 331.294 573.449C330.191 572.761 328.936 572.356 327.64 572.27C324.76 572.14 321.55 573.59 320.23 579.9C320.23 579.9 304.46 588.9 300.23 581.01C300.23 581.01 299.57 593.13 296.95 596.45C296.592 596.918 296.331 597.453 296.184 598.023C296.036 598.593 296.004 599.187 296.09 599.77Z" fill="#A27772"/>
<path opacity="0.1" d="M296.09 599.77C296.281 601.412 297.013 602.943 298.17 604.123C299.326 605.304 300.843 606.066 302.48 606.29C311.41 607.62 332.92 611.02 338.35 613.61C345.26 616.9 372.55 614.61 373.87 611.31C374.061 610.645 374.117 609.95 374.037 609.263C373.956 608.576 373.74 607.912 373.4 607.31C372.464 605.307 370.921 603.648 368.99 602.57C364.54 605.57 354.66 608.41 332.93 605.02C312.2 601.78 301.93 598.61 296.93 596.45C296.576 596.919 296.318 597.455 296.174 598.025C296.03 598.595 296.001 599.189 296.09 599.77Z" fill="black"/>
<g opacity="0.1">
<path opacity="0.1" d="M206.36 62.01V61.85C205.89 59.39 205.18 56.85 205.36 54.38C205.57 56.3987 205.904 58.4025 206.36 60.38C206.483 60.9163 206.483 61.4736 206.36 62.01Z" fill="black"/>
<path opacity="0.1" d="M225.55 92.79C225.027 93.9751 224.751 95.2546 224.74 96.55C224.593 94.7639 224.87 92.9681 225.55 91.31C226.47 89.31 228.64 87.8 230.76 88.31C233.58 88.97 234.76 92.63 237.55 93.51C239.87 94.25 242.41 92.6 243.55 90.43C244.69 88.26 244.69 85.71 244.69 83.27C244.69 80.52 244.69 77.78 244.69 75.03C244.69 72.03 244.79 68.81 246.63 66.46C248.93 63.53 254.31 62.26 257.91 62.37C260.307 62.4007 262.604 63.3283 264.35 64.97C266.28 66.61 268.5 67.81 271.13 67.38C272.221 67.2135 273.243 66.7422 274.078 66.0204C274.914 65.2986 275.528 64.3556 275.85 63.3C276.12 62.24 276.05 61.1 276.36 60.05C277.13 57.47 279.89 56.12 281.74 54.16C283.476 52.2358 284.459 49.7506 284.51 47.16C284.647 48.6797 284.471 50.2112 283.995 51.6608C283.519 53.1103 282.752 54.4473 281.74 55.59C279.89 57.59 277.13 58.9 276.36 61.48C276.05 62.48 276.12 63.67 275.85 64.73C275.528 65.7856 274.914 66.7285 274.078 67.4504C273.243 68.1722 272.221 68.6435 271.13 68.81C268.5 69.24 266.28 68.04 264.35 66.4C262.604 64.7583 260.307 63.8307 257.91 63.8C254.31 63.69 248.91 64.96 246.63 67.89C244.79 70.24 244.7 73.47 244.69 76.46C244.69 79.21 244.69 81.95 244.69 84.7C244.69 87.14 244.69 89.7 243.55 91.85C242.41 94 239.9 95.68 237.55 94.94C234.79 94.06 233.55 90.4 230.76 89.74C228.64 89.28 226.47 90.86 225.55 92.79Z" fill="black"/>
<path opacity="0.1" d="M198.52 83.74C199.123 85.4281 200.077 86.9689 201.32 88.26L212.18 101.31C216.75 106.8 221.58 113.16 221.18 120.17C220.85 113.74 216.37 107.89 212.18 102.79L201.32 89.74C200.077 88.4489 199.123 86.9081 198.52 85.22C198.249 84.0371 198.151 82.821 198.23 81.61C198.246 82.3287 198.343 83.0432 198.52 83.74Z" fill="black"/>
<path opacity="0.1" d="M226.841 117.97C227.019 117.398 227.129 116.808 227.171 116.21C227.261 117.301 227.15 118.4 226.841 119.45C226.101 121.83 223.391 123.8 221.101 122.78C221.165 122.302 221.205 121.822 221.221 121.34C223.501 122.25 226.141 120.31 226.841 117.97Z" fill="black"/>
</g>
<path opacity="0.1" d="M336.15 579.22C336.15 579.22 332.71 585.22 320.25 579.94L336.15 579.22Z" fill="black"/>
<path opacity="0.1" d="M230.84 580.68C230.84 580.68 220.1 593.33 206.56 584.83L230.84 580.68Z" fill="black"/>
<path opacity="0.1" d="M199.58 431.09C199.58 431.09 207.17 435.83 207.41 438.54C207.65 441.25 203.49 436.54 203.49 436.54L199.58 431.09Z" fill="black"/>
<path opacity="0.1" d="M196.58 467.45C199.22 469.646 202.501 470.927 205.93 471.1C211.61 471.35 211.13 478.75 207.42 476.53C203.71 474.31 196.58 467.45 196.58 467.45Z" fill="black"/>
<path opacity="0.1" d="M195.14 472.2C195.14 472.2 198.78 490.09 201.74 486.64L195.14 472.2Z" fill="black"/>
<path d="M400.849 484.876L361.434 472.529C363.615 456.137 368.595 440.241 376.156 425.534L415.571 437.882C406.322 451.841 401.217 468.135 400.849 484.876V484.876Z" fill="#B15A5A"/>
<path d="M495.584 189.053C475.26 189.053 458.785 172.577 458.785 152.253C458.785 131.929 475.26 115.453 495.584 115.453C515.908 115.453 532.384 131.929 532.384 152.253C532.384 172.577 515.908 189.053 495.584 189.053Z" fill="#C9C55C"/>
<path d="M535.285 613.4L542.285 643.4H525.285L518.285 609.4L535.285 613.4Z" fill="#FBBEBE"/>
<path d="M453.285 613.4V641.4L436.285 643.4V613.4H453.285Z" fill="#FBBEBE"/>
<path d="M540.285 295.4C540.285 295.4 538.285 338.4 536.285 341.4C534.285 344.4 516.285 387.4 516.285 387.4L507.285 359.4C507.285 359.4 521.285 336.4 519.285 323.4C517.285 310.4 518.545 294.403 518.545 294.403L540.285 295.4Z" fill="#FBBEBE"/>
<path d="M483.285 191.4C467.821 191.4 455.285 178.864 455.285 163.4C455.285 147.936 467.821 135.4 483.285 135.4C498.749 135.4 511.285 147.936 511.285 163.4C511.285 178.864 498.749 191.4 483.285 191.4Z" fill="#FBBEBE"/>
<path d="M506.285 166.4C506.285 166.4 505.285 206.4 512.285 212.4C519.285 218.4 472.285 213.4 472.285 213.4C472.285 213.4 482.285 185.4 474.285 179.4C466.285 173.4 506.285 166.4 506.285 166.4Z" fill="#FBBEBE"/>
<path d="M469.285 211.4C469.285 211.4 475.285 200.4 483.285 201.4C491.285 202.4 517.285 204.4 518.285 206.4C519.285 208.4 522.285 215.4 524.285 217.4C526.285 219.4 541.285 222.4 542.285 234.4C543.285 246.4 506.285 319.4 506.285 319.4C506.285 319.4 511.285 336.4 510.285 340.4C509.285 344.4 515.285 356.4 514.285 361.4C513.285 366.4 529.285 396.4 521.285 435.4V498.4C521.285 498.4 548.285 607.4 540.285 615.4C532.285 623.4 505.285 618.4 500.285 615.4C495.285 612.4 474.285 461.4 474.285 461.4L464.285 410.4L463.285 522.4C463.285 522.4 465.285 616.4 458.285 619.4C451.285 622.4 424.285 623.4 422.285 617.4C420.725 612.721 413.082 488.212 409.794 433.634C408.655 414.795 410.136 395.889 414.197 377.458C418.359 358.581 424.401 336.402 431.285 327.4C444.285 310.4 452.285 256.4 452.285 256.4L435.285 225.4C435.285 225.4 445.285 215.4 451.285 215.4C457.285 215.4 469.285 211.4 469.285 211.4Z" fill="#2F2E41"/>
<path d="M536.285 227.4L541.558 230.99C541.558 230.99 545.285 295.4 542.285 299.4C539.285 303.4 518.427 301.448 516.856 297.924C515.285 294.4 536.285 227.4 536.285 227.4Z" fill="#2F2E41"/>
<path d="M454.285 287.4C454.285 287.4 453.285 329.4 447.285 341.4C441.285 353.4 419.285 403.4 419.285 403.4C419.285 403.4 420.562 458.432 409.423 444.916C398.285 431.4 405.285 399.4 405.285 399.4L424.285 325.4C424.285 325.4 434.285 292.4 433.285 282.4C432.285 272.4 454.285 287.4 454.285 287.4Z" fill="#FBBEBE"/>
<path d="M436.285 625.199C436.285 625.199 435.285 624.4 432.285 627.4C429.285 630.4 421.285 634.4 422.285 645.4C423.285 656.4 429.285 658.4 429.285 658.4V655.4H432.285V660.4C432.285 660.4 437.285 676.4 460.285 666.4C460.285 666.4 461.285 658.4 460.285 653.4C459.285 648.4 459.285 624.4 456.285 625.4C453.285 626.4 445.285 627.4 443.285 631.4C441.285 635.4 435.285 633.999 436.285 625.199Z" fill="#2F2E41"/>
<path d="M539.285 626.199C539.285 626.199 540.285 625.4 543.285 628.4C546.285 631.4 554.285 635.4 553.285 646.4C552.285 657.4 546.285 659.4 546.285 659.4V656.4H543.285V661.4C543.285 661.4 538.285 677.4 515.285 667.4C515.285 667.4 514.285 659.4 515.285 654.4C516.285 649.4 516.285 625.4 519.285 626.4C522.285 627.4 530.285 628.4 532.285 632.4C534.285 636.4 540.285 634.999 539.285 626.199Z" fill="#2F2E41"/>
<path d="M449.285 222.4L435.285 225.4C435.285 225.4 435.285 247.4 431.285 256.4C427.285 265.4 420.285 286.4 423.285 287.4C426.285 288.4 454.285 302.4 456.285 294.4C458.285 286.4 463.285 222.4 449.285 222.4Z" fill="#2F2E41"/>
<path d="M519.18 143C507.858 143 498.68 133.822 498.68 122.5C498.68 111.178 507.858 102 519.18 102C530.502 102 539.68 111.178 539.68 122.5C539.68 133.822 530.502 143 519.18 143Z" fill="#C9C55C"/>
<path d="M537.46 139.916C534.796 141.808 531.71 143.046 528.46 143.526C525.21 144.005 521.891 143.713 518.779 142.673C515.668 141.633 512.855 139.876 510.576 137.549C508.297 135.221 506.618 132.391 505.68 129.295C506.035 132.07 506.971 134.742 508.43 137.142C509.889 139.543 511.838 141.621 514.154 143.244C516.471 144.867 519.105 146 521.89 146.572C524.674 147.144 527.55 147.143 530.334 146.567C533.118 145.992 535.75 144.856 538.065 143.23C540.38 141.604 542.326 139.524 543.782 137.122C545.238 134.719 546.171 132.046 546.522 129.271C546.874 126.496 546.636 123.68 545.825 121C546.286 124.601 545.752 128.257 544.281 131.585C542.809 134.913 540.453 137.791 537.46 139.916V139.916Z" fill="#C9C55C"/>
<path d="M505.398 185.373C490.493 185.373 478.411 173.291 478.411 158.386C478.411 143.482 490.493 131.4 505.398 131.4C520.302 131.4 532.384 143.482 532.384 158.386C532.384 173.291 520.302 185.373 505.398 185.373Z" fill="#C9C55C"/>
<path d="M482.705 166.973C469.494 166.973 458.785 158.598 458.785 148.266C458.785 137.935 469.494 129.56 482.705 129.56C495.915 129.56 506.625 137.935 506.625 148.266C506.625 158.598 495.915 166.973 482.705 166.973Z" fill="#C9C55C"/>
<path d="M476.324 175.467C473.817 175.467 471.785 171.871 471.785 167.435C471.785 162.999 473.817 159.403 476.324 159.403C478.832 159.403 480.864 162.999 480.864 167.435C480.864 171.871 478.832 175.467 476.324 175.467Z" fill="#FBBEBE"/>
</g>
<defs>
<linearGradient id="paint0_linear" x1="-181479" y1="486173" x2="-181479" y2="140905" gradientUnits="userSpaceOnUse">
<stop stop-color="#808080" stop-opacity="0.25"/>
<stop offset="0.54" stop-color="#808080" stop-opacity="0.12"/>
<stop offset="1" stop-color="#808080" stop-opacity="0.1"/>
</linearGradient>
<clipPath id="clip0">
<rect width="723" height="684" fill="white" transform="matrix(-1 0 0 1 723 0)"/>
</clipPath>
</defs>
</svg>
