<svg width="426" height="317" viewBox="0 0 426 317" fill="none" xmlns="http://www.w3.org/2000/svg">
<g clip-path="url(#clip0)">
<path d="M209.721 317C325.546 317 419.441 307.846 419.441 296.554C419.441 285.262 325.546 276.108 209.721 276.108C93.8951 276.108 0 285.262 0 296.554C0 307.846 93.8951 317 209.721 317Z" fill="#563D3D"/>
<path opacity="0.1" d="M147.383 308.555C201.976 308.555 246.233 301.888 246.233 293.665C246.233 285.441 201.976 278.775 147.383 278.775C92.7905 278.775 48.5342 285.441 48.5342 293.665C48.5342 301.888 92.7905 308.555 147.383 308.555Z" fill="black"/>
<path d="M98.1233 115.894C51.6998 115.894 14.0703 153.462 14.0703 199.799C14.0703 246.136 51.7176 283.704 98.1233 283.704C103.843 283.706 109.548 283.128 115.15 281.979C107.153 268.854 102.934 253.782 102.959 238.42C102.959 197.91 131.723 164.103 169.98 156.244C162.488 143.92 151.939 133.732 139.352 126.664C126.765 119.596 112.565 115.887 98.1233 115.894Z" fill="#793D3D"/>
<path opacity="0.1" d="M22.5526 202.212C22.5526 155.875 60.1866 118.312 106.606 118.312C111.124 118.313 115.636 118.674 120.097 119.392C112.932 117.465 105.544 116.492 98.1233 116.499C51.6998 116.499 14.0703 154.066 14.0703 200.403C14.0703 242.185 44.6557 276.814 84.6941 283.233C66.8573 278.42 51.1053 267.877 39.8729 253.232C28.6406 238.587 22.5535 220.657 22.5526 202.212Z" fill="black"/>
<path d="M169.58 155.635C181.927 148.156 192.134 137.626 199.215 125.061C206.296 112.497 210.013 98.3216 210.006 83.9048C210.006 37.5676 172.376 0 125.953 0C79.5293 0 41.9043 37.5676 41.9043 83.9048C41.9021 89.6158 42.481 95.3121 43.6319 100.906C56.7783 92.918 71.8777 88.7053 87.2681 88.7319C127.841 88.7186 161.708 117.45 169.58 155.635Z" fill="#793D3D"/>
<path opacity="0.1" d="M202.761 83.9048C202.771 97.0449 199.685 110.003 193.751 121.732C187.818 133.462 179.204 143.634 168.605 151.426C168.966 152.817 169.3 154.217 169.593 155.635C181.94 148.156 192.147 137.626 199.228 125.061C206.31 112.497 210.026 98.3216 210.019 83.9048C210.019 37.5676 172.39 0 125.966 0C124.751 0 123.544 0.0311114 122.342 0.0844492C167.064 1.98239 202.761 38.7811 202.761 83.9048Z" fill="black"/>
<path d="M165.911 193.367C164.534 194.069 163.225 194.896 162.001 195.839C160.771 196.789 159.829 198.062 159.281 199.514C158.519 197.937 158.105 196.221 157.598 194.545C156.625 191.505 155.478 188.523 154.16 185.616C156.33 184.789 158.21 183.347 159.57 181.469C162.242 184.113 164.962 186.869 166.285 190.358C166.512 190.963 167.175 191.607 167.331 192.136C167.54 192.923 166.49 193.047 165.911 193.367Z" fill="#FFBFC5"/>
<path d="M92.335 279.01C92.335 298.843 106.668 300.945 124.354 300.945C142.04 300.945 156.369 298.843 156.369 279.01C156.369 259.177 142.036 251.643 124.354 251.643C106.673 251.643 92.335 259.182 92.335 279.01Z" fill="#3F3D56"/>
<path d="M190.93 257.786C193.835 258.701 196.544 260.148 198.918 262.053C199.096 262.164 199.226 262.339 199.279 262.542C199.341 262.986 198.727 263.187 198.281 263.315C196.946 263.693 196.131 264.924 195.165 265.885C194.198 266.845 192.649 267.605 191.522 266.836C191.226 266.609 190.968 266.338 190.756 266.031L186.001 259.844C187.613 258.943 189.309 258.199 191.064 257.622" fill="#F1F1F1"/>
<path d="M199.484 259.075C200.116 259.715 200.374 260.64 201.007 261.298C201.421 261.694 201.896 262.023 202.414 262.271L206.056 264.271C206.621 264.606 207.218 264.884 207.837 265.102C208.522 265.297 209.22 265.446 209.925 265.547C210.936 265.742 211.924 266.04 212.873 266.436C213.585 266.729 214.383 267.231 214.378 268C214.347 268.378 214.19 268.735 213.933 269.014C212.499 270.818 209.957 271.236 207.659 271.463C202.69 271.987 197.605 272.379 192.747 271.21C191.798 271.035 190.901 270.648 190.124 270.076C188.659 268.863 188.343 266.654 188.913 264.836C189.068 264.137 189.481 263.523 190.071 263.116C190.841 262.671 191.799 262.88 192.685 262.813C193.618 262.682 194.521 262.392 195.356 261.955C195.913 261.707 196.55 261.382 196.692 260.724C196.835 260.066 196.082 259.497 196.247 258.946C196.558 257.706 198.905 258.484 199.484 259.075Z" fill="#575A89"/>
<path opacity="0.1" d="M199.484 259.075C200.116 259.715 200.374 260.64 201.007 261.298C201.421 261.694 201.896 262.023 202.414 262.271L206.056 264.271C206.621 264.606 207.218 264.884 207.837 265.102C208.522 265.297 209.22 265.446 209.925 265.547C210.936 265.742 211.924 266.04 212.873 266.436C213.585 266.729 214.383 267.231 214.378 268C214.347 268.378 214.19 268.735 213.933 269.014C212.499 270.818 209.957 271.236 207.659 271.463C202.69 271.987 197.605 272.379 192.747 271.21C191.798 271.035 190.901 270.648 190.124 270.076C188.659 268.863 188.343 266.654 188.913 264.836C189.068 264.137 189.481 263.523 190.071 263.116C190.841 262.671 191.799 262.88 192.685 262.813C193.618 262.682 194.521 262.392 195.356 261.955C195.913 261.707 196.55 261.382 196.692 260.724C196.835 260.066 196.082 259.497 196.247 258.946C196.558 257.706 198.905 258.484 199.484 259.075Z" fill="black"/>
<path d="M207.931 278.926L209.463 279.935C209.93 280.184 210.316 280.564 210.571 281.028C210.905 281.806 210.455 282.686 209.957 283.371C208.46 285.414 206.417 286.994 204.061 287.931C203.245 288.27 202.382 288.485 201.501 288.567C201.301 288.599 201.096 288.575 200.909 288.495C200.441 288.247 200.508 287.584 200.504 287.055C200.504 285.531 199.333 284.291 198.277 283.166C197.222 282.042 196.18 280.664 196.421 279.166C196.641 278.276 197.103 277.463 197.756 276.819C198.33 276.096 199.005 275.46 199.76 274.93C200.842 274.223 201.221 274.605 202.236 275.25C204.145 276.462 206.043 277.687 207.931 278.926Z" fill="#F1F1F1"/>
<path d="M202.961 286.366C203.377 286.471 203.812 286.477 204.231 286.383C204.649 286.288 205.04 286.097 205.37 285.824C206.029 285.273 206.561 284.588 206.933 283.815C207.307 283.131 207.631 282.421 207.904 281.69C208.224 280.832 208.518 279.886 209.275 279.366C210.166 278.735 211.475 278.983 212.392 279.592C213.309 280.201 214.004 281.104 214.792 281.886C216.649 283.735 219.093 284.904 221.605 285.668C224.116 286.433 226.721 286.815 229.299 287.309C229.816 287.378 230.317 287.539 230.777 287.784C231.819 288.42 232.171 289.838 231.877 291.02C231.583 292.202 230.813 293.18 229.971 294.069C229.27 294.898 228.4 295.57 227.42 296.038C226.593 296.339 225.722 296.504 224.842 296.527C220.571 296.815 216.281 296.48 212.107 295.531C210.575 295.114 209.016 294.803 207.441 294.603C206.483 294.518 205.513 294.545 204.555 294.478C202.643 294.347 200.772 293.855 199.043 293.029C198.623 292.874 198.269 292.579 198.041 292.193C197.916 291.84 197.889 291.459 197.965 291.091L198.602 285.517C198.66 285.033 198.82 284.428 199.306 284.353C199.791 284.277 200.098 284.753 200.388 285.117C200.949 285.787 201.718 286.252 202.573 286.439C203.428 286.626 204.321 286.523 205.112 286.148" fill="#575A89"/>
<path d="M165.987 216.076C168.788 215.76 172.038 215.707 173.935 217.792C175.097 219.072 175.449 220.863 175.85 222.539C176.478 225.358 177.5 228.075 178.886 230.611C179.777 232.184 180.859 233.655 181.558 235.327C182.257 236.998 182.52 238.882 182.929 240.7C184.57 247.83 188.578 254.196 194.301 258.764C193.291 261.507 190.365 263.076 187.52 263.778C186.833 264.005 186.096 264.028 185.396 263.844C184.866 263.616 184.396 263.269 184.02 262.831C182.691 261.397 181.452 259.881 180.311 258.293C176.21 252.826 172.051 247.248 169.816 240.798C169.033 238.531 168.249 235.909 166.045 234.944C164.789 234.402 163.351 234.571 162.002 234.802C158.987 235.311 156.02 236.071 153.132 237.073C150.051 238.145 146.524 239.46 143.706 237.825C142.018 236.842 141.034 234.962 140.647 233.051C140.259 231.139 140.455 229.166 140.647 227.228C140.666 226.355 140.875 225.496 141.261 224.712C141.652 224.126 142.152 223.62 142.735 223.223C145.253 221.319 148.053 219.82 151.035 218.778C153.88 217.774 156.944 217.445 159.913 216.943C161.929 216.593 163.954 216.304 165.987 216.076Z" fill="#575A89"/>
<path opacity="0.1" d="M165.987 216.076C168.788 215.76 172.038 215.707 173.935 217.792C175.097 219.072 175.449 220.863 175.85 222.539C176.478 225.358 177.5 228.075 178.886 230.611C179.777 232.184 180.859 233.655 181.558 235.327C182.257 236.998 182.52 238.882 182.929 240.7C184.57 247.83 188.578 254.196 194.301 258.764C193.291 261.507 190.365 263.076 187.52 263.778C186.833 264.005 186.096 264.028 185.396 263.844C184.866 263.616 184.396 263.269 184.02 262.831C182.691 261.397 181.452 259.881 180.311 258.293C176.21 252.826 172.051 247.248 169.816 240.798C169.033 238.531 168.249 235.909 166.045 234.944C164.789 234.402 163.351 234.571 162.002 234.802C158.987 235.311 156.02 236.071 153.132 237.073C150.051 238.145 146.524 239.46 143.706 237.825C142.018 236.842 141.034 234.962 140.647 233.051C140.259 231.139 140.455 229.166 140.647 227.228C140.666 226.355 140.875 225.496 141.261 224.712C141.652 224.126 142.152 223.62 142.735 223.223C145.253 221.319 148.053 219.82 151.035 218.778C153.88 217.774 156.944 217.445 159.913 216.943C161.929 216.593 163.954 216.304 165.987 216.076Z" fill="black"/>
<path d="M182.025 236.246C183.333 236.899 184.534 237.746 185.587 238.758C186.723 239.967 187.413 241.527 188.001 243.083C188.231 243.613 188.373 244.178 188.419 244.754C188.441 245.042 188.396 245.331 188.289 245.599C188.182 245.867 188.014 246.107 187.8 246.301C187.283 246.639 186.667 246.796 186.05 246.745C185.24 246.745 184.425 246.745 183.615 246.683C183.121 246.679 182.632 246.586 182.172 246.407C181.751 246.193 181.371 245.905 181.05 245.558C179.622 244.235 178.452 242.658 177.599 240.909C177.011 239.616 176.041 236.629 176.967 235.282C177.893 233.935 181.019 235.673 182.025 236.246Z" fill="#FFBFC5"/>
<path d="M142.739 235.784C146.885 237.118 151.297 237.26 155.63 237.664C162.917 238.345 170.115 239.766 177.114 241.905C178.548 242.349 180.012 242.829 181.166 243.785C182.103 244.65 182.897 245.658 183.517 246.772C184.655 248.503 185.686 250.302 186.602 252.159C187.391 253.839 187.992 255.599 188.722 257.302C191.182 263.004 195.073 267.978 200.018 271.743C200.909 272.432 201.929 273.178 202.16 274.285C202.265 274.999 202.149 275.728 201.826 276.374C200.757 278.859 198.54 280.668 196.211 282.05C195.214 282.646 194.11 283.246 193.62 284.304C190.084 282.846 187.453 279.735 185.267 276.605C183.08 273.476 181.135 270.103 178.329 267.507C177.096 266.36 175.693 265.364 174.718 263.987C173.236 261.889 172.835 259.017 170.84 257.399C168.845 255.781 165.942 255.99 163.364 256.244C150.155 257.529 136.845 257.38 123.668 255.799C120.93 255.475 118.116 255.057 115.743 253.648C113.369 252.239 111.522 249.608 111.856 246.874C112.172 244.314 114.304 242.287 116.687 241.287C119.069 240.287 121.696 240.105 124.256 239.816C130.628 239.113 136.71 237.958 142.739 235.784Z" fill="#575A89"/>
<path d="M104.852 241.096C105.177 238.927 106.018 236.873 106.548 234.744C106.813 233.404 107.149 232.079 107.555 230.775C107.555 230.735 107.586 230.699 107.599 230.664C107.733 230.653 107.864 230.613 107.981 230.546C108.098 230.479 108.198 230.387 108.276 230.277C108.349 230.088 108.369 229.882 108.334 229.682C108.318 229.47 108.318 229.258 108.334 229.046C109.202 227.594 110.15 226.192 111.175 224.846C112.956 222.308 114.523 219.61 116.073 216.916C117.346 214.694 118.619 212.498 119.67 210.178C120.463 208.44 121.126 206.622 121.999 204.942C125.116 198.897 130.691 194.439 136.693 191.238C142.455 188.167 148.684 186.1 154.739 183.656C154.894 183.81 155.035 183.976 155.162 184.153C158.435 188.62 158.787 194.488 160.136 199.857C160.679 202.026 161.405 204.186 161.405 206.417C161.405 209.715 159.824 212.782 158.253 215.685C156.779 218.418 155.26 221.152 153.306 223.566C152.38 224.712 151.36 225.788 150.429 226.921C146.609 231.593 144.405 237.34 142.259 242.981C141.021 246.247 138.99 249.141 137.628 252.359C137.102 253.595 136.8 254.924 136.141 256.097C135.482 257.271 134.337 258.293 132.993 258.32C132.599 258.307 132.209 258.246 131.831 258.137C126.964 256.888 122.89 253.693 118.847 250.697C118.121 250.163 117.395 249.639 116.62 249.159C115.845 248.679 115.062 248.239 114.269 247.825L112.461 246.834C110.493 245.759 108.516 244.678 106.464 243.767C105.844 243.526 105.248 243.228 104.683 242.878C104.689 242.28 104.745 241.684 104.852 241.096Z" fill="#3F3D56"/>
<path d="M168.472 192.994C174.664 192.994 179.683 187.983 179.683 181.802C179.683 175.621 174.664 170.61 168.472 170.61C162.279 170.61 157.26 175.621 157.26 181.802C157.26 187.983 162.279 192.994 168.472 192.994Z" fill="#FFBFC5"/>
<path d="M177.196 177.645C176.702 177.413 176.292 177.037 176.018 176.566C175.524 175.588 176.268 175.93 175.212 175.348C174.482 174.97 173.449 174.779 172.764 175.348C172.078 175.917 171.312 175.508 170.551 176.024C169.638 176.642 168.578 176.877 167.639 177.424C166.979 177.872 166.398 178.426 165.92 179.064C165.438 179.702 164.807 180.212 164.081 180.549C163.884 180.791 164.303 180.682 159.406 183.793C157.847 184.46 156.132 184.929 155.915 184.913H154.459C153.648 184.904 152.762 184.856 152.232 184.264C151.856 183.753 151.697 183.114 151.787 182.486C151.849 181.193 151.217 177.499 151.391 176.015C151.217 174.535 151.613 174.459 151.613 173.348C152.277 171.783 152.21 171.272 152.655 169.628C152.973 168.729 153.523 167.93 154.249 167.312C155.087 166.485 155.959 165.697 156.868 164.947C157.529 164.365 158.266 163.875 159.058 163.489C162.286 162.058 162.968 162.236 166.752 162.236C168.088 162.236 171.579 162.707 172.63 162.671C174.816 162.6 176.802 164.174 177.822 166.107C178.102 166.641 178.467 167.05 178.779 167.57C179.803 168.748 179.322 168.459 179.888 169.125C180.265 169.57 180.807 170.275 181.223 170.681C181.771 171.343 181.985 172.055 181.891 172.903C181.81 173.99 181.903 175.08 181.357 176.024C181.082 176.494 180.709 176.901 180.265 177.217C179.821 177.533 179.314 177.752 178.779 177.859C178.242 177.951 177.689 177.876 177.196 177.645Z" fill="#C9C55C"/>
<path d="M131.576 189.349C138.923 182.682 141.308 178.273 142.642 168.964C145.11 152.903 158.961 168.833 158.961 168.833C158.961 168.833 153.924 163.04 148.59 171.396C144.489 180.46 137.605 190.613 131.576 189.349Z" fill="#C9C55C"/>
<path d="M152.428 171.038C153.773 168.646 156.736 165.521 158.64 164.366L156.992 162.874C156.073 165.069 153.138 168.197 150.78 169.547L152.428 171.038Z" fill="#3F3D56"/>
<path d="M177.947 172.529C177.947 172.529 175.687 174.801 167.747 175.617C159.808 176.432 163.782 191.85 163.782 191.85C163.782 191.85 161.829 186.99 166.582 183.044C171.334 179.098 177.616 177.877 177.947 172.529Z" fill="#C9C55C"/>
<path opacity="0.1" d="M150.113 196.283C152.73 195.91 155.398 196.123 157.923 196.905C158.766 197.099 159.527 197.552 160.1 198.199C160.428 198.687 160.641 199.243 160.724 199.826C161.238 202.503 160.907 205.274 159.775 207.755C159.696 207.879 159.643 208.018 159.621 208.164C159.598 208.309 159.607 208.458 159.646 208.6C159.761 208.778 159.913 208.929 160.091 209.044C160.248 209.196 160.371 209.379 160.453 209.581C160.534 209.783 160.571 210.001 160.562 210.218C160.553 210.436 160.499 210.65 160.401 210.845C160.304 211.04 160.167 211.213 159.998 211.351C159.789 211.502 159.512 211.635 159.472 211.889C159.432 212.142 159.691 212.387 159.895 212.582C160.194 212.874 160.414 213.236 160.536 213.636C160.657 214.035 160.676 214.458 160.59 214.867C160.48 215.194 160.404 215.533 160.363 215.876C160.407 216.297 160.533 216.706 160.733 217.08C161.073 217.926 161.188 218.844 161.066 219.747C160.959 220.174 160.948 220.619 161.035 221.05C161.16 221.334 161.329 221.598 161.534 221.832C162.34 222.916 162.514 224.73 161.347 225.388C161.847 225.645 162.254 226.051 162.512 226.549C162.77 227.048 162.865 227.615 162.785 228.17C163.484 227.801 164.33 228.277 164.914 228.81C165.497 229.344 166.089 230.001 166.877 230.041C167.429 230.068 168.013 229.784 168.511 230.01C169.277 230.353 169.25 231.593 170.003 231.962C170.662 232.291 171.584 231.757 172.145 232.233C172.341 232.397 172.439 232.651 172.63 232.824C173.053 233.215 173.721 233.051 174.3 233.024C175.667 232.971 176.927 233.913 177.635 235.06C178.343 236.206 178.597 237.607 178.779 238.958C178.93 239.7 178.914 240.466 178.735 241.202C178.64 241.568 178.44 241.898 178.159 242.151C177.878 242.404 177.528 242.569 177.154 242.625C170.275 243.069 163.484 241.42 156.783 239.793C154.815 239.313 152.816 238.753 151.173 237.571C149.681 236.491 148.586 234.971 147.517 233.477C145.544 230.717 143.559 227.939 142.147 224.859C140.33 220.898 139.52 216.56 138.727 212.271C138.454 211.122 138.357 209.938 138.438 208.76C138.678 207.382 139.206 206.071 139.988 204.91C140.93 203.374 141.971 201.9 143.104 200.497C144.828 198.377 147.406 196.67 150.113 196.283Z" fill="black"/>
<path d="M150.563 195.839C153.182 195.466 155.851 195.68 158.377 196.465C159.221 196.656 159.983 197.107 160.555 197.754C160.881 198.244 161.094 198.799 161.178 199.381C161.691 202.059 161.359 204.829 160.23 207.311C160.15 207.435 160.097 207.574 160.075 207.719C160.053 207.865 160.061 208.013 160.1 208.155C160.216 208.333 160.367 208.485 160.546 208.6C160.703 208.751 160.826 208.934 160.907 209.137C160.988 209.339 161.025 209.556 161.017 209.774C161.008 209.992 160.953 210.205 160.856 210.401C160.758 210.596 160.621 210.768 160.452 210.907C160.243 211.058 159.967 211.191 159.927 211.444C159.887 211.698 160.145 211.942 160.372 212.138C160.671 212.43 160.891 212.792 161.012 213.191C161.134 213.591 161.152 214.014 161.067 214.422C160.956 214.75 160.88 215.088 160.84 215.431C160.882 215.853 161.006 216.262 161.205 216.636C161.548 217.48 161.665 218.4 161.543 219.303C161.405 219.657 161.376 220.045 161.46 220.416C161.543 220.787 161.735 221.125 162.011 221.387C162.817 222.472 162.99 224.286 161.824 224.97C162.324 225.226 162.731 225.631 162.989 226.129C163.247 226.627 163.342 227.193 163.262 227.748C163.961 227.379 164.807 227.855 165.39 228.388C165.973 228.921 166.566 229.579 167.354 229.619C167.906 229.646 168.485 229.361 168.988 229.588C169.754 229.935 169.727 231.171 170.48 231.544C171.139 231.868 172.06 231.335 172.621 231.811C172.817 231.975 172.915 232.228 173.107 232.402C173.53 232.793 174.198 232.628 174.776 232.602C176.143 232.548 177.403 233.491 178.111 234.637C178.756 235.845 179.145 237.172 179.256 238.536C179.398 239.271 179.383 240.029 179.211 240.758C179.117 241.124 178.916 241.454 178.635 241.707C178.354 241.96 178.005 242.124 177.631 242.18C170.751 242.625 163.961 240.976 157.26 239.349C155.292 238.869 153.288 238.309 151.649 237.127C150.158 236.051 149.062 234.526 147.994 233.033C146.021 230.277 144.035 227.499 142.624 224.419C140.807 220.454 139.997 216.116 139.204 211.831C138.931 210.68 138.833 209.495 138.915 208.315C139.142 206.939 139.656 205.626 140.424 204.462C141.364 202.925 142.406 201.452 143.541 200.052C145.282 197.923 147.86 196.221 150.563 195.839Z" fill="#3F3D56"/>
<path d="M404.828 117.392C406.031 117.163 407.175 116.69 408.188 116.003C409.201 115.315 410.062 114.427 410.718 113.393C411.373 112.36 411.809 111.204 411.999 109.995C412.189 108.787 412.128 107.553 411.82 106.369C411.513 105.185 410.965 104.076 410.212 103.112C409.458 102.148 408.514 101.348 407.438 100.763C406.362 100.178 405.178 99.8189 403.957 99.709C402.737 99.5991 401.507 99.7404 400.344 100.124C403.832 105.172 405.42 111.288 404.828 117.392Z" fill="#F1F1F1"/>
<path d="M418.715 113.778C419.919 113.55 421.063 113.077 422.076 112.389C423.089 111.701 423.95 110.813 424.605 109.78C425.261 108.746 425.697 107.59 425.887 106.381C426.076 105.173 426.016 103.939 425.708 102.755C425.401 101.571 424.853 100.463 424.099 99.4983C423.346 98.5341 422.402 97.7346 421.326 97.1493C420.25 96.5639 419.065 96.2052 417.845 96.0952C416.625 95.9853 415.395 96.1266 414.231 96.5103C417.72 101.558 419.308 107.675 418.715 113.778Z" fill="#F1F1F1"/>
<path d="M404.828 117.392C402.594 117.817 400.283 117.377 398.362 116.163C396.441 114.949 395.055 113.051 394.485 110.854C393.914 108.657 394.202 106.326 395.291 104.334C396.379 102.341 398.185 100.836 400.344 100.124C397.321 95.7547 393.028 92.4165 388.044 90.5605C383.06 88.7045 377.626 88.42 372.475 89.7455C383.224 104.081 388.168 121.933 386.322 139.745C391.286 138.283 395.699 135.374 398.996 131.391C402.293 127.409 404.324 122.534 404.828 117.392Z" fill="#F1F1F1"/>
<path d="M244.616 124.779C239.606 125.85 235.025 128.374 231.448 132.034C227.87 135.695 225.456 140.329 224.508 145.354C226.663 145.308 228.763 146.04 230.421 147.415C232.08 148.791 233.185 150.717 233.535 152.841C233.885 154.964 233.455 157.143 232.325 158.975C231.195 160.808 229.441 162.173 227.384 162.818C230.33 168.075 235.018 172.144 240.642 174.325C246.267 176.506 252.477 176.664 258.206 174.77C247.551 160.4 242.7 142.555 244.616 124.779Z" fill="#F1F1F1"/>
<path d="M224.517 145.354C223.231 145.378 221.966 145.677 220.806 146.231C219.646 146.786 218.62 147.583 217.796 148.569C216.973 149.555 216.372 150.707 216.034 151.945C215.696 153.184 215.629 154.48 215.837 155.747C216.046 157.014 216.525 158.221 217.243 159.286C217.96 160.351 218.899 161.25 219.995 161.921C221.092 162.591 222.32 163.019 223.596 163.174C224.873 163.329 226.168 163.207 227.393 162.818C224.42 157.511 223.402 151.332 224.517 145.354Z" fill="#F1F1F1"/>
<path d="M208.135 149.221C206.849 149.244 205.584 149.543 204.424 150.098C203.264 150.653 202.238 151.45 201.415 152.436C200.591 153.422 199.99 154.574 199.652 155.812C199.314 157.051 199.247 158.347 199.456 159.614C199.664 160.881 200.144 162.087 200.861 163.153C201.579 164.218 202.517 165.117 203.614 165.787C204.71 166.458 205.938 166.886 207.215 167.041C208.491 167.196 209.786 167.074 211.012 166.685C208.041 161.377 207.023 155.199 208.135 149.221Z" fill="#F1F1F1"/>
<path d="M345.287 67.8279L330.855 85.4782C331.548 86.5622 332.157 87.6975 332.677 88.8741L348.564 69.4458C347.473 68.8546 346.391 68.3124 345.287 67.8279Z" fill="#F1F1F1"/>
<path d="M386.322 139.745C383.018 140.704 379.556 140.998 376.136 140.61C372.717 140.222 369.409 139.161 366.404 137.486C363.4 135.812 360.758 133.559 358.632 130.857C356.507 128.155 354.94 125.059 354.023 121.748C353.106 118.437 352.857 114.978 353.291 111.57C353.724 108.162 354.831 104.874 356.548 101.897C358.264 98.9195 360.556 96.3122 363.29 94.2262C366.024 92.1403 369.146 90.6172 372.475 89.7454C366.716 82.1039 359.484 75.69 351.204 70.8815L355.114 74.0685L334.898 98.7906C335.008 103.669 333.737 108.48 331.232 112.67C328.726 116.86 325.087 120.259 320.733 122.478C316.379 124.696 311.486 125.644 306.617 125.212C301.748 124.779 297.1 122.985 293.206 120.034C289.313 117.083 286.332 113.096 284.606 108.53C282.881 103.965 282.48 99.0055 283.451 94.2228C284.422 89.4402 286.724 85.0278 290.094 81.4926C293.464 77.9574 297.764 75.4427 302.501 74.2374L300.876 72.9039L310.226 61.4763C293.598 62.6963 277.925 69.6996 265.937 81.2666C253.948 92.8335 246.403 108.232 244.616 124.779C251.123 123.373 257.922 124.514 263.61 127.966C269.299 131.418 273.443 136.918 275.187 143.331C276.932 149.744 276.144 156.581 272.985 162.432C269.827 168.282 264.54 172.698 258.215 174.77C266.765 186.29 278.603 194.96 292.176 199.645C305.75 204.33 320.425 204.811 334.277 201.024C348.128 197.237 360.51 189.359 369.798 178.423C379.086 167.488 384.846 154.006 386.322 139.745ZM309.18 186.767C305.197 183.523 302.267 179.173 300.761 174.266C299.254 169.36 299.239 164.118 300.717 159.203C302.196 154.289 305.101 149.922 309.065 146.655C313.03 143.389 317.876 141.369 322.99 140.852C328.105 140.335 333.258 141.343 337.798 143.749C342.338 146.156 346.062 149.852 348.497 154.371C350.933 158.89 351.972 164.029 351.482 169.137C350.992 174.245 348.996 179.093 345.745 183.069C341.387 188.399 335.087 191.783 328.23 192.476C321.373 193.17 314.52 191.116 309.18 186.767Z" fill="#F1F1F1"/>
<path d="M324.826 61.903C323.416 61.7163 322 61.5681 320.579 61.4585L310.747 73.4862C312.127 73.5785 313.497 73.7821 314.844 74.0951L324.826 61.903Z" fill="#F1F1F1"/>
<path d="M325.481 79.3845L337.446 64.7521C336.217 64.3521 334.982 63.9876 333.741 63.6587L322.578 77.3087C323.546 77.905 324.474 78.5627 325.357 79.2778L325.481 79.3845Z" fill="#F1F1F1"/>
</g>
<defs>
<clipPath id="clip0">
<rect width="426" height="317" fill="white"/>
</clipPath>
</defs>
</svg>
