<svg width="1440" height="31" viewBox="0 0 1440 31" fill="none" xmlns="http://www.w3.org/2000/svg">
<rect width="1440" height="31" fill="#7C75E2"/>
<path fill-rule="evenodd" clip-rule="evenodd" d="M232 0L234 10L234.981 9.80388L233.02 0H240V31H210V24H209V31H165L171 14L170.057 13.6672L164.057 30.6672L165 31H137V28H136V31H86L84 25L83.0513 25.3162L84.9459 31H31V25H30V31H10.8333L15 16L14.0365 15.7324L9.79547 31H0V0H21L22 9L22.9939 8.88957L22.0062 0H54V12H55V0H117L115 8L115.97 8.24254L117.97 0.242536L117 0H187V9H188V0H232Z" fill="#793D3D"/>
<path fill-rule="evenodd" clip-rule="evenodd" d="M472 0L474 10L474.981 9.80388L473.02 0H480V31H450V24H449V31H405L411 14L410.057 13.6672L404.057 30.6672L405 31H377V28H376V31H326L324 25L323.051 25.3162L324.946 31H271V25H270V31H250.833L255 16L254.036 15.7324L249.795 31H240V0H261L262 9L262.994 8.88957L262.006 0H294V12H295V0H357L355 8L355.97 8.24254L357.97 0.242536L357 0H427V9H428V0H472Z" fill="#EEE857"/>
<path fill-rule="evenodd" clip-rule="evenodd" d="M512 9L511 0H480V31H499.795L504.036 15.7324L505 16L500.833 31H520V25H521V31H574.946L573.051 25.3162L574 25L576 31H626V28H627V31H655H699V24H700V31H720V0H678V9H677V0H607H545V12H544V0H512.006L512.994 8.88957L512 9ZM655 31L654.057 30.6672L660.057 13.6672L661 14L655 31ZM605 8L607 0L607.97 0.242536L605.97 8.24254L605 8Z" fill="#7B74E0"/>
<path fill-rule="evenodd" clip-rule="evenodd" d="M752 9L751 0H720V31H739.795L744.036 15.7324L745 16L740.833 31H760V25H761V31H814.946L813.051 25.3162L814 25L816 31H866V28H867V31H895H939V24H940V31H960V0H918V9H917V0H847H785V12H784V0H752.006L752.994 8.88957L752 9ZM895 31L894.057 30.6672L900.057 13.6672L901 14L895 31ZM845 8L847 0L847.97 0.242536L845.97 8.24254L845 8Z" fill="#793D3D"/>
<path fill-rule="evenodd" clip-rule="evenodd" d="M1192 0L1194 10L1194.98 9.80388L1193.02 0H1200V31H1170V24H1169V31H1125L1131 14L1130.06 13.6672L1124.06 30.6672L1125 31H1097V28H1096V31H1046L1044 25L1043.05 25.3162L1044.95 31H991V25H990V31H970.833L975 16L974.036 15.7324L969.795 31H960V0H981L982 9L982.994 8.88957L982.006 0H1014V12H1015V0H1077L1075 8L1075.97 8.24254L1077.97 0.242536L1077 0H1147V9H1148V0H1192Z" fill="#EEE857"/>
<path fill-rule="evenodd" clip-rule="evenodd" d="M1432 0L1434 10L1434.98 9.80388L1433.02 0H1440V31H1410V24H1409V31H1365L1371 14L1370.06 13.6672L1364.06 30.6672L1365 31H1337V28H1336V31H1286L1284 25L1283.05 25.3162L1284.95 31H1231V25H1230V31H1210.83L1215 16L1214.04 15.7324L1209.8 31H1200V0H1221L1222 9L1222.99 8.88957L1222.01 0H1254V12H1255V0H1317L1315 8L1315.97 8.24254L1317.97 0.242536L1317 0H1387V9H1388V0H1432Z" fill="#7B74E0"/>
</svg>
